<?xml version="1.0" encoding="utf-8" standalone="no"?>
<!DOCTYPE svg PUBLIC "-//W3C//DTD SVG 1.1//EN"
  "http://www.w3.org/Graphics/SVG/1.1/DTD/svg11.dtd">
<svg xmlns:xlink="http://www.w3.org/1999/xlink" width="460.8pt" height="345.6pt" viewBox="0 0 460.8 345.6" xmlns="http://www.w3.org/2000/svg" version="1.1">
 <metadata>
  <rdf:RDF xmlns:dc="http://purl.org/dc/elements/1.1/" xmlns:cc="http://creativecommons.org/ns#" xmlns:rdf="http://www.w3.org/1999/02/22-rdf-syntax-ns#">
   <cc:Work>
    <dc:type rdf:resource="http://purl.org/dc/dcmitype/StillImage"/>
    <dc:date>2024-04-07T15:43:04.455343</dc:date>
    <dc:format>image/svg+xml</dc:format>
    <dc:creator>
     <cc:Agent>
      <dc:title>Matplotlib v3.7.1, https://matplotlib.org/</dc:title>
     </cc:Agent>
    </dc:creator>
   </cc:Work>
  </rdf:RDF>
 </metadata>
 <defs>
  <style type="text/css">*{stroke-linejoin: round; stroke-linecap: butt}</style>
 </defs>
 <g id="figure_1">
  <g id="patch_1">
   <path d="M 0 345.6 
L 460.8 345.6 
L 460.8 0 
L 0 0 
z
" style="fill: #ffffff"/>
  </g>
  <g id="axes_1">
   <g id="patch_2">
    <path d="M 57.6 307.584 
L 414.72 307.584 
L 414.72 41.472 
L 57.6 41.472 
z
" style="fill: #ffffff"/>
   </g>
   <g id="patch_3">
    <path d="M 73.832727 307.584 
L 74.863377 307.584 
L 74.863377 281.25816 
L 73.832727 281.25816 
z
" clip-path="url(#pe7e8e87452)" style="fill: #3e4ba8"/>
   </g>
   <g id="patch_4">
    <path d="M 74.863377 307.584 
L 75.894026 307.584 
L 75.894026 291.229624 
L 74.863377 291.229624 
z
" clip-path="url(#pe7e8e87452)" style="fill: #3e4ba8"/>
   </g>
   <g id="patch_5">
    <path d="M 75.894026 307.584 
L 76.924675 307.584 
L 76.924675 298.250398 
L 75.894026 298.250398 
z
" clip-path="url(#pe7e8e87452)" style="fill: #3e4ba8"/>
   </g>
   <g id="patch_6">
    <path d="M 76.924675 307.584 
L 77.955325 307.584 
L 77.955325 302.926111 
L 76.924675 302.926111 
z
" clip-path="url(#pe7e8e87452)" style="fill: #3e4ba8"/>
   </g>
   <g id="patch_7">
    <path d="M 77.955325 307.584 
L 78.985974 307.584 
L 78.985974 304.445765 
L 77.955325 304.445765 
z
" clip-path="url(#pe7e8e87452)" style="fill: #3e4ba8"/>
   </g>
   <g id="patch_8">
    <path d="M 78.985974 307.584 
L 80.016623 307.584 
L 80.016623 302.327313 
L 78.985974 302.327313 
z
" clip-path="url(#pe7e8e87452)" style="fill: #3e4ba8"/>
   </g>
   <g id="patch_9">
    <path d="M 80.016623 307.584 
L 81.047273 307.584 
L 81.047273 306.260155 
L 80.016623 306.260155 
z
" clip-path="url(#pe7e8e87452)" style="fill: #3e4ba8"/>
   </g>
   <g id="patch_10">
    <path d="M 81.047273 307.584 
L 82.077922 307.584 
L 82.077922 302.476362 
L 81.047273 302.476362 
z
" clip-path="url(#pe7e8e87452)" style="fill: #3e4ba8"/>
   </g>
   <g id="patch_11">
    <path d="M 82.077922 307.584 
L 83.108571 307.584 
L 83.108571 299.80409 
L 82.077922 299.80409 
z
" clip-path="url(#pe7e8e87452)" style="fill: #3e4ba8"/>
   </g>
   <g id="patch_12">
    <path d="M 83.108571 307.584 
L 84.139221 307.584 
L 84.139221 302.818936 
L 83.108571 302.818936 
z
" clip-path="url(#pe7e8e87452)" style="fill: #3e4ba8"/>
   </g>
   <g id="patch_13">
    <path d="M 84.139221 307.584 
L 85.16987 307.584 
L 85.16987 292.192673 
L 84.139221 292.192673 
z
" clip-path="url(#pe7e8e87452)" style="fill: #3e4ba8"/>
   </g>
   <g id="patch_14">
    <path d="M 85.16987 307.584 
L 86.200519 307.584 
L 86.200519 289.540334 
L 85.16987 289.540334 
z
" clip-path="url(#pe7e8e87452)" style="fill: #3e4ba8"/>
   </g>
   <g id="patch_15">
    <path d="M 86.200519 307.584 
L 87.231169 307.584 
L 87.231169 291.689396 
L 86.200519 291.689396 
z
" clip-path="url(#pe7e8e87452)" style="fill: #3e4ba8"/>
   </g>
   <g id="patch_16">
    <path d="M 87.231169 307.584 
L 88.261818 307.584 
L 88.261818 292.980632 
L 87.231169 292.980632 
z
" clip-path="url(#pe7e8e87452)" style="fill: #3e4ba8"/>
   </g>
   <g id="patch_17">
    <path d="M 88.261818 307.584 
L 89.292468 307.584 
L 89.292468 293.929638 
L 88.261818 293.929638 
z
" clip-path="url(#pe7e8e87452)" style="fill: #3e4ba8"/>
   </g>
   <g id="patch_18">
    <path d="M 89.292468 307.584 
L 90.323117 307.584 
L 90.323117 297.033985 
L 89.292468 297.033985 
z
" clip-path="url(#pe7e8e87452)" style="fill: #3e4ba8"/>
   </g>
   <g id="patch_19">
    <path d="M 90.323117 307.584 
L 91.353766 307.584 
L 91.353766 294.842995 
L 90.323117 294.842995 
z
" clip-path="url(#pe7e8e87452)" style="fill: #3e4ba8"/>
   </g>
   <g id="patch_20">
    <path d="M 91.353766 307.584 
L 92.384416 307.584 
L 92.384416 293.430617 
L 91.353766 293.430617 
z
" clip-path="url(#pe7e8e87452)" style="fill: #3e4ba8"/>
   </g>
   <g id="patch_21">
    <path d="M 92.384416 307.584 
L 93.415065 307.584 
L 93.415065 283.92565 
L 92.384416 283.92565 
z
" clip-path="url(#pe7e8e87452)" style="fill: #3e4ba8"/>
   </g>
   <g id="patch_22">
    <path d="M 93.415065 307.584 
L 94.445714 307.584 
L 94.445714 286.932033 
L 93.415065 286.932033 
z
" clip-path="url(#pe7e8e87452)" style="fill: #3e4ba8"/>
   </g>
   <g id="patch_23">
    <path d="M 94.445714 307.584 
L 95.476364 307.584 
L 95.476364 297.186425 
L 94.445714 297.186425 
z
" clip-path="url(#pe7e8e87452)" style="fill: #3e4ba8"/>
   </g>
   <g id="patch_24">
    <path d="M 95.476364 307.584 
L 96.507013 307.584 
L 96.507013 299.454443 
L 95.476364 299.454443 
z
" clip-path="url(#pe7e8e87452)" style="fill: #3e4ba8"/>
   </g>
   <g id="patch_25">
    <path d="M 96.507013 307.584 
L 97.537662 307.584 
L 97.537662 302.088006 
L 96.507013 302.088006 
z
" clip-path="url(#pe7e8e87452)" style="fill: #3e4ba8"/>
   </g>
   <g id="patch_26">
    <path d="M 97.537662 307.584 
L 98.568312 307.584 
L 98.568312 301.86109 
L 97.537662 301.86109 
z
" clip-path="url(#pe7e8e87452)" style="fill: #3e4ba8"/>
   </g>
   <g id="patch_27">
    <path d="M 98.568312 307.584 
L 99.598961 307.584 
L 99.598961 304.754472 
L 98.568312 304.754472 
z
" clip-path="url(#pe7e8e87452)" style="fill: #3e4ba8"/>
   </g>
   <g id="patch_28">
    <path d="M 99.598961 307.584 
L 100.62961 307.584 
L 100.62961 302.563497 
L 99.598961 302.563497 
z
" clip-path="url(#pe7e8e87452)" style="fill: #3e4ba8"/>
   </g>
   <g id="patch_29">
    <path d="M 100.62961 307.584 
L 101.66026 307.584 
L 101.66026 301.719351 
L 100.62961 301.719351 
z
" clip-path="url(#pe7e8e87452)" style="fill: #3e4ba8"/>
   </g>
   <g id="patch_30">
    <path d="M 101.66026 307.584 
L 102.690909 307.584 
L 102.690909 301.817774 
L 101.66026 301.817774 
z
" clip-path="url(#pe7e8e87452)" style="fill: #3e4ba8"/>
   </g>
   <g id="patch_31">
    <path d="M 102.690909 307.584 
L 103.721558 307.584 
L 103.721558 300.87103 
L 102.690909 300.87103 
z
" clip-path="url(#pe7e8e87452)" style="fill: #3e4ba8"/>
   </g>
   <g id="patch_32">
    <path d="M 103.721558 307.584 
L 104.752208 307.584 
L 104.752208 302.828472 
L 103.721558 302.828472 
z
" clip-path="url(#pe7e8e87452)" style="fill: #3e4ba8"/>
   </g>
   <g id="patch_33">
    <path d="M 104.752208 307.584 
L 105.782857 307.584 
L 105.782857 290.659591 
L 104.752208 290.659591 
z
" clip-path="url(#pe7e8e87452)" style="fill: #3e4ba8"/>
   </g>
   <g id="patch_34">
    <path d="M 105.782857 307.584 
L 106.813506 307.584 
L 106.813506 289.775139 
L 105.782857 289.775139 
z
" clip-path="url(#pe7e8e87452)" style="fill: #3e4ba8"/>
   </g>
   <g id="patch_35">
    <path d="M 106.813506 307.584 
L 107.844156 307.584 
L 107.844156 292.655873 
L 106.813506 292.655873 
z
" clip-path="url(#pe7e8e87452)" style="fill: #3e4ba8"/>
   </g>
   <g id="patch_36">
    <path d="M 107.844156 307.584 
L 108.874805 307.584 
L 108.874805 298.814198 
L 107.844156 298.814198 
z
" clip-path="url(#pe7e8e87452)" style="fill: #3e4ba8"/>
   </g>
   <g id="patch_37">
    <path d="M 108.874805 307.584 
L 109.905455 307.584 
L 109.905455 297.722476 
L 108.874805 297.722476 
z
" clip-path="url(#pe7e8e87452)" style="fill: #3e4ba8"/>
   </g>
   <g id="patch_38">
    <path d="M 109.905455 307.584 
L 110.936104 307.584 
L 110.936104 298.648119 
L 109.905455 298.648119 
z
" clip-path="url(#pe7e8e87452)" style="fill: #3e4ba8"/>
   </g>
   <g id="patch_39">
    <path d="M 110.936104 307.584 
L 111.966753 307.584 
L 111.966753 299.522336 
L 110.936104 299.522336 
z
" clip-path="url(#pe7e8e87452)" style="fill: #3e4ba8"/>
   </g>
   <g id="patch_40">
    <path d="M 111.966753 307.584 
L 112.997403 307.584 
L 112.997403 296.54528 
L 111.966753 296.54528 
z
" clip-path="url(#pe7e8e87452)" style="fill: #3e4ba8"/>
   </g>
   <g id="patch_41">
    <path d="M 112.997403 307.584 
L 114.028052 307.584 
L 114.028052 298.938391 
L 112.997403 298.938391 
z
" clip-path="url(#pe7e8e87452)" style="fill: #3e4ba8"/>
   </g>
   <g id="patch_42">
    <path d="M 114.028052 307.584 
L 115.058701 307.584 
L 115.058701 300.052608 
L 114.028052 300.052608 
z
" clip-path="url(#pe7e8e87452)" style="fill: #3e4ba8"/>
   </g>
   <g id="patch_43">
    <path d="M 115.058701 307.584 
L 116.089351 307.584 
L 116.089351 300.245515 
L 115.058701 300.245515 
z
" clip-path="url(#pe7e8e87452)" style="fill: #3e4ba8"/>
   </g>
   <g id="patch_44">
    <path d="M 116.089351 307.584 
L 117.12 307.584 
L 117.12 299.324038 
L 116.089351 299.324038 
z
" clip-path="url(#pe7e8e87452)" style="fill: #3e4ba8"/>
   </g>
   <g id="patch_45">
    <path d="M 117.12 307.584 
L 118.150649 307.584 
L 118.150649 299.158028 
L 117.12 299.158028 
z
" clip-path="url(#pe7e8e87452)" style="fill: #3e4ba8"/>
   </g>
   <g id="patch_46">
    <path d="M 118.150649 307.584 
L 119.181299 307.584 
L 119.181299 298.861443 
L 118.150649 298.861443 
z
" clip-path="url(#pe7e8e87452)" style="fill: #3e4ba8"/>
   </g>
   <g id="patch_47">
    <path d="M 119.181299 307.584 
L 120.211948 307.584 
L 120.211948 298.889509 
L 119.181299 298.889509 
z
" clip-path="url(#pe7e8e87452)" style="fill: #3e4ba8"/>
   </g>
   <g id="patch_48">
    <path d="M 120.211948 307.584 
L 121.242597 307.584 
L 121.242597 299.397841 
L 120.211948 299.397841 
z
" clip-path="url(#pe7e8e87452)" style="fill: #3e4ba8"/>
   </g>
   <g id="patch_49">
    <path d="M 121.242597 307.584 
L 122.273247 307.584 
L 122.273247 290.549874 
L 121.242597 290.549874 
z
" clip-path="url(#pe7e8e87452)" style="fill: #3e4ba8"/>
   </g>
   <g id="patch_50">
    <path d="M 122.273247 307.584 
L 123.303896 307.584 
L 123.303896 298.316585 
L 122.273247 298.316585 
z
" clip-path="url(#pe7e8e87452)" style="fill: #3e4ba8"/>
   </g>
   <g id="patch_51">
    <path d="M 123.303896 307.584 
L 124.334545 307.584 
L 124.334545 297.883706 
L 123.303896 297.883706 
z
" clip-path="url(#pe7e8e87452)" style="fill: #3e4ba8"/>
   </g>
   <g id="patch_52">
    <path d="M 124.334545 307.584 
L 125.365195 307.584 
L 125.365195 298.885345 
L 124.334545 298.885345 
z
" clip-path="url(#pe7e8e87452)" style="fill: #3e4ba8"/>
   </g>
   <g id="patch_53">
    <path d="M 125.365195 307.584 
L 126.395844 307.584 
L 126.395844 298.780866 
L 125.365195 298.780866 
z
" clip-path="url(#pe7e8e87452)" style="fill: #3e4ba8"/>
   </g>
   <g id="patch_54">
    <path d="M 126.395844 307.584 
L 127.426494 307.584 
L 127.426494 299.044588 
L 126.395844 299.044588 
z
" clip-path="url(#pe7e8e87452)" style="fill: #3e4ba8"/>
   </g>
   <g id="patch_55">
    <path d="M 127.426494 307.584 
L 128.457143 307.584 
L 128.457143 299.70247 
L 127.426494 299.70247 
z
" clip-path="url(#pe7e8e87452)" style="fill: #3e4ba8"/>
   </g>
   <g id="patch_56">
    <path d="M 128.457143 307.584 
L 129.487792 307.584 
L 129.487792 299.395127 
L 128.457143 299.395127 
z
" clip-path="url(#pe7e8e87452)" style="fill: #3e4ba8"/>
   </g>
   <g id="patch_57">
    <path d="M 129.487792 307.584 
L 130.518442 307.584 
L 130.518442 300.876287 
L 129.487792 300.876287 
z
" clip-path="url(#pe7e8e87452)" style="fill: #3e4ba8"/>
   </g>
   <g id="patch_58">
    <path d="M 130.518442 307.584 
L 131.549091 307.584 
L 131.549091 300.397443 
L 130.518442 300.397443 
z
" clip-path="url(#pe7e8e87452)" style="fill: #3e4ba8"/>
   </g>
   <g id="patch_59">
    <path d="M 131.549091 307.584 
L 132.57974 307.584 
L 132.57974 301.345734 
L 131.549091 301.345734 
z
" clip-path="url(#pe7e8e87452)" style="fill: #3e4ba8"/>
   </g>
   <g id="patch_60">
    <path d="M 132.57974 307.584 
L 133.61039 307.584 
L 133.61039 285.200033 
L 132.57974 285.200033 
z
" clip-path="url(#pe7e8e87452)" style="fill: #3e4ba8"/>
   </g>
   <g id="patch_61">
    <path d="M 133.61039 307.584 
L 134.641039 307.584 
L 134.641039 300.204983 
L 133.61039 300.204983 
z
" clip-path="url(#pe7e8e87452)" style="fill: #3e4ba8"/>
   </g>
   <g id="patch_62">
    <path d="M 134.641039 307.584 
L 135.671688 307.584 
L 135.671688 299.274619 
L 134.641039 299.274619 
z
" clip-path="url(#pe7e8e87452)" style="fill: #3e4ba8"/>
   </g>
   <g id="patch_63">
    <path d="M 135.671688 307.584 
L 136.702338 307.584 
L 136.702338 301.41655 
L 135.671688 301.41655 
z
" clip-path="url(#pe7e8e87452)" style="fill: #3e4ba8"/>
   </g>
   <g id="patch_64">
    <path d="M 136.702338 307.584 
L 137.732987 307.584 
L 137.732987 300.282246 
L 136.702338 300.282246 
z
" clip-path="url(#pe7e8e87452)" style="fill: #3e4ba8"/>
   </g>
   <g id="patch_65">
    <path d="M 137.732987 307.584 
L 138.763636 307.584 
L 138.763636 304.172299 
L 137.732987 304.172299 
z
" clip-path="url(#pe7e8e87452)" style="fill: #3e4ba8"/>
   </g>
   <g id="patch_66">
    <path d="M 138.763636 307.584 
L 139.794286 307.584 
L 139.794286 299.793255 
L 138.763636 299.793255 
z
" clip-path="url(#pe7e8e87452)" style="fill: #3e4ba8"/>
   </g>
   <g id="patch_67">
    <path d="M 139.794286 307.584 
L 140.824935 307.584 
L 140.824935 297.967852 
L 139.794286 297.967852 
z
" clip-path="url(#pe7e8e87452)" style="fill: #3e4ba8"/>
   </g>
   <g id="patch_68">
    <path d="M 140.824935 307.584 
L 141.855584 307.584 
L 141.855584 300.288037 
L 140.824935 300.288037 
z
" clip-path="url(#pe7e8e87452)" style="fill: #3e4ba8"/>
   </g>
   <g id="patch_69">
    <path d="M 141.855584 307.584 
L 142.886234 307.584 
L 142.886234 302.603357 
L 141.855584 302.603357 
z
" clip-path="url(#pe7e8e87452)" style="fill: #3e4ba8"/>
   </g>
   <g id="patch_70">
    <path d="M 142.886234 307.584 
L 143.916883 307.584 
L 143.916883 302.884256 
L 142.886234 302.884256 
z
" clip-path="url(#pe7e8e87452)" style="fill: #3e4ba8"/>
   </g>
   <g id="patch_71">
    <path d="M 143.916883 307.584 
L 144.947532 307.584 
L 144.947532 304.554709 
L 143.916883 304.554709 
z
" clip-path="url(#pe7e8e87452)" style="fill: #3e4ba8"/>
   </g>
   <g id="patch_72">
    <path d="M 144.947532 307.584 
L 145.978182 307.584 
L 145.978182 304.863105 
L 144.947532 304.863105 
z
" clip-path="url(#pe7e8e87452)" style="fill: #3e4ba8"/>
   </g>
   <g id="patch_73">
    <path d="M 145.978182 307.584 
L 147.008831 307.584 
L 147.008831 304.850848 
L 145.978182 304.850848 
z
" clip-path="url(#pe7e8e87452)" style="fill: #3e4ba8"/>
   </g>
   <g id="patch_74">
    <path d="M 147.008831 307.584 
L 148.039481 307.584 
L 148.039481 305.319501 
L 147.008831 305.319501 
z
" clip-path="url(#pe7e8e87452)" style="fill: #3e4ba8"/>
   </g>
   <g id="patch_75">
    <path d="M 148.039481 307.584 
L 149.07013 307.584 
L 149.07013 304.541905 
L 148.039481 304.541905 
z
" clip-path="url(#pe7e8e87452)" style="fill: #3e4ba8"/>
   </g>
   <g id="patch_76">
    <path d="M 149.07013 307.584 
L 150.100779 307.584 
L 150.100779 306.237363 
L 149.07013 306.237363 
z
" clip-path="url(#pe7e8e87452)" style="fill: #3e4ba8"/>
   </g>
   <g id="patch_77">
    <path d="M 150.100779 307.584 
L 151.131429 307.584 
L 151.131429 307.148815 
L 150.100779 307.148815 
z
" clip-path="url(#pe7e8e87452)" style="fill: #3e4ba8"/>
   </g>
   <g id="patch_78">
    <path d="M 151.131429 307.584 
L 152.162078 307.584 
L 152.162078 298.795809 
L 151.131429 298.795809 
z
" clip-path="url(#pe7e8e87452)" style="fill: #3e4ba8"/>
   </g>
   <g id="patch_79">
    <path d="M 152.162078 307.584 
L 153.192727 307.584 
L 153.192727 305.744602 
L 152.162078 305.744602 
z
" clip-path="url(#pe7e8e87452)" style="fill: #3e4ba8"/>
   </g>
   <g id="patch_80">
    <path d="M 153.192727 307.584 
L 154.223377 307.584 
L 154.223377 306.61262 
L 153.192727 306.61262 
z
" clip-path="url(#pe7e8e87452)" style="fill: #3e4ba8"/>
   </g>
   <g id="patch_81">
    <path d="M 154.223377 307.584 
L 155.254026 307.584 
L 155.254026 306.683498 
L 154.223377 306.683498 
z
" clip-path="url(#pe7e8e87452)" style="fill: #3e4ba8"/>
   </g>
   <g id="patch_82">
    <path d="M 155.254026 307.584 
L 156.284675 307.584 
L 156.284675 307.18283 
L 155.254026 307.18283 
z
" clip-path="url(#pe7e8e87452)" style="fill: #3e4ba8"/>
   </g>
   <g id="patch_83">
    <path d="M 156.284675 307.584 
L 157.315325 307.584 
L 157.315325 307.188104 
L 156.284675 307.188104 
z
" clip-path="url(#pe7e8e87452)" style="fill: #3e4ba8"/>
   </g>
   <g id="patch_84">
    <path d="M 157.315325 307.584 
L 158.345974 307.584 
L 158.345974 307.482176 
L 157.315325 307.482176 
z
" clip-path="url(#pe7e8e87452)" style="fill: #3e4ba8"/>
   </g>
   <g id="patch_85">
    <path d="M 158.345974 307.584 
L 159.376623 307.584 
L 159.376623 305.812583 
L 158.345974 305.812583 
z
" clip-path="url(#pe7e8e87452)" style="fill: #3e4ba8"/>
   </g>
   <g id="patch_86">
    <path d="M 159.376623 307.584 
L 160.407273 307.584 
L 160.407273 306.361308 
L 159.376623 306.361308 
z
" clip-path="url(#pe7e8e87452)" style="fill: #3e4ba8"/>
   </g>
   <g id="patch_87">
    <path d="M 160.407273 307.584 
L 161.437922 307.584 
L 161.437922 306.85221 
L 160.407273 306.85221 
z
" clip-path="url(#pe7e8e87452)" style="fill: #3e4ba8"/>
   </g>
   <g id="patch_88">
    <path d="M 161.437922 307.584 
L 162.468571 307.584 
L 162.468571 305.014008 
L 161.437922 305.014008 
z
" clip-path="url(#pe7e8e87452)" style="fill: #3e4ba8"/>
   </g>
   <g id="patch_89">
    <path d="M 162.468571 307.584 
L 163.499221 307.584 
L 163.499221 299.021016 
L 162.468571 299.021016 
z
" clip-path="url(#pe7e8e87452)" style="fill: #3e4ba8"/>
   </g>
   <g id="patch_90">
    <path d="M 163.499221 307.584 
L 164.52987 307.584 
L 164.52987 306.138919 
L 163.499221 306.138919 
z
" clip-path="url(#pe7e8e87452)" style="fill: #3e4ba8"/>
   </g>
   <g id="patch_91">
    <path d="M 164.52987 307.584 
L 165.560519 307.584 
L 165.560519 306.305691 
L 164.52987 306.305691 
z
" clip-path="url(#pe7e8e87452)" style="fill: #3e4ba8"/>
   </g>
   <g id="patch_92">
    <path d="M 165.560519 307.584 
L 166.591169 307.584 
L 166.591169 305.976666 
L 165.560519 305.976666 
z
" clip-path="url(#pe7e8e87452)" style="fill: #3e4ba8"/>
   </g>
   <g id="patch_93">
    <path d="M 166.591169 307.584 
L 167.621818 307.584 
L 167.621818 306.350827 
L 166.591169 306.350827 
z
" clip-path="url(#pe7e8e87452)" style="fill: #3e4ba8"/>
   </g>
   <g id="patch_94">
    <path d="M 167.621818 307.584 
L 168.652468 307.584 
L 168.652468 306.166494 
L 167.621818 306.166494 
z
" clip-path="url(#pe7e8e87452)" style="fill: #3e4ba8"/>
   </g>
   <g id="patch_95">
    <path d="M 168.652468 307.584 
L 169.683117 307.584 
L 169.683117 305.12546 
L 168.652468 305.12546 
z
" clip-path="url(#pe7e8e87452)" style="fill: #3e4ba8"/>
   </g>
   <g id="patch_96">
    <path d="M 169.683117 307.584 
L 170.713766 307.584 
L 170.713766 306.002916 
L 169.683117 306.002916 
z
" clip-path="url(#pe7e8e87452)" style="fill: #3e4ba8"/>
   </g>
   <g id="patch_97">
    <path d="M 170.713766 307.584 
L 171.744416 307.584 
L 171.744416 304.844521 
L 170.713766 304.844521 
z
" clip-path="url(#pe7e8e87452)" style="fill: #3e4ba8"/>
   </g>
   <g id="patch_98">
    <path d="M 171.744416 307.584 
L 172.775065 307.584 
L 172.775065 305.544542 
L 171.744416 305.544542 
z
" clip-path="url(#pe7e8e87452)" style="fill: #3e4ba8"/>
   </g>
   <g id="patch_99">
    <path d="M 172.775065 307.584 
L 173.805714 307.584 
L 173.805714 305.725559 
L 172.775065 305.725559 
z
" clip-path="url(#pe7e8e87452)" style="fill: #3e4ba8"/>
   </g>
   <g id="patch_100">
    <path d="M 173.805714 307.584 
L 174.836364 307.584 
L 174.836364 305.963125 
L 173.805714 305.963125 
z
" clip-path="url(#pe7e8e87452)" style="fill: #3e4ba8"/>
   </g>
   <g id="patch_101">
    <path d="M 174.836364 307.584 
L 175.867013 307.584 
L 175.867013 305.787558 
L 174.836364 305.787558 
z
" clip-path="url(#pe7e8e87452)" style="fill: #3e4ba8"/>
   </g>
   <g id="patch_102">
    <path d="M 175.867013 307.584 
L 176.897662 307.584 
L 176.897662 306.966285 
L 175.867013 306.966285 
z
" clip-path="url(#pe7e8e87452)" style="fill: #3e4ba8"/>
   </g>
   <g id="patch_103">
    <path d="M 176.897662 307.584 
L 177.928312 307.584 
L 177.928312 306.157055 
L 176.897662 306.157055 
z
" clip-path="url(#pe7e8e87452)" style="fill: #3e4ba8"/>
   </g>
   <g id="patch_104">
    <path d="M 177.928312 307.584 
L 178.958961 307.584 
L 178.958961 305.538078 
L 177.928312 305.538078 
z
" clip-path="url(#pe7e8e87452)" style="fill: #3e4ba8"/>
   </g>
   <g id="patch_105">
    <path d="M 178.958961 307.584 
L 179.98961 307.584 
L 179.98961 305.939542 
L 178.958961 305.939542 
z
" clip-path="url(#pe7e8e87452)" style="fill: #3e4ba8"/>
   </g>
   <g id="patch_106">
    <path d="M 179.98961 307.584 
L 181.02026 307.584 
L 181.02026 306.651524 
L 179.98961 306.651524 
z
" clip-path="url(#pe7e8e87452)" style="fill: #3e4ba8"/>
   </g>
   <g id="patch_107">
    <path d="M 181.02026 307.584 
L 182.050909 307.584 
L 182.050909 306.999781 
L 181.02026 306.999781 
z
" clip-path="url(#pe7e8e87452)" style="fill: #3e4ba8"/>
   </g>
   <g id="patch_108">
    <path d="M 182.050909 307.584 
L 183.081558 307.584 
L 183.081558 305.62446 
L 182.050909 305.62446 
z
" clip-path="url(#pe7e8e87452)" style="fill: #3e4ba8"/>
   </g>
   <g id="patch_109">
    <path d="M 183.081558 307.584 
L 184.112208 307.584 
L 184.112208 306.12719 
L 183.081558 306.12719 
z
" clip-path="url(#pe7e8e87452)" style="fill: #3e4ba8"/>
   </g>
   <g id="patch_110">
    <path d="M 184.112208 307.584 
L 185.142857 307.584 
L 185.142857 306.352481 
L 184.112208 306.352481 
z
" clip-path="url(#pe7e8e87452)" style="fill: #3e4ba8"/>
   </g>
   <g id="patch_111">
    <path d="M 185.142857 307.584 
L 186.173506 307.584 
L 186.173506 306.718111 
L 185.142857 306.718111 
z
" clip-path="url(#pe7e8e87452)" style="fill: #3e4ba8"/>
   </g>
   <g id="patch_112">
    <path d="M 186.173506 307.584 
L 187.204156 307.584 
L 187.204156 306.618134 
L 186.173506 306.618134 
z
" clip-path="url(#pe7e8e87452)" style="fill: #3e4ba8"/>
   </g>
   <g id="patch_113">
    <path d="M 187.204156 307.584 
L 188.234805 307.584 
L 188.234805 307.535261 
L 187.204156 307.535261 
z
" clip-path="url(#pe7e8e87452)" style="fill: #3e4ba8"/>
   </g>
   <g id="patch_114">
    <path d="M 188.234805 307.584 
L 189.265455 307.584 
L 189.265455 307.2697 
L 188.234805 307.2697 
z
" clip-path="url(#pe7e8e87452)" style="fill: #3e4ba8"/>
   </g>
   <g id="patch_115">
    <path d="M 189.265455 307.584 
L 190.296104 307.584 
L 190.296104 306.465211 
L 189.265455 306.465211 
z
" clip-path="url(#pe7e8e87452)" style="fill: #3e4ba8"/>
   </g>
   <g id="patch_116">
    <path d="M 190.296104 307.584 
L 191.326753 307.584 
L 191.326753 306.495388 
L 190.296104 306.495388 
z
" clip-path="url(#pe7e8e87452)" style="fill: #3e4ba8"/>
   </g>
   <g id="patch_117">
    <path d="M 191.326753 307.584 
L 192.357403 307.584 
L 192.357403 305.028435 
L 191.326753 305.028435 
z
" clip-path="url(#pe7e8e87452)" style="fill: #3e4ba8"/>
   </g>
   <g id="patch_118">
    <path d="M 192.357403 307.584 
L 193.388052 307.584 
L 193.388052 305.924516 
L 192.357403 305.924516 
z
" clip-path="url(#pe7e8e87452)" style="fill: #3e4ba8"/>
   </g>
   <g id="patch_119">
    <path d="M 193.388052 307.584 
L 194.418701 307.584 
L 194.418701 307.191487 
L 193.388052 307.191487 
z
" clip-path="url(#pe7e8e87452)" style="fill: #3e4ba8"/>
   </g>
   <g id="patch_120">
    <path d="M 194.418701 307.584 
L 195.449351 307.584 
L 195.449351 307.372517 
L 194.418701 307.372517 
z
" clip-path="url(#pe7e8e87452)" style="fill: #3e4ba8"/>
   </g>
   <g id="patch_121">
    <path d="M 195.449351 307.584 
L 196.48 307.584 
L 196.48 304.191178 
L 195.449351 304.191178 
z
" clip-path="url(#pe7e8e87452)" style="fill: #3e4ba8"/>
   </g>
   <g id="patch_122">
    <path d="M 196.48 307.584 
L 197.510649 307.584 
L 197.510649 306.966685 
L 196.48 306.966685 
z
" clip-path="url(#pe7e8e87452)" style="fill: #3e4ba8"/>
   </g>
   <g id="patch_123">
    <path d="M 197.510649 307.584 
L 198.541299 307.584 
L 198.541299 306.18004 
L 197.510649 306.18004 
z
" clip-path="url(#pe7e8e87452)" style="fill: #3e4ba8"/>
   </g>
   <g id="patch_124">
    <path d="M 198.541299 307.584 
L 199.571948 307.584 
L 199.571948 307.542817 
L 198.541299 307.542817 
z
" clip-path="url(#pe7e8e87452)" style="fill: #3e4ba8"/>
   </g>
   <g id="patch_125">
    <path d="M 199.571948 307.584 
L 200.602597 307.584 
L 200.602597 305.504262 
L 199.571948 305.504262 
z
" clip-path="url(#pe7e8e87452)" style="fill: #3e4ba8"/>
   </g>
   <g id="patch_126">
    <path d="M 200.602597 307.584 
L 201.633247 307.584 
L 201.633247 305.301888 
L 200.602597 305.301888 
z
" clip-path="url(#pe7e8e87452)" style="fill: #3e4ba8"/>
   </g>
   <g id="patch_127">
    <path d="M 201.633247 307.584 
L 202.663896 307.584 
L 202.663896 305.003056 
L 201.633247 305.003056 
z
" clip-path="url(#pe7e8e87452)" style="fill: #3e4ba8"/>
   </g>
   <g id="patch_128">
    <path d="M 202.663896 307.584 
L 203.694545 307.584 
L 203.694545 305.517134 
L 202.663896 305.517134 
z
" clip-path="url(#pe7e8e87452)" style="fill: #3e4ba8"/>
   </g>
   <g id="patch_129">
    <path d="M 203.694545 307.584 
L 204.725195 307.584 
L 204.725195 305.689168 
L 203.694545 305.689168 
z
" clip-path="url(#pe7e8e87452)" style="fill: #3e4ba8"/>
   </g>
   <g id="patch_130">
    <path d="M 204.725195 307.584 
L 205.755844 307.584 
L 205.755844 305.061282 
L 204.725195 305.061282 
z
" clip-path="url(#pe7e8e87452)" style="fill: #3e4ba8"/>
   </g>
   <g id="patch_131">
    <path d="M 205.755844 307.584 
L 206.786494 307.584 
L 206.786494 304.143295 
L 205.755844 304.143295 
z
" clip-path="url(#pe7e8e87452)" style="fill: #3e4ba8"/>
   </g>
   <g id="patch_132">
    <path d="M 206.786494 307.584 
L 207.817143 307.584 
L 207.817143 303.938839 
L 206.786494 303.938839 
z
" clip-path="url(#pe7e8e87452)" style="fill: #3e4ba8"/>
   </g>
   <g id="patch_133">
    <path d="M 207.817143 307.584 
L 208.847792 307.584 
L 208.847792 305.976581 
L 207.817143 305.976581 
z
" clip-path="url(#pe7e8e87452)" style="fill: #3e4ba8"/>
   </g>
   <g id="patch_134">
    <path d="M 208.847792 307.584 
L 209.878442 307.584 
L 209.878442 305.455177 
L 208.847792 305.455177 
z
" clip-path="url(#pe7e8e87452)" style="fill: #3e4ba8"/>
   </g>
   <g id="patch_135">
    <path d="M 209.878442 307.584 
L 210.909091 307.584 
L 210.909091 304.915213 
L 209.878442 304.915213 
z
" clip-path="url(#pe7e8e87452)" style="fill: #3e4ba8"/>
   </g>
   <g id="patch_136">
    <path d="M 210.909091 307.584 
L 211.93974 307.584 
L 211.93974 304.780388 
L 210.909091 304.780388 
z
" clip-path="url(#pe7e8e87452)" style="fill: #3e4ba8"/>
   </g>
   <g id="patch_137">
    <path d="M 211.93974 307.584 
L 212.97039 307.584 
L 212.97039 304.737662 
L 211.93974 304.737662 
z
" clip-path="url(#pe7e8e87452)" style="fill: #3e4ba8"/>
   </g>
   <g id="patch_138">
    <path d="M 212.97039 307.584 
L 214.001039 307.584 
L 214.001039 303.809613 
L 212.97039 303.809613 
z
" clip-path="url(#pe7e8e87452)" style="fill: #3e4ba8"/>
   </g>
   <g id="patch_139">
    <path d="M 214.001039 307.584 
L 215.031688 307.584 
L 215.031688 306.261282 
L 214.001039 306.261282 
z
" clip-path="url(#pe7e8e87452)" style="fill: #3e4ba8"/>
   </g>
   <g id="patch_140">
    <path d="M 215.031688 307.584 
L 216.062338 307.584 
L 216.062338 306.186127 
L 215.031688 306.186127 
z
" clip-path="url(#pe7e8e87452)" style="fill: #3e4ba8"/>
   </g>
   <g id="patch_141">
    <path d="M 216.062338 307.584 
L 217.092987 307.584 
L 217.092987 306.450848 
L 216.062338 306.450848 
z
" clip-path="url(#pe7e8e87452)" style="fill: #3e4ba8"/>
   </g>
   <g id="patch_142">
    <path d="M 217.092987 307.584 
L 218.123636 307.584 
L 218.123636 305.225711 
L 217.092987 305.225711 
z
" clip-path="url(#pe7e8e87452)" style="fill: #3e4ba8"/>
   </g>
   <g id="patch_143">
    <path d="M 218.123636 307.584 
L 219.154286 307.584 
L 219.154286 306.84389 
L 218.123636 306.84389 
z
" clip-path="url(#pe7e8e87452)" style="fill: #3e4ba8"/>
   </g>
   <g id="patch_144">
    <path d="M 219.154286 307.584 
L 220.184935 307.584 
L 220.184935 304.874514 
L 219.154286 304.874514 
z
" clip-path="url(#pe7e8e87452)" style="fill: #3e4ba8"/>
   </g>
   <g id="patch_145">
    <path d="M 220.184935 307.584 
L 221.215584 307.584 
L 221.215584 304.989397 
L 220.184935 304.989397 
z
" clip-path="url(#pe7e8e87452)" style="fill: #3e4ba8"/>
   </g>
   <g id="patch_146">
    <path d="M 221.215584 307.584 
L 222.246234 307.584 
L 222.246234 305.455658 
L 221.215584 305.455658 
z
" clip-path="url(#pe7e8e87452)" style="fill: #3e4ba8"/>
   </g>
   <g id="patch_147">
    <path d="M 222.246234 307.584 
L 223.276883 307.584 
L 223.276883 304.618233 
L 222.246234 304.618233 
z
" clip-path="url(#pe7e8e87452)" style="fill: #3e4ba8"/>
   </g>
   <g id="patch_148">
    <path d="M 223.276883 307.584 
L 224.307532 307.584 
L 224.307532 303.226253 
L 223.276883 303.226253 
z
" clip-path="url(#pe7e8e87452)" style="fill: #3e4ba8"/>
   </g>
   <g id="patch_149">
    <path d="M 224.307532 307.584 
L 225.338182 307.584 
L 225.338182 304.649289 
L 224.307532 304.649289 
z
" clip-path="url(#pe7e8e87452)" style="fill: #3e4ba8"/>
   </g>
   <g id="patch_150">
    <path d="M 225.338182 307.584 
L 226.368831 307.584 
L 226.368831 304.766165 
L 225.338182 304.766165 
z
" clip-path="url(#pe7e8e87452)" style="fill: #3e4ba8"/>
   </g>
   <g id="patch_151">
    <path d="M 226.368831 307.584 
L 227.399481 307.584 
L 227.399481 306.426248 
L 226.368831 306.426248 
z
" clip-path="url(#pe7e8e87452)" style="fill: #3e4ba8"/>
   </g>
   <g id="patch_152">
    <path d="M 227.399481 307.584 
L 228.43013 307.584 
L 228.43013 302.967808 
L 227.399481 302.967808 
z
" clip-path="url(#pe7e8e87452)" style="fill: #3e4ba8"/>
   </g>
   <g id="patch_153">
    <path d="M 228.43013 307.584 
L 229.460779 307.584 
L 229.460779 306.033678 
L 228.43013 306.033678 
z
" clip-path="url(#pe7e8e87452)" style="fill: #3e4ba8"/>
   </g>
   <g id="patch_154">
    <path d="M 229.460779 307.584 
L 230.491429 307.584 
L 230.491429 305.04404 
L 229.460779 305.04404 
z
" clip-path="url(#pe7e8e87452)" style="fill: #3e4ba8"/>
   </g>
   <g id="patch_155">
    <path d="M 230.491429 307.584 
L 231.522078 307.584 
L 231.522078 305.395712 
L 230.491429 305.395712 
z
" clip-path="url(#pe7e8e87452)" style="fill: #3e4ba8"/>
   </g>
   <g id="patch_156">
    <path d="M 231.522078 307.584 
L 232.552727 307.584 
L 232.552727 306.541081 
L 231.522078 306.541081 
z
" clip-path="url(#pe7e8e87452)" style="fill: #3e4ba8"/>
   </g>
   <g id="patch_157">
    <path d="M 232.552727 307.584 
L 233.583377 307.584 
L 233.583377 306.470022 
L 232.552727 306.470022 
z
" clip-path="url(#pe7e8e87452)" style="fill: #3e4ba8"/>
   </g>
   <g id="patch_158">
    <path d="M 233.583377 307.584 
L 234.614026 307.584 
L 234.614026 305.001723 
L 233.583377 305.001723 
z
" clip-path="url(#pe7e8e87452)" style="fill: #3e4ba8"/>
   </g>
   <g id="patch_159">
    <path d="M 234.614026 307.584 
L 235.644675 307.584 
L 235.644675 305.743914 
L 234.614026 305.743914 
z
" clip-path="url(#pe7e8e87452)" style="fill: #3e4ba8"/>
   </g>
   <g id="patch_160">
    <path d="M 235.644675 307.584 
L 236.675325 307.584 
L 236.675325 306.405922 
L 235.644675 306.405922 
z
" clip-path="url(#pe7e8e87452)" style="fill: #3e4ba8"/>
   </g>
   <g id="patch_161">
    <path d="M 236.675325 307.584 
L 237.705974 307.584 
L 237.705974 307.196537 
L 236.675325 307.196537 
z
" clip-path="url(#pe7e8e87452)" style="fill: #3e4ba8"/>
   </g>
   <g id="patch_162">
    <path d="M 237.705974 307.584 
L 238.736623 307.584 
L 238.736623 306.084027 
L 237.705974 306.084027 
z
" clip-path="url(#pe7e8e87452)" style="fill: #3e4ba8"/>
   </g>
   <g id="patch_163">
    <path d="M 238.736623 307.584 
L 239.767273 307.584 
L 239.767273 307.302193 
L 238.736623 307.302193 
z
" clip-path="url(#pe7e8e87452)" style="fill: #3e4ba8"/>
   </g>
   <g id="patch_164">
    <path d="M 239.767273 307.584 
L 240.797922 307.584 
L 240.797922 307.03074 
L 239.767273 307.03074 
z
" clip-path="url(#pe7e8e87452)" style="fill: #3e4ba8"/>
   </g>
   <g id="patch_165">
    <path d="M 240.797922 307.584 
L 241.828571 307.584 
L 241.828571 305.575478 
L 240.797922 305.575478 
z
" clip-path="url(#pe7e8e87452)" style="fill: #3e4ba8"/>
   </g>
   <g id="patch_166">
    <path d="M 241.828571 307.584 
L 242.859221 307.584 
L 242.859221 305.250802 
L 241.828571 305.250802 
z
" clip-path="url(#pe7e8e87452)" style="fill: #3e4ba8"/>
   </g>
   <g id="patch_167">
    <path d="M 242.859221 307.584 
L 243.88987 307.584 
L 243.88987 306.255041 
L 242.859221 306.255041 
z
" clip-path="url(#pe7e8e87452)" style="fill: #3e4ba8"/>
   </g>
   <g id="patch_168">
    <path d="M 243.88987 307.584 
L 244.920519 307.584 
L 244.920519 305.718251 
L 243.88987 305.718251 
z
" clip-path="url(#pe7e8e87452)" style="fill: #3e4ba8"/>
   </g>
   <g id="patch_169">
    <path d="M 244.920519 307.584 
L 245.951169 307.584 
L 245.951169 306.434289 
L 244.920519 306.434289 
z
" clip-path="url(#pe7e8e87452)" style="fill: #3e4ba8"/>
   </g>
   <g id="patch_170">
    <path d="M 245.951169 307.584 
L 246.981818 307.584 
L 246.981818 307.47624 
L 245.951169 307.47624 
z
" clip-path="url(#pe7e8e87452)" style="fill: #3e4ba8"/>
   </g>
   <g id="patch_171">
    <path d="M 246.981818 307.584 
L 248.012468 307.584 
L 248.012468 306.694455 
L 246.981818 306.694455 
z
" clip-path="url(#pe7e8e87452)" style="fill: #3e4ba8"/>
   </g>
   <g id="patch_172">
    <path d="M 248.012468 307.584 
L 249.043117 307.584 
L 249.043117 306.247239 
L 248.012468 306.247239 
z
" clip-path="url(#pe7e8e87452)" style="fill: #3e4ba8"/>
   </g>
   <g id="patch_173">
    <path d="M 249.043117 307.584 
L 250.073766 307.584 
L 250.073766 306.145584 
L 249.043117 306.145584 
z
" clip-path="url(#pe7e8e87452)" style="fill: #3e4ba8"/>
   </g>
   <g id="patch_174">
    <path d="M 250.073766 307.584 
L 251.104416 307.584 
L 251.104416 304.09392 
L 250.073766 304.09392 
z
" clip-path="url(#pe7e8e87452)" style="fill: #3e4ba8"/>
   </g>
   <g id="patch_175">
    <path d="M 251.104416 307.584 
L 252.135065 307.584 
L 252.135065 305.988894 
L 251.104416 305.988894 
z
" clip-path="url(#pe7e8e87452)" style="fill: #3e4ba8"/>
   </g>
   <g id="patch_176">
    <path d="M 252.135065 307.584 
L 253.165714 307.584 
L 253.165714 305.574693 
L 252.135065 305.574693 
z
" clip-path="url(#pe7e8e87452)" style="fill: #3e4ba8"/>
   </g>
   <g id="patch_177">
    <path d="M 253.165714 307.584 
L 254.196364 307.584 
L 254.196364 306.005824 
L 253.165714 306.005824 
z
" clip-path="url(#pe7e8e87452)" style="fill: #3e4ba8"/>
   </g>
   <g id="patch_178">
    <path d="M 254.196364 307.584 
L 255.227013 307.584 
L 255.227013 306.211642 
L 254.196364 306.211642 
z
" clip-path="url(#pe7e8e87452)" style="fill: #3e4ba8"/>
   </g>
   <g id="patch_179">
    <path d="M 255.227013 307.584 
L 256.257662 307.584 
L 256.257662 305.621223 
L 255.227013 305.621223 
z
" clip-path="url(#pe7e8e87452)" style="fill: #3e4ba8"/>
   </g>
   <g id="patch_180">
    <path d="M 256.257662 307.584 
L 257.288312 307.584 
L 257.288312 306.778362 
L 256.257662 306.778362 
z
" clip-path="url(#pe7e8e87452)" style="fill: #3e4ba8"/>
   </g>
   <g id="patch_181">
    <path d="M 257.288312 307.584 
L 258.318961 307.584 
L 258.318961 306.223566 
L 257.288312 306.223566 
z
" clip-path="url(#pe7e8e87452)" style="fill: #3e4ba8"/>
   </g>
   <g id="patch_182">
    <path d="M 258.318961 307.584 
L 259.34961 307.584 
L 259.34961 305.939966 
L 258.318961 305.939966 
z
" clip-path="url(#pe7e8e87452)" style="fill: #3e4ba8"/>
   </g>
   <g id="patch_183">
    <path d="M 259.34961 307.584 
L 260.38026 307.584 
L 260.38026 306.755698 
L 259.34961 306.755698 
z
" clip-path="url(#pe7e8e87452)" style="fill: #3e4ba8"/>
   </g>
   <g id="patch_184">
    <path d="M 260.38026 307.584 
L 261.410909 307.584 
L 261.410909 305.79016 
L 260.38026 305.79016 
z
" clip-path="url(#pe7e8e87452)" style="fill: #3e4ba8"/>
   </g>
   <g id="patch_185">
    <path d="M 261.410909 307.584 
L 262.441558 307.584 
L 262.441558 302.021256 
L 261.410909 302.021256 
z
" clip-path="url(#pe7e8e87452)" style="fill: #3e4ba8"/>
   </g>
   <g id="patch_186">
    <path d="M 262.441558 307.584 
L 263.472208 307.584 
L 263.472208 307.284669 
L 262.441558 307.284669 
z
" clip-path="url(#pe7e8e87452)" style="fill: #3e4ba8"/>
   </g>
   <g id="patch_187">
    <path d="M 263.472208 307.584 
L 264.502857 307.584 
L 264.502857 307.016668 
L 263.472208 307.016668 
z
" clip-path="url(#pe7e8e87452)" style="fill: #3e4ba8"/>
   </g>
   <g id="patch_188">
    <path d="M 264.502857 307.584 
L 265.533506 307.584 
L 265.533506 306.477014 
L 264.502857 306.477014 
z
" clip-path="url(#pe7e8e87452)" style="fill: #3e4ba8"/>
   </g>
   <g id="patch_189">
    <path d="M 265.533506 307.584 
L 266.564156 307.584 
L 266.564156 306.652786 
L 265.533506 306.652786 
z
" clip-path="url(#pe7e8e87452)" style="fill: #3e4ba8"/>
   </g>
   <g id="patch_190">
    <path d="M 266.564156 307.584 
L 267.594805 307.584 
L 267.594805 307.564951 
L 266.564156 307.564951 
z
" clip-path="url(#pe7e8e87452)" style="fill: #3e4ba8"/>
   </g>
   <g id="patch_191">
    <path d="M 267.594805 307.584 
L 268.625455 307.584 
L 268.625455 307.277056 
L 267.594805 307.277056 
z
" clip-path="url(#pe7e8e87452)" style="fill: #3e4ba8"/>
   </g>
   <g id="patch_192">
    <path d="M 268.625455 307.584 
L 269.656104 307.584 
L 269.656104 307.068112 
L 268.625455 307.068112 
z
" clip-path="url(#pe7e8e87452)" style="fill: #3e4ba8"/>
   </g>
   <g id="patch_193">
    <path d="M 269.656104 307.584 
L 270.686753 307.584 
L 270.686753 307.274524 
L 269.656104 307.274524 
z
" clip-path="url(#pe7e8e87452)" style="fill: #3e4ba8"/>
   </g>
   <g id="patch_194">
    <path d="M 270.686753 307.584 
L 271.717403 307.584 
L 271.717403 307.205556 
L 270.686753 307.205556 
z
" clip-path="url(#pe7e8e87452)" style="fill: #3e4ba8"/>
   </g>
   <g id="patch_195">
    <path d="M 271.717403 307.584 
L 272.748052 307.584 
L 272.748052 306.530507 
L 271.717403 306.530507 
z
" clip-path="url(#pe7e8e87452)" style="fill: #3e4ba8"/>
   </g>
   <g id="patch_196">
    <path d="M 272.748052 307.584 
L 273.778701 307.584 
L 273.778701 306.593181 
L 272.748052 306.593181 
z
" clip-path="url(#pe7e8e87452)" style="fill: #3e4ba8"/>
   </g>
   <g id="patch_197">
    <path d="M 273.778701 307.584 
L 274.809351 307.584 
L 274.809351 306.603837 
L 273.778701 306.603837 
z
" clip-path="url(#pe7e8e87452)" style="fill: #3e4ba8"/>
   </g>
   <g id="patch_198">
    <path d="M 274.809351 307.584 
L 275.84 307.584 
L 275.84 307.432439 
L 274.809351 307.432439 
z
" clip-path="url(#pe7e8e87452)" style="fill: #3e4ba8"/>
   </g>
   <g id="patch_199">
    <path d="M 275.84 307.584 
L 276.870649 307.584 
L 276.870649 307.53711 
L 275.84 307.53711 
z
" clip-path="url(#pe7e8e87452)" style="fill: #3e4ba8"/>
   </g>
   <g id="patch_200">
    <path d="M 276.870649 307.584 
L 277.901299 307.584 
L 277.901299 306.81589 
L 276.870649 306.81589 
z
" clip-path="url(#pe7e8e87452)" style="fill: #3e4ba8"/>
   </g>
   <g id="patch_201">
    <path d="M 277.901299 307.584 
L 278.931948 307.584 
L 278.931948 306.742323 
L 277.901299 306.742323 
z
" clip-path="url(#pe7e8e87452)" style="fill: #3e4ba8"/>
   </g>
   <g id="patch_202">
    <path d="M 278.931948 307.584 
L 279.962597 307.584 
L 279.962597 306.443923 
L 278.931948 306.443923 
z
" clip-path="url(#pe7e8e87452)" style="fill: #3e4ba8"/>
   </g>
   <g id="patch_203">
    <path d="M 279.962597 307.584 
L 280.993247 307.584 
L 280.993247 306.278432 
L 279.962597 306.278432 
z
" clip-path="url(#pe7e8e87452)" style="fill: #3e4ba8"/>
   </g>
   <g id="patch_204">
    <path d="M 280.993247 307.584 
L 282.023896 307.584 
L 282.023896 306.14005 
L 280.993247 306.14005 
z
" clip-path="url(#pe7e8e87452)" style="fill: #3e4ba8"/>
   </g>
   <g id="patch_205">
    <path d="M 282.023896 307.584 
L 283.054545 307.584 
L 283.054545 307.256581 
L 282.023896 307.256581 
z
" clip-path="url(#pe7e8e87452)" style="fill: #3e4ba8"/>
   </g>
   <g id="patch_206">
    <path d="M 283.054545 307.584 
L 284.085195 307.584 
L 284.085195 299.70835 
L 283.054545 299.70835 
z
" clip-path="url(#pe7e8e87452)" style="fill: #3e4ba8"/>
   </g>
   <g id="patch_207">
    <path d="M 284.085195 307.584 
L 285.115844 307.584 
L 285.115844 305.871033 
L 284.085195 305.871033 
z
" clip-path="url(#pe7e8e87452)" style="fill: #3e4ba8"/>
   </g>
   <g id="patch_208">
    <path d="M 285.115844 307.584 
L 286.146494 307.584 
L 286.146494 305.856457 
L 285.115844 305.856457 
z
" clip-path="url(#pe7e8e87452)" style="fill: #3e4ba8"/>
   </g>
   <g id="patch_209">
    <path d="M 286.146494 307.584 
L 287.177143 307.584 
L 287.177143 304.883071 
L 286.146494 304.883071 
z
" clip-path="url(#pe7e8e87452)" style="fill: #3e4ba8"/>
   </g>
   <g id="patch_210">
    <path d="M 287.177143 307.584 
L 288.207792 307.584 
L 288.207792 304.32074 
L 287.177143 304.32074 
z
" clip-path="url(#pe7e8e87452)" style="fill: #3e4ba8"/>
   </g>
   <g id="patch_211">
    <path d="M 288.207792 307.584 
L 289.238442 307.584 
L 289.238442 307.412998 
L 288.207792 307.412998 
z
" clip-path="url(#pe7e8e87452)" style="fill: #3e4ba8"/>
   </g>
   <g id="patch_212">
    <path d="M 289.238442 307.584 
L 290.269091 307.584 
L 290.269091 305.289803 
L 289.238442 305.289803 
z
" clip-path="url(#pe7e8e87452)" style="fill: #3e4ba8"/>
   </g>
   <g id="patch_213">
    <path d="M 290.269091 307.584 
L 291.29974 307.584 
L 291.29974 305.086298 
L 290.269091 305.086298 
z
" clip-path="url(#pe7e8e87452)" style="fill: #3e4ba8"/>
   </g>
   <g id="patch_214">
    <path d="M 291.29974 307.584 
L 292.33039 307.584 
L 292.33039 306.026346 
L 291.29974 306.026346 
z
" clip-path="url(#pe7e8e87452)" style="fill: #3e4ba8"/>
   </g>
   <g id="patch_215">
    <path d="M 292.33039 307.584 
L 293.361039 307.584 
L 293.361039 305.631744 
L 292.33039 305.631744 
z
" clip-path="url(#pe7e8e87452)" style="fill: #3e4ba8"/>
   </g>
   <g id="patch_216">
    <path d="M 293.361039 307.584 
L 294.391688 307.584 
L 294.391688 306.021389 
L 293.361039 306.021389 
z
" clip-path="url(#pe7e8e87452)" style="fill: #3e4ba8"/>
   </g>
   <g id="patch_217">
    <path d="M 294.391688 307.584 
L 295.422338 307.584 
L 295.422338 291.784163 
L 294.391688 291.784163 
z
" clip-path="url(#pe7e8e87452)" style="fill: #3e4ba8"/>
   </g>
   <g id="patch_218">
    <path d="M 295.422338 307.584 
L 296.452987 307.584 
L 296.452987 305.530341 
L 295.422338 305.530341 
z
" clip-path="url(#pe7e8e87452)" style="fill: #3e4ba8"/>
   </g>
   <g id="patch_219">
    <path d="M 296.452987 307.584 
L 297.483636 307.584 
L 297.483636 305.698802 
L 296.452987 305.698802 
z
" clip-path="url(#pe7e8e87452)" style="fill: #3e4ba8"/>
   </g>
   <g id="patch_220">
    <path d="M 297.483636 307.584 
L 298.514286 307.584 
L 298.514286 304.983157 
L 297.483636 304.983157 
z
" clip-path="url(#pe7e8e87452)" style="fill: #3e4ba8"/>
   </g>
   <g id="patch_221">
    <path d="M 298.514286 307.584 
L 299.544935 307.584 
L 299.544935 304.668439 
L 298.514286 304.668439 
z
" clip-path="url(#pe7e8e87452)" style="fill: #3e4ba8"/>
   </g>
   <g id="patch_222">
    <path d="M 299.544935 307.584 
L 300.575584 307.584 
L 300.575584 305.211366 
L 299.544935 305.211366 
z
" clip-path="url(#pe7e8e87452)" style="fill: #3e4ba8"/>
   </g>
   <g id="patch_223">
    <path d="M 300.575584 307.584 
L 301.606234 307.584 
L 301.606234 303.799335 
L 300.575584 303.799335 
z
" clip-path="url(#pe7e8e87452)" style="fill: #3e4ba8"/>
   </g>
   <g id="patch_224">
    <path d="M 301.606234 307.584 
L 302.636883 307.584 
L 302.636883 303.50724 
L 301.606234 303.50724 
z
" clip-path="url(#pe7e8e87452)" style="fill: #3e4ba8"/>
   </g>
   <g id="patch_225">
    <path d="M 302.636883 307.584 
L 303.667532 307.584 
L 303.667532 306.239895 
L 302.636883 306.239895 
z
" clip-path="url(#pe7e8e87452)" style="fill: #3e4ba8"/>
   </g>
   <g id="patch_226">
    <path d="M 303.667532 307.584 
L 304.698182 307.584 
L 304.698182 305.103231 
L 303.667532 305.103231 
z
" clip-path="url(#pe7e8e87452)" style="fill: #3e4ba8"/>
   </g>
   <g id="patch_227">
    <path d="M 304.698182 307.584 
L 305.728831 307.584 
L 305.728831 307.235349 
L 304.698182 307.235349 
z
" clip-path="url(#pe7e8e87452)" style="fill: #3e4ba8"/>
   </g>
   <g id="patch_228">
    <path d="M 305.728831 307.584 
L 306.759481 307.584 
L 306.759481 305.605704 
L 305.728831 305.605704 
z
" clip-path="url(#pe7e8e87452)" style="fill: #3e4ba8"/>
   </g>
   <g id="patch_229">
    <path d="M 306.759481 307.584 
L 307.79013 307.584 
L 307.79013 304.45093 
L 306.759481 304.45093 
z
" clip-path="url(#pe7e8e87452)" style="fill: #3e4ba8"/>
   </g>
   <g id="patch_230">
    <path d="M 307.79013 307.584 
L 308.820779 307.584 
L 308.820779 305.668739 
L 307.79013 305.668739 
z
" clip-path="url(#pe7e8e87452)" style="fill: #3e4ba8"/>
   </g>
   <g id="patch_231">
    <path d="M 308.820779 307.584 
L 309.851429 307.584 
L 309.851429 303.531852 
L 308.820779 303.531852 
z
" clip-path="url(#pe7e8e87452)" style="fill: #3e4ba8"/>
   </g>
   <g id="patch_232">
    <path d="M 309.851429 307.584 
L 310.882078 307.584 
L 310.882078 305.02248 
L 309.851429 305.02248 
z
" clip-path="url(#pe7e8e87452)" style="fill: #3e4ba8"/>
   </g>
   <g id="patch_233">
    <path d="M 310.882078 307.584 
L 311.912727 307.584 
L 311.912727 306.562227 
L 310.882078 306.562227 
z
" clip-path="url(#pe7e8e87452)" style="fill: #3e4ba8"/>
   </g>
   <g id="patch_234">
    <path d="M 311.912727 307.584 
L 312.943377 307.584 
L 312.943377 305.807502 
L 311.912727 305.807502 
z
" clip-path="url(#pe7e8e87452)" style="fill: #3e4ba8"/>
   </g>
   <g id="patch_235">
    <path d="M 312.943377 307.584 
L 313.974026 307.584 
L 313.974026 305.725366 
L 312.943377 305.725366 
z
" clip-path="url(#pe7e8e87452)" style="fill: #3e4ba8"/>
   </g>
   <g id="patch_236">
    <path d="M 313.974026 307.584 
L 315.004675 307.584 
L 315.004675 304.21213 
L 313.974026 304.21213 
z
" clip-path="url(#pe7e8e87452)" style="fill: #3e4ba8"/>
   </g>
   <g id="patch_237">
    <path d="M 315.004675 307.584 
L 316.035325 307.584 
L 316.035325 305.832572 
L 315.004675 305.832572 
z
" clip-path="url(#pe7e8e87452)" style="fill: #3e4ba8"/>
   </g>
   <g id="patch_238">
    <path d="M 316.035325 307.584 
L 317.065974 307.584 
L 317.065974 301.19337 
L 316.035325 301.19337 
z
" clip-path="url(#pe7e8e87452)" style="fill: #3e4ba8"/>
   </g>
   <g id="patch_239">
    <path d="M 317.065974 307.584 
L 318.096623 307.584 
L 318.096623 303.437529 
L 317.065974 303.437529 
z
" clip-path="url(#pe7e8e87452)" style="fill: #3e4ba8"/>
   </g>
   <g id="patch_240">
    <path d="M 318.096623 307.584 
L 319.127273 307.584 
L 319.127273 305.927397 
L 318.096623 305.927397 
z
" clip-path="url(#pe7e8e87452)" style="fill: #3e4ba8"/>
   </g>
   <g id="patch_241">
    <path d="M 319.127273 307.584 
L 320.157922 307.584 
L 320.157922 302.72431 
L 319.127273 302.72431 
z
" clip-path="url(#pe7e8e87452)" style="fill: #3e4ba8"/>
   </g>
   <g id="patch_242">
    <path d="M 320.157922 307.584 
L 321.188571 307.584 
L 321.188571 304.184718 
L 320.157922 304.184718 
z
" clip-path="url(#pe7e8e87452)" style="fill: #3e4ba8"/>
   </g>
   <g id="patch_243">
    <path d="M 321.188571 307.584 
L 322.219221 307.584 
L 322.219221 303.715407 
L 321.188571 303.715407 
z
" clip-path="url(#pe7e8e87452)" style="fill: #3e4ba8"/>
   </g>
   <g id="patch_244">
    <path d="M 322.219221 307.584 
L 323.24987 307.584 
L 323.24987 302.028981 
L 322.219221 302.028981 
z
" clip-path="url(#pe7e8e87452)" style="fill: #3e4ba8"/>
   </g>
   <g id="patch_245">
    <path d="M 323.24987 307.584 
L 324.280519 307.584 
L 324.280519 304.779984 
L 323.24987 304.779984 
z
" clip-path="url(#pe7e8e87452)" style="fill: #3e4ba8"/>
   </g>
   <g id="patch_246">
    <path d="M 324.280519 307.584 
L 325.311169 307.584 
L 325.311169 303.305374 
L 324.280519 303.305374 
z
" clip-path="url(#pe7e8e87452)" style="fill: #3e4ba8"/>
   </g>
   <g id="patch_247">
    <path d="M 325.311169 307.584 
L 326.341818 307.584 
L 326.341818 304.200452 
L 325.311169 304.200452 
z
" clip-path="url(#pe7e8e87452)" style="fill: #3e4ba8"/>
   </g>
   <g id="patch_248">
    <path d="M 326.341818 307.584 
L 327.372468 307.584 
L 327.372468 295.476243 
L 326.341818 295.476243 
z
" clip-path="url(#pe7e8e87452)" style="fill: #3e4ba8"/>
   </g>
   <g id="patch_249">
    <path d="M 327.372468 307.584 
L 328.403117 307.584 
L 328.403117 304.662015 
L 327.372468 304.662015 
z
" clip-path="url(#pe7e8e87452)" style="fill: #3e4ba8"/>
   </g>
   <g id="patch_250">
    <path d="M 328.403117 307.584 
L 329.433766 307.584 
L 329.433766 303.066462 
L 328.403117 303.066462 
z
" clip-path="url(#pe7e8e87452)" style="fill: #3e4ba8"/>
   </g>
   <g id="patch_251">
    <path d="M 329.433766 307.584 
L 330.464416 307.584 
L 330.464416 300.119081 
L 329.433766 300.119081 
z
" clip-path="url(#pe7e8e87452)" style="fill: #3e4ba8"/>
   </g>
   <g id="patch_252">
    <path d="M 330.464416 307.584 
L 331.495065 307.584 
L 331.495065 298.575493 
L 330.464416 298.575493 
z
" clip-path="url(#pe7e8e87452)" style="fill: #3e4ba8"/>
   </g>
   <g id="patch_253">
    <path d="M 331.495065 307.584 
L 332.525714 307.584 
L 332.525714 301.039015 
L 331.495065 301.039015 
z
" clip-path="url(#pe7e8e87452)" style="fill: #3e4ba8"/>
   </g>
   <g id="patch_254">
    <path d="M 332.525714 307.584 
L 333.556364 307.584 
L 333.556364 300.532335 
L 332.525714 300.532335 
z
" clip-path="url(#pe7e8e87452)" style="fill: #3e4ba8"/>
   </g>
   <g id="patch_255">
    <path d="M 333.556364 307.584 
L 334.587013 307.584 
L 334.587013 299.286356 
L 333.556364 299.286356 
z
" clip-path="url(#pe7e8e87452)" style="fill: #3e4ba8"/>
   </g>
   <g id="patch_256">
    <path d="M 334.587013 307.584 
L 335.617662 307.584 
L 335.617662 302.5258 
L 334.587013 302.5258 
z
" clip-path="url(#pe7e8e87452)" style="fill: #3e4ba8"/>
   </g>
   <g id="patch_257">
    <path d="M 335.617662 307.584 
L 336.648312 307.584 
L 336.648312 300.300523 
L 335.617662 300.300523 
z
" clip-path="url(#pe7e8e87452)" style="fill: #3e4ba8"/>
   </g>
   <g id="patch_258">
    <path d="M 336.648312 307.584 
L 337.678961 307.584 
L 337.678961 299.060751 
L 336.648312 299.060751 
z
" clip-path="url(#pe7e8e87452)" style="fill: #3e4ba8"/>
   </g>
   <g id="patch_259">
    <path d="M 337.678961 307.584 
L 338.70961 307.584 
L 338.70961 301.397537 
L 337.678961 301.397537 
z
" clip-path="url(#pe7e8e87452)" style="fill: #3e4ba8"/>
   </g>
   <g id="patch_260">
    <path d="M 338.70961 307.584 
L 339.74026 307.584 
L 339.74026 300.668316 
L 338.70961 300.668316 
z
" clip-path="url(#pe7e8e87452)" style="fill: #3e4ba8"/>
   </g>
   <g id="patch_261">
    <path d="M 339.74026 307.584 
L 340.770909 307.584 
L 340.770909 302.647302 
L 339.74026 302.647302 
z
" clip-path="url(#pe7e8e87452)" style="fill: #3e4ba8"/>
   </g>
   <g id="patch_262">
    <path d="M 340.770909 307.584 
L 341.801558 307.584 
L 341.801558 302.935642 
L 340.770909 302.935642 
z
" clip-path="url(#pe7e8e87452)" style="fill: #3e4ba8"/>
   </g>
   <g id="patch_263">
    <path d="M 341.801558 307.584 
L 342.832208 307.584 
L 342.832208 300.71475 
L 341.801558 300.71475 
z
" clip-path="url(#pe7e8e87452)" style="fill: #3e4ba8"/>
   </g>
   <g id="patch_264">
    <path d="M 342.832208 307.584 
L 343.862857 307.584 
L 343.862857 302.458254 
L 342.832208 302.458254 
z
" clip-path="url(#pe7e8e87452)" style="fill: #3e4ba8"/>
   </g>
   <g id="patch_265">
    <path d="M 343.862857 307.584 
L 344.893506 307.584 
L 344.893506 302.819048 
L 343.862857 302.819048 
z
" clip-path="url(#pe7e8e87452)" style="fill: #3e4ba8"/>
   </g>
   <g id="patch_266">
    <path d="M 344.893506 307.584 
L 345.924156 307.584 
L 345.924156 302.234255 
L 344.893506 302.234255 
z
" clip-path="url(#pe7e8e87452)" style="fill: #3e4ba8"/>
   </g>
   <g id="patch_267">
    <path d="M 345.924156 307.584 
L 346.954805 307.584 
L 346.954805 301.116502 
L 345.924156 301.116502 
z
" clip-path="url(#pe7e8e87452)" style="fill: #3e4ba8"/>
   </g>
   <g id="patch_268">
    <path d="M 346.954805 307.584 
L 347.985455 307.584 
L 347.985455 303.219658 
L 346.954805 303.219658 
z
" clip-path="url(#pe7e8e87452)" style="fill: #3e4ba8"/>
   </g>
   <g id="patch_269">
    <path d="M 347.985455 307.584 
L 349.016104 307.584 
L 349.016104 300.953686 
L 347.985455 300.953686 
z
" clip-path="url(#pe7e8e87452)" style="fill: #3e4ba8"/>
   </g>
   <g id="patch_270">
    <path d="M 349.016104 307.584 
L 350.046753 307.584 
L 350.046753 293.739286 
L 349.016104 293.739286 
z
" clip-path="url(#pe7e8e87452)" style="fill: #3e4ba8"/>
   </g>
   <g id="patch_271">
    <path d="M 350.046753 307.584 
L 351.077403 307.584 
L 351.077403 300.769537 
L 350.046753 300.769537 
z
" clip-path="url(#pe7e8e87452)" style="fill: #3e4ba8"/>
   </g>
   <g id="patch_272">
    <path d="M 351.077403 307.584 
L 352.108052 307.584 
L 352.108052 303.352083 
L 351.077403 303.352083 
z
" clip-path="url(#pe7e8e87452)" style="fill: #3e4ba8"/>
   </g>
   <g id="patch_273">
    <path d="M 352.108052 307.584 
L 353.138701 307.584 
L 353.138701 304.29239 
L 352.108052 304.29239 
z
" clip-path="url(#pe7e8e87452)" style="fill: #3e4ba8"/>
   </g>
   <g id="patch_274">
    <path d="M 353.138701 307.584 
L 354.169351 307.584 
L 354.169351 303.272312 
L 353.138701 303.272312 
z
" clip-path="url(#pe7e8e87452)" style="fill: #3e4ba8"/>
   </g>
   <g id="patch_275">
    <path d="M 354.169351 307.584 
L 355.2 307.584 
L 355.2 306.150928 
L 354.169351 306.150928 
z
" clip-path="url(#pe7e8e87452)" style="fill: #3e4ba8"/>
   </g>
   <g id="patch_276">
    <path d="M 355.2 307.584 
L 356.230649 307.584 
L 356.230649 305.286928 
L 355.2 305.286928 
z
" clip-path="url(#pe7e8e87452)" style="fill: #3e4ba8"/>
   </g>
   <g id="patch_277">
    <path d="M 356.230649 307.584 
L 357.261299 307.584 
L 357.261299 303.202702 
L 356.230649 303.202702 
z
" clip-path="url(#pe7e8e87452)" style="fill: #3e4ba8"/>
   </g>
   <g id="patch_278">
    <path d="M 357.261299 307.584 
L 358.291948 307.584 
L 358.291948 306.066887 
L 357.261299 306.066887 
z
" clip-path="url(#pe7e8e87452)" style="fill: #3e4ba8"/>
   </g>
   <g id="patch_279">
    <path d="M 358.291948 307.584 
L 359.322597 307.584 
L 359.322597 306.915245 
L 358.291948 306.915245 
z
" clip-path="url(#pe7e8e87452)" style="fill: #3e4ba8"/>
   </g>
   <g id="patch_280">
    <path d="M 359.322597 307.584 
L 360.353247 307.584 
L 360.353247 306.643219 
L 359.322597 306.643219 
z
" clip-path="url(#pe7e8e87452)" style="fill: #3e4ba8"/>
   </g>
   <g id="patch_281">
    <path d="M 360.353247 307.584 
L 361.383896 307.584 
L 361.383896 288.949656 
L 360.353247 288.949656 
z
" clip-path="url(#pe7e8e87452)" style="fill: #3e4ba8"/>
   </g>
   <g id="patch_282">
    <path d="M 361.383896 307.584 
L 362.414545 307.584 
L 362.414545 305.258805 
L 361.383896 305.258805 
z
" clip-path="url(#pe7e8e87452)" style="fill: #3e4ba8"/>
   </g>
   <g id="patch_283">
    <path d="M 362.414545 307.584 
L 363.445195 307.584 
L 363.445195 304.475533 
L 362.414545 304.475533 
z
" clip-path="url(#pe7e8e87452)" style="fill: #3e4ba8"/>
   </g>
   <g id="patch_284">
    <path d="M 363.445195 307.584 
L 364.475844 307.584 
L 364.475844 306.321941 
L 363.445195 306.321941 
z
" clip-path="url(#pe7e8e87452)" style="fill: #3e4ba8"/>
   </g>
   <g id="patch_285">
    <path d="M 364.475844 307.584 
L 365.506494 307.584 
L 365.506494 304.731916 
L 364.475844 304.731916 
z
" clip-path="url(#pe7e8e87452)" style="fill: #3e4ba8"/>
   </g>
   <g id="patch_286">
    <path d="M 365.506494 307.584 
L 366.537143 307.584 
L 366.537143 302.969958 
L 365.506494 302.969958 
z
" clip-path="url(#pe7e8e87452)" style="fill: #3e4ba8"/>
   </g>
   <g id="patch_287">
    <path d="M 366.537143 307.584 
L 367.567792 307.584 
L 367.567792 307.315999 
L 366.537143 307.315999 
z
" clip-path="url(#pe7e8e87452)" style="fill: #3e4ba8"/>
   </g>
   <g id="patch_288">
    <path d="M 367.567792 307.584 
L 368.598442 307.584 
L 368.598442 306.802832 
L 367.567792 306.802832 
z
" clip-path="url(#pe7e8e87452)" style="fill: #3e4ba8"/>
   </g>
   <g id="patch_289">
    <path d="M 368.598442 307.584 
L 369.629091 307.584 
L 369.629091 305.825966 
L 368.598442 305.825966 
z
" clip-path="url(#pe7e8e87452)" style="fill: #3e4ba8"/>
   </g>
   <g id="patch_290">
    <path d="M 369.629091 307.584 
L 370.65974 307.584 
L 370.65974 306.132248 
L 369.629091 306.132248 
z
" clip-path="url(#pe7e8e87452)" style="fill: #3e4ba8"/>
   </g>
   <g id="patch_291">
    <path d="M 370.65974 307.584 
L 371.69039 307.584 
L 371.69039 290.004795 
L 370.65974 290.004795 
z
" clip-path="url(#pe7e8e87452)" style="fill: #3e4ba8"/>
   </g>
   <g id="patch_292">
    <path d="M 371.69039 307.584 
L 372.721039 307.584 
L 372.721039 301.397345 
L 371.69039 301.397345 
z
" clip-path="url(#pe7e8e87452)" style="fill: #3e4ba8"/>
   </g>
   <g id="patch_293">
    <path d="M 372.721039 307.584 
L 373.751688 307.584 
L 373.751688 303.034457 
L 372.721039 303.034457 
z
" clip-path="url(#pe7e8e87452)" style="fill: #3e4ba8"/>
   </g>
   <g id="patch_294">
    <path d="M 373.751688 307.584 
L 374.782338 307.584 
L 374.782338 300.712634 
L 373.751688 300.712634 
z
" clip-path="url(#pe7e8e87452)" style="fill: #3e4ba8"/>
   </g>
   <g id="patch_295">
    <path d="M 374.782338 307.584 
L 375.812987 307.584 
L 375.812987 301.462891 
L 374.782338 301.462891 
z
" clip-path="url(#pe7e8e87452)" style="fill: #3e4ba8"/>
   </g>
   <g id="patch_296">
    <path d="M 375.812987 307.584 
L 376.843636 307.584 
L 376.843636 299.903255 
L 375.812987 299.903255 
z
" clip-path="url(#pe7e8e87452)" style="fill: #3e4ba8"/>
   </g>
   <g id="patch_297">
    <path d="M 376.843636 307.584 
L 377.874286 307.584 
L 377.874286 298.162732 
L 376.843636 298.162732 
z
" clip-path="url(#pe7e8e87452)" style="fill: #3e4ba8"/>
   </g>
   <g id="patch_298">
    <path d="M 377.874286 307.584 
L 378.904935 307.584 
L 378.904935 299.860944 
L 377.874286 299.860944 
z
" clip-path="url(#pe7e8e87452)" style="fill: #3e4ba8"/>
   </g>
   <g id="patch_299">
    <path d="M 378.904935 307.584 
L 379.935584 307.584 
L 379.935584 298.938099 
L 378.904935 298.938099 
z
" clip-path="url(#pe7e8e87452)" style="fill: #3e4ba8"/>
   </g>
   <g id="patch_300">
    <path d="M 379.935584 307.584 
L 380.966234 307.584 
L 380.966234 299.064838 
L 379.935584 299.064838 
z
" clip-path="url(#pe7e8e87452)" style="fill: #3e4ba8"/>
   </g>
   <g id="patch_301">
    <path d="M 380.966234 307.584 
L 381.996883 307.584 
L 381.996883 295.393736 
L 380.966234 295.393736 
z
" clip-path="url(#pe7e8e87452)" style="fill: #3e4ba8"/>
   </g>
   <g id="patch_302">
    <path d="M 381.996883 307.584 
L 383.027532 307.584 
L 383.027532 294.323021 
L 381.996883 294.323021 
z
" clip-path="url(#pe7e8e87452)" style="fill: #3e4ba8"/>
   </g>
   <g id="patch_303">
    <path d="M 383.027532 307.584 
L 384.058182 307.584 
L 384.058182 297.033432 
L 383.027532 297.033432 
z
" clip-path="url(#pe7e8e87452)" style="fill: #3e4ba8"/>
   </g>
   <g id="patch_304">
    <path d="M 384.058182 307.584 
L 385.088831 307.584 
L 385.088831 302.301582 
L 384.058182 302.301582 
z
" clip-path="url(#pe7e8e87452)" style="fill: #3e4ba8"/>
   </g>
   <g id="patch_305">
    <path d="M 385.088831 307.584 
L 386.119481 307.584 
L 386.119481 299.882779 
L 385.088831 299.882779 
z
" clip-path="url(#pe7e8e87452)" style="fill: #3e4ba8"/>
   </g>
   <g id="patch_306">
    <path d="M 386.119481 307.584 
L 387.15013 307.584 
L 387.15013 297.176413 
L 386.119481 297.176413 
z
" clip-path="url(#pe7e8e87452)" style="fill: #3e4ba8"/>
   </g>
   <g id="patch_307">
    <path d="M 387.15013 307.584 
L 388.180779 307.584 
L 388.180779 297.76475 
L 387.15013 297.76475 
z
" clip-path="url(#pe7e8e87452)" style="fill: #3e4ba8"/>
   </g>
   <g id="patch_308">
    <path d="M 388.180779 307.584 
L 389.211429 307.584 
L 389.211429 301.574493 
L 388.180779 301.574493 
z
" clip-path="url(#pe7e8e87452)" style="fill: #3e4ba8"/>
   </g>
   <g id="patch_309">
    <path d="M 389.211429 307.584 
L 390.242078 307.584 
L 390.242078 300.153823 
L 389.211429 300.153823 
z
" clip-path="url(#pe7e8e87452)" style="fill: #3e4ba8"/>
   </g>
   <g id="patch_310">
    <path d="M 390.242078 307.584 
L 391.272727 307.584 
L 391.272727 297.959448 
L 390.242078 297.959448 
z
" clip-path="url(#pe7e8e87452)" style="fill: #3e4ba8"/>
   </g>
   <g id="patch_311">
    <path d="M 391.272727 307.584 
L 392.303377 307.584 
L 392.303377 297.854875 
L 391.272727 297.854875 
z
" clip-path="url(#pe7e8e87452)" style="fill: #3e4ba8"/>
   </g>
   <g id="patch_312">
    <path d="M 392.303377 307.584 
L 393.334026 307.584 
L 393.334026 296.394469 
L 392.303377 296.394469 
z
" clip-path="url(#pe7e8e87452)" style="fill: #3e4ba8"/>
   </g>
   <g id="patch_313">
    <path d="M 393.334026 307.584 
L 394.364675 307.584 
L 394.364675 285.30627 
L 393.334026 285.30627 
z
" clip-path="url(#pe7e8e87452)" style="fill: #3e4ba8"/>
   </g>
   <g id="patch_314">
    <path d="M 394.364675 307.584 
L 395.395325 307.584 
L 395.395325 292.613018 
L 394.364675 292.613018 
z
" clip-path="url(#pe7e8e87452)" style="fill: #3e4ba8"/>
   </g>
   <g id="patch_315">
    <path d="M 395.395325 307.584 
L 396.425974 307.584 
L 396.425974 292.303397 
L 395.395325 292.303397 
z
" clip-path="url(#pe7e8e87452)" style="fill: #3e4ba8"/>
   </g>
   <g id="patch_316">
    <path d="M 396.425974 307.584 
L 397.456623 307.584 
L 397.456623 293.58208 
L 396.425974 293.58208 
z
" clip-path="url(#pe7e8e87452)" style="fill: #3e4ba8"/>
   </g>
   <g id="patch_317">
    <path d="M 397.456623 307.584 
L 398.487273 307.584 
L 398.487273 293.107626 
L 397.456623 293.107626 
z
" clip-path="url(#pe7e8e87452)" style="fill: #3e4ba8"/>
   </g>
   <g id="matplotlib.axis_1">
    <g id="xtick_1">
     <g id="line2d_1">
      <defs>
       <path id="m37578ee7c8" d="M 0 0 
L 0 3.5 
" style="stroke: #000000; stroke-width: 0.8"/>
      </defs>
      <g>
       <use xlink:href="#m37578ee7c8" x="73.832727" y="307.584" style="stroke: #000000; stroke-width: 0.8"/>
      </g>
     </g>
     <g id="text_1">
      <!-- 0 -->
      <g transform="translate(71.332727 321.52775) scale(0.1 -0.1)">
       <defs>
        <path id="TimesNewRomanPSMT-30" d="M 231 2094 
Q 231 2819 450 3342 
Q 669 3866 1031 4122 
Q 1313 4325 1613 4325 
Q 2100 4325 2488 3828 
Q 2972 3213 2972 2159 
Q 2972 1422 2759 906 
Q 2547 391 2217 158 
Q 1888 -75 1581 -75 
Q 975 -75 572 641 
Q 231 1244 231 2094 
z
M 844 2016 
Q 844 1141 1059 588 
Q 1238 122 1591 122 
Q 1759 122 1940 273 
Q 2122 425 2216 781 
Q 2359 1319 2359 2297 
Q 2359 3022 2209 3506 
Q 2097 3866 1919 4016 
Q 1791 4119 1609 4119 
Q 1397 4119 1231 3928 
Q 1006 3669 925 3112 
Q 844 2556 844 2016 
z
" transform="scale(0.015625)"/>
       </defs>
       <use xlink:href="#TimesNewRomanPSMT-30"/>
      </g>
     </g>
    </g>
    <g id="xtick_2">
     <g id="line2d_2">
      <g>
       <use xlink:href="#m37578ee7c8" x="125.529311" y="307.584" style="stroke: #000000; stroke-width: 0.8"/>
      </g>
     </g>
     <g id="text_2">
      <!-- 50 -->
      <g transform="translate(120.529311 321.52775) scale(0.1 -0.1)">
       <defs>
        <path id="TimesNewRomanPSMT-35" d="M 2778 4238 
L 2534 3706 
L 1259 3706 
L 981 3138 
Q 1809 3016 2294 2522 
Q 2709 2097 2709 1522 
Q 2709 1188 2573 903 
Q 2438 619 2231 419 
Q 2025 219 1772 97 
Q 1413 -75 1034 -75 
Q 653 -75 479 54 
Q 306 184 306 341 
Q 306 428 378 495 
Q 450 563 559 563 
Q 641 563 702 538 
Q 763 513 909 409 
Q 1144 247 1384 247 
Q 1750 247 2026 523 
Q 2303 800 2303 1197 
Q 2303 1581 2056 1914 
Q 1809 2247 1375 2428 
Q 1034 2569 447 2591 
L 1259 4238 
L 2778 4238 
z
" transform="scale(0.015625)"/>
       </defs>
       <use xlink:href="#TimesNewRomanPSMT-35"/>
       <use xlink:href="#TimesNewRomanPSMT-30" x="50"/>
      </g>
     </g>
    </g>
    <g id="xtick_3">
     <g id="line2d_3">
      <g>
       <use xlink:href="#m37578ee7c8" x="177.225895" y="307.584" style="stroke: #000000; stroke-width: 0.8"/>
      </g>
     </g>
     <g id="text_3">
      <!-- 100 -->
      <g transform="translate(169.725895 321.52775) scale(0.1 -0.1)">
       <defs>
        <path id="TimesNewRomanPSMT-31" d="M 750 3822 
L 1781 4325 
L 1884 4325 
L 1884 747 
Q 1884 391 1914 303 
Q 1944 216 2037 169 
Q 2131 122 2419 116 
L 2419 0 
L 825 0 
L 825 116 
Q 1125 122 1212 167 
Q 1300 213 1334 289 
Q 1369 366 1369 747 
L 1369 3034 
Q 1369 3497 1338 3628 
Q 1316 3728 1258 3775 
Q 1200 3822 1119 3822 
Q 1003 3822 797 3725 
L 750 3822 
z
" transform="scale(0.015625)"/>
       </defs>
       <use xlink:href="#TimesNewRomanPSMT-31"/>
       <use xlink:href="#TimesNewRomanPSMT-30" x="50"/>
       <use xlink:href="#TimesNewRomanPSMT-30" x="100"/>
      </g>
     </g>
    </g>
    <g id="xtick_4">
     <g id="line2d_4">
      <g>
       <use xlink:href="#m37578ee7c8" x="228.922478" y="307.584" style="stroke: #000000; stroke-width: 0.8"/>
      </g>
     </g>
     <g id="text_4">
      <!-- 150 -->
      <g transform="translate(221.422478 321.52775) scale(0.1 -0.1)">
       <use xlink:href="#TimesNewRomanPSMT-31"/>
       <use xlink:href="#TimesNewRomanPSMT-35" x="50"/>
       <use xlink:href="#TimesNewRomanPSMT-30" x="100"/>
      </g>
     </g>
    </g>
    <g id="xtick_5">
     <g id="line2d_5">
      <g>
       <use xlink:href="#m37578ee7c8" x="280.619062" y="307.584" style="stroke: #000000; stroke-width: 0.8"/>
      </g>
     </g>
     <g id="text_5">
      <!-- 200 -->
      <g transform="translate(273.119062 321.52775) scale(0.1 -0.1)">
       <defs>
        <path id="TimesNewRomanPSMT-32" d="M 2934 816 
L 2638 0 
L 138 0 
L 138 116 
Q 1241 1122 1691 1759 
Q 2141 2397 2141 2925 
Q 2141 3328 1894 3587 
Q 1647 3847 1303 3847 
Q 991 3847 742 3664 
Q 494 3481 375 3128 
L 259 3128 
Q 338 3706 661 4015 
Q 984 4325 1469 4325 
Q 1984 4325 2329 3994 
Q 2675 3663 2675 3213 
Q 2675 2891 2525 2569 
Q 2294 2063 1775 1497 
Q 997 647 803 472 
L 1909 472 
Q 2247 472 2383 497 
Q 2519 522 2628 598 
Q 2738 675 2819 816 
L 2934 816 
z
" transform="scale(0.015625)"/>
       </defs>
       <use xlink:href="#TimesNewRomanPSMT-32"/>
       <use xlink:href="#TimesNewRomanPSMT-30" x="50"/>
       <use xlink:href="#TimesNewRomanPSMT-30" x="100"/>
      </g>
     </g>
    </g>
    <g id="xtick_6">
     <g id="line2d_6">
      <g>
       <use xlink:href="#m37578ee7c8" x="332.315646" y="307.584" style="stroke: #000000; stroke-width: 0.8"/>
      </g>
     </g>
     <g id="text_6">
      <!-- 250 -->
      <g transform="translate(324.815646 321.52775) scale(0.1 -0.1)">
       <use xlink:href="#TimesNewRomanPSMT-32"/>
       <use xlink:href="#TimesNewRomanPSMT-35" x="50"/>
       <use xlink:href="#TimesNewRomanPSMT-30" x="100"/>
      </g>
     </g>
    </g>
    <g id="xtick_7">
     <g id="line2d_7">
      <g>
       <use xlink:href="#m37578ee7c8" x="384.012229" y="307.584" style="stroke: #000000; stroke-width: 0.8"/>
      </g>
     </g>
     <g id="text_7">
      <!-- 300 -->
      <g transform="translate(376.512229 321.52775) scale(0.1 -0.1)">
       <defs>
        <path id="TimesNewRomanPSMT-33" d="M 325 3431 
Q 506 3859 782 4092 
Q 1059 4325 1472 4325 
Q 1981 4325 2253 3994 
Q 2459 3747 2459 3466 
Q 2459 3003 1878 2509 
Q 2269 2356 2469 2072 
Q 2669 1788 2669 1403 
Q 2669 853 2319 450 
Q 1863 -75 997 -75 
Q 569 -75 414 31 
Q 259 138 259 259 
Q 259 350 332 419 
Q 406 488 509 488 
Q 588 488 669 463 
Q 722 447 909 348 
Q 1097 250 1169 231 
Q 1284 197 1416 197 
Q 1734 197 1970 444 
Q 2206 691 2206 1028 
Q 2206 1275 2097 1509 
Q 2016 1684 1919 1775 
Q 1784 1900 1550 2001 
Q 1316 2103 1072 2103 
L 972 2103 
L 972 2197 
Q 1219 2228 1467 2375 
Q 1716 2522 1828 2728 
Q 1941 2934 1941 3181 
Q 1941 3503 1739 3701 
Q 1538 3900 1238 3900 
Q 753 3900 428 3381 
L 325 3431 
z
" transform="scale(0.015625)"/>
       </defs>
       <use xlink:href="#TimesNewRomanPSMT-33"/>
       <use xlink:href="#TimesNewRomanPSMT-30" x="50"/>
       <use xlink:href="#TimesNewRomanPSMT-30" x="100"/>
      </g>
     </g>
    </g>
    <g id="text_8">
     <!-- Cut Number -->
     <g transform="translate(186.442813 341.554312) scale(0.2 -0.2)">
      <defs>
       <path id="TimesNewRomanPSMT-43" d="M 3853 4334 
L 3950 2894 
L 3853 2894 
Q 3659 3541 3300 3825 
Q 2941 4109 2438 4109 
Q 2016 4109 1675 3895 
Q 1334 3681 1139 3212 
Q 944 2744 944 2047 
Q 944 1472 1128 1050 
Q 1313 628 1683 403 
Q 2053 178 2528 178 
Q 2941 178 3256 354 
Q 3572 531 3950 1056 
L 4047 994 
Q 3728 428 3303 165 
Q 2878 -97 2294 -97 
Q 1241 -97 663 684 
Q 231 1266 231 2053 
Q 231 2688 515 3219 
Q 800 3750 1298 4042 
Q 1797 4334 2388 4334 
Q 2847 4334 3294 4109 
Q 3425 4041 3481 4041 
Q 3566 4041 3628 4100 
Q 3709 4184 3744 4334 
L 3853 4334 
z
" transform="scale(0.015625)"/>
       <path id="TimesNewRomanPSMT-75" d="M 2709 2863 
L 2709 1128 
Q 2709 631 2732 520 
Q 2756 409 2807 365 
Q 2859 322 2928 322 
Q 3025 322 3147 375 
L 3191 266 
L 2334 -88 
L 2194 -88 
L 2194 519 
Q 1825 119 1631 15 
Q 1438 -88 1222 -88 
Q 981 -88 804 51 
Q 628 191 559 409 
Q 491 628 491 1028 
L 491 2306 
Q 491 2509 447 2587 
Q 403 2666 317 2708 
Q 231 2750 6 2747 
L 6 2863 
L 1009 2863 
L 1009 947 
Q 1009 547 1148 422 
Q 1288 297 1484 297 
Q 1619 297 1789 381 
Q 1959 466 2194 703 
L 2194 2325 
Q 2194 2569 2105 2655 
Q 2016 2741 1734 2747 
L 1734 2863 
L 2709 2863 
z
" transform="scale(0.015625)"/>
       <path id="TimesNewRomanPSMT-74" d="M 1031 3803 
L 1031 2863 
L 1700 2863 
L 1700 2644 
L 1031 2644 
L 1031 788 
Q 1031 509 1111 412 
Q 1191 316 1316 316 
Q 1419 316 1516 380 
Q 1613 444 1666 569 
L 1788 569 
Q 1678 263 1478 108 
Q 1278 -47 1066 -47 
Q 922 -47 784 33 
Q 647 113 581 261 
Q 516 409 516 719 
L 516 2644 
L 63 2644 
L 63 2747 
Q 234 2816 414 2980 
Q 594 3144 734 3369 
Q 806 3488 934 3803 
L 1031 3803 
z
" transform="scale(0.015625)"/>
       <path id="TimesNewRomanPSMT-20" transform="scale(0.015625)"/>
       <path id="TimesNewRomanPSMT-4e" d="M -84 4238 
L 1066 4238 
L 3656 1059 
L 3656 3503 
Q 3656 3894 3569 3991 
Q 3453 4122 3203 4122 
L 3056 4122 
L 3056 4238 
L 4531 4238 
L 4531 4122 
L 4381 4122 
Q 4113 4122 4000 3959 
Q 3931 3859 3931 3503 
L 3931 -69 
L 3819 -69 
L 1025 3344 
L 1025 734 
Q 1025 344 1109 247 
Q 1228 116 1475 116 
L 1625 116 
L 1625 0 
L 150 0 
L 150 116 
L 297 116 
Q 569 116 681 278 
Q 750 378 750 734 
L 750 3681 
Q 566 3897 470 3965 
Q 375 4034 191 4094 
Q 100 4122 -84 4122 
L -84 4238 
z
" transform="scale(0.015625)"/>
       <path id="TimesNewRomanPSMT-6d" d="M 1050 2338 
Q 1363 2650 1419 2697 
Q 1559 2816 1721 2881 
Q 1884 2947 2044 2947 
Q 2313 2947 2506 2790 
Q 2700 2634 2766 2338 
Q 3088 2713 3309 2830 
Q 3531 2947 3766 2947 
Q 3994 2947 4170 2830 
Q 4347 2713 4450 2447 
Q 4519 2266 4519 1878 
L 4519 647 
Q 4519 378 4559 278 
Q 4591 209 4675 161 
Q 4759 113 4950 113 
L 4950 0 
L 3538 0 
L 3538 113 
L 3597 113 
Q 3781 113 3884 184 
Q 3956 234 3988 344 
Q 4000 397 4000 647 
L 4000 1878 
Q 4000 2228 3916 2372 
Q 3794 2572 3525 2572 
Q 3359 2572 3192 2489 
Q 3025 2406 2788 2181 
L 2781 2147 
L 2788 2013 
L 2788 647 
Q 2788 353 2820 281 
Q 2853 209 2943 161 
Q 3034 113 3253 113 
L 3253 0 
L 1806 0 
L 1806 113 
Q 2044 113 2133 169 
Q 2222 225 2256 338 
Q 2272 391 2272 647 
L 2272 1878 
Q 2272 2228 2169 2381 
Q 2031 2581 1784 2581 
Q 1616 2581 1450 2491 
Q 1191 2353 1050 2181 
L 1050 647 
Q 1050 366 1089 281 
Q 1128 197 1204 155 
Q 1281 113 1516 113 
L 1516 0 
L 100 0 
L 100 113 
Q 297 113 375 155 
Q 453 197 493 289 
Q 534 381 534 647 
L 534 1741 
Q 534 2213 506 2350 
Q 484 2453 437 2492 
Q 391 2531 309 2531 
Q 222 2531 100 2484 
L 53 2597 
L 916 2947 
L 1050 2947 
L 1050 2338 
z
" transform="scale(0.015625)"/>
       <path id="TimesNewRomanPSMT-62" d="M 984 2369 
Q 1400 2947 1881 2947 
Q 2322 2947 2650 2570 
Q 2978 2194 2978 1541 
Q 2978 778 2472 313 
Q 2038 -88 1503 -88 
Q 1253 -88 995 3 
Q 738 94 469 275 
L 469 3241 
Q 469 3728 445 3840 
Q 422 3953 372 3993 
Q 322 4034 247 4034 
Q 159 4034 28 3984 
L -16 4094 
L 844 4444 
L 984 4444 
L 984 2369 
z
M 984 2169 
L 984 456 
Q 1144 300 1314 220 
Q 1484 141 1663 141 
Q 1947 141 2192 453 
Q 2438 766 2438 1363 
Q 2438 1913 2192 2208 
Q 1947 2503 1634 2503 
Q 1469 2503 1303 2419 
Q 1178 2356 984 2169 
z
" transform="scale(0.015625)"/>
       <path id="TimesNewRomanPSMT-65" d="M 681 1784 
Q 678 1147 991 784 
Q 1303 422 1725 422 
Q 2006 422 2214 576 
Q 2422 731 2563 1106 
L 2659 1044 
Q 2594 616 2278 264 
Q 1963 -88 1488 -88 
Q 972 -88 605 314 
Q 238 716 238 1394 
Q 238 2128 614 2539 
Q 991 2950 1559 2950 
Q 2041 2950 2350 2633 
Q 2659 2316 2659 1784 
L 681 1784 
z
M 681 1966 
L 2006 1966 
Q 1991 2241 1941 2353 
Q 1863 2528 1708 2628 
Q 1553 2728 1384 2728 
Q 1125 2728 920 2526 
Q 716 2325 681 1966 
z
" transform="scale(0.015625)"/>
       <path id="TimesNewRomanPSMT-72" d="M 1038 2947 
L 1038 2303 
Q 1397 2947 1775 2947 
Q 1947 2947 2059 2842 
Q 2172 2738 2172 2600 
Q 2172 2478 2090 2393 
Q 2009 2309 1897 2309 
Q 1788 2309 1652 2417 
Q 1516 2525 1450 2525 
Q 1394 2525 1328 2463 
Q 1188 2334 1038 2041 
L 1038 669 
Q 1038 431 1097 309 
Q 1138 225 1241 169 
Q 1344 113 1538 113 
L 1538 0 
L 72 0 
L 72 113 
Q 291 113 397 181 
Q 475 231 506 341 
Q 522 394 522 644 
L 522 1753 
Q 522 2253 501 2348 
Q 481 2444 426 2487 
Q 372 2531 291 2531 
Q 194 2531 72 2484 
L 41 2597 
L 906 2947 
L 1038 2947 
z
" transform="scale(0.015625)"/>
      </defs>
      <use xlink:href="#TimesNewRomanPSMT-43"/>
      <use xlink:href="#TimesNewRomanPSMT-75" x="66.699219"/>
      <use xlink:href="#TimesNewRomanPSMT-74" x="116.699219"/>
      <use xlink:href="#TimesNewRomanPSMT-20" x="144.482422"/>
      <use xlink:href="#TimesNewRomanPSMT-4e" x="169.482422"/>
      <use xlink:href="#TimesNewRomanPSMT-75" x="241.699219"/>
      <use xlink:href="#TimesNewRomanPSMT-6d" x="291.699219"/>
      <use xlink:href="#TimesNewRomanPSMT-62" x="369.482422"/>
      <use xlink:href="#TimesNewRomanPSMT-65" x="419.482422"/>
      <use xlink:href="#TimesNewRomanPSMT-72" x="463.867188"/>
     </g>
    </g>
   </g>
   <g id="matplotlib.axis_2">
    <g id="ytick_1">
     <g id="line2d_8">
      <defs>
       <path id="m24578c82a5" d="M 0 0 
L -3.5 0 
" style="stroke: #000000; stroke-width: 0.8"/>
      </defs>
      <g>
       <use xlink:href="#m24578c82a5" x="57.6" y="307.584" style="stroke: #000000; stroke-width: 0.8"/>
      </g>
     </g>
     <g id="text_9">
      <!-- 0 -->
      <g transform="translate(45.6 311.055875) scale(0.1 -0.1)">
       <use xlink:href="#TimesNewRomanPSMT-30"/>
      </g>
     </g>
    </g>
    <g id="ytick_2">
     <g id="line2d_9">
      <g>
       <use xlink:href="#m24578c82a5" x="57.6" y="253.354658" style="stroke: #000000; stroke-width: 0.8"/>
      </g>
     </g>
     <g id="text_10">
      <!-- 50 -->
      <g transform="translate(40.6 256.826533) scale(0.1 -0.1)">
       <use xlink:href="#TimesNewRomanPSMT-35"/>
       <use xlink:href="#TimesNewRomanPSMT-30" x="50"/>
      </g>
     </g>
    </g>
    <g id="ytick_3">
     <g id="line2d_10">
      <g>
       <use xlink:href="#m24578c82a5" x="57.6" y="199.125317" style="stroke: #000000; stroke-width: 0.8"/>
      </g>
     </g>
     <g id="text_11">
      <!-- 100 -->
      <g transform="translate(35.6 202.597192) scale(0.1 -0.1)">
       <use xlink:href="#TimesNewRomanPSMT-31"/>
       <use xlink:href="#TimesNewRomanPSMT-30" x="50"/>
       <use xlink:href="#TimesNewRomanPSMT-30" x="100"/>
      </g>
     </g>
    </g>
    <g id="ytick_4">
     <g id="line2d_11">
      <g>
       <use xlink:href="#m24578c82a5" x="57.6" y="144.895975" style="stroke: #000000; stroke-width: 0.8"/>
      </g>
     </g>
     <g id="text_12">
      <!-- 150 -->
      <g transform="translate(35.6 148.36785) scale(0.1 -0.1)">
       <use xlink:href="#TimesNewRomanPSMT-31"/>
       <use xlink:href="#TimesNewRomanPSMT-35" x="50"/>
       <use xlink:href="#TimesNewRomanPSMT-30" x="100"/>
      </g>
     </g>
    </g>
    <g id="ytick_5">
     <g id="line2d_12">
      <g>
       <use xlink:href="#m24578c82a5" x="57.6" y="90.666634" style="stroke: #000000; stroke-width: 0.8"/>
      </g>
     </g>
     <g id="text_13">
      <!-- 200 -->
      <g transform="translate(35.6 94.138509) scale(0.1 -0.1)">
       <use xlink:href="#TimesNewRomanPSMT-32"/>
       <use xlink:href="#TimesNewRomanPSMT-30" x="50"/>
       <use xlink:href="#TimesNewRomanPSMT-30" x="100"/>
      </g>
     </g>
    </g>
    <g id="text_14">
     <!-- Tool wear ($\mu m$) -->
     <g transform="translate(27.2 240.628) rotate(-90) scale(0.2 -0.2)">
      <defs>
       <path id="TimesNewRomanPSMT-54" d="M 3703 4238 
L 3750 3244 
L 3631 3244 
Q 3597 3506 3538 3619 
Q 3441 3800 3280 3886 
Q 3119 3972 2856 3972 
L 2259 3972 
L 2259 734 
Q 2259 344 2344 247 
Q 2463 116 2709 116 
L 2856 116 
L 2856 0 
L 1059 0 
L 1059 116 
L 1209 116 
Q 1478 116 1591 278 
Q 1659 378 1659 734 
L 1659 3972 
L 1150 3972 
Q 853 3972 728 3928 
Q 566 3869 450 3700 
Q 334 3531 313 3244 
L 194 3244 
L 244 4238 
L 3703 4238 
z
" transform="scale(0.015625)"/>
       <path id="TimesNewRomanPSMT-6f" d="M 1600 2947 
Q 2250 2947 2644 2453 
Q 2978 2031 2978 1484 
Q 2978 1100 2793 706 
Q 2609 313 2286 112 
Q 1963 -88 1566 -88 
Q 919 -88 538 428 
Q 216 863 216 1403 
Q 216 1797 411 2186 
Q 606 2575 925 2761 
Q 1244 2947 1600 2947 
z
M 1503 2744 
Q 1338 2744 1170 2645 
Q 1003 2547 900 2300 
Q 797 2053 797 1666 
Q 797 1041 1045 587 
Q 1294 134 1700 134 
Q 2003 134 2200 384 
Q 2397 634 2397 1244 
Q 2397 2006 2069 2444 
Q 1847 2744 1503 2744 
z
" transform="scale(0.015625)"/>
       <path id="TimesNewRomanPSMT-6c" d="M 1184 4444 
L 1184 647 
Q 1184 378 1223 290 
Q 1263 203 1344 158 
Q 1425 113 1647 113 
L 1647 0 
L 244 0 
L 244 113 
Q 441 113 512 153 
Q 584 194 625 287 
Q 666 381 666 647 
L 666 3247 
Q 666 3731 644 3842 
Q 622 3953 573 3993 
Q 525 4034 450 4034 
Q 369 4034 244 3984 
L 191 4094 
L 1044 4444 
L 1184 4444 
z
" transform="scale(0.015625)"/>
       <path id="TimesNewRomanPSMT-77" d="M 41 2863 
L 1241 2863 
L 1241 2747 
Q 1075 2734 1023 2687 
Q 972 2641 972 2553 
Q 972 2456 1025 2319 
L 1638 672 
L 2253 2013 
L 2091 2434 
Q 2016 2622 1894 2694 
Q 1825 2738 1638 2747 
L 1638 2863 
L 3000 2863 
L 3000 2747 
Q 2775 2738 2681 2666 
Q 2619 2616 2619 2506 
Q 2619 2444 2644 2378 
L 3294 734 
L 3897 2319 
Q 3959 2488 3959 2588 
Q 3959 2647 3898 2694 
Q 3838 2741 3659 2747 
L 3659 2863 
L 4563 2863 
L 4563 2747 
Q 4291 2706 4163 2378 
L 3206 -88 
L 3078 -88 
L 2363 1741 
L 1528 -88 
L 1413 -88 
L 494 2319 
Q 403 2547 315 2626 
Q 228 2706 41 2747 
L 41 2863 
z
" transform="scale(0.015625)"/>
       <path id="TimesNewRomanPSMT-61" d="M 1822 413 
Q 1381 72 1269 19 
Q 1100 -59 909 -59 
Q 613 -59 420 144 
Q 228 347 228 678 
Q 228 888 322 1041 
Q 450 1253 767 1440 
Q 1084 1628 1822 1897 
L 1822 2009 
Q 1822 2438 1686 2597 
Q 1550 2756 1291 2756 
Q 1094 2756 978 2650 
Q 859 2544 859 2406 
L 866 2225 
Q 866 2081 792 2003 
Q 719 1925 600 1925 
Q 484 1925 411 2006 
Q 338 2088 338 2228 
Q 338 2497 613 2722 
Q 888 2947 1384 2947 
Q 1766 2947 2009 2819 
Q 2194 2722 2281 2516 
Q 2338 2381 2338 1966 
L 2338 994 
Q 2338 584 2353 492 
Q 2369 400 2405 369 
Q 2441 338 2488 338 
Q 2538 338 2575 359 
Q 2641 400 2828 588 
L 2828 413 
Q 2478 -56 2159 -56 
Q 2006 -56 1915 50 
Q 1825 156 1822 413 
z
M 1822 616 
L 1822 1706 
Q 1350 1519 1213 1441 
Q 966 1303 859 1153 
Q 753 1003 753 825 
Q 753 600 887 451 
Q 1022 303 1197 303 
Q 1434 303 1822 616 
z
" transform="scale(0.015625)"/>
       <path id="TimesNewRomanPSMT-28" d="M 1988 -1253 
L 1988 -1369 
Q 1516 -1131 1200 -813 
Q 750 -359 506 256 
Q 263 872 263 1534 
Q 263 2503 741 3301 
Q 1219 4100 1988 4444 
L 1988 4313 
Q 1603 4100 1356 3731 
Q 1109 3363 987 2797 
Q 866 2231 866 1616 
Q 866 947 969 400 
Q 1050 -31 1165 -292 
Q 1281 -553 1476 -793 
Q 1672 -1034 1988 -1253 
z
" transform="scale(0.015625)"/>
       <path id="DejaVuSans-Oblique-3bc" d="M -84 -1331 
L 856 3500 
L 1434 3500 
L 1009 1322 
Q 997 1256 987 1175 
Q 978 1094 978 1013 
Q 978 722 1161 565 
Q 1344 409 1684 409 
Q 2147 409 2431 671 
Q 2716 934 2816 1459 
L 3213 3500 
L 3788 3500 
L 3266 809 
Q 3253 750 3248 706 
Q 3244 663 3244 628 
Q 3244 531 3283 486 
Q 3322 441 3406 441 
Q 3438 441 3492 456 
Q 3547 472 3647 513 
L 3559 50 
Q 3422 -19 3297 -55 
Q 3172 -91 3053 -91 
Q 2847 -91 2730 40 
Q 2613 172 2613 403 
Q 2438 153 2195 31 
Q 1953 -91 1625 -91 
Q 1334 -91 1117 43 
Q 900 178 831 397 
L 494 -1331 
L -84 -1331 
z
" transform="scale(0.015625)"/>
       <path id="DejaVuSans-Oblique-6d" d="M 5747 2113 
L 5338 0 
L 4763 0 
L 5166 2094 
Q 5191 2228 5203 2325 
Q 5216 2422 5216 2491 
Q 5216 2772 5059 2928 
Q 4903 3084 4622 3084 
Q 4203 3084 3875 2770 
Q 3547 2456 3450 1953 
L 3066 0 
L 2491 0 
L 2900 2094 
Q 2925 2209 2937 2307 
Q 2950 2406 2950 2484 
Q 2950 2769 2794 2926 
Q 2638 3084 2363 3084 
Q 1938 3084 1609 2770 
Q 1281 2456 1184 1953 
L 800 0 
L 225 0 
L 909 3500 
L 1484 3500 
L 1375 2956 
Q 1609 3263 1923 3423 
Q 2238 3584 2597 3584 
Q 2978 3584 3223 3384 
Q 3469 3184 3519 2828 
Q 3781 3197 4126 3390 
Q 4472 3584 4856 3584 
Q 5306 3584 5551 3325 
Q 5797 3066 5797 2591 
Q 5797 2488 5784 2364 
Q 5772 2241 5747 2113 
z
" transform="scale(0.015625)"/>
       <path id="TimesNewRomanPSMT-29" d="M 144 4313 
L 144 4444 
Q 619 4209 934 3891 
Q 1381 3434 1625 2820 
Q 1869 2206 1869 1541 
Q 1869 572 1392 -226 
Q 916 -1025 144 -1369 
L 144 -1253 
Q 528 -1038 776 -670 
Q 1025 -303 1145 264 
Q 1266 831 1266 1447 
Q 1266 2113 1163 2663 
Q 1084 3094 967 3353 
Q 850 3613 656 3853 
Q 463 4094 144 4313 
z
" transform="scale(0.015625)"/>
      </defs>
      <use xlink:href="#TimesNewRomanPSMT-54" transform="translate(0 0.5625)"/>
      <use xlink:href="#TimesNewRomanPSMT-6f" transform="translate(61.083984 0.5625)"/>
      <use xlink:href="#TimesNewRomanPSMT-6f" transform="translate(111.083984 0.5625)"/>
      <use xlink:href="#TimesNewRomanPSMT-6c" transform="translate(161.083984 0.5625)"/>
      <use xlink:href="#TimesNewRomanPSMT-20" transform="translate(188.867188 0.5625)"/>
      <use xlink:href="#TimesNewRomanPSMT-77" transform="translate(213.867188 0.5625)"/>
      <use xlink:href="#TimesNewRomanPSMT-65" transform="translate(286.083984 0.5625)"/>
      <use xlink:href="#TimesNewRomanPSMT-61" transform="translate(330.46875 0.5625)"/>
      <use xlink:href="#TimesNewRomanPSMT-72" transform="translate(374.853516 0.5625)"/>
      <use xlink:href="#TimesNewRomanPSMT-20" transform="translate(408.154297 0.5625)"/>
      <use xlink:href="#TimesNewRomanPSMT-28" transform="translate(433.154297 0.5625)"/>
      <use xlink:href="#DejaVuSans-Oblique-3bc" transform="translate(466.455078 0.5625)"/>
      <use xlink:href="#DejaVuSans-Oblique-6d" transform="translate(530.078125 0.5625)"/>
      <use xlink:href="#TimesNewRomanPSMT-29" transform="translate(627.490234 0.5625)"/>
     </g>
    </g>
   </g>
   <g id="line2d_13">
    <path d="M 73.832727 270.524394 
L 74.866659 269.762092 
L 75.900591 266.0491 
L 76.934522 259.991046 
L 77.968454 257.786845 
L 79.002386 251.944539 
L 80.036317 254.801216 
L 81.070249 254.861154 
L 82.104181 251.889769 
L 83.138112 243.231266 
L 84.172044 248.213872 
L 87.273839 239.43793 
L 88.307771 237.316763 
L 89.341702 233.040252 
L 90.375634 234.05908 
L 91.409566 234.299296 
L 92.443497 242.6321 
L 93.477429 238.453555 
L 94.511361 227.291145 
L 95.545292 224.115109 
L 96.579224 220.573528 
L 97.613156 219.892426 
L 98.647087 216.091026 
L 99.681019 217.373984 
L 100.714951 217.310111 
L 101.748882 216.303671 
L 102.782814 216.342396 
L 103.816746 213.476936 
L 104.850677 224.7378 
L 105.884609 224.714233 
L 106.918541 221.372214 
L 107.952472 214.752604 
L 108.986404 215.38304 
L 111.054268 212.660608 
L 112.088199 215.176378 
L 113.122131 212.321981 
L 114.156063 210.746479 
L 115.189994 210.092286 
L 116.223926 210.552478 
L 117.257858 210.257202 
L 118.291789 210.092501 
L 119.325721 209.60315 
L 120.359653 208.633532 
L 121.393584 217.020214 
L 122.427516 208.792217 
L 123.461448 208.76381 
L 124.495379 207.300885 
L 125.529311 206.944078 
L 126.563243 206.21907 
L 127.597174 205.099903 
L 128.631106 204.94596 
L 129.665038 203.003514 
L 130.698969 203.021073 
L 131.732901 201.611496 
L 132.766833 217.295911 
L 133.800764 201.829676 
L 134.834696 202.298755 
L 135.868628 199.695538 
L 136.902559 200.368555 
L 137.936491 196.017217 
L 138.970423 199.934976 
L 140.004354 201.701715 
L 142.072218 196.948886 
L 143.106149 196.609324 
L 144.140081 194.880209 
L 145.174013 194.51315 
L 146.207944 194.466745 
L 147.241876 193.939429 
L 148.275808 194.658364 
L 150.343671 191.063758 
L 151.377603 200.228472 
L 152.411534 193.221016 
L 153.445466 192.294336 
L 154.479398 192.164795 
L 155.513329 190.804461 
L 156.547261 190.751072 
L 157.581193 191.19013 
L 158.615124 189.258226 
L 160.682988 190.180529 
L 161.71692 193.423648 
L 162.750851 199.357978 
L 163.784783 189.291251 
L 164.818715 189.39936 
L 165.852646 189.011672 
L 166.886578 189.327171 
L 167.92051 189.084175 
L 168.954441 187.984479 
L 169.988373 188.803273 
L 171.022305 187.586216 
L 172.056236 188.227574 
L 174.1241 188.198646 
L 175.158031 187.799323 
L 176.191963 188.754295 
L 177.225895 187.721309 
L 178.259826 186.878576 
L 179.293758 187.056285 
L 180.32769 187.544511 
L 181.361621 187.669013 
L 182.395553 186.069936 
L 183.429485 186.34891 
L 184.463416 188.813484 
L 185.497348 186.49232 
L 186.53128 186.168587 
L 187.565211 186.959437 
L 188.599143 186.372642 
L 189.633075 185.344398 
L 190.667006 185.150819 
L 191.700938 188.571241 
L 192.73487 187.451404 
L 193.768801 185.175651 
L 194.802733 185.555892 
L 195.836665 188.513475 
L 196.870596 185.514212 
L 197.904528 186.077102 
L 198.93846 184.490569 
L 199.972391 186.305369 
L 202.040255 186.359063 
L 203.074186 185.62123 
L 204.108118 185.22544 
L 205.14205 185.62957 
L 206.175981 186.469688 
L 207.209913 186.596275 
L 208.243845 184.480664 
L 210.311708 185.386293 
L 212.379572 185.408105 
L 213.413503 186.258285 
L 214.447435 183.728747 
L 215.481367 183.726033 
L 216.515298 183.383442 
L 217.54923 184.53071 
L 218.583162 182.834661 
L 219.617093 184.726167 
L 220.651025 184.533416 
L 221.684957 183.989285 
L 222.718888 184.74884 
L 223.75282 186.062952 
L 224.786752 184.562046 
L 225.820683 184.3673 
L 226.854615 182.629348 
L 227.888547 186.009919 
L 228.922478 182.866179 
L 229.95641 183.777948 
L 230.990342 183.348406 
L 232.024273 182.125168 
L 233.058205 182.118358 
L 234.092137 183.508787 
L 237.193932 181.080366 
L 238.227863 182.115007 
L 239.261795 180.657643 
L 240.295727 180.689898 
L 241.329658 181.905962 
L 242.36359 181.99144 
L 243.397522 180.748003 
L 244.431453 181.045596 
L 245.465385 180.09036 
L 246.499317 178.593691 
L 247.533248 179.351798 
L 248.56718 179.559816 
L 249.601112 179.422274 
L 250.635043 181.23474 
L 251.668975 179.100568 
L 252.702907 179.275571 
L 253.736838 178.605242 
L 254.77077 178.160227 
L 255.804702 178.511448 
L 256.838633 177.11511 
L 257.872565 177.430709 
L 258.906497 177.475111 
L 259.940428 176.420181 
L 260.97436 177.146521 
L 262.008292 180.676228 
L 263.042224 174.574955 
L 264.076155 175.202421 
L 265.110087 175.502876 
L 266.144019 175.087906 
L 267.17795 173.898446 
L 268.211882 173.371353 
L 269.245814 173.954987 
L 270.279745 172.890425 
L 271.313677 173.339148 
L 272.347609 173.244733 
L 273.38154 170.430957 
L 274.415472 171.632474 
L 275.449404 169.731286 
L 276.483335 169.066493 
L 277.517267 169.112029 
L 278.551199 168.416132 
L 279.58513 167.945067 
L 281.652994 166.710013 
L 282.686925 164.824017 
L 283.720857 171.602784 
L 284.754789 164.670637 
L 285.78872 163.915749 
L 286.822652 164.119671 
L 287.856584 163.912538 
L 288.890515 160.050816 
L 289.924447 161.404547 
L 290.958379 160.838588 
L 291.99231 159.129076 
L 293.026242 158.754213 
L 294.060174 157.595104 
L 295.094105 171.062866 
L 296.128037 156.547224 
L 297.161969 155.609299 
L 298.1959 155.55548 
L 299.229832 155.100733 
L 300.263764 153.788343 
L 301.297695 154.43091 
L 302.331627 153.95354 
L 303.365559 150.451421 
L 304.39949 150.818621 
L 305.433422 147.454078 
L 306.467354 147.851299 
L 307.501285 147.773649 
L 308.535217 145.323415 
L 309.569149 146.227878 
L 310.60308 143.504826 
L 311.637012 138.689109 
L 312.670944 140.254955 
L 313.704876 139.104666 
L 314.738807 139.385478 
L 315.772739 136.532612 
L 316.806671 139.939389 
L 318.874534 132.740514 
L 319.908466 134.711176 
L 320.942397 132.018344 
L 321.976329 131.255231 
L 323.010261 131.709233 
L 324.044192 127.725805 
L 325.078124 127.967991 
L 326.112056 125.840488 
L 327.145987 133.332273 
L 328.179919 122.914077 
L 329.213851 123.277205 
L 330.247782 124.992162 
L 331.281714 125.303325 
L 332.315646 121.607379 
L 333.349577 120.881635 
L 334.383509 120.895189 
L 335.417441 116.42332 
L 336.451372 117.416173 
L 337.485304 117.423521 
L 338.519236 114.446121 
L 339.553167 114.534727 
L 340.587099 111.915126 
L 341.621031 110.98617 
L 342.654962 112.566447 
L 343.688894 110.182329 
L 344.722826 109.18092 
L 345.756757 109.125098 
L 346.790689 109.602236 
L 347.824621 106.858465 
L 348.858552 108.483822 
L 349.892484 115.057607 
L 350.926416 107.386741 
L 351.960347 104.16358 
L 352.994279 102.582658 
L 354.028211 102.962121 
L 355.062142 99.44289 
L 356.096074 99.666275 
L 357.130006 101.109886 
L 358.163937 97.605087 
L 359.197869 96.116113 
L 360.231801 93.865963 
L 361.265732 112.800473 
L 362.299664 95.850709 
L 363.333596 95.993366 
L 364.367528 93.506343 
L 365.401459 94.455754 
L 366.435391 95.577097 
L 367.469323 90.59044 
L 368.503254 90.462993 
L 369.537186 87.283175 
L 370.571118 86.948842 
L 371.605049 104.711037 
L 372.638981 92.049724 
L 373.672913 89.14385 
L 374.706844 90.19691 
L 375.740776 88.17789 
L 376.774708 88.468763 
L 377.808639 88.940523 
L 378.842571 85.973548 
L 379.876503 85.627631 
L 380.910434 84.232129 
L 381.944366 86.634469 
L 382.978298 86.436421 
L 384.012229 82.457247 
L 385.046161 75.920334 
L 386.080093 77.070374 
L 387.114024 78.507978 
L 388.147956 76.650878 
L 389.181888 71.572372 
L 390.215819 71.724279 
L 391.249751 72.649892 
L 392.283683 71.485702 
L 393.317614 71.677345 
L 394.351546 81.496781 
L 395.385478 72.92127 
L 396.419409 71.962128 
L 397.453341 69.414683 
L 398.487273 68.620374 
L 398.487273 68.620374 
" clip-path="url(#pe7e8e87452)" style="fill: none; stroke: #006aae; stroke-width: 1.5; stroke-linecap: square"/>
   </g>
   <g id="line2d_14">
    <path d="M 73.832727 296.850234 
L 76.934522 264.648935 
L 81.070249 249.753516 
L 85.205976 227.178888 
L 93.477429 217.801588 
L 105.884609 206.905372 
L 138.970423 192.14423 
L 172.056236 190.267032 
L 205.14205 183.106853 
L 238.227863 180.615033 
L 271.313677 172.960704 
L 304.39949 148.337852 
L 337.485304 108.900272 
L 370.571118 88.400595 
L 398.487273 54.144 
L 398.487273 54.144 
" clip-path="url(#pe7e8e87452)" style="fill: none; stroke: #ff0000; stroke-width: 1.5; stroke-linecap: square"/>
   </g>
   <g id="patch_318">
    <path d="M 57.6 307.584 
L 57.6 41.472 
" style="fill: none; stroke: #000000; stroke-width: 0.8; stroke-linejoin: miter; stroke-linecap: square"/>
   </g>
   <g id="patch_319">
    <path d="M 414.72 307.584 
L 414.72 41.472 
" style="fill: none; stroke: #000000; stroke-width: 0.8; stroke-linejoin: miter; stroke-linecap: square"/>
   </g>
   <g id="patch_320">
    <path d="M 57.6 307.584 
L 414.72 307.584 
" style="fill: none; stroke: #000000; stroke-width: 0.8; stroke-linejoin: miter; stroke-linecap: square"/>
   </g>
   <g id="patch_321">
    <path d="M 57.6 41.472 
L 414.72 41.472 
" style="fill: none; stroke: #000000; stroke-width: 0.8; stroke-linejoin: miter; stroke-linecap: square"/>
   </g>
   <g id="text_15">
    <!-- No.1 tool wear -->
    <g transform="translate(200.335312 35.472) scale(0.12 -0.12)">
     <defs>
      <path id="TimesNewRomanPSMT-2e" d="M 800 606 
Q 947 606 1047 504 
Q 1147 403 1147 259 
Q 1147 116 1045 14 
Q 944 -88 800 -88 
Q 656 -88 554 14 
Q 453 116 453 259 
Q 453 406 554 506 
Q 656 606 800 606 
z
" transform="scale(0.015625)"/>
     </defs>
     <use xlink:href="#TimesNewRomanPSMT-4e"/>
     <use xlink:href="#TimesNewRomanPSMT-6f" x="72.216797"/>
     <use xlink:href="#TimesNewRomanPSMT-2e" x="122.216797"/>
     <use xlink:href="#TimesNewRomanPSMT-31" x="147.216797"/>
     <use xlink:href="#TimesNewRomanPSMT-20" x="197.216797"/>
     <use xlink:href="#TimesNewRomanPSMT-74" x="222.216797"/>
     <use xlink:href="#TimesNewRomanPSMT-6f" x="250"/>
     <use xlink:href="#TimesNewRomanPSMT-6f" x="300"/>
     <use xlink:href="#TimesNewRomanPSMT-6c" x="350"/>
     <use xlink:href="#TimesNewRomanPSMT-20" x="377.783203"/>
     <use xlink:href="#TimesNewRomanPSMT-77" x="402.783203"/>
     <use xlink:href="#TimesNewRomanPSMT-65" x="475"/>
     <use xlink:href="#TimesNewRomanPSMT-61" x="519.384766"/>
     <use xlink:href="#TimesNewRomanPSMT-72" x="563.769531"/>
    </g>
   </g>
   <g id="legend_1">
    <g id="patch_322">
     <path d="M 64.6 91.889188 
L 134.282813 91.889188 
Q 136.282813 91.889188 136.282813 89.889188 
L 136.282813 48.472 
Q 136.282813 46.472 134.282813 46.472 
L 64.6 46.472 
Q 62.6 46.472 62.6 48.472 
L 62.6 89.889188 
Q 62.6 91.889188 64.6 91.889188 
z
" style="fill: #ffffff; opacity: 0.8; stroke: #cccccc; stroke-linejoin: miter"/>
    </g>
    <g id="line2d_15">
     <path d="M 66.6 53.972 
L 76.6 53.972 
L 86.6 53.972 
" style="fill: none; stroke: #006aae; stroke-width: 1.5; stroke-linecap: square"/>
    </g>
    <g id="text_16">
     <!-- proposed -->
     <g transform="translate(94.6 57.472) scale(0.1 -0.1)">
      <defs>
       <path id="TimesNewRomanPSMT-70" d="M -6 2578 
L 875 2934 
L 994 2934 
L 994 2266 
Q 1216 2644 1439 2795 
Q 1663 2947 1909 2947 
Q 2341 2947 2628 2609 
Q 2981 2197 2981 1534 
Q 2981 794 2556 309 
Q 2206 -88 1675 -88 
Q 1444 -88 1275 -22 
Q 1150 25 994 166 
L 994 -706 
Q 994 -1000 1030 -1079 
Q 1066 -1159 1155 -1206 
Q 1244 -1253 1478 -1253 
L 1478 -1369 
L -22 -1369 
L -22 -1253 
L 56 -1253 
Q 228 -1256 350 -1188 
Q 409 -1153 442 -1076 
Q 475 -1000 475 -688 
L 475 2019 
Q 475 2297 450 2372 
Q 425 2447 370 2484 
Q 316 2522 222 2522 
Q 147 2522 31 2478 
L -6 2578 
z
M 994 2081 
L 994 1013 
Q 994 666 1022 556 
Q 1066 375 1236 237 
Q 1406 100 1666 100 
Q 1978 100 2172 344 
Q 2425 663 2425 1241 
Q 2425 1897 2138 2250 
Q 1938 2494 1663 2494 
Q 1513 2494 1366 2419 
Q 1253 2363 994 2081 
z
" transform="scale(0.015625)"/>
       <path id="TimesNewRomanPSMT-73" d="M 2050 2947 
L 2050 1972 
L 1947 1972 
Q 1828 2431 1642 2597 
Q 1456 2763 1169 2763 
Q 950 2763 815 2647 
Q 681 2531 681 2391 
Q 681 2216 781 2091 
Q 878 1963 1175 1819 
L 1631 1597 
Q 2266 1288 2266 781 
Q 2266 391 1970 151 
Q 1675 -88 1309 -88 
Q 1047 -88 709 6 
Q 606 38 541 38 
Q 469 38 428 -44 
L 325 -44 
L 325 978 
L 428 978 
Q 516 541 762 319 
Q 1009 97 1316 97 
Q 1531 97 1667 223 
Q 1803 350 1803 528 
Q 1803 744 1651 891 
Q 1500 1038 1047 1263 
Q 594 1488 453 1669 
Q 313 1847 313 2119 
Q 313 2472 555 2709 
Q 797 2947 1181 2947 
Q 1350 2947 1591 2875 
Q 1750 2828 1803 2828 
Q 1853 2828 1881 2850 
Q 1909 2872 1947 2947 
L 2050 2947 
z
" transform="scale(0.015625)"/>
       <path id="TimesNewRomanPSMT-64" d="M 2222 322 
Q 2013 103 1813 7 
Q 1613 -88 1381 -88 
Q 913 -88 563 304 
Q 213 697 213 1313 
Q 213 1928 600 2439 
Q 988 2950 1597 2950 
Q 1975 2950 2222 2709 
L 2222 3238 
Q 2222 3728 2198 3840 
Q 2175 3953 2125 3993 
Q 2075 4034 2000 4034 
Q 1919 4034 1784 3984 
L 1744 4094 
L 2597 4444 
L 2738 4444 
L 2738 1134 
Q 2738 631 2761 520 
Q 2784 409 2836 365 
Q 2888 322 2956 322 
Q 3041 322 3181 375 
L 3216 266 
L 2366 -88 
L 2222 -88 
L 2222 322 
z
M 2222 541 
L 2222 2016 
Q 2203 2228 2109 2403 
Q 2016 2578 1861 2667 
Q 1706 2756 1559 2756 
Q 1284 2756 1069 2509 
Q 784 2184 784 1559 
Q 784 928 1059 592 
Q 1334 256 1672 256 
Q 1956 256 2222 541 
z
" transform="scale(0.015625)"/>
      </defs>
      <use xlink:href="#TimesNewRomanPSMT-70"/>
      <use xlink:href="#TimesNewRomanPSMT-72" x="50"/>
      <use xlink:href="#TimesNewRomanPSMT-6f" x="83.300781"/>
      <use xlink:href="#TimesNewRomanPSMT-70" x="133.300781"/>
      <use xlink:href="#TimesNewRomanPSMT-6f" x="183.300781"/>
      <use xlink:href="#TimesNewRomanPSMT-73" x="233.300781"/>
      <use xlink:href="#TimesNewRomanPSMT-65" x="272.216797"/>
      <use xlink:href="#TimesNewRomanPSMT-64" x="316.601562"/>
     </g>
    </g>
    <g id="line2d_16">
     <path d="M 66.6 68.111063 
L 76.6 68.111063 
L 86.6 68.111063 
" style="fill: none; stroke: #ff0000; stroke-width: 1.5; stroke-linecap: square"/>
    </g>
    <g id="text_17">
     <!-- Ture data -->
     <g transform="translate(94.6 71.611063) scale(0.1 -0.1)">
      <use xlink:href="#TimesNewRomanPSMT-54"/>
      <use xlink:href="#TimesNewRomanPSMT-75" x="57.583984"/>
      <use xlink:href="#TimesNewRomanPSMT-72" x="107.583984"/>
      <use xlink:href="#TimesNewRomanPSMT-65" x="140.884766"/>
      <use xlink:href="#TimesNewRomanPSMT-20" x="185.269531"/>
      <use xlink:href="#TimesNewRomanPSMT-64" x="210.269531"/>
      <use xlink:href="#TimesNewRomanPSMT-61" x="260.269531"/>
      <use xlink:href="#TimesNewRomanPSMT-74" x="304.654297"/>
      <use xlink:href="#TimesNewRomanPSMT-61" x="332.4375"/>
     </g>
    </g>
    <g id="patch_323">
     <path d="M 66.6 85.750125 
L 86.6 85.750125 
L 86.6 78.750125 
L 66.6 78.750125 
z
" style="fill: #3e4ba8"/>
    </g>
    <g id="text_18">
     <!-- Error -->
     <g transform="translate(94.6 85.750125) scale(0.1 -0.1)">
      <defs>
       <path id="TimesNewRomanPSMT-45" d="M 1338 4006 
L 1338 2331 
L 2269 2331 
Q 2631 2331 2753 2441 
Q 2916 2584 2934 2947 
L 3050 2947 
L 3050 1472 
L 2934 1472 
Q 2891 1781 2847 1869 
Q 2791 1978 2662 2040 
Q 2534 2103 2269 2103 
L 1338 2103 
L 1338 706 
Q 1338 425 1363 364 
Q 1388 303 1450 267 
Q 1513 231 1688 231 
L 2406 231 
Q 2766 231 2928 281 
Q 3091 331 3241 478 
Q 3434 672 3638 1063 
L 3763 1063 
L 3397 0 
L 131 0 
L 131 116 
L 281 116 
Q 431 116 566 188 
Q 666 238 702 338 
Q 738 438 738 747 
L 738 3500 
Q 738 3903 656 3997 
Q 544 4122 281 4122 
L 131 4122 
L 131 4238 
L 3397 4238 
L 3444 3309 
L 3322 3309 
Q 3256 3644 3176 3769 
Q 3097 3894 2941 3959 
Q 2816 4006 2500 4006 
L 1338 4006 
z
" transform="scale(0.015625)"/>
      </defs>
      <use xlink:href="#TimesNewRomanPSMT-45"/>
      <use xlink:href="#TimesNewRomanPSMT-72" x="61.083984"/>
      <use xlink:href="#TimesNewRomanPSMT-72" x="94.384766"/>
      <use xlink:href="#TimesNewRomanPSMT-6f" x="127.685547"/>
      <use xlink:href="#TimesNewRomanPSMT-72" x="177.685547"/>
     </g>
    </g>
   </g>
  </g>
 </g>
 <defs>
  <clipPath id="pe7e8e87452">
   <rect x="57.6" y="41.472" width="357.12" height="266.112"/>
  </clipPath>
 </defs>
</svg>
