<?xml version="1.0" encoding="utf-8" standalone="no"?>
<!DOCTYPE svg PUBLIC "-//W3C//DTD SVG 1.1//EN"
  "http://www.w3.org/Graphics/SVG/1.1/DTD/svg11.dtd">
<svg xmlns:xlink="http://www.w3.org/1999/xlink" width="460.8pt" height="345.6pt" viewBox="0 0 460.8 345.6" xmlns="http://www.w3.org/2000/svg" version="1.1">
 <metadata>
  <rdf:RDF xmlns:dc="http://purl.org/dc/elements/1.1/" xmlns:cc="http://creativecommons.org/ns#" xmlns:rdf="http://www.w3.org/1999/02/22-rdf-syntax-ns#">
   <cc:Work>
    <dc:type rdf:resource="http://purl.org/dc/dcmitype/StillImage"/>
    <dc:date>2024-04-07T15:44:23.618706</dc:date>
    <dc:format>image/svg+xml</dc:format>
    <dc:creator>
     <cc:Agent>
      <dc:title>Matplotlib v3.7.1, https://matplotlib.org/</dc:title>
     </cc:Agent>
    </dc:creator>
   </cc:Work>
  </rdf:RDF>
 </metadata>
 <defs>
  <style type="text/css">*{stroke-linejoin: round; stroke-linecap: butt}</style>
 </defs>
 <g id="figure_1">
  <g id="patch_1">
   <path d="M 0 345.6 
L 460.8 345.6 
L 460.8 0 
L 0 0 
z
" style="fill: #ffffff"/>
  </g>
  <g id="axes_1">
   <g id="patch_2">
    <path d="M 57.6 307.584 
L 414.72 307.584 
L 414.72 41.472 
L 57.6 41.472 
z
" style="fill: #ffffff"/>
   </g>
   <g id="patch_3">
    <path d="M 73.832727 307.584 
L 74.863377 307.584 
L 74.863377 287.45862 
L 73.832727 287.45862 
z
" clip-path="url(#p859f879ea3)" style="fill: #3e4ba8"/>
   </g>
   <g id="patch_4">
    <path d="M 74.863377 307.584 
L 75.894026 307.584 
L 75.894026 302.710336 
L 74.863377 302.710336 
z
" clip-path="url(#p859f879ea3)" style="fill: #3e4ba8"/>
   </g>
   <g id="patch_5">
    <path d="M 75.894026 307.584 
L 76.924675 307.584 
L 76.924675 299.649182 
L 75.894026 299.649182 
z
" clip-path="url(#p859f879ea3)" style="fill: #3e4ba8"/>
   </g>
   <g id="patch_6">
    <path d="M 76.924675 307.584 
L 77.955325 307.584 
L 77.955325 287.9104 
L 76.924675 287.9104 
z
" clip-path="url(#p859f879ea3)" style="fill: #3e4ba8"/>
   </g>
   <g id="patch_7">
    <path d="M 77.955325 307.584 
L 78.985974 307.584 
L 78.985974 288.97661 
L 77.955325 288.97661 
z
" clip-path="url(#p859f879ea3)" style="fill: #3e4ba8"/>
   </g>
   <g id="patch_8">
    <path d="M 78.985974 307.584 
L 80.016623 307.584 
L 80.016623 291.790646 
L 78.985974 291.790646 
z
" clip-path="url(#p859f879ea3)" style="fill: #3e4ba8"/>
   </g>
   <g id="patch_9">
    <path d="M 80.016623 307.584 
L 81.047273 307.584 
L 81.047273 288.569234 
L 80.016623 288.569234 
z
" clip-path="url(#p859f879ea3)" style="fill: #3e4ba8"/>
   </g>
   <g id="patch_10">
    <path d="M 81.047273 307.584 
L 82.077922 307.584 
L 82.077922 288.132097 
L 81.047273 288.132097 
z
" clip-path="url(#p859f879ea3)" style="fill: #3e4ba8"/>
   </g>
   <g id="patch_11">
    <path d="M 82.077922 307.584 
L 83.108571 307.584 
L 83.108571 289.153959 
L 82.077922 289.153959 
z
" clip-path="url(#p859f879ea3)" style="fill: #3e4ba8"/>
   </g>
   <g id="patch_12">
    <path d="M 83.108571 307.584 
L 84.139221 307.584 
L 84.139221 297.250595 
L 83.108571 297.250595 
z
" clip-path="url(#p859f879ea3)" style="fill: #3e4ba8"/>
   </g>
   <g id="patch_13">
    <path d="M 84.139221 307.584 
L 85.16987 307.584 
L 85.16987 291.1186 
L 84.139221 291.1186 
z
" clip-path="url(#p859f879ea3)" style="fill: #3e4ba8"/>
   </g>
   <g id="patch_14">
    <path d="M 85.16987 307.584 
L 86.200519 307.584 
L 86.200519 293.874982 
L 85.16987 293.874982 
z
" clip-path="url(#p859f879ea3)" style="fill: #3e4ba8"/>
   </g>
   <g id="patch_15">
    <path d="M 86.200519 307.584 
L 87.231169 307.584 
L 87.231169 293.456567 
L 86.200519 293.456567 
z
" clip-path="url(#p859f879ea3)" style="fill: #3e4ba8"/>
   </g>
   <g id="patch_16">
    <path d="M 87.231169 307.584 
L 88.261818 307.584 
L 88.261818 295.152678 
L 87.231169 295.152678 
z
" clip-path="url(#p859f879ea3)" style="fill: #3e4ba8"/>
   </g>
   <g id="patch_17">
    <path d="M 88.261818 307.584 
L 89.292468 307.584 
L 89.292468 295.814306 
L 88.261818 295.814306 
z
" clip-path="url(#p859f879ea3)" style="fill: #3e4ba8"/>
   </g>
   <g id="patch_18">
    <path d="M 89.292468 307.584 
L 90.323117 307.584 
L 90.323117 297.090084 
L 89.292468 297.090084 
z
" clip-path="url(#p859f879ea3)" style="fill: #3e4ba8"/>
   </g>
   <g id="patch_19">
    <path d="M 90.323117 307.584 
L 91.353766 307.584 
L 91.353766 296.92887 
L 90.323117 296.92887 
z
" clip-path="url(#p859f879ea3)" style="fill: #3e4ba8"/>
   </g>
   <g id="patch_20">
    <path d="M 91.353766 307.584 
L 92.384416 307.584 
L 92.384416 295.12692 
L 91.353766 295.12692 
z
" clip-path="url(#p859f879ea3)" style="fill: #3e4ba8"/>
   </g>
   <g id="patch_21">
    <path d="M 92.384416 307.584 
L 93.415065 307.584 
L 93.415065 287.032003 
L 92.384416 287.032003 
z
" clip-path="url(#p859f879ea3)" style="fill: #3e4ba8"/>
   </g>
   <g id="patch_22">
    <path d="M 93.415065 307.584 
L 94.445714 307.584 
L 94.445714 289.471461 
L 93.415065 289.471461 
z
" clip-path="url(#p859f879ea3)" style="fill: #3e4ba8"/>
   </g>
   <g id="patch_23">
    <path d="M 94.445714 307.584 
L 95.476364 307.584 
L 95.476364 298.270419 
L 94.445714 298.270419 
z
" clip-path="url(#p859f879ea3)" style="fill: #3e4ba8"/>
   </g>
   <g id="patch_24">
    <path d="M 95.476364 307.584 
L 96.507013 307.584 
L 96.507013 301.787586 
L 95.476364 301.787586 
z
" clip-path="url(#p859f879ea3)" style="fill: #3e4ba8"/>
   </g>
   <g id="patch_25">
    <path d="M 96.507013 307.584 
L 97.537662 307.584 
L 97.537662 305.357165 
L 96.507013 305.357165 
z
" clip-path="url(#p859f879ea3)" style="fill: #3e4ba8"/>
   </g>
   <g id="patch_26">
    <path d="M 97.537662 307.584 
L 98.568312 307.584 
L 98.568312 305.738395 
L 97.537662 305.738395 
z
" clip-path="url(#p859f879ea3)" style="fill: #3e4ba8"/>
   </g>
   <g id="patch_27">
    <path d="M 98.568312 307.584 
L 99.598961 307.584 
L 99.598961 305.781445 
L 98.568312 305.781445 
z
" clip-path="url(#p859f879ea3)" style="fill: #3e4ba8"/>
   </g>
   <g id="patch_28">
    <path d="M 99.598961 307.584 
L 100.62961 307.584 
L 100.62961 307.236216 
L 99.598961 307.236216 
z
" clip-path="url(#p859f879ea3)" style="fill: #3e4ba8"/>
   </g>
   <g id="patch_29">
    <path d="M 100.62961 307.584 
L 101.66026 307.584 
L 101.66026 307.283688 
L 100.62961 307.283688 
z
" clip-path="url(#p859f879ea3)" style="fill: #3e4ba8"/>
   </g>
   <g id="patch_30">
    <path d="M 101.66026 307.584 
L 102.690909 307.584 
L 102.690909 306.890365 
L 101.66026 306.890365 
z
" clip-path="url(#p859f879ea3)" style="fill: #3e4ba8"/>
   </g>
   <g id="patch_31">
    <path d="M 102.690909 307.584 
L 103.721558 307.584 
L 103.721558 306.442721 
L 102.690909 306.442721 
z
" clip-path="url(#p859f879ea3)" style="fill: #3e4ba8"/>
   </g>
   <g id="patch_32">
    <path d="M 103.721558 307.584 
L 104.752208 307.584 
L 104.752208 304.212368 
L 103.721558 304.212368 
z
" clip-path="url(#p859f879ea3)" style="fill: #3e4ba8"/>
   </g>
   <g id="patch_33">
    <path d="M 104.752208 307.584 
L 105.782857 307.584 
L 105.782857 297.93266 
L 104.752208 297.93266 
z
" clip-path="url(#p859f879ea3)" style="fill: #3e4ba8"/>
   </g>
   <g id="patch_34">
    <path d="M 105.782857 307.584 
L 106.813506 307.584 
L 106.813506 297.875799 
L 105.782857 297.875799 
z
" clip-path="url(#p859f879ea3)" style="fill: #3e4ba8"/>
   </g>
   <g id="patch_35">
    <path d="M 106.813506 307.584 
L 107.844156 307.584 
L 107.844156 301.084796 
L 106.813506 301.084796 
z
" clip-path="url(#p859f879ea3)" style="fill: #3e4ba8"/>
   </g>
   <g id="patch_36">
    <path d="M 107.844156 307.584 
L 108.874805 307.584 
L 108.874805 306.965247 
L 107.844156 306.965247 
z
" clip-path="url(#p859f879ea3)" style="fill: #3e4ba8"/>
   </g>
   <g id="patch_37">
    <path d="M 108.874805 307.584 
L 109.905455 307.584 
L 109.905455 306.800558 
L 108.874805 306.800558 
z
" clip-path="url(#p859f879ea3)" style="fill: #3e4ba8"/>
   </g>
   <g id="patch_38">
    <path d="M 109.905455 307.584 
L 110.936104 307.584 
L 110.936104 307.453316 
L 109.905455 307.453316 
z
" clip-path="url(#p859f879ea3)" style="fill: #3e4ba8"/>
   </g>
   <g id="patch_39">
    <path d="M 110.936104 307.584 
L 111.966753 307.584 
L 111.966753 307.211294 
L 110.936104 307.211294 
z
" clip-path="url(#p859f879ea3)" style="fill: #3e4ba8"/>
   </g>
   <g id="patch_40">
    <path d="M 111.966753 307.584 
L 112.997403 307.584 
L 112.997403 306.844389 
L 111.966753 306.844389 
z
" clip-path="url(#p859f879ea3)" style="fill: #3e4ba8"/>
   </g>
   <g id="patch_41">
    <path d="M 112.997403 307.584 
L 114.028052 307.584 
L 114.028052 307.419127 
L 112.997403 307.419127 
z
" clip-path="url(#p859f879ea3)" style="fill: #3e4ba8"/>
   </g>
   <g id="patch_42">
    <path d="M 114.028052 307.584 
L 115.058701 307.584 
L 115.058701 306.658313 
L 114.028052 306.658313 
z
" clip-path="url(#p859f879ea3)" style="fill: #3e4ba8"/>
   </g>
   <g id="patch_43">
    <path d="M 115.058701 307.584 
L 116.089351 307.584 
L 116.089351 306.767664 
L 115.058701 306.767664 
z
" clip-path="url(#p859f879ea3)" style="fill: #3e4ba8"/>
   </g>
   <g id="patch_44">
    <path d="M 116.089351 307.584 
L 117.12 307.584 
L 117.12 307.274549 
L 116.089351 307.274549 
z
" clip-path="url(#p859f879ea3)" style="fill: #3e4ba8"/>
   </g>
   <g id="patch_45">
    <path d="M 117.12 307.584 
L 118.150649 307.584 
L 118.150649 307.333858 
L 117.12 307.333858 
z
" clip-path="url(#p859f879ea3)" style="fill: #3e4ba8"/>
   </g>
   <g id="patch_46">
    <path d="M 118.150649 307.584 
L 119.181299 307.584 
L 119.181299 306.806633 
L 118.150649 306.806633 
z
" clip-path="url(#p859f879ea3)" style="fill: #3e4ba8"/>
   </g>
   <g id="patch_47">
    <path d="M 119.181299 307.584 
L 120.211948 307.584 
L 120.211948 306.480128 
L 119.181299 306.480128 
z
" clip-path="url(#p859f879ea3)" style="fill: #3e4ba8"/>
   </g>
   <g id="patch_48">
    <path d="M 120.211948 307.584 
L 121.242597 307.584 
L 121.242597 307.40168 
L 120.211948 307.40168 
z
" clip-path="url(#p859f879ea3)" style="fill: #3e4ba8"/>
   </g>
   <g id="patch_49">
    <path d="M 121.242597 307.584 
L 122.273247 307.584 
L 122.273247 298.35358 
L 121.242597 298.35358 
z
" clip-path="url(#p859f879ea3)" style="fill: #3e4ba8"/>
   </g>
   <g id="patch_50">
    <path d="M 122.273247 307.584 
L 123.303896 307.584 
L 123.303896 306.435093 
L 122.273247 306.435093 
z
" clip-path="url(#p859f879ea3)" style="fill: #3e4ba8"/>
   </g>
   <g id="patch_51">
    <path d="M 123.303896 307.584 
L 124.334545 307.584 
L 124.334545 305.148628 
L 123.303896 305.148628 
z
" clip-path="url(#p859f879ea3)" style="fill: #3e4ba8"/>
   </g>
   <g id="patch_52">
    <path d="M 124.334545 307.584 
L 125.365195 307.584 
L 125.365195 305.948034 
L 124.334545 305.948034 
z
" clip-path="url(#p859f879ea3)" style="fill: #3e4ba8"/>
   </g>
   <g id="patch_53">
    <path d="M 125.365195 307.584 
L 126.395844 307.584 
L 126.395844 305.883934 
L 125.365195 305.883934 
z
" clip-path="url(#p859f879ea3)" style="fill: #3e4ba8"/>
   </g>
   <g id="patch_54">
    <path d="M 126.395844 307.584 
L 127.426494 307.584 
L 127.426494 305.937156 
L 126.395844 305.937156 
z
" clip-path="url(#p859f879ea3)" style="fill: #3e4ba8"/>
   </g>
   <g id="patch_55">
    <path d="M 127.426494 307.584 
L 128.457143 307.584 
L 128.457143 306.611314 
L 127.426494 306.611314 
z
" clip-path="url(#p859f879ea3)" style="fill: #3e4ba8"/>
   </g>
   <g id="patch_56">
    <path d="M 128.457143 307.584 
L 129.487792 307.584 
L 129.487792 306.387463 
L 128.457143 306.387463 
z
" clip-path="url(#p859f879ea3)" style="fill: #3e4ba8"/>
   </g>
   <g id="patch_57">
    <path d="M 129.487792 307.584 
L 130.518442 307.584 
L 130.518442 307.070255 
L 129.487792 307.070255 
z
" clip-path="url(#p859f879ea3)" style="fill: #3e4ba8"/>
   </g>
   <g id="patch_58">
    <path d="M 130.518442 307.584 
L 131.549091 307.584 
L 131.549091 307.005933 
L 130.518442 307.005933 
z
" clip-path="url(#p859f879ea3)" style="fill: #3e4ba8"/>
   </g>
   <g id="patch_59">
    <path d="M 131.549091 307.584 
L 132.57974 307.584 
L 132.57974 306.824285 
L 131.549091 306.824285 
z
" clip-path="url(#p859f879ea3)" style="fill: #3e4ba8"/>
   </g>
   <g id="patch_60">
    <path d="M 132.57974 307.584 
L 133.61039 307.584 
L 133.61039 293.010118 
L 132.57974 293.010118 
z
" clip-path="url(#p859f879ea3)" style="fill: #3e4ba8"/>
   </g>
   <g id="patch_61">
    <path d="M 133.61039 307.584 
L 134.641039 307.584 
L 134.641039 307.098062 
L 133.61039 307.098062 
z
" clip-path="url(#p859f879ea3)" style="fill: #3e4ba8"/>
   </g>
   <g id="patch_62">
    <path d="M 134.641039 307.584 
L 135.671688 307.584 
L 135.671688 306.656336 
L 134.641039 306.656336 
z
" clip-path="url(#p859f879ea3)" style="fill: #3e4ba8"/>
   </g>
   <g id="patch_63">
    <path d="M 135.671688 307.584 
L 136.702338 307.584 
L 136.702338 306.242656 
L 135.671688 306.242656 
z
" clip-path="url(#p859f879ea3)" style="fill: #3e4ba8"/>
   </g>
   <g id="patch_64">
    <path d="M 136.702338 307.584 
L 137.732987 307.584 
L 137.732987 306.330944 
L 136.702338 306.330944 
z
" clip-path="url(#p859f879ea3)" style="fill: #3e4ba8"/>
   </g>
   <g id="patch_65">
    <path d="M 137.732987 307.584 
L 138.763636 307.584 
L 138.763636 300.733871 
L 137.732987 300.733871 
z
" clip-path="url(#p859f879ea3)" style="fill: #3e4ba8"/>
   </g>
   <g id="patch_66">
    <path d="M 138.763636 307.584 
L 139.794286 307.584 
L 139.794286 307.233386 
L 138.763636 307.233386 
z
" clip-path="url(#p859f879ea3)" style="fill: #3e4ba8"/>
   </g>
   <g id="patch_67">
    <path d="M 139.794286 307.584 
L 140.824935 307.584 
L 140.824935 302.932461 
L 139.794286 302.932461 
z
" clip-path="url(#p859f879ea3)" style="fill: #3e4ba8"/>
   </g>
   <g id="patch_68">
    <path d="M 140.824935 307.584 
L 141.855584 307.584 
L 141.855584 305.360427 
L 140.824935 305.360427 
z
" clip-path="url(#p859f879ea3)" style="fill: #3e4ba8"/>
   </g>
   <g id="patch_69">
    <path d="M 141.855584 307.584 
L 142.886234 307.584 
L 142.886234 305.36912 
L 141.855584 305.36912 
z
" clip-path="url(#p859f879ea3)" style="fill: #3e4ba8"/>
   </g>
   <g id="patch_70">
    <path d="M 142.886234 307.584 
L 143.916883 307.584 
L 143.916883 306.350003 
L 142.886234 306.350003 
z
" clip-path="url(#p859f879ea3)" style="fill: #3e4ba8"/>
   </g>
   <g id="patch_71">
    <path d="M 143.916883 307.584 
L 144.947532 307.584 
L 144.947532 303.054174 
L 143.916883 303.054174 
z
" clip-path="url(#p859f879ea3)" style="fill: #3e4ba8"/>
   </g>
   <g id="patch_72">
    <path d="M 144.947532 307.584 
L 145.978182 307.584 
L 145.978182 302.07159 
L 144.947532 302.07159 
z
" clip-path="url(#p859f879ea3)" style="fill: #3e4ba8"/>
   </g>
   <g id="patch_73">
    <path d="M 145.978182 307.584 
L 147.008831 307.584 
L 147.008831 301.894556 
L 145.978182 301.894556 
z
" clip-path="url(#p859f879ea3)" style="fill: #3e4ba8"/>
   </g>
   <g id="patch_74">
    <path d="M 147.008831 307.584 
L 148.039481 307.584 
L 148.039481 302.889038 
L 147.008831 302.889038 
z
" clip-path="url(#p859f879ea3)" style="fill: #3e4ba8"/>
   </g>
   <g id="patch_75">
    <path d="M 148.039481 307.584 
L 149.07013 307.584 
L 149.07013 303.317461 
L 148.039481 303.317461 
z
" clip-path="url(#p859f879ea3)" style="fill: #3e4ba8"/>
   </g>
   <g id="patch_76">
    <path d="M 149.07013 307.584 
L 150.100779 307.584 
L 150.100779 301.775608 
L 149.07013 301.775608 
z
" clip-path="url(#p859f879ea3)" style="fill: #3e4ba8"/>
   </g>
   <g id="patch_77">
    <path d="M 150.100779 307.584 
L 151.131429 307.584 
L 151.131429 299.911703 
L 150.100779 299.911703 
z
" clip-path="url(#p859f879ea3)" style="fill: #3e4ba8"/>
   </g>
   <g id="patch_78">
    <path d="M 151.131429 307.584 
L 152.162078 307.584 
L 152.162078 298.261105 
L 151.131429 298.261105 
z
" clip-path="url(#p859f879ea3)" style="fill: #3e4ba8"/>
   </g>
   <g id="patch_79">
    <path d="M 152.162078 307.584 
L 153.192727 307.584 
L 153.192727 303.585434 
L 152.162078 303.585434 
z
" clip-path="url(#p859f879ea3)" style="fill: #3e4ba8"/>
   </g>
   <g id="patch_80">
    <path d="M 153.192727 307.584 
L 154.223377 307.584 
L 154.223377 303.047706 
L 153.192727 303.047706 
z
" clip-path="url(#p859f879ea3)" style="fill: #3e4ba8"/>
   </g>
   <g id="patch_81">
    <path d="M 154.223377 307.584 
L 155.254026 307.584 
L 155.254026 302.935902 
L 154.223377 302.935902 
z
" clip-path="url(#p859f879ea3)" style="fill: #3e4ba8"/>
   </g>
   <g id="patch_82">
    <path d="M 155.254026 307.584 
L 156.284675 307.584 
L 156.284675 302.685961 
L 155.254026 302.685961 
z
" clip-path="url(#p859f879ea3)" style="fill: #3e4ba8"/>
   </g>
   <g id="patch_83">
    <path d="M 156.284675 307.584 
L 157.315325 307.584 
L 157.315325 302.2438 
L 156.284675 302.2438 
z
" clip-path="url(#p859f879ea3)" style="fill: #3e4ba8"/>
   </g>
   <g id="patch_84">
    <path d="M 157.315325 307.584 
L 158.345974 307.584 
L 158.345974 303.287249 
L 157.315325 303.287249 
z
" clip-path="url(#p859f879ea3)" style="fill: #3e4ba8"/>
   </g>
   <g id="patch_85">
    <path d="M 158.345974 307.584 
L 159.376623 307.584 
L 159.376623 301.479776 
L 158.345974 301.479776 
z
" clip-path="url(#p859f879ea3)" style="fill: #3e4ba8"/>
   </g>
   <g id="patch_86">
    <path d="M 159.376623 307.584 
L 160.407273 307.584 
L 160.407273 302.980703 
L 159.376623 302.980703 
z
" clip-path="url(#p859f879ea3)" style="fill: #3e4ba8"/>
   </g>
   <g id="patch_87">
    <path d="M 160.407273 307.584 
L 161.437922 307.584 
L 161.437922 304.339512 
L 160.407273 304.339512 
z
" clip-path="url(#p859f879ea3)" style="fill: #3e4ba8"/>
   </g>
   <g id="patch_88">
    <path d="M 161.437922 307.584 
L 162.468571 307.584 
L 162.468571 305.89288 
L 161.437922 305.89288 
z
" clip-path="url(#p859f879ea3)" style="fill: #3e4ba8"/>
   </g>
   <g id="patch_89">
    <path d="M 162.468571 307.584 
L 163.499221 307.584 
L 163.499221 292.884764 
L 162.468571 292.884764 
z
" clip-path="url(#p859f879ea3)" style="fill: #3e4ba8"/>
   </g>
   <g id="patch_90">
    <path d="M 163.499221 307.584 
L 164.52987 307.584 
L 164.52987 304.689839 
L 163.499221 304.689839 
z
" clip-path="url(#p859f879ea3)" style="fill: #3e4ba8"/>
   </g>
   <g id="patch_91">
    <path d="M 164.52987 307.584 
L 165.560519 307.584 
L 165.560519 305.550475 
L 164.52987 305.550475 
z
" clip-path="url(#p859f879ea3)" style="fill: #3e4ba8"/>
   </g>
   <g id="patch_92">
    <path d="M 165.560519 307.584 
L 166.591169 307.584 
L 166.591169 305.033696 
L 165.560519 305.033696 
z
" clip-path="url(#p859f879ea3)" style="fill: #3e4ba8"/>
   </g>
   <g id="patch_93">
    <path d="M 166.591169 307.584 
L 167.621818 307.584 
L 167.621818 305.820437 
L 166.591169 305.820437 
z
" clip-path="url(#p859f879ea3)" style="fill: #3e4ba8"/>
   </g>
   <g id="patch_94">
    <path d="M 167.621818 307.584 
L 168.652468 307.584 
L 168.652468 305.596771 
L 167.621818 305.596771 
z
" clip-path="url(#p859f879ea3)" style="fill: #3e4ba8"/>
   </g>
   <g id="patch_95">
    <path d="M 168.652468 307.584 
L 169.683117 307.584 
L 169.683117 304.871257 
L 168.652468 304.871257 
z
" clip-path="url(#p859f879ea3)" style="fill: #3e4ba8"/>
   </g>
   <g id="patch_96">
    <path d="M 169.683117 307.584 
L 170.713766 307.584 
L 170.713766 306.626959 
L 169.683117 306.626959 
z
" clip-path="url(#p859f879ea3)" style="fill: #3e4ba8"/>
   </g>
   <g id="patch_97">
    <path d="M 170.713766 307.584 
L 171.744416 307.584 
L 171.744416 305.676299 
L 170.713766 305.676299 
z
" clip-path="url(#p859f879ea3)" style="fill: #3e4ba8"/>
   </g>
   <g id="patch_98">
    <path d="M 171.744416 307.584 
L 172.775065 307.584 
L 172.775065 306.80253 
L 171.744416 306.80253 
z
" clip-path="url(#p859f879ea3)" style="fill: #3e4ba8"/>
   </g>
   <g id="patch_99">
    <path d="M 172.775065 307.584 
L 173.805714 307.584 
L 173.805714 307.416038 
L 172.775065 307.416038 
z
" clip-path="url(#p859f879ea3)" style="fill: #3e4ba8"/>
   </g>
   <g id="patch_100">
    <path d="M 173.805714 307.584 
L 174.836364 307.584 
L 174.836364 307.457686 
L 173.805714 307.457686 
z
" clip-path="url(#p859f879ea3)" style="fill: #3e4ba8"/>
   </g>
   <g id="patch_101">
    <path d="M 174.836364 307.584 
L 175.867013 307.584 
L 175.867013 307.283868 
L 174.836364 307.283868 
z
" clip-path="url(#p859f879ea3)" style="fill: #3e4ba8"/>
   </g>
   <g id="patch_102">
    <path d="M 175.867013 307.584 
L 176.897662 307.584 
L 176.897662 306.323049 
L 175.867013 306.323049 
z
" clip-path="url(#p859f879ea3)" style="fill: #3e4ba8"/>
   </g>
   <g id="patch_103">
    <path d="M 176.897662 307.584 
L 177.928312 307.584 
L 177.928312 307.521498 
L 176.897662 307.521498 
z
" clip-path="url(#p859f879ea3)" style="fill: #3e4ba8"/>
   </g>
   <g id="patch_104">
    <path d="M 177.928312 307.584 
L 178.958961 307.584 
L 178.958961 306.648083 
L 177.928312 306.648083 
z
" clip-path="url(#p859f879ea3)" style="fill: #3e4ba8"/>
   </g>
   <g id="patch_105">
    <path d="M 178.958961 307.584 
L 179.98961 307.584 
L 179.98961 307.168838 
L 178.958961 307.168838 
z
" clip-path="url(#p859f879ea3)" style="fill: #3e4ba8"/>
   </g>
   <g id="patch_106">
    <path d="M 179.98961 307.584 
L 181.02026 307.584 
L 181.02026 307.371733 
L 179.98961 307.371733 
z
" clip-path="url(#p859f879ea3)" style="fill: #3e4ba8"/>
   </g>
   <g id="patch_107">
    <path d="M 181.02026 307.584 
L 182.050909 307.584 
L 182.050909 307.450055 
L 181.02026 307.450055 
z
" clip-path="url(#p859f879ea3)" style="fill: #3e4ba8"/>
   </g>
   <g id="patch_108">
    <path d="M 182.050909 307.584 
L 183.081558 307.584 
L 183.081558 305.737619 
L 182.050909 305.737619 
z
" clip-path="url(#p859f879ea3)" style="fill: #3e4ba8"/>
   </g>
   <g id="patch_109">
    <path d="M 183.081558 307.584 
L 184.112208 307.584 
L 184.112208 305.836396 
L 183.081558 305.836396 
z
" clip-path="url(#p859f879ea3)" style="fill: #3e4ba8"/>
   </g>
   <g id="patch_110">
    <path d="M 184.112208 307.584 
L 185.142857 307.584 
L 185.142857 303.979736 
L 184.112208 303.979736 
z
" clip-path="url(#p859f879ea3)" style="fill: #3e4ba8"/>
   </g>
   <g id="patch_111">
    <path d="M 185.142857 307.584 
L 186.173506 307.584 
L 186.173506 306.902439 
L 185.142857 306.902439 
z
" clip-path="url(#p859f879ea3)" style="fill: #3e4ba8"/>
   </g>
   <g id="patch_112">
    <path d="M 186.173506 307.584 
L 187.204156 307.584 
L 187.204156 306.209724 
L 186.173506 306.209724 
z
" clip-path="url(#p859f879ea3)" style="fill: #3e4ba8"/>
   </g>
   <g id="patch_113">
    <path d="M 187.204156 307.584 
L 188.234805 307.584 
L 188.234805 306.908326 
L 187.204156 306.908326 
z
" clip-path="url(#p859f879ea3)" style="fill: #3e4ba8"/>
   </g>
   <g id="patch_114">
    <path d="M 188.234805 307.584 
L 189.265455 307.584 
L 189.265455 306.318232 
L 188.234805 306.318232 
z
" clip-path="url(#p859f879ea3)" style="fill: #3e4ba8"/>
   </g>
   <g id="patch_115">
    <path d="M 189.265455 307.584 
L 190.296104 307.584 
L 190.296104 305.739829 
L 189.265455 305.739829 
z
" clip-path="url(#p859f879ea3)" style="fill: #3e4ba8"/>
   </g>
   <g id="patch_116">
    <path d="M 190.296104 307.584 
L 191.326753 307.584 
L 191.326753 305.477954 
L 190.296104 305.477954 
z
" clip-path="url(#p859f879ea3)" style="fill: #3e4ba8"/>
   </g>
   <g id="patch_117">
    <path d="M 191.326753 307.584 
L 192.357403 307.584 
L 192.357403 305.102951 
L 191.326753 305.102951 
z
" clip-path="url(#p859f879ea3)" style="fill: #3e4ba8"/>
   </g>
   <g id="patch_118">
    <path d="M 192.357403 307.584 
L 193.388052 307.584 
L 193.388052 306.600338 
L 192.357403 306.600338 
z
" clip-path="url(#p859f879ea3)" style="fill: #3e4ba8"/>
   </g>
   <g id="patch_119">
    <path d="M 193.388052 307.584 
L 194.418701 307.584 
L 194.418701 305.821643 
L 193.388052 305.821643 
z
" clip-path="url(#p859f879ea3)" style="fill: #3e4ba8"/>
   </g>
   <g id="patch_120">
    <path d="M 194.418701 307.584 
L 195.449351 307.584 
L 195.449351 306.020813 
L 194.418701 306.020813 
z
" clip-path="url(#p859f879ea3)" style="fill: #3e4ba8"/>
   </g>
   <g id="patch_121">
    <path d="M 195.449351 307.584 
L 196.48 307.584 
L 196.48 302.134838 
L 195.449351 302.134838 
z
" clip-path="url(#p859f879ea3)" style="fill: #3e4ba8"/>
   </g>
   <g id="patch_122">
    <path d="M 196.48 307.584 
L 197.510649 307.584 
L 197.510649 307.011029 
L 196.48 307.011029 
z
" clip-path="url(#p859f879ea3)" style="fill: #3e4ba8"/>
   </g>
   <g id="patch_123">
    <path d="M 197.510649 307.584 
L 198.541299 307.584 
L 198.541299 307.513926 
L 197.510649 307.513926 
z
" clip-path="url(#p859f879ea3)" style="fill: #3e4ba8"/>
   </g>
   <g id="patch_124">
    <path d="M 198.541299 307.584 
L 199.571948 307.584 
L 199.571948 305.184236 
L 198.541299 305.184236 
z
" clip-path="url(#p859f879ea3)" style="fill: #3e4ba8"/>
   </g>
   <g id="patch_125">
    <path d="M 199.571948 307.584 
L 200.602597 307.584 
L 200.602597 307.397044 
L 199.571948 307.397044 
z
" clip-path="url(#p859f879ea3)" style="fill: #3e4ba8"/>
   </g>
   <g id="patch_126">
    <path d="M 200.602597 307.584 
L 201.633247 307.584 
L 201.633247 306.181013 
L 200.602597 306.181013 
z
" clip-path="url(#p859f879ea3)" style="fill: #3e4ba8"/>
   </g>
   <g id="patch_127">
    <path d="M 201.633247 307.584 
L 202.663896 307.584 
L 202.663896 305.830098 
L 201.633247 305.830098 
z
" clip-path="url(#p859f879ea3)" style="fill: #3e4ba8"/>
   </g>
   <g id="patch_128">
    <path d="M 202.663896 307.584 
L 203.694545 307.584 
L 203.694545 306.697981 
L 202.663896 306.697981 
z
" clip-path="url(#p859f879ea3)" style="fill: #3e4ba8"/>
   </g>
   <g id="patch_129">
    <path d="M 203.694545 307.584 
L 204.725195 307.584 
L 204.725195 307.276195 
L 203.694545 307.276195 
z
" clip-path="url(#p859f879ea3)" style="fill: #3e4ba8"/>
   </g>
   <g id="patch_130">
    <path d="M 204.725195 307.584 
L 205.755844 307.584 
L 205.755844 307.147517 
L 204.725195 307.147517 
z
" clip-path="url(#p859f879ea3)" style="fill: #3e4ba8"/>
   </g>
   <g id="patch_131">
    <path d="M 205.755844 307.584 
L 206.786494 307.584 
L 206.786494 303.725236 
L 205.755844 303.725236 
z
" clip-path="url(#p859f879ea3)" style="fill: #3e4ba8"/>
   </g>
   <g id="patch_132">
    <path d="M 206.786494 307.584 
L 207.817143 307.584 
L 207.817143 303.800139 
L 206.786494 303.800139 
z
" clip-path="url(#p859f879ea3)" style="fill: #3e4ba8"/>
   </g>
   <g id="patch_133">
    <path d="M 207.817143 307.584 
L 208.847792 307.584 
L 208.847792 306.988238 
L 207.817143 306.988238 
z
" clip-path="url(#p859f879ea3)" style="fill: #3e4ba8"/>
   </g>
   <g id="patch_134">
    <path d="M 208.847792 307.584 
L 209.878442 307.584 
L 209.878442 307.215975 
L 208.847792 307.215975 
z
" clip-path="url(#p859f879ea3)" style="fill: #3e4ba8"/>
   </g>
   <g id="patch_135">
    <path d="M 209.878442 307.584 
L 210.909091 307.584 
L 210.909091 306.089324 
L 209.878442 306.089324 
z
" clip-path="url(#p859f879ea3)" style="fill: #3e4ba8"/>
   </g>
   <g id="patch_136">
    <path d="M 210.909091 307.584 
L 211.93974 307.584 
L 211.93974 305.442543 
L 210.909091 305.442543 
z
" clip-path="url(#p859f879ea3)" style="fill: #3e4ba8"/>
   </g>
   <g id="patch_137">
    <path d="M 211.93974 307.584 
L 212.97039 307.584 
L 212.97039 305.724381 
L 211.93974 305.724381 
z
" clip-path="url(#p859f879ea3)" style="fill: #3e4ba8"/>
   </g>
   <g id="patch_138">
    <path d="M 212.97039 307.584 
L 214.001039 307.584 
L 214.001039 304.750688 
L 212.97039 304.750688 
z
" clip-path="url(#p859f879ea3)" style="fill: #3e4ba8"/>
   </g>
   <g id="patch_139">
    <path d="M 214.001039 307.584 
L 215.031688 307.584 
L 215.031688 307.082689 
L 214.001039 307.082689 
z
" clip-path="url(#p859f879ea3)" style="fill: #3e4ba8"/>
   </g>
   <g id="patch_140">
    <path d="M 215.031688 307.584 
L 216.062338 307.584 
L 216.062338 306.91989 
L 215.031688 306.91989 
z
" clip-path="url(#p859f879ea3)" style="fill: #3e4ba8"/>
   </g>
   <g id="patch_141">
    <path d="M 216.062338 307.584 
L 217.092987 307.584 
L 217.092987 306.360618 
L 216.062338 306.360618 
z
" clip-path="url(#p859f879ea3)" style="fill: #3e4ba8"/>
   </g>
   <g id="patch_142">
    <path d="M 217.092987 307.584 
L 218.123636 307.584 
L 218.123636 304.014299 
L 217.092987 304.014299 
z
" clip-path="url(#p859f879ea3)" style="fill: #3e4ba8"/>
   </g>
   <g id="patch_143">
    <path d="M 218.123636 307.584 
L 219.154286 307.584 
L 219.154286 306.010948 
L 218.123636 306.010948 
z
" clip-path="url(#p859f879ea3)" style="fill: #3e4ba8"/>
   </g>
   <g id="patch_144">
    <path d="M 219.154286 307.584 
L 220.184935 307.584 
L 220.184935 307.030688 
L 219.154286 307.030688 
z
" clip-path="url(#p859f879ea3)" style="fill: #3e4ba8"/>
   </g>
   <g id="patch_145">
    <path d="M 220.184935 307.584 
L 221.215584 307.584 
L 221.215584 305.280902 
L 220.184935 305.280902 
z
" clip-path="url(#p859f879ea3)" style="fill: #3e4ba8"/>
   </g>
   <g id="patch_146">
    <path d="M 221.215584 307.584 
L 222.246234 307.584 
L 222.246234 306.238062 
L 221.215584 306.238062 
z
" clip-path="url(#p859f879ea3)" style="fill: #3e4ba8"/>
   </g>
   <g id="patch_147">
    <path d="M 222.246234 307.584 
L 223.276883 307.584 
L 223.276883 304.628864 
L 222.246234 304.628864 
z
" clip-path="url(#p859f879ea3)" style="fill: #3e4ba8"/>
   </g>
   <g id="patch_148">
    <path d="M 223.276883 307.584 
L 224.307532 307.584 
L 224.307532 303.137282 
L 223.276883 303.137282 
z
" clip-path="url(#p859f879ea3)" style="fill: #3e4ba8"/>
   </g>
   <g id="patch_149">
    <path d="M 224.307532 307.584 
L 225.338182 307.584 
L 225.338182 305.080497 
L 224.307532 305.080497 
z
" clip-path="url(#p859f879ea3)" style="fill: #3e4ba8"/>
   </g>
   <g id="patch_150">
    <path d="M 225.338182 307.584 
L 226.368831 307.584 
L 226.368831 306.217544 
L 225.338182 306.217544 
z
" clip-path="url(#p859f879ea3)" style="fill: #3e4ba8"/>
   </g>
   <g id="patch_151">
    <path d="M 226.368831 307.584 
L 227.399481 307.584 
L 227.399481 307.410983 
L 226.368831 307.410983 
z
" clip-path="url(#p859f879ea3)" style="fill: #3e4ba8"/>
   </g>
   <g id="patch_152">
    <path d="M 227.399481 307.584 
L 228.43013 307.584 
L 228.43013 299.658963 
L 227.399481 299.658963 
z
" clip-path="url(#p859f879ea3)" style="fill: #3e4ba8"/>
   </g>
   <g id="patch_153">
    <path d="M 228.43013 307.584 
L 229.460779 307.584 
L 229.460779 307.320728 
L 228.43013 307.320728 
z
" clip-path="url(#p859f879ea3)" style="fill: #3e4ba8"/>
   </g>
   <g id="patch_154">
    <path d="M 229.460779 307.584 
L 230.491429 307.584 
L 230.491429 306.087326 
L 229.460779 306.087326 
z
" clip-path="url(#p859f879ea3)" style="fill: #3e4ba8"/>
   </g>
   <g id="patch_155">
    <path d="M 230.491429 307.584 
L 231.522078 307.584 
L 231.522078 306.282542 
L 230.491429 306.282542 
z
" clip-path="url(#p859f879ea3)" style="fill: #3e4ba8"/>
   </g>
   <g id="patch_156">
    <path d="M 231.522078 307.584 
L 232.552727 307.584 
L 232.552727 307.551511 
L 231.522078 307.551511 
z
" clip-path="url(#p859f879ea3)" style="fill: #3e4ba8"/>
   </g>
   <g id="patch_157">
    <path d="M 232.552727 307.584 
L 233.583377 307.584 
L 233.583377 307.351727 
L 232.552727 307.351727 
z
" clip-path="url(#p859f879ea3)" style="fill: #3e4ba8"/>
   </g>
   <g id="patch_158">
    <path d="M 233.583377 307.584 
L 234.614026 307.584 
L 234.614026 305.797529 
L 233.583377 305.797529 
z
" clip-path="url(#p859f879ea3)" style="fill: #3e4ba8"/>
   </g>
   <g id="patch_159">
    <path d="M 234.614026 307.584 
L 235.644675 307.584 
L 235.644675 306.61688 
L 234.614026 306.61688 
z
" clip-path="url(#p859f879ea3)" style="fill: #3e4ba8"/>
   </g>
   <g id="patch_160">
    <path d="M 235.644675 307.584 
L 236.675325 307.584 
L 236.675325 307.220138 
L 235.644675 307.220138 
z
" clip-path="url(#p859f879ea3)" style="fill: #3e4ba8"/>
   </g>
   <g id="patch_161">
    <path d="M 236.675325 307.584 
L 237.705974 307.584 
L 237.705974 306.534778 
L 236.675325 306.534778 
z
" clip-path="url(#p859f879ea3)" style="fill: #3e4ba8"/>
   </g>
   <g id="patch_162">
    <path d="M 237.705974 307.584 
L 238.736623 307.584 
L 238.736623 307.21038 
L 237.705974 307.21038 
z
" clip-path="url(#p859f879ea3)" style="fill: #3e4ba8"/>
   </g>
   <g id="patch_163">
    <path d="M 238.736623 307.584 
L 239.767273 307.584 
L 239.767273 305.766637 
L 238.736623 305.766637 
z
" clip-path="url(#p859f879ea3)" style="fill: #3e4ba8"/>
   </g>
   <g id="patch_164">
    <path d="M 239.767273 307.584 
L 240.797922 307.584 
L 240.797922 307.114087 
L 239.767273 307.114087 
z
" clip-path="url(#p859f879ea3)" style="fill: #3e4ba8"/>
   </g>
   <g id="patch_165">
    <path d="M 240.797922 307.584 
L 241.828571 307.584 
L 241.828571 303.805699 
L 240.797922 303.805699 
z
" clip-path="url(#p859f879ea3)" style="fill: #3e4ba8"/>
   </g>
   <g id="patch_166">
    <path d="M 241.828571 307.584 
L 242.859221 307.584 
L 242.859221 304.460413 
L 241.828571 304.460413 
z
" clip-path="url(#p859f879ea3)" style="fill: #3e4ba8"/>
   </g>
   <g id="patch_167">
    <path d="M 242.859221 307.584 
L 243.88987 307.584 
L 243.88987 304.735038 
L 242.859221 304.735038 
z
" clip-path="url(#p859f879ea3)" style="fill: #3e4ba8"/>
   </g>
   <g id="patch_168">
    <path d="M 243.88987 307.584 
L 244.920519 307.584 
L 244.920519 304.028978 
L 243.88987 304.028978 
z
" clip-path="url(#p859f879ea3)" style="fill: #3e4ba8"/>
   </g>
   <g id="patch_169">
    <path d="M 244.920519 307.584 
L 245.951169 307.584 
L 245.951169 304.8246 
L 244.920519 304.8246 
z
" clip-path="url(#p859f879ea3)" style="fill: #3e4ba8"/>
   </g>
   <g id="patch_170">
    <path d="M 245.951169 307.584 
L 246.981818 307.584 
L 246.981818 307.222316 
L 245.951169 307.222316 
z
" clip-path="url(#p859f879ea3)" style="fill: #3e4ba8"/>
   </g>
   <g id="patch_171">
    <path d="M 246.981818 307.584 
L 248.012468 307.584 
L 248.012468 306.762234 
L 246.981818 306.762234 
z
" clip-path="url(#p859f879ea3)" style="fill: #3e4ba8"/>
   </g>
   <g id="patch_172">
    <path d="M 248.012468 307.584 
L 249.043117 307.584 
L 249.043117 304.210462 
L 248.012468 304.210462 
z
" clip-path="url(#p859f879ea3)" style="fill: #3e4ba8"/>
   </g>
   <g id="patch_173">
    <path d="M 249.043117 307.584 
L 250.073766 307.584 
L 250.073766 306.141713 
L 249.043117 306.141713 
z
" clip-path="url(#p859f879ea3)" style="fill: #3e4ba8"/>
   </g>
   <g id="patch_174">
    <path d="M 250.073766 307.584 
L 251.104416 307.584 
L 251.104416 303.980068 
L 250.073766 303.980068 
z
" clip-path="url(#p859f879ea3)" style="fill: #3e4ba8"/>
   </g>
   <g id="patch_175">
    <path d="M 251.104416 307.584 
L 252.135065 307.584 
L 252.135065 305.664583 
L 251.104416 305.664583 
z
" clip-path="url(#p859f879ea3)" style="fill: #3e4ba8"/>
   </g>
   <g id="patch_176">
    <path d="M 252.135065 307.584 
L 253.165714 307.584 
L 253.165714 304.958104 
L 252.135065 304.958104 
z
" clip-path="url(#p859f879ea3)" style="fill: #3e4ba8"/>
   </g>
   <g id="patch_177">
    <path d="M 253.165714 307.584 
L 254.196364 307.584 
L 254.196364 305.897183 
L 253.165714 305.897183 
z
" clip-path="url(#p859f879ea3)" style="fill: #3e4ba8"/>
   </g>
   <g id="patch_178">
    <path d="M 254.196364 307.584 
L 255.227013 307.584 
L 255.227013 305.815004 
L 254.196364 305.815004 
z
" clip-path="url(#p859f879ea3)" style="fill: #3e4ba8"/>
   </g>
   <g id="patch_179">
    <path d="M 255.227013 307.584 
L 256.257662 307.584 
L 256.257662 306.127259 
L 255.227013 306.127259 
z
" clip-path="url(#p859f879ea3)" style="fill: #3e4ba8"/>
   </g>
   <g id="patch_180">
    <path d="M 256.257662 307.584 
L 257.288312 307.584 
L 257.288312 307.115519 
L 256.257662 307.115519 
z
" clip-path="url(#p859f879ea3)" style="fill: #3e4ba8"/>
   </g>
   <g id="patch_181">
    <path d="M 257.288312 307.584 
L 258.318961 307.584 
L 258.318961 306.492431 
L 257.288312 306.492431 
z
" clip-path="url(#p859f879ea3)" style="fill: #3e4ba8"/>
   </g>
   <g id="patch_182">
    <path d="M 258.318961 307.584 
L 259.34961 307.584 
L 259.34961 306.296671 
L 258.318961 306.296671 
z
" clip-path="url(#p859f879ea3)" style="fill: #3e4ba8"/>
   </g>
   <g id="patch_183">
    <path d="M 259.34961 307.584 
L 260.38026 307.584 
L 260.38026 307.093198 
L 259.34961 307.093198 
z
" clip-path="url(#p859f879ea3)" style="fill: #3e4ba8"/>
   </g>
   <g id="patch_184">
    <path d="M 260.38026 307.584 
L 261.410909 307.584 
L 261.410909 305.923371 
L 260.38026 305.923371 
z
" clip-path="url(#p859f879ea3)" style="fill: #3e4ba8"/>
   </g>
   <g id="patch_185">
    <path d="M 261.410909 307.584 
L 262.441558 307.584 
L 262.441558 301.66086 
L 261.410909 301.66086 
z
" clip-path="url(#p859f879ea3)" style="fill: #3e4ba8"/>
   </g>
   <g id="patch_186">
    <path d="M 262.441558 307.584 
L 263.472208 307.584 
L 263.472208 307.424859 
L 262.441558 307.424859 
z
" clip-path="url(#p859f879ea3)" style="fill: #3e4ba8"/>
   </g>
   <g id="patch_187">
    <path d="M 263.472208 307.584 
L 264.502857 307.584 
L 264.502857 306.846103 
L 263.472208 306.846103 
z
" clip-path="url(#p859f879ea3)" style="fill: #3e4ba8"/>
   </g>
   <g id="patch_188">
    <path d="M 264.502857 307.584 
L 265.533506 307.584 
L 265.533506 306.489769 
L 264.502857 306.489769 
z
" clip-path="url(#p859f879ea3)" style="fill: #3e4ba8"/>
   </g>
   <g id="patch_189">
    <path d="M 265.533506 307.584 
L 266.564156 307.584 
L 266.564156 306.142956 
L 265.533506 306.142956 
z
" clip-path="url(#p859f879ea3)" style="fill: #3e4ba8"/>
   </g>
   <g id="patch_190">
    <path d="M 266.564156 307.584 
L 267.594805 307.584 
L 267.594805 307.273441 
L 266.564156 307.273441 
z
" clip-path="url(#p859f879ea3)" style="fill: #3e4ba8"/>
   </g>
   <g id="patch_191">
    <path d="M 267.594805 307.584 
L 268.625455 307.584 
L 268.625455 306.820368 
L 267.594805 306.820368 
z
" clip-path="url(#p859f879ea3)" style="fill: #3e4ba8"/>
   </g>
   <g id="patch_192">
    <path d="M 268.625455 307.584 
L 269.656104 307.584 
L 269.656104 307.255095 
L 268.625455 307.255095 
z
" clip-path="url(#p859f879ea3)" style="fill: #3e4ba8"/>
   </g>
   <g id="patch_193">
    <path d="M 269.656104 307.584 
L 270.686753 307.584 
L 270.686753 307.35208 
L 269.656104 307.35208 
z
" clip-path="url(#p859f879ea3)" style="fill: #3e4ba8"/>
   </g>
   <g id="patch_194">
    <path d="M 270.686753 307.584 
L 271.717403 307.584 
L 271.717403 307.077825 
L 270.686753 307.077825 
z
" clip-path="url(#p859f879ea3)" style="fill: #3e4ba8"/>
   </g>
   <g id="patch_195">
    <path d="M 271.717403 307.584 
L 272.748052 307.584 
L 272.748052 305.481715 
L 271.717403 305.481715 
z
" clip-path="url(#p859f879ea3)" style="fill: #3e4ba8"/>
   </g>
   <g id="patch_196">
    <path d="M 272.748052 307.584 
L 273.778701 307.584 
L 273.778701 306.405368 
L 272.748052 306.405368 
z
" clip-path="url(#p859f879ea3)" style="fill: #3e4ba8"/>
   </g>
   <g id="patch_197">
    <path d="M 273.778701 307.584 
L 274.809351 307.584 
L 274.809351 306.205145 
L 273.778701 306.205145 
z
" clip-path="url(#p859f879ea3)" style="fill: #3e4ba8"/>
   </g>
   <g id="patch_198">
    <path d="M 274.809351 307.584 
L 275.84 307.584 
L 275.84 307.541165 
L 274.809351 307.541165 
z
" clip-path="url(#p859f879ea3)" style="fill: #3e4ba8"/>
   </g>
   <g id="patch_199">
    <path d="M 275.84 307.584 
L 276.870649 307.584 
L 276.870649 307.150109 
L 275.84 307.150109 
z
" clip-path="url(#p859f879ea3)" style="fill: #3e4ba8"/>
   </g>
   <g id="patch_200">
    <path d="M 276.870649 307.584 
L 277.901299 307.584 
L 277.901299 307.166432 
L 276.870649 307.166432 
z
" clip-path="url(#p859f879ea3)" style="fill: #3e4ba8"/>
   </g>
   <g id="patch_201">
    <path d="M 277.901299 307.584 
L 278.931948 307.584 
L 278.931948 307.197108 
L 277.901299 307.197108 
z
" clip-path="url(#p859f879ea3)" style="fill: #3e4ba8"/>
   </g>
   <g id="patch_202">
    <path d="M 278.931948 307.584 
L 279.962597 307.584 
L 279.962597 306.517742 
L 278.931948 306.517742 
z
" clip-path="url(#p859f879ea3)" style="fill: #3e4ba8"/>
   </g>
   <g id="patch_203">
    <path d="M 279.962597 307.584 
L 280.993247 307.584 
L 280.993247 306.332504 
L 279.962597 306.332504 
z
" clip-path="url(#p859f879ea3)" style="fill: #3e4ba8"/>
   </g>
   <g id="patch_204">
    <path d="M 280.993247 307.584 
L 282.023896 307.584 
L 282.023896 306.222872 
L 280.993247 306.222872 
z
" clip-path="url(#p859f879ea3)" style="fill: #3e4ba8"/>
   </g>
   <g id="patch_205">
    <path d="M 282.023896 307.584 
L 283.054545 307.584 
L 283.054545 306.951652 
L 282.023896 306.951652 
z
" clip-path="url(#p859f879ea3)" style="fill: #3e4ba8"/>
   </g>
   <g id="patch_206">
    <path d="M 283.054545 307.584 
L 284.085195 307.584 
L 284.085195 299.676994 
L 283.054545 299.676994 
z
" clip-path="url(#p859f879ea3)" style="fill: #3e4ba8"/>
   </g>
   <g id="patch_207">
    <path d="M 284.085195 307.584 
L 285.115844 307.584 
L 285.115844 305.287951 
L 284.085195 305.287951 
z
" clip-path="url(#p859f879ea3)" style="fill: #3e4ba8"/>
   </g>
   <g id="patch_208">
    <path d="M 285.115844 307.584 
L 286.146494 307.584 
L 286.146494 305.579134 
L 285.115844 305.579134 
z
" clip-path="url(#p859f879ea3)" style="fill: #3e4ba8"/>
   </g>
   <g id="patch_209">
    <path d="M 286.146494 307.584 
L 287.177143 307.584 
L 287.177143 304.83661 
L 286.146494 304.83661 
z
" clip-path="url(#p859f879ea3)" style="fill: #3e4ba8"/>
   </g>
   <g id="patch_210">
    <path d="M 287.177143 307.584 
L 288.207792 307.584 
L 288.207792 303.902393 
L 287.177143 303.902393 
z
" clip-path="url(#p859f879ea3)" style="fill: #3e4ba8"/>
   </g>
   <g id="patch_211">
    <path d="M 288.207792 307.584 
L 289.238442 307.584 
L 289.238442 307.307718 
L 288.207792 307.307718 
z
" clip-path="url(#p859f879ea3)" style="fill: #3e4ba8"/>
   </g>
   <g id="patch_212">
    <path d="M 289.238442 307.584 
L 290.269091 307.584 
L 290.269091 304.526392 
L 289.238442 304.526392 
z
" clip-path="url(#p859f879ea3)" style="fill: #3e4ba8"/>
   </g>
   <g id="patch_213">
    <path d="M 290.269091 307.584 
L 291.29974 307.584 
L 291.29974 304.928828 
L 290.269091 304.928828 
z
" clip-path="url(#p859f879ea3)" style="fill: #3e4ba8"/>
   </g>
   <g id="patch_214">
    <path d="M 291.29974 307.584 
L 292.33039 307.584 
L 292.33039 305.166242 
L 291.29974 305.166242 
z
" clip-path="url(#p859f879ea3)" style="fill: #3e4ba8"/>
   </g>
   <g id="patch_215">
    <path d="M 292.33039 307.584 
L 293.361039 307.584 
L 293.361039 304.929735 
L 292.33039 304.929735 
z
" clip-path="url(#p859f879ea3)" style="fill: #3e4ba8"/>
   </g>
   <g id="patch_216">
    <path d="M 293.361039 307.584 
L 294.391688 307.584 
L 294.391688 305.21628 
L 293.361039 305.21628 
z
" clip-path="url(#p859f879ea3)" style="fill: #3e4ba8"/>
   </g>
   <g id="patch_217">
    <path d="M 294.391688 307.584 
L 295.422338 307.584 
L 295.422338 292.308872 
L 294.391688 292.308872 
z
" clip-path="url(#p859f879ea3)" style="fill: #3e4ba8"/>
   </g>
   <g id="patch_218">
    <path d="M 295.422338 307.584 
L 296.452987 307.584 
L 296.452987 305.358499 
L 295.422338 305.358499 
z
" clip-path="url(#p859f879ea3)" style="fill: #3e4ba8"/>
   </g>
   <g id="patch_219">
    <path d="M 296.452987 307.584 
L 297.483636 307.584 
L 297.483636 304.101013 
L 296.452987 304.101013 
z
" clip-path="url(#p859f879ea3)" style="fill: #3e4ba8"/>
   </g>
   <g id="patch_220">
    <path d="M 297.483636 307.584 
L 298.514286 307.584 
L 298.514286 304.345563 
L 297.483636 304.345563 
z
" clip-path="url(#p859f879ea3)" style="fill: #3e4ba8"/>
   </g>
   <g id="patch_221">
    <path d="M 298.514286 307.584 
L 299.544935 307.584 
L 299.544935 304.506451 
L 298.514286 304.506451 
z
" clip-path="url(#p859f879ea3)" style="fill: #3e4ba8"/>
   </g>
   <g id="patch_222">
    <path d="M 299.544935 307.584 
L 300.575584 307.584 
L 300.575584 304.820391 
L 299.544935 304.820391 
z
" clip-path="url(#p859f879ea3)" style="fill: #3e4ba8"/>
   </g>
   <g id="patch_223">
    <path d="M 300.575584 307.584 
L 301.606234 307.584 
L 301.606234 303.3598 
L 300.575584 303.3598 
z
" clip-path="url(#p859f879ea3)" style="fill: #3e4ba8"/>
   </g>
   <g id="patch_224">
    <path d="M 301.606234 307.584 
L 302.636883 307.584 
L 302.636883 303.012205 
L 301.606234 303.012205 
z
" clip-path="url(#p859f879ea3)" style="fill: #3e4ba8"/>
   </g>
   <g id="patch_225">
    <path d="M 302.636883 307.584 
L 303.667532 307.584 
L 303.667532 304.682578 
L 302.636883 304.682578 
z
" clip-path="url(#p859f879ea3)" style="fill: #3e4ba8"/>
   </g>
   <g id="patch_226">
    <path d="M 303.667532 307.584 
L 304.698182 307.584 
L 304.698182 304.950707 
L 303.667532 304.950707 
z
" clip-path="url(#p859f879ea3)" style="fill: #3e4ba8"/>
   </g>
   <g id="patch_227">
    <path d="M 304.698182 307.584 
L 305.728831 307.584 
L 305.728831 305.180454 
L 304.698182 305.180454 
z
" clip-path="url(#p859f879ea3)" style="fill: #3e4ba8"/>
   </g>
   <g id="patch_228">
    <path d="M 305.728831 307.584 
L 306.759481 307.584 
L 306.759481 304.218889 
L 305.728831 304.218889 
z
" clip-path="url(#p859f879ea3)" style="fill: #3e4ba8"/>
   </g>
   <g id="patch_229">
    <path d="M 306.759481 307.584 
L 307.79013 307.584 
L 307.79013 303.666673 
L 306.759481 303.666673 
z
" clip-path="url(#p859f879ea3)" style="fill: #3e4ba8"/>
   </g>
   <g id="patch_230">
    <path d="M 307.79013 307.584 
L 308.820779 307.584 
L 308.820779 304.920228 
L 307.79013 304.920228 
z
" clip-path="url(#p859f879ea3)" style="fill: #3e4ba8"/>
   </g>
   <g id="patch_231">
    <path d="M 308.820779 307.584 
L 309.851429 307.584 
L 309.851429 302.976209 
L 308.820779 302.976209 
z
" clip-path="url(#p859f879ea3)" style="fill: #3e4ba8"/>
   </g>
   <g id="patch_232">
    <path d="M 309.851429 307.584 
L 310.882078 307.584 
L 310.882078 303.388145 
L 309.851429 303.388145 
z
" clip-path="url(#p859f879ea3)" style="fill: #3e4ba8"/>
   </g>
   <g id="patch_233">
    <path d="M 310.882078 307.584 
L 311.912727 307.584 
L 311.912727 307.444649 
L 310.882078 307.444649 
z
" clip-path="url(#p859f879ea3)" style="fill: #3e4ba8"/>
   </g>
   <g id="patch_234">
    <path d="M 311.912727 307.584 
L 312.943377 307.584 
L 312.943377 304.751184 
L 311.912727 304.751184 
z
" clip-path="url(#p859f879ea3)" style="fill: #3e4ba8"/>
   </g>
   <g id="patch_235">
    <path d="M 312.943377 307.584 
L 313.974026 307.584 
L 313.974026 305.438902 
L 312.943377 305.438902 
z
" clip-path="url(#p859f879ea3)" style="fill: #3e4ba8"/>
   </g>
   <g id="patch_236">
    <path d="M 313.974026 307.584 
L 315.004675 307.584 
L 315.004675 303.031125 
L 313.974026 303.031125 
z
" clip-path="url(#p859f879ea3)" style="fill: #3e4ba8"/>
   </g>
   <g id="patch_237">
    <path d="M 315.004675 307.584 
L 316.035325 307.584 
L 316.035325 305.684983 
L 315.004675 305.684983 
z
" clip-path="url(#p859f879ea3)" style="fill: #3e4ba8"/>
   </g>
   <g id="patch_238">
    <path d="M 316.035325 307.584 
L 317.065974 307.584 
L 317.065974 296.794943 
L 316.035325 296.794943 
z
" clip-path="url(#p859f879ea3)" style="fill: #3e4ba8"/>
   </g>
   <g id="patch_239">
    <path d="M 317.065974 307.584 
L 318.096623 307.584 
L 318.096623 302.743225 
L 317.065974 302.743225 
z
" clip-path="url(#p859f879ea3)" style="fill: #3e4ba8"/>
   </g>
   <g id="patch_240">
    <path d="M 318.096623 307.584 
L 319.127273 307.584 
L 319.127273 305.500191 
L 318.096623 305.500191 
z
" clip-path="url(#p859f879ea3)" style="fill: #3e4ba8"/>
   </g>
   <g id="patch_241">
    <path d="M 319.127273 307.584 
L 320.157922 307.584 
L 320.157922 303.956697 
L 319.127273 303.956697 
z
" clip-path="url(#p859f879ea3)" style="fill: #3e4ba8"/>
   </g>
   <g id="patch_242">
    <path d="M 320.157922 307.584 
L 321.188571 307.584 
L 321.188571 303.270651 
L 320.157922 303.270651 
z
" clip-path="url(#p859f879ea3)" style="fill: #3e4ba8"/>
   </g>
   <g id="patch_243">
    <path d="M 321.188571 307.584 
L 322.219221 307.584 
L 322.219221 302.768668 
L 321.188571 302.768668 
z
" clip-path="url(#p859f879ea3)" style="fill: #3e4ba8"/>
   </g>
   <g id="patch_244">
    <path d="M 322.219221 307.584 
L 323.24987 307.584 
L 323.24987 302.367662 
L 322.219221 302.367662 
z
" clip-path="url(#p859f879ea3)" style="fill: #3e4ba8"/>
   </g>
   <g id="patch_245">
    <path d="M 323.24987 307.584 
L 324.280519 307.584 
L 324.280519 305.743039 
L 323.24987 305.743039 
z
" clip-path="url(#p859f879ea3)" style="fill: #3e4ba8"/>
   </g>
   <g id="patch_246">
    <path d="M 324.280519 307.584 
L 325.311169 307.584 
L 325.311169 302.540769 
L 324.280519 302.540769 
z
" clip-path="url(#p859f879ea3)" style="fill: #3e4ba8"/>
   </g>
   <g id="patch_247">
    <path d="M 325.311169 307.584 
L 326.341818 307.584 
L 326.341818 304.660558 
L 325.311169 304.660558 
z
" clip-path="url(#p859f879ea3)" style="fill: #3e4ba8"/>
   </g>
   <g id="patch_248">
    <path d="M 326.341818 307.584 
L 327.372468 307.584 
L 327.372468 292.635297 
L 326.341818 292.635297 
z
" clip-path="url(#p859f879ea3)" style="fill: #3e4ba8"/>
   </g>
   <g id="patch_249">
    <path d="M 327.372468 307.584 
L 328.403117 307.584 
L 328.403117 305.559838 
L 327.372468 305.559838 
z
" clip-path="url(#p859f879ea3)" style="fill: #3e4ba8"/>
   </g>
   <g id="patch_250">
    <path d="M 328.403117 307.584 
L 329.433766 307.584 
L 329.433766 303.402356 
L 328.403117 303.402356 
z
" clip-path="url(#p859f879ea3)" style="fill: #3e4ba8"/>
   </g>
   <g id="patch_251">
    <path d="M 329.433766 307.584 
L 330.464416 307.584 
L 330.464416 301.507617 
L 329.433766 301.507617 
z
" clip-path="url(#p859f879ea3)" style="fill: #3e4ba8"/>
   </g>
   <g id="patch_252">
    <path d="M 330.464416 307.584 
L 331.495065 307.584 
L 331.495065 299.546876 
L 330.464416 299.546876 
z
" clip-path="url(#p859f879ea3)" style="fill: #3e4ba8"/>
   </g>
   <g id="patch_253">
    <path d="M 331.495065 307.584 
L 332.525714 307.584 
L 332.525714 302.579055 
L 331.495065 302.579055 
z
" clip-path="url(#p859f879ea3)" style="fill: #3e4ba8"/>
   </g>
   <g id="patch_254">
    <path d="M 332.525714 307.584 
L 333.556364 307.584 
L 333.556364 304.160862 
L 332.525714 304.160862 
z
" clip-path="url(#p859f879ea3)" style="fill: #3e4ba8"/>
   </g>
   <g id="patch_255">
    <path d="M 333.556364 307.584 
L 334.587013 307.584 
L 334.587013 302.517323 
L 333.556364 302.517323 
z
" clip-path="url(#p859f879ea3)" style="fill: #3e4ba8"/>
   </g>
   <g id="patch_256">
    <path d="M 334.587013 307.584 
L 335.617662 307.584 
L 335.617662 305.107448 
L 334.587013 305.107448 
z
" clip-path="url(#p859f879ea3)" style="fill: #3e4ba8"/>
   </g>
   <g id="patch_257">
    <path d="M 335.617662 307.584 
L 336.648312 307.584 
L 336.648312 304.713561 
L 335.617662 304.713561 
z
" clip-path="url(#p859f879ea3)" style="fill: #3e4ba8"/>
   </g>
   <g id="patch_258">
    <path d="M 336.648312 307.584 
L 337.678961 307.584 
L 337.678961 301.788355 
L 336.648312 301.788355 
z
" clip-path="url(#p859f879ea3)" style="fill: #3e4ba8"/>
   </g>
   <g id="patch_259">
    <path d="M 337.678961 307.584 
L 338.70961 307.584 
L 338.70961 303.561515 
L 337.678961 303.561515 
z
" clip-path="url(#p859f879ea3)" style="fill: #3e4ba8"/>
   </g>
   <g id="patch_260">
    <path d="M 338.70961 307.584 
L 339.74026 307.584 
L 339.74026 303.680064 
L 338.70961 303.680064 
z
" clip-path="url(#p859f879ea3)" style="fill: #3e4ba8"/>
   </g>
   <g id="patch_261">
    <path d="M 339.74026 307.584 
L 340.770909 307.584 
L 340.770909 304.370172 
L 339.74026 304.370172 
z
" clip-path="url(#p859f879ea3)" style="fill: #3e4ba8"/>
   </g>
   <g id="patch_262">
    <path d="M 340.770909 307.584 
L 341.801558 307.584 
L 341.801558 304.552701 
L 340.770909 304.552701 
z
" clip-path="url(#p859f879ea3)" style="fill: #3e4ba8"/>
   </g>
   <g id="patch_263">
    <path d="M 341.801558 307.584 
L 342.832208 307.584 
L 342.832208 302.469629 
L 341.801558 302.469629 
z
" clip-path="url(#p859f879ea3)" style="fill: #3e4ba8"/>
   </g>
   <g id="patch_264">
    <path d="M 342.832208 307.584 
L 343.862857 307.584 
L 343.862857 303.668911 
L 342.832208 303.668911 
z
" clip-path="url(#p859f879ea3)" style="fill: #3e4ba8"/>
   </g>
   <g id="patch_265">
    <path d="M 343.862857 307.584 
L 344.893506 307.584 
L 344.893506 303.656015 
L 343.862857 303.656015 
z
" clip-path="url(#p859f879ea3)" style="fill: #3e4ba8"/>
   </g>
   <g id="patch_266">
    <path d="M 344.893506 307.584 
L 345.924156 307.584 
L 345.924156 304.058502 
L 344.893506 304.058502 
z
" clip-path="url(#p859f879ea3)" style="fill: #3e4ba8"/>
   </g>
   <g id="patch_267">
    <path d="M 345.924156 307.584 
L 346.954805 307.584 
L 346.954805 299.942416 
L 345.924156 299.942416 
z
" clip-path="url(#p859f879ea3)" style="fill: #3e4ba8"/>
   </g>
   <g id="patch_268">
    <path d="M 346.954805 307.584 
L 347.985455 307.584 
L 347.985455 303.58365 
L 346.954805 303.58365 
z
" clip-path="url(#p859f879ea3)" style="fill: #3e4ba8"/>
   </g>
   <g id="patch_269">
    <path d="M 347.985455 307.584 
L 349.016104 307.584 
L 349.016104 300.764622 
L 347.985455 300.764622 
z
" clip-path="url(#p859f879ea3)" style="fill: #3e4ba8"/>
   </g>
   <g id="patch_270">
    <path d="M 349.016104 307.584 
L 350.046753 307.584 
L 350.046753 288.207945 
L 349.016104 288.207945 
z
" clip-path="url(#p859f879ea3)" style="fill: #3e4ba8"/>
   </g>
   <g id="patch_271">
    <path d="M 350.046753 307.584 
L 351.077403 307.584 
L 351.077403 298.640273 
L 350.046753 298.640273 
z
" clip-path="url(#p859f879ea3)" style="fill: #3e4ba8"/>
   </g>
   <g id="patch_272">
    <path d="M 351.077403 307.584 
L 352.108052 307.584 
L 352.108052 303.138862 
L 351.077403 303.138862 
z
" clip-path="url(#p859f879ea3)" style="fill: #3e4ba8"/>
   </g>
   <g id="patch_273">
    <path d="M 352.108052 307.584 
L 353.138701 307.584 
L 353.138701 300.910089 
L 352.108052 300.910089 
z
" clip-path="url(#p859f879ea3)" style="fill: #3e4ba8"/>
   </g>
   <g id="patch_274">
    <path d="M 353.138701 307.584 
L 354.169351 307.584 
L 354.169351 299.837737 
L 353.138701 299.837737 
z
" clip-path="url(#p859f879ea3)" style="fill: #3e4ba8"/>
   </g>
   <g id="patch_275">
    <path d="M 354.169351 307.584 
L 355.2 307.584 
L 355.2 302.599795 
L 354.169351 302.599795 
z
" clip-path="url(#p859f879ea3)" style="fill: #3e4ba8"/>
   </g>
   <g id="patch_276">
    <path d="M 355.2 307.584 
L 356.230649 307.584 
L 356.230649 301.267479 
L 355.2 301.267479 
z
" clip-path="url(#p859f879ea3)" style="fill: #3e4ba8"/>
   </g>
   <g id="patch_277">
    <path d="M 356.230649 307.584 
L 357.261299 307.584 
L 357.261299 298.100353 
L 356.230649 298.100353 
z
" clip-path="url(#p859f879ea3)" style="fill: #3e4ba8"/>
   </g>
   <g id="patch_278">
    <path d="M 357.261299 307.584 
L 358.291948 307.584 
L 358.291948 302.833172 
L 357.261299 302.833172 
z
" clip-path="url(#p859f879ea3)" style="fill: #3e4ba8"/>
   </g>
   <g id="patch_279">
    <path d="M 358.291948 307.584 
L 359.322597 307.584 
L 359.322597 301.670103 
L 358.291948 301.670103 
z
" clip-path="url(#p859f879ea3)" style="fill: #3e4ba8"/>
   </g>
   <g id="patch_280">
    <path d="M 359.322597 307.584 
L 360.353247 307.584 
L 360.353247 304.585312 
L 359.322597 304.585312 
z
" clip-path="url(#p859f879ea3)" style="fill: #3e4ba8"/>
   </g>
   <g id="patch_281">
    <path d="M 360.353247 307.584 
L 361.383896 307.584 
L 361.383896 278.800874 
L 360.353247 278.800874 
z
" clip-path="url(#p859f879ea3)" style="fill: #3e4ba8"/>
   </g>
   <g id="patch_282">
    <path d="M 361.383896 307.584 
L 362.414545 307.584 
L 362.414545 298.20275 
L 361.383896 298.20275 
z
" clip-path="url(#p859f879ea3)" style="fill: #3e4ba8"/>
   </g>
   <g id="patch_283">
    <path d="M 362.414545 307.584 
L 363.445195 307.584 
L 363.445195 298.727523 
L 362.414545 298.727523 
z
" clip-path="url(#p859f879ea3)" style="fill: #3e4ba8"/>
   </g>
   <g id="patch_284">
    <path d="M 363.445195 307.584 
L 364.475844 307.584 
L 364.475844 300.645217 
L 363.445195 300.645217 
z
" clip-path="url(#p859f879ea3)" style="fill: #3e4ba8"/>
   </g>
   <g id="patch_285">
    <path d="M 364.475844 307.584 
L 365.506494 307.584 
L 365.506494 298.377113 
L 364.475844 298.377113 
z
" clip-path="url(#p859f879ea3)" style="fill: #3e4ba8"/>
   </g>
   <g id="patch_286">
    <path d="M 365.506494 307.584 
L 366.537143 307.584 
L 366.537143 296.424105 
L 365.506494 296.424105 
z
" clip-path="url(#p859f879ea3)" style="fill: #3e4ba8"/>
   </g>
   <g id="patch_287">
    <path d="M 366.537143 307.584 
L 367.567792 307.584 
L 367.567792 298.856284 
L 366.537143 298.856284 
z
" clip-path="url(#p859f879ea3)" style="fill: #3e4ba8"/>
   </g>
   <g id="patch_288">
    <path d="M 367.567792 307.584 
L 368.598442 307.584 
L 368.598442 298.388607 
L 367.567792 298.388607 
z
" clip-path="url(#p859f879ea3)" style="fill: #3e4ba8"/>
   </g>
   <g id="patch_289">
    <path d="M 368.598442 307.584 
L 369.629091 307.584 
L 369.629091 299.536423 
L 368.598442 299.536423 
z
" clip-path="url(#p859f879ea3)" style="fill: #3e4ba8"/>
   </g>
   <g id="patch_290">
    <path d="M 369.629091 307.584 
L 370.65974 307.584 
L 370.65974 297.563273 
L 369.629091 297.563273 
z
" clip-path="url(#p859f879ea3)" style="fill: #3e4ba8"/>
   </g>
   <g id="patch_291">
    <path d="M 370.65974 307.584 
L 371.69039 307.584 
L 371.69039 275.447692 
L 370.65974 275.447692 
z
" clip-path="url(#p859f879ea3)" style="fill: #3e4ba8"/>
   </g>
   <g id="patch_292">
    <path d="M 371.69039 307.584 
L 372.721039 307.584 
L 372.721039 293.276739 
L 371.69039 293.276739 
z
" clip-path="url(#p859f879ea3)" style="fill: #3e4ba8"/>
   </g>
   <g id="patch_293">
    <path d="M 372.721039 307.584 
L 373.751688 307.584 
L 373.751688 293.044158 
L 372.721039 293.044158 
z
" clip-path="url(#p859f879ea3)" style="fill: #3e4ba8"/>
   </g>
   <g id="patch_294">
    <path d="M 373.751688 307.584 
L 374.782338 307.584 
L 374.782338 291.446019 
L 373.751688 291.446019 
z
" clip-path="url(#p859f879ea3)" style="fill: #3e4ba8"/>
   </g>
   <g id="patch_295">
    <path d="M 374.782338 307.584 
L 375.812987 307.584 
L 375.812987 293.912953 
L 374.782338 293.912953 
z
" clip-path="url(#p859f879ea3)" style="fill: #3e4ba8"/>
   </g>
   <g id="patch_296">
    <path d="M 375.812987 307.584 
L 376.843636 307.584 
L 376.843636 293.078245 
L 375.812987 293.078245 
z
" clip-path="url(#p859f879ea3)" style="fill: #3e4ba8"/>
   </g>
   <g id="patch_297">
    <path d="M 376.843636 307.584 
L 377.874286 307.584 
L 377.874286 292.950538 
L 376.843636 292.950538 
z
" clip-path="url(#p859f879ea3)" style="fill: #3e4ba8"/>
   </g>
   <g id="patch_298">
    <path d="M 377.874286 307.584 
L 378.904935 307.584 
L 378.904935 294.515195 
L 377.874286 294.515195 
z
" clip-path="url(#p859f879ea3)" style="fill: #3e4ba8"/>
   </g>
   <g id="patch_299">
    <path d="M 378.904935 307.584 
L 379.935584 307.584 
L 379.935584 293.697967 
L 378.904935 293.697967 
z
" clip-path="url(#p859f879ea3)" style="fill: #3e4ba8"/>
   </g>
   <g id="patch_300">
    <path d="M 379.935584 307.584 
L 380.966234 307.584 
L 380.966234 294.684405 
L 379.935584 294.684405 
z
" clip-path="url(#p859f879ea3)" style="fill: #3e4ba8"/>
   </g>
   <g id="patch_301">
    <path d="M 380.966234 307.584 
L 381.996883 307.584 
L 381.996883 292.890593 
L 380.966234 292.890593 
z
" clip-path="url(#p859f879ea3)" style="fill: #3e4ba8"/>
   </g>
   <g id="patch_302">
    <path d="M 381.996883 307.584 
L 383.027532 307.584 
L 383.027532 295.255926 
L 381.996883 295.255926 
z
" clip-path="url(#p859f879ea3)" style="fill: #3e4ba8"/>
   </g>
   <g id="patch_303">
    <path d="M 383.027532 307.584 
L 384.058182 307.584 
L 384.058182 298.143143 
L 383.027532 298.143143 
z
" clip-path="url(#p859f879ea3)" style="fill: #3e4ba8"/>
   </g>
   <g id="patch_304">
    <path d="M 384.058182 307.584 
L 385.088831 307.584 
L 385.088831 305.33006 
L 384.058182 305.33006 
z
" clip-path="url(#p859f879ea3)" style="fill: #3e4ba8"/>
   </g>
   <g id="patch_305">
    <path d="M 385.088831 307.584 
L 386.119481 307.584 
L 386.119481 305.986355 
L 385.088831 305.986355 
z
" clip-path="url(#p859f879ea3)" style="fill: #3e4ba8"/>
   </g>
   <g id="patch_306">
    <path d="M 386.119481 307.584 
L 387.15013 307.584 
L 387.15013 302.320869 
L 386.119481 302.320869 
z
" clip-path="url(#p859f879ea3)" style="fill: #3e4ba8"/>
   </g>
   <g id="patch_307">
    <path d="M 387.15013 307.584 
L 388.180779 307.584 
L 388.180779 305.133862 
L 387.15013 305.133862 
z
" clip-path="url(#p859f879ea3)" style="fill: #3e4ba8"/>
   </g>
   <g id="patch_308">
    <path d="M 388.180779 307.584 
L 389.211429 307.584 
L 389.211429 307.40256 
L 388.180779 307.40256 
z
" clip-path="url(#p859f879ea3)" style="fill: #3e4ba8"/>
   </g>
   <g id="patch_309">
    <path d="M 389.211429 307.584 
L 390.242078 307.584 
L 390.242078 307.580599 
L 389.211429 307.580599 
z
" clip-path="url(#p859f879ea3)" style="fill: #3e4ba8"/>
   </g>
   <g id="patch_310">
    <path d="M 390.242078 307.584 
L 391.272727 307.584 
L 391.272727 307.050099 
L 390.242078 307.050099 
z
" clip-path="url(#p859f879ea3)" style="fill: #3e4ba8"/>
   </g>
   <g id="patch_311">
    <path d="M 391.272727 307.584 
L 392.303377 307.584 
L 392.303377 307.549642 
L 391.272727 307.549642 
z
" clip-path="url(#p859f879ea3)" style="fill: #3e4ba8"/>
   </g>
   <g id="patch_312">
    <path d="M 392.303377 307.584 
L 393.334026 307.584 
L 393.334026 306.340693 
L 392.303377 306.340693 
z
" clip-path="url(#p859f879ea3)" style="fill: #3e4ba8"/>
   </g>
   <g id="patch_313">
    <path d="M 393.334026 307.584 
L 394.364675 307.584 
L 394.364675 299.560735 
L 393.334026 299.560735 
z
" clip-path="url(#p859f879ea3)" style="fill: #3e4ba8"/>
   </g>
   <g id="patch_314">
    <path d="M 394.364675 307.584 
L 395.395325 307.584 
L 395.395325 306.452253 
L 394.364675 306.452253 
z
" clip-path="url(#p859f879ea3)" style="fill: #3e4ba8"/>
   </g>
   <g id="patch_315">
    <path d="M 395.395325 307.584 
L 396.425974 307.584 
L 396.425974 306.751949 
L 395.395325 306.751949 
z
" clip-path="url(#p859f879ea3)" style="fill: #3e4ba8"/>
   </g>
   <g id="patch_316">
    <path d="M 396.425974 307.584 
L 397.456623 307.584 
L 397.456623 306.250345 
L 396.425974 306.250345 
z
" clip-path="url(#p859f879ea3)" style="fill: #3e4ba8"/>
   </g>
   <g id="patch_317">
    <path d="M 397.456623 307.584 
L 398.487273 307.584 
L 398.487273 307.076049 
L 397.456623 307.076049 
z
" clip-path="url(#p859f879ea3)" style="fill: #3e4ba8"/>
   </g>
   <g id="matplotlib.axis_1">
    <g id="xtick_1">
     <g id="line2d_1">
      <defs>
       <path id="m79d63d0041" d="M 0 0 
L 0 3.5 
" style="stroke: #000000; stroke-width: 0.8"/>
      </defs>
      <g>
       <use xlink:href="#m79d63d0041" x="73.832727" y="307.584" style="stroke: #000000; stroke-width: 0.8"/>
      </g>
     </g>
     <g id="text_1">
      <!-- 0 -->
      <g transform="translate(71.332727 321.52775) scale(0.1 -0.1)">
       <defs>
        <path id="TimesNewRomanPSMT-30" d="M 231 2094 
Q 231 2819 450 3342 
Q 669 3866 1031 4122 
Q 1313 4325 1613 4325 
Q 2100 4325 2488 3828 
Q 2972 3213 2972 2159 
Q 2972 1422 2759 906 
Q 2547 391 2217 158 
Q 1888 -75 1581 -75 
Q 975 -75 572 641 
Q 231 1244 231 2094 
z
M 844 2016 
Q 844 1141 1059 588 
Q 1238 122 1591 122 
Q 1759 122 1940 273 
Q 2122 425 2216 781 
Q 2359 1319 2359 2297 
Q 2359 3022 2209 3506 
Q 2097 3866 1919 4016 
Q 1791 4119 1609 4119 
Q 1397 4119 1231 3928 
Q 1006 3669 925 3112 
Q 844 2556 844 2016 
z
" transform="scale(0.015625)"/>
       </defs>
       <use xlink:href="#TimesNewRomanPSMT-30"/>
      </g>
     </g>
    </g>
    <g id="xtick_2">
     <g id="line2d_2">
      <g>
       <use xlink:href="#m79d63d0041" x="125.529311" y="307.584" style="stroke: #000000; stroke-width: 0.8"/>
      </g>
     </g>
     <g id="text_2">
      <!-- 50 -->
      <g transform="translate(120.529311 321.52775) scale(0.1 -0.1)">
       <defs>
        <path id="TimesNewRomanPSMT-35" d="M 2778 4238 
L 2534 3706 
L 1259 3706 
L 981 3138 
Q 1809 3016 2294 2522 
Q 2709 2097 2709 1522 
Q 2709 1188 2573 903 
Q 2438 619 2231 419 
Q 2025 219 1772 97 
Q 1413 -75 1034 -75 
Q 653 -75 479 54 
Q 306 184 306 341 
Q 306 428 378 495 
Q 450 563 559 563 
Q 641 563 702 538 
Q 763 513 909 409 
Q 1144 247 1384 247 
Q 1750 247 2026 523 
Q 2303 800 2303 1197 
Q 2303 1581 2056 1914 
Q 1809 2247 1375 2428 
Q 1034 2569 447 2591 
L 1259 4238 
L 2778 4238 
z
" transform="scale(0.015625)"/>
       </defs>
       <use xlink:href="#TimesNewRomanPSMT-35"/>
       <use xlink:href="#TimesNewRomanPSMT-30" x="50"/>
      </g>
     </g>
    </g>
    <g id="xtick_3">
     <g id="line2d_3">
      <g>
       <use xlink:href="#m79d63d0041" x="177.225895" y="307.584" style="stroke: #000000; stroke-width: 0.8"/>
      </g>
     </g>
     <g id="text_3">
      <!-- 100 -->
      <g transform="translate(169.725895 321.52775) scale(0.1 -0.1)">
       <defs>
        <path id="TimesNewRomanPSMT-31" d="M 750 3822 
L 1781 4325 
L 1884 4325 
L 1884 747 
Q 1884 391 1914 303 
Q 1944 216 2037 169 
Q 2131 122 2419 116 
L 2419 0 
L 825 0 
L 825 116 
Q 1125 122 1212 167 
Q 1300 213 1334 289 
Q 1369 366 1369 747 
L 1369 3034 
Q 1369 3497 1338 3628 
Q 1316 3728 1258 3775 
Q 1200 3822 1119 3822 
Q 1003 3822 797 3725 
L 750 3822 
z
" transform="scale(0.015625)"/>
       </defs>
       <use xlink:href="#TimesNewRomanPSMT-31"/>
       <use xlink:href="#TimesNewRomanPSMT-30" x="50"/>
       <use xlink:href="#TimesNewRomanPSMT-30" x="100"/>
      </g>
     </g>
    </g>
    <g id="xtick_4">
     <g id="line2d_4">
      <g>
       <use xlink:href="#m79d63d0041" x="228.922478" y="307.584" style="stroke: #000000; stroke-width: 0.8"/>
      </g>
     </g>
     <g id="text_4">
      <!-- 150 -->
      <g transform="translate(221.422478 321.52775) scale(0.1 -0.1)">
       <use xlink:href="#TimesNewRomanPSMT-31"/>
       <use xlink:href="#TimesNewRomanPSMT-35" x="50"/>
       <use xlink:href="#TimesNewRomanPSMT-30" x="100"/>
      </g>
     </g>
    </g>
    <g id="xtick_5">
     <g id="line2d_5">
      <g>
       <use xlink:href="#m79d63d0041" x="280.619062" y="307.584" style="stroke: #000000; stroke-width: 0.8"/>
      </g>
     </g>
     <g id="text_5">
      <!-- 200 -->
      <g transform="translate(273.119062 321.52775) scale(0.1 -0.1)">
       <defs>
        <path id="TimesNewRomanPSMT-32" d="M 2934 816 
L 2638 0 
L 138 0 
L 138 116 
Q 1241 1122 1691 1759 
Q 2141 2397 2141 2925 
Q 2141 3328 1894 3587 
Q 1647 3847 1303 3847 
Q 991 3847 742 3664 
Q 494 3481 375 3128 
L 259 3128 
Q 338 3706 661 4015 
Q 984 4325 1469 4325 
Q 1984 4325 2329 3994 
Q 2675 3663 2675 3213 
Q 2675 2891 2525 2569 
Q 2294 2063 1775 1497 
Q 997 647 803 472 
L 1909 472 
Q 2247 472 2383 497 
Q 2519 522 2628 598 
Q 2738 675 2819 816 
L 2934 816 
z
" transform="scale(0.015625)"/>
       </defs>
       <use xlink:href="#TimesNewRomanPSMT-32"/>
       <use xlink:href="#TimesNewRomanPSMT-30" x="50"/>
       <use xlink:href="#TimesNewRomanPSMT-30" x="100"/>
      </g>
     </g>
    </g>
    <g id="xtick_6">
     <g id="line2d_6">
      <g>
       <use xlink:href="#m79d63d0041" x="332.315646" y="307.584" style="stroke: #000000; stroke-width: 0.8"/>
      </g>
     </g>
     <g id="text_6">
      <!-- 250 -->
      <g transform="translate(324.815646 321.52775) scale(0.1 -0.1)">
       <use xlink:href="#TimesNewRomanPSMT-32"/>
       <use xlink:href="#TimesNewRomanPSMT-35" x="50"/>
       <use xlink:href="#TimesNewRomanPSMT-30" x="100"/>
      </g>
     </g>
    </g>
    <g id="xtick_7">
     <g id="line2d_7">
      <g>
       <use xlink:href="#m79d63d0041" x="384.012229" y="307.584" style="stroke: #000000; stroke-width: 0.8"/>
      </g>
     </g>
     <g id="text_7">
      <!-- 300 -->
      <g transform="translate(376.512229 321.52775) scale(0.1 -0.1)">
       <defs>
        <path id="TimesNewRomanPSMT-33" d="M 325 3431 
Q 506 3859 782 4092 
Q 1059 4325 1472 4325 
Q 1981 4325 2253 3994 
Q 2459 3747 2459 3466 
Q 2459 3003 1878 2509 
Q 2269 2356 2469 2072 
Q 2669 1788 2669 1403 
Q 2669 853 2319 450 
Q 1863 -75 997 -75 
Q 569 -75 414 31 
Q 259 138 259 259 
Q 259 350 332 419 
Q 406 488 509 488 
Q 588 488 669 463 
Q 722 447 909 348 
Q 1097 250 1169 231 
Q 1284 197 1416 197 
Q 1734 197 1970 444 
Q 2206 691 2206 1028 
Q 2206 1275 2097 1509 
Q 2016 1684 1919 1775 
Q 1784 1900 1550 2001 
Q 1316 2103 1072 2103 
L 972 2103 
L 972 2197 
Q 1219 2228 1467 2375 
Q 1716 2522 1828 2728 
Q 1941 2934 1941 3181 
Q 1941 3503 1739 3701 
Q 1538 3900 1238 3900 
Q 753 3900 428 3381 
L 325 3431 
z
" transform="scale(0.015625)"/>
       </defs>
       <use xlink:href="#TimesNewRomanPSMT-33"/>
       <use xlink:href="#TimesNewRomanPSMT-30" x="50"/>
       <use xlink:href="#TimesNewRomanPSMT-30" x="100"/>
      </g>
     </g>
    </g>
    <g id="text_8">
     <!-- Cut Number -->
     <g transform="translate(186.442813 341.554312) scale(0.2 -0.2)">
      <defs>
       <path id="TimesNewRomanPSMT-43" d="M 3853 4334 
L 3950 2894 
L 3853 2894 
Q 3659 3541 3300 3825 
Q 2941 4109 2438 4109 
Q 2016 4109 1675 3895 
Q 1334 3681 1139 3212 
Q 944 2744 944 2047 
Q 944 1472 1128 1050 
Q 1313 628 1683 403 
Q 2053 178 2528 178 
Q 2941 178 3256 354 
Q 3572 531 3950 1056 
L 4047 994 
Q 3728 428 3303 165 
Q 2878 -97 2294 -97 
Q 1241 -97 663 684 
Q 231 1266 231 2053 
Q 231 2688 515 3219 
Q 800 3750 1298 4042 
Q 1797 4334 2388 4334 
Q 2847 4334 3294 4109 
Q 3425 4041 3481 4041 
Q 3566 4041 3628 4100 
Q 3709 4184 3744 4334 
L 3853 4334 
z
" transform="scale(0.015625)"/>
       <path id="TimesNewRomanPSMT-75" d="M 2709 2863 
L 2709 1128 
Q 2709 631 2732 520 
Q 2756 409 2807 365 
Q 2859 322 2928 322 
Q 3025 322 3147 375 
L 3191 266 
L 2334 -88 
L 2194 -88 
L 2194 519 
Q 1825 119 1631 15 
Q 1438 -88 1222 -88 
Q 981 -88 804 51 
Q 628 191 559 409 
Q 491 628 491 1028 
L 491 2306 
Q 491 2509 447 2587 
Q 403 2666 317 2708 
Q 231 2750 6 2747 
L 6 2863 
L 1009 2863 
L 1009 947 
Q 1009 547 1148 422 
Q 1288 297 1484 297 
Q 1619 297 1789 381 
Q 1959 466 2194 703 
L 2194 2325 
Q 2194 2569 2105 2655 
Q 2016 2741 1734 2747 
L 1734 2863 
L 2709 2863 
z
" transform="scale(0.015625)"/>
       <path id="TimesNewRomanPSMT-74" d="M 1031 3803 
L 1031 2863 
L 1700 2863 
L 1700 2644 
L 1031 2644 
L 1031 788 
Q 1031 509 1111 412 
Q 1191 316 1316 316 
Q 1419 316 1516 380 
Q 1613 444 1666 569 
L 1788 569 
Q 1678 263 1478 108 
Q 1278 -47 1066 -47 
Q 922 -47 784 33 
Q 647 113 581 261 
Q 516 409 516 719 
L 516 2644 
L 63 2644 
L 63 2747 
Q 234 2816 414 2980 
Q 594 3144 734 3369 
Q 806 3488 934 3803 
L 1031 3803 
z
" transform="scale(0.015625)"/>
       <path id="TimesNewRomanPSMT-20" transform="scale(0.015625)"/>
       <path id="TimesNewRomanPSMT-4e" d="M -84 4238 
L 1066 4238 
L 3656 1059 
L 3656 3503 
Q 3656 3894 3569 3991 
Q 3453 4122 3203 4122 
L 3056 4122 
L 3056 4238 
L 4531 4238 
L 4531 4122 
L 4381 4122 
Q 4113 4122 4000 3959 
Q 3931 3859 3931 3503 
L 3931 -69 
L 3819 -69 
L 1025 3344 
L 1025 734 
Q 1025 344 1109 247 
Q 1228 116 1475 116 
L 1625 116 
L 1625 0 
L 150 0 
L 150 116 
L 297 116 
Q 569 116 681 278 
Q 750 378 750 734 
L 750 3681 
Q 566 3897 470 3965 
Q 375 4034 191 4094 
Q 100 4122 -84 4122 
L -84 4238 
z
" transform="scale(0.015625)"/>
       <path id="TimesNewRomanPSMT-6d" d="M 1050 2338 
Q 1363 2650 1419 2697 
Q 1559 2816 1721 2881 
Q 1884 2947 2044 2947 
Q 2313 2947 2506 2790 
Q 2700 2634 2766 2338 
Q 3088 2713 3309 2830 
Q 3531 2947 3766 2947 
Q 3994 2947 4170 2830 
Q 4347 2713 4450 2447 
Q 4519 2266 4519 1878 
L 4519 647 
Q 4519 378 4559 278 
Q 4591 209 4675 161 
Q 4759 113 4950 113 
L 4950 0 
L 3538 0 
L 3538 113 
L 3597 113 
Q 3781 113 3884 184 
Q 3956 234 3988 344 
Q 4000 397 4000 647 
L 4000 1878 
Q 4000 2228 3916 2372 
Q 3794 2572 3525 2572 
Q 3359 2572 3192 2489 
Q 3025 2406 2788 2181 
L 2781 2147 
L 2788 2013 
L 2788 647 
Q 2788 353 2820 281 
Q 2853 209 2943 161 
Q 3034 113 3253 113 
L 3253 0 
L 1806 0 
L 1806 113 
Q 2044 113 2133 169 
Q 2222 225 2256 338 
Q 2272 391 2272 647 
L 2272 1878 
Q 2272 2228 2169 2381 
Q 2031 2581 1784 2581 
Q 1616 2581 1450 2491 
Q 1191 2353 1050 2181 
L 1050 647 
Q 1050 366 1089 281 
Q 1128 197 1204 155 
Q 1281 113 1516 113 
L 1516 0 
L 100 0 
L 100 113 
Q 297 113 375 155 
Q 453 197 493 289 
Q 534 381 534 647 
L 534 1741 
Q 534 2213 506 2350 
Q 484 2453 437 2492 
Q 391 2531 309 2531 
Q 222 2531 100 2484 
L 53 2597 
L 916 2947 
L 1050 2947 
L 1050 2338 
z
" transform="scale(0.015625)"/>
       <path id="TimesNewRomanPSMT-62" d="M 984 2369 
Q 1400 2947 1881 2947 
Q 2322 2947 2650 2570 
Q 2978 2194 2978 1541 
Q 2978 778 2472 313 
Q 2038 -88 1503 -88 
Q 1253 -88 995 3 
Q 738 94 469 275 
L 469 3241 
Q 469 3728 445 3840 
Q 422 3953 372 3993 
Q 322 4034 247 4034 
Q 159 4034 28 3984 
L -16 4094 
L 844 4444 
L 984 4444 
L 984 2369 
z
M 984 2169 
L 984 456 
Q 1144 300 1314 220 
Q 1484 141 1663 141 
Q 1947 141 2192 453 
Q 2438 766 2438 1363 
Q 2438 1913 2192 2208 
Q 1947 2503 1634 2503 
Q 1469 2503 1303 2419 
Q 1178 2356 984 2169 
z
" transform="scale(0.015625)"/>
       <path id="TimesNewRomanPSMT-65" d="M 681 1784 
Q 678 1147 991 784 
Q 1303 422 1725 422 
Q 2006 422 2214 576 
Q 2422 731 2563 1106 
L 2659 1044 
Q 2594 616 2278 264 
Q 1963 -88 1488 -88 
Q 972 -88 605 314 
Q 238 716 238 1394 
Q 238 2128 614 2539 
Q 991 2950 1559 2950 
Q 2041 2950 2350 2633 
Q 2659 2316 2659 1784 
L 681 1784 
z
M 681 1966 
L 2006 1966 
Q 1991 2241 1941 2353 
Q 1863 2528 1708 2628 
Q 1553 2728 1384 2728 
Q 1125 2728 920 2526 
Q 716 2325 681 1966 
z
" transform="scale(0.015625)"/>
       <path id="TimesNewRomanPSMT-72" d="M 1038 2947 
L 1038 2303 
Q 1397 2947 1775 2947 
Q 1947 2947 2059 2842 
Q 2172 2738 2172 2600 
Q 2172 2478 2090 2393 
Q 2009 2309 1897 2309 
Q 1788 2309 1652 2417 
Q 1516 2525 1450 2525 
Q 1394 2525 1328 2463 
Q 1188 2334 1038 2041 
L 1038 669 
Q 1038 431 1097 309 
Q 1138 225 1241 169 
Q 1344 113 1538 113 
L 1538 0 
L 72 0 
L 72 113 
Q 291 113 397 181 
Q 475 231 506 341 
Q 522 394 522 644 
L 522 1753 
Q 522 2253 501 2348 
Q 481 2444 426 2487 
Q 372 2531 291 2531 
Q 194 2531 72 2484 
L 41 2597 
L 906 2947 
L 1038 2947 
z
" transform="scale(0.015625)"/>
      </defs>
      <use xlink:href="#TimesNewRomanPSMT-43"/>
      <use xlink:href="#TimesNewRomanPSMT-75" x="66.699219"/>
      <use xlink:href="#TimesNewRomanPSMT-74" x="116.699219"/>
      <use xlink:href="#TimesNewRomanPSMT-20" x="144.482422"/>
      <use xlink:href="#TimesNewRomanPSMT-4e" x="169.482422"/>
      <use xlink:href="#TimesNewRomanPSMT-75" x="241.699219"/>
      <use xlink:href="#TimesNewRomanPSMT-6d" x="291.699219"/>
      <use xlink:href="#TimesNewRomanPSMT-62" x="369.482422"/>
      <use xlink:href="#TimesNewRomanPSMT-65" x="419.482422"/>
      <use xlink:href="#TimesNewRomanPSMT-72" x="463.867188"/>
     </g>
    </g>
   </g>
   <g id="matplotlib.axis_2">
    <g id="ytick_1">
     <g id="line2d_8">
      <defs>
       <path id="m5cf24a6cd0" d="M 0 0 
L -3.5 0 
" style="stroke: #000000; stroke-width: 0.8"/>
      </defs>
      <g>
       <use xlink:href="#m5cf24a6cd0" x="57.6" y="307.584" style="stroke: #000000; stroke-width: 0.8"/>
      </g>
     </g>
     <g id="text_9">
      <!-- 0 -->
      <g transform="translate(45.6 311.055875) scale(0.1 -0.1)">
       <use xlink:href="#TimesNewRomanPSMT-30"/>
      </g>
     </g>
    </g>
    <g id="ytick_2">
     <g id="line2d_9">
      <g>
       <use xlink:href="#m5cf24a6cd0" x="57.6" y="253.703543" style="stroke: #000000; stroke-width: 0.8"/>
      </g>
     </g>
     <g id="text_10">
      <!-- 50 -->
      <g transform="translate(40.6 257.175418) scale(0.1 -0.1)">
       <use xlink:href="#TimesNewRomanPSMT-35"/>
       <use xlink:href="#TimesNewRomanPSMT-30" x="50"/>
      </g>
     </g>
    </g>
    <g id="ytick_3">
     <g id="line2d_10">
      <g>
       <use xlink:href="#m5cf24a6cd0" x="57.6" y="199.823087" style="stroke: #000000; stroke-width: 0.8"/>
      </g>
     </g>
     <g id="text_11">
      <!-- 100 -->
      <g transform="translate(35.6 203.294962) scale(0.1 -0.1)">
       <use xlink:href="#TimesNewRomanPSMT-31"/>
       <use xlink:href="#TimesNewRomanPSMT-30" x="50"/>
       <use xlink:href="#TimesNewRomanPSMT-30" x="100"/>
      </g>
     </g>
    </g>
    <g id="ytick_4">
     <g id="line2d_11">
      <g>
       <use xlink:href="#m5cf24a6cd0" x="57.6" y="145.94263" style="stroke: #000000; stroke-width: 0.8"/>
      </g>
     </g>
     <g id="text_12">
      <!-- 150 -->
      <g transform="translate(35.6 149.414505) scale(0.1 -0.1)">
       <use xlink:href="#TimesNewRomanPSMT-31"/>
       <use xlink:href="#TimesNewRomanPSMT-35" x="50"/>
       <use xlink:href="#TimesNewRomanPSMT-30" x="100"/>
      </g>
     </g>
    </g>
    <g id="ytick_5">
     <g id="line2d_12">
      <g>
       <use xlink:href="#m5cf24a6cd0" x="57.6" y="92.062174" style="stroke: #000000; stroke-width: 0.8"/>
      </g>
     </g>
     <g id="text_13">
      <!-- 200 -->
      <g transform="translate(35.6 95.534049) scale(0.1 -0.1)">
       <use xlink:href="#TimesNewRomanPSMT-32"/>
       <use xlink:href="#TimesNewRomanPSMT-30" x="50"/>
       <use xlink:href="#TimesNewRomanPSMT-30" x="100"/>
      </g>
     </g>
    </g>
    <g id="text_14">
     <!-- Tool wear ($\mu m$) -->
     <g transform="translate(27.2 240.628) rotate(-90) scale(0.2 -0.2)">
      <defs>
       <path id="TimesNewRomanPSMT-54" d="M 3703 4238 
L 3750 3244 
L 3631 3244 
Q 3597 3506 3538 3619 
Q 3441 3800 3280 3886 
Q 3119 3972 2856 3972 
L 2259 3972 
L 2259 734 
Q 2259 344 2344 247 
Q 2463 116 2709 116 
L 2856 116 
L 2856 0 
L 1059 0 
L 1059 116 
L 1209 116 
Q 1478 116 1591 278 
Q 1659 378 1659 734 
L 1659 3972 
L 1150 3972 
Q 853 3972 728 3928 
Q 566 3869 450 3700 
Q 334 3531 313 3244 
L 194 3244 
L 244 4238 
L 3703 4238 
z
" transform="scale(0.015625)"/>
       <path id="TimesNewRomanPSMT-6f" d="M 1600 2947 
Q 2250 2947 2644 2453 
Q 2978 2031 2978 1484 
Q 2978 1100 2793 706 
Q 2609 313 2286 112 
Q 1963 -88 1566 -88 
Q 919 -88 538 428 
Q 216 863 216 1403 
Q 216 1797 411 2186 
Q 606 2575 925 2761 
Q 1244 2947 1600 2947 
z
M 1503 2744 
Q 1338 2744 1170 2645 
Q 1003 2547 900 2300 
Q 797 2053 797 1666 
Q 797 1041 1045 587 
Q 1294 134 1700 134 
Q 2003 134 2200 384 
Q 2397 634 2397 1244 
Q 2397 2006 2069 2444 
Q 1847 2744 1503 2744 
z
" transform="scale(0.015625)"/>
       <path id="TimesNewRomanPSMT-6c" d="M 1184 4444 
L 1184 647 
Q 1184 378 1223 290 
Q 1263 203 1344 158 
Q 1425 113 1647 113 
L 1647 0 
L 244 0 
L 244 113 
Q 441 113 512 153 
Q 584 194 625 287 
Q 666 381 666 647 
L 666 3247 
Q 666 3731 644 3842 
Q 622 3953 573 3993 
Q 525 4034 450 4034 
Q 369 4034 244 3984 
L 191 4094 
L 1044 4444 
L 1184 4444 
z
" transform="scale(0.015625)"/>
       <path id="TimesNewRomanPSMT-77" d="M 41 2863 
L 1241 2863 
L 1241 2747 
Q 1075 2734 1023 2687 
Q 972 2641 972 2553 
Q 972 2456 1025 2319 
L 1638 672 
L 2253 2013 
L 2091 2434 
Q 2016 2622 1894 2694 
Q 1825 2738 1638 2747 
L 1638 2863 
L 3000 2863 
L 3000 2747 
Q 2775 2738 2681 2666 
Q 2619 2616 2619 2506 
Q 2619 2444 2644 2378 
L 3294 734 
L 3897 2319 
Q 3959 2488 3959 2588 
Q 3959 2647 3898 2694 
Q 3838 2741 3659 2747 
L 3659 2863 
L 4563 2863 
L 4563 2747 
Q 4291 2706 4163 2378 
L 3206 -88 
L 3078 -88 
L 2363 1741 
L 1528 -88 
L 1413 -88 
L 494 2319 
Q 403 2547 315 2626 
Q 228 2706 41 2747 
L 41 2863 
z
" transform="scale(0.015625)"/>
       <path id="TimesNewRomanPSMT-61" d="M 1822 413 
Q 1381 72 1269 19 
Q 1100 -59 909 -59 
Q 613 -59 420 144 
Q 228 347 228 678 
Q 228 888 322 1041 
Q 450 1253 767 1440 
Q 1084 1628 1822 1897 
L 1822 2009 
Q 1822 2438 1686 2597 
Q 1550 2756 1291 2756 
Q 1094 2756 978 2650 
Q 859 2544 859 2406 
L 866 2225 
Q 866 2081 792 2003 
Q 719 1925 600 1925 
Q 484 1925 411 2006 
Q 338 2088 338 2228 
Q 338 2497 613 2722 
Q 888 2947 1384 2947 
Q 1766 2947 2009 2819 
Q 2194 2722 2281 2516 
Q 2338 2381 2338 1966 
L 2338 994 
Q 2338 584 2353 492 
Q 2369 400 2405 369 
Q 2441 338 2488 338 
Q 2538 338 2575 359 
Q 2641 400 2828 588 
L 2828 413 
Q 2478 -56 2159 -56 
Q 2006 -56 1915 50 
Q 1825 156 1822 413 
z
M 1822 616 
L 1822 1706 
Q 1350 1519 1213 1441 
Q 966 1303 859 1153 
Q 753 1003 753 825 
Q 753 600 887 451 
Q 1022 303 1197 303 
Q 1434 303 1822 616 
z
" transform="scale(0.015625)"/>
       <path id="TimesNewRomanPSMT-28" d="M 1988 -1253 
L 1988 -1369 
Q 1516 -1131 1200 -813 
Q 750 -359 506 256 
Q 263 872 263 1534 
Q 263 2503 741 3301 
Q 1219 4100 1988 4444 
L 1988 4313 
Q 1603 4100 1356 3731 
Q 1109 3363 987 2797 
Q 866 2231 866 1616 
Q 866 947 969 400 
Q 1050 -31 1165 -292 
Q 1281 -553 1476 -793 
Q 1672 -1034 1988 -1253 
z
" transform="scale(0.015625)"/>
       <path id="DejaVuSans-Oblique-3bc" d="M -84 -1331 
L 856 3500 
L 1434 3500 
L 1009 1322 
Q 997 1256 987 1175 
Q 978 1094 978 1013 
Q 978 722 1161 565 
Q 1344 409 1684 409 
Q 2147 409 2431 671 
Q 2716 934 2816 1459 
L 3213 3500 
L 3788 3500 
L 3266 809 
Q 3253 750 3248 706 
Q 3244 663 3244 628 
Q 3244 531 3283 486 
Q 3322 441 3406 441 
Q 3438 441 3492 456 
Q 3547 472 3647 513 
L 3559 50 
Q 3422 -19 3297 -55 
Q 3172 -91 3053 -91 
Q 2847 -91 2730 40 
Q 2613 172 2613 403 
Q 2438 153 2195 31 
Q 1953 -91 1625 -91 
Q 1334 -91 1117 43 
Q 900 178 831 397 
L 494 -1331 
L -84 -1331 
z
" transform="scale(0.015625)"/>
       <path id="DejaVuSans-Oblique-6d" d="M 5747 2113 
L 5338 0 
L 4763 0 
L 5166 2094 
Q 5191 2228 5203 2325 
Q 5216 2422 5216 2491 
Q 5216 2772 5059 2928 
Q 4903 3084 4622 3084 
Q 4203 3084 3875 2770 
Q 3547 2456 3450 1953 
L 3066 0 
L 2491 0 
L 2900 2094 
Q 2925 2209 2937 2307 
Q 2950 2406 2950 2484 
Q 2950 2769 2794 2926 
Q 2638 3084 2363 3084 
Q 1938 3084 1609 2770 
Q 1281 2456 1184 1953 
L 800 0 
L 225 0 
L 909 3500 
L 1484 3500 
L 1375 2956 
Q 1609 3263 1923 3423 
Q 2238 3584 2597 3584 
Q 2978 3584 3223 3384 
Q 3469 3184 3519 2828 
Q 3781 3197 4126 3390 
Q 4472 3584 4856 3584 
Q 5306 3584 5551 3325 
Q 5797 3066 5797 2591 
Q 5797 2488 5784 2364 
Q 5772 2241 5747 2113 
z
" transform="scale(0.015625)"/>
       <path id="TimesNewRomanPSMT-29" d="M 144 4313 
L 144 4444 
Q 619 4209 934 3891 
Q 1381 3434 1625 2820 
Q 1869 2206 1869 1541 
Q 1869 572 1392 -226 
Q 916 -1025 144 -1369 
L 144 -1253 
Q 528 -1038 776 -670 
Q 1025 -303 1145 264 
Q 1266 831 1266 1447 
Q 1266 2113 1163 2663 
Q 1084 3094 967 3353 
Q 850 3613 656 3853 
Q 463 4094 144 4313 
z
" transform="scale(0.015625)"/>
      </defs>
      <use xlink:href="#TimesNewRomanPSMT-54" transform="translate(0 0.5625)"/>
      <use xlink:href="#TimesNewRomanPSMT-6f" transform="translate(61.083984 0.5625)"/>
      <use xlink:href="#TimesNewRomanPSMT-6f" transform="translate(111.083984 0.5625)"/>
      <use xlink:href="#TimesNewRomanPSMT-6c" transform="translate(161.083984 0.5625)"/>
      <use xlink:href="#TimesNewRomanPSMT-20" transform="translate(188.867188 0.5625)"/>
      <use xlink:href="#TimesNewRomanPSMT-77" transform="translate(213.867188 0.5625)"/>
      <use xlink:href="#TimesNewRomanPSMT-65" transform="translate(286.083984 0.5625)"/>
      <use xlink:href="#TimesNewRomanPSMT-61" transform="translate(330.46875 0.5625)"/>
      <use xlink:href="#TimesNewRomanPSMT-72" transform="translate(374.853516 0.5625)"/>
      <use xlink:href="#TimesNewRomanPSMT-20" transform="translate(408.154297 0.5625)"/>
      <use xlink:href="#TimesNewRomanPSMT-28" transform="translate(433.154297 0.5625)"/>
      <use xlink:href="#DejaVuSans-Oblique-3bc" transform="translate(466.455078 0.5625)"/>
      <use xlink:href="#DejaVuSans-Oblique-6d" transform="translate(530.078125 0.5625)"/>
      <use xlink:href="#TimesNewRomanPSMT-29" transform="translate(627.490234 0.5625)"/>
     </g>
    </g>
   </g>
   <g id="line2d_13">
    <path d="M 73.832727 271.702996 
L 74.866659 271.199087 
L 75.900591 268.251945 
L 76.934522 264.235103 
L 77.968454 262.239858 
L 79.002386 258.496788 
L 80.036317 260.789166 
L 81.070249 260.297269 
L 82.104181 258.511077 
L 83.138112 249.650111 
L 84.172044 255.017776 
L 85.205976 251.497064 
L 86.239907 250.73923 
L 87.273839 247.866871 
L 88.307771 246.028994 
L 89.341702 243.576968 
L 90.375634 242.561932 
L 91.409566 243.187634 
L 92.443497 250.106302 
L 93.477429 246.490595 
L 94.511361 237.33058 
L 96.579224 229.521721 
L 97.613156 228.779434 
L 98.647087 224.770217 
L 99.681019 225.863932 
L 100.714951 225.550347 
L 102.782814 223.987266 
L 103.816746 221.395856 
L 104.850677 234.057772 
L 105.884609 233.753576 
L 106.918541 230.048851 
L 107.952472 223.672671 
L 108.986404 223.341632 
L 111.054268 221.194026 
L 112.088199 220.331393 
L 113.122131 220.410402 
L 114.156063 219.15386 
L 115.189994 218.767482 
L 119.325721 218.704777 
L 120.359653 217.287496 
L 121.393584 225.839868 
L 122.427516 217.262626 
L 123.461448 218.053362 
L 124.495379 216.758228 
L 126.563243 215.77765 
L 127.597174 214.607762 
L 128.631106 214.335885 
L 129.665038 212.129875 
L 130.698969 212.725958 
L 131.732901 210.892448 
L 132.766833 225.730316 
L 133.800764 210.174768 
L 134.834696 211.092641 
L 135.868628 208.327905 
L 136.902559 207.920464 
L 137.936491 201.827663 
L 138.970423 207.83145 
L 140.004354 212.243997 
L 141.038286 209.226425 
L 142.072218 204.198367 
L 143.106149 204.589644 
L 144.140081 200.70421 
L 145.174013 199.13202 
L 146.207944 198.365381 
L 147.241876 198.770257 
L 148.275808 198.609075 
L 149.309739 196.477617 
L 150.343671 194.024106 
L 151.377603 210.429692 
L 152.411534 196.518626 
L 153.445466 195.391293 
L 154.479398 194.689883 
L 155.513329 193.850336 
L 156.547261 192.81857 
L 157.581193 193.272414 
L 158.615124 190.875335 
L 160.682988 192.55586 
L 161.71692 196.901863 
L 162.750851 209.320372 
L 163.784783 191.137371 
L 164.818715 191.408401 
L 165.852646 190.302017 
L 166.886578 190.499152 
L 167.92051 189.685881 
L 168.954441 188.37076 
L 169.988373 189.536858 
L 171.022305 187.996592 
L 172.056236 188.533217 
L 173.090168 189.27737 
L 174.1241 188.777815 
L 175.158031 188.998982 
L 176.191963 189.754522 
L 177.225895 188.225791 
L 178.259826 187.147096 
L 179.293758 187.462572 
L 180.32769 187.460188 
L 181.361621 187.601121 
L 182.395553 185.415516 
L 183.429485 185.309014 
L 184.463416 190.455603 
L 185.497348 185.964499 
L 186.53128 185.066505 
L 187.565211 185.559828 
L 189.633075 183.980773 
L 190.667006 183.513618 
L 191.700938 187.895434 
L 192.73487 186.192769 
L 193.768801 183.24147 
L 194.802733 183.235362 
L 195.836665 190.042431 
L 196.870596 183.815019 
L 197.904528 184.112637 
L 198.93846 181.577668 
L 199.972391 183.959109 
L 201.006323 184.969861 
L 202.040255 185.115497 
L 203.074186 182.270297 
L 204.108118 182.643232 
L 205.14205 182.309275 
L 206.175981 186.375089 
L 207.209913 186.070753 
L 208.243845 182.653222 
L 209.277776 181.460002 
L 210.311708 183.093269 
L 211.34564 183.510618 
L 212.379572 182.999347 
L 213.413503 183.743607 
L 214.447435 180.179551 
L 215.481367 179.78732 
L 216.515298 178.998614 
L 217.54923 183.562265 
L 218.583162 178.190079 
L 219.617093 180.08701 
L 220.651025 181.607364 
L 221.684957 180.42077 
L 223.75282 183.062685 
L 224.786752 180.890038 
L 225.820683 179.523558 
L 226.854615 177.754651 
L 227.888547 185.623273 
L 228.922478 177.732075 
L 229.95641 178.736044 
L 230.990342 178.311395 
L 232.024273 176.812993 
L 233.058205 176.318798 
L 234.092137 178.10811 
L 235.126068 177.059326 
L 236.16 176.226635 
L 237.193932 174.584118 
L 239.261795 176.962345 
L 240.295727 175.35597 
L 241.329658 178.405433 
L 242.36359 177.491793 
L 243.397522 176.958242 
L 244.431453 177.405377 
L 245.465385 176.350829 
L 246.499317 172.970821 
L 247.533248 173.895345 
L 248.56718 176.188192 
L 249.601112 173.998015 
L 250.635043 175.900735 
L 251.668975 173.957294 
L 252.702907 174.404848 
L 253.736838 173.206844 
L 254.77077 173.030098 
L 255.804702 172.458917 
L 256.838633 171.211731 
L 257.872565 171.575894 
L 258.906497 171.512728 
L 259.940428 170.457276 
L 260.97436 171.368178 
L 262.008292 175.371763 
L 263.042224 169.030557 
L 264.076155 169.668669 
L 266.144019 169.853966 
L 267.17795 167.843438 
L 268.211882 167.131439 
L 269.245814 167.96505 
L 270.279745 167.1453 
L 271.313677 166.612119 
L 272.347609 168.483844 
L 273.38154 164.466191 
L 274.415472 166.286942 
L 275.449404 164.214186 
L 276.483335 163.000725 
L 277.517267 163.115447 
L 278.551199 162.348036 
L 279.58513 162.290666 
L 281.652994 161.112064 
L 282.686925 159.646548 
L 283.720857 166.18447 
L 284.754789 159.836777 
L 285.78872 158.808859 
L 286.822652 158.814647 
L 287.856584 159.012127 
L 288.890515 154.870067 
L 289.924447 156.914657 
L 291.99231 154.801335 
L 293.026242 154.301106 
L 294.060174 153.277825 
L 295.094105 165.448497 
L 296.128037 151.662134 
L 297.161969 152.182884 
L 300.263764 149.253299 
L 301.297695 149.977153 
L 302.331627 149.588013 
L 303.365559 147.180904 
L 304.39949 146.176039 
L 305.433422 144.546964 
L 306.467354 144.109202 
L 307.501285 143.262091 
L 308.535217 140.609208 
L 309.569149 141.1539 
L 310.60308 139.342636 
L 311.637012 133.608104 
L 312.670944 135.180943 
L 313.704876 133.093898 
L 314.738807 134.102348 
L 315.772739 130.049162 
L 316.806671 137.539874 
L 317.840602 130.192265 
L 318.874534 121.868353 
L 319.908466 126.180138 
L 320.942397 125.466857 
L 323.010261 123.571191 
L 324.044192 118.796486 
L 325.078124 120.59943 
L 326.112056 117.080313 
L 327.145987 127.706247 
L 328.179919 113.382379 
L 329.213851 114.140533 
L 331.281714 115.197358 
L 332.315646 110.765852 
L 333.349577 107.784717 
L 334.383509 108.028929 
L 335.417441 104.039476 
L 336.451372 103.034036 
L 337.485304 104.559914 
L 338.519236 101.552208 
L 339.553167 100.199113 
L 340.587099 98.274458 
L 341.621031 96.857383 
L 342.654962 97.705908 
L 343.688894 95.27208 
L 344.722826 94.05043 
L 345.756757 92.413397 
L 346.790689 95.294936 
L 347.824621 90.419155 
L 348.858552 92.003637 
L 349.892484 103.325768 
L 350.926416 91.658893 
L 351.960347 85.925758 
L 352.994279 86.919984 
L 354.028211 86.75779 
L 355.062142 82.761185 
L 356.096074 82.858955 
L 357.130006 84.791535 
L 358.163937 78.824169 
L 359.197869 78.752692 
L 360.231801 74.602936 
L 361.265732 99.152828 
L 362.299664 78.516406 
L 363.333596 76.757086 
L 364.367528 73.604845 
L 365.401459 74.638404 
L 366.435391 75.356865 
L 367.469323 71.690139 
L 368.503254 70.92327 
L 369.537186 68.540908 
L 370.571118 69.279512 
L 371.605049 91.224468 
L 372.638981 73.224798 
L 373.672913 73.286755 
L 374.706844 74.714272 
L 375.740776 72.076714 
L 376.774708 72.740798 
L 377.808639 72.697882 
L 378.842571 70.962602 
L 379.876503 71.609207 
L 380.910434 70.452145 
L 381.944366 72.075333 
L 382.978298 69.539377 
L 384.012229 66.481536 
L 385.046161 59.123996 
L 386.080093 58.297077 
L 387.114024 61.79194 
L 388.147956 58.808323 
L 389.181888 56.369002 
L 390.215819 56.013537 
L 391.249751 56.380217 
L 392.283683 55.641333 
L 393.317614 56.748376 
L 394.351546 63.357709 
L 395.385478 56.295568 
L 396.419409 55.825248 
L 397.453341 56.15623 
L 398.487273 54.144 
L 398.487273 54.144 
" clip-path="url(#p859f879ea3)" style="fill: none; stroke: #006aae; stroke-width: 1.5; stroke-linecap: square"/>
   </g>
   <g id="line2d_14">
    <path d="M 73.832727 291.828376 
L 76.934522 244.561502 
L 81.070249 240.845365 
L 85.205976 237.788047 
L 93.477429 228.378056 
L 105.884609 224.045375 
L 140.004354 207.592458 
L 172.056236 189.314687 
L 209.277776 181.828027 
L 241.329658 174.627131 
L 271.313677 167.118295 
L 304.39949 143.542746 
L 338.519236 97.529723 
L 370.571118 59.258784 
L 398.487273 54.651951 
L 398.487273 54.651951 
" clip-path="url(#p859f879ea3)" style="fill: none; stroke: #ff0000; stroke-width: 1.5; stroke-linecap: square"/>
   </g>
   <g id="patch_318">
    <path d="M 57.6 307.584 
L 57.6 41.472 
" style="fill: none; stroke: #000000; stroke-width: 0.8; stroke-linejoin: miter; stroke-linecap: square"/>
   </g>
   <g id="patch_319">
    <path d="M 414.72 307.584 
L 414.72 41.472 
" style="fill: none; stroke: #000000; stroke-width: 0.8; stroke-linejoin: miter; stroke-linecap: square"/>
   </g>
   <g id="patch_320">
    <path d="M 57.6 307.584 
L 414.72 307.584 
" style="fill: none; stroke: #000000; stroke-width: 0.8; stroke-linejoin: miter; stroke-linecap: square"/>
   </g>
   <g id="patch_321">
    <path d="M 57.6 41.472 
L 414.72 41.472 
" style="fill: none; stroke: #000000; stroke-width: 0.8; stroke-linejoin: miter; stroke-linecap: square"/>
   </g>
   <g id="text_15">
    <!-- No.1 tool wear -->
    <g transform="translate(200.335312 35.472) scale(0.12 -0.12)">
     <defs>
      <path id="TimesNewRomanPSMT-2e" d="M 800 606 
Q 947 606 1047 504 
Q 1147 403 1147 259 
Q 1147 116 1045 14 
Q 944 -88 800 -88 
Q 656 -88 554 14 
Q 453 116 453 259 
Q 453 406 554 506 
Q 656 606 800 606 
z
" transform="scale(0.015625)"/>
     </defs>
     <use xlink:href="#TimesNewRomanPSMT-4e"/>
     <use xlink:href="#TimesNewRomanPSMT-6f" x="72.216797"/>
     <use xlink:href="#TimesNewRomanPSMT-2e" x="122.216797"/>
     <use xlink:href="#TimesNewRomanPSMT-31" x="147.216797"/>
     <use xlink:href="#TimesNewRomanPSMT-20" x="197.216797"/>
     <use xlink:href="#TimesNewRomanPSMT-74" x="222.216797"/>
     <use xlink:href="#TimesNewRomanPSMT-6f" x="250"/>
     <use xlink:href="#TimesNewRomanPSMT-6f" x="300"/>
     <use xlink:href="#TimesNewRomanPSMT-6c" x="350"/>
     <use xlink:href="#TimesNewRomanPSMT-20" x="377.783203"/>
     <use xlink:href="#TimesNewRomanPSMT-77" x="402.783203"/>
     <use xlink:href="#TimesNewRomanPSMT-65" x="475"/>
     <use xlink:href="#TimesNewRomanPSMT-61" x="519.384766"/>
     <use xlink:href="#TimesNewRomanPSMT-72" x="563.769531"/>
    </g>
   </g>
   <g id="legend_1">
    <g id="patch_322">
     <path d="M 64.6 91.889188 
L 134.282813 91.889188 
Q 136.282813 91.889188 136.282813 89.889188 
L 136.282813 48.472 
Q 136.282813 46.472 134.282813 46.472 
L 64.6 46.472 
Q 62.6 46.472 62.6 48.472 
L 62.6 89.889188 
Q 62.6 91.889188 64.6 91.889188 
z
" style="fill: #ffffff; opacity: 0.8; stroke: #cccccc; stroke-linejoin: miter"/>
    </g>
    <g id="line2d_15">
     <path d="M 66.6 53.972 
L 76.6 53.972 
L 86.6 53.972 
" style="fill: none; stroke: #006aae; stroke-width: 1.5; stroke-linecap: square"/>
    </g>
    <g id="text_16">
     <!-- proposed -->
     <g transform="translate(94.6 57.472) scale(0.1 -0.1)">
      <defs>
       <path id="TimesNewRomanPSMT-70" d="M -6 2578 
L 875 2934 
L 994 2934 
L 994 2266 
Q 1216 2644 1439 2795 
Q 1663 2947 1909 2947 
Q 2341 2947 2628 2609 
Q 2981 2197 2981 1534 
Q 2981 794 2556 309 
Q 2206 -88 1675 -88 
Q 1444 -88 1275 -22 
Q 1150 25 994 166 
L 994 -706 
Q 994 -1000 1030 -1079 
Q 1066 -1159 1155 -1206 
Q 1244 -1253 1478 -1253 
L 1478 -1369 
L -22 -1369 
L -22 -1253 
L 56 -1253 
Q 228 -1256 350 -1188 
Q 409 -1153 442 -1076 
Q 475 -1000 475 -688 
L 475 2019 
Q 475 2297 450 2372 
Q 425 2447 370 2484 
Q 316 2522 222 2522 
Q 147 2522 31 2478 
L -6 2578 
z
M 994 2081 
L 994 1013 
Q 994 666 1022 556 
Q 1066 375 1236 237 
Q 1406 100 1666 100 
Q 1978 100 2172 344 
Q 2425 663 2425 1241 
Q 2425 1897 2138 2250 
Q 1938 2494 1663 2494 
Q 1513 2494 1366 2419 
Q 1253 2363 994 2081 
z
" transform="scale(0.015625)"/>
       <path id="TimesNewRomanPSMT-73" d="M 2050 2947 
L 2050 1972 
L 1947 1972 
Q 1828 2431 1642 2597 
Q 1456 2763 1169 2763 
Q 950 2763 815 2647 
Q 681 2531 681 2391 
Q 681 2216 781 2091 
Q 878 1963 1175 1819 
L 1631 1597 
Q 2266 1288 2266 781 
Q 2266 391 1970 151 
Q 1675 -88 1309 -88 
Q 1047 -88 709 6 
Q 606 38 541 38 
Q 469 38 428 -44 
L 325 -44 
L 325 978 
L 428 978 
Q 516 541 762 319 
Q 1009 97 1316 97 
Q 1531 97 1667 223 
Q 1803 350 1803 528 
Q 1803 744 1651 891 
Q 1500 1038 1047 1263 
Q 594 1488 453 1669 
Q 313 1847 313 2119 
Q 313 2472 555 2709 
Q 797 2947 1181 2947 
Q 1350 2947 1591 2875 
Q 1750 2828 1803 2828 
Q 1853 2828 1881 2850 
Q 1909 2872 1947 2947 
L 2050 2947 
z
" transform="scale(0.015625)"/>
       <path id="TimesNewRomanPSMT-64" d="M 2222 322 
Q 2013 103 1813 7 
Q 1613 -88 1381 -88 
Q 913 -88 563 304 
Q 213 697 213 1313 
Q 213 1928 600 2439 
Q 988 2950 1597 2950 
Q 1975 2950 2222 2709 
L 2222 3238 
Q 2222 3728 2198 3840 
Q 2175 3953 2125 3993 
Q 2075 4034 2000 4034 
Q 1919 4034 1784 3984 
L 1744 4094 
L 2597 4444 
L 2738 4444 
L 2738 1134 
Q 2738 631 2761 520 
Q 2784 409 2836 365 
Q 2888 322 2956 322 
Q 3041 322 3181 375 
L 3216 266 
L 2366 -88 
L 2222 -88 
L 2222 322 
z
M 2222 541 
L 2222 2016 
Q 2203 2228 2109 2403 
Q 2016 2578 1861 2667 
Q 1706 2756 1559 2756 
Q 1284 2756 1069 2509 
Q 784 2184 784 1559 
Q 784 928 1059 592 
Q 1334 256 1672 256 
Q 1956 256 2222 541 
z
" transform="scale(0.015625)"/>
      </defs>
      <use xlink:href="#TimesNewRomanPSMT-70"/>
      <use xlink:href="#TimesNewRomanPSMT-72" x="50"/>
      <use xlink:href="#TimesNewRomanPSMT-6f" x="83.300781"/>
      <use xlink:href="#TimesNewRomanPSMT-70" x="133.300781"/>
      <use xlink:href="#TimesNewRomanPSMT-6f" x="183.300781"/>
      <use xlink:href="#TimesNewRomanPSMT-73" x="233.300781"/>
      <use xlink:href="#TimesNewRomanPSMT-65" x="272.216797"/>
      <use xlink:href="#TimesNewRomanPSMT-64" x="316.601562"/>
     </g>
    </g>
    <g id="line2d_16">
     <path d="M 66.6 68.111063 
L 76.6 68.111063 
L 86.6 68.111063 
" style="fill: none; stroke: #ff0000; stroke-width: 1.5; stroke-linecap: square"/>
    </g>
    <g id="text_17">
     <!-- Ture data -->
     <g transform="translate(94.6 71.611063) scale(0.1 -0.1)">
      <use xlink:href="#TimesNewRomanPSMT-54"/>
      <use xlink:href="#TimesNewRomanPSMT-75" x="57.583984"/>
      <use xlink:href="#TimesNewRomanPSMT-72" x="107.583984"/>
      <use xlink:href="#TimesNewRomanPSMT-65" x="140.884766"/>
      <use xlink:href="#TimesNewRomanPSMT-20" x="185.269531"/>
      <use xlink:href="#TimesNewRomanPSMT-64" x="210.269531"/>
      <use xlink:href="#TimesNewRomanPSMT-61" x="260.269531"/>
      <use xlink:href="#TimesNewRomanPSMT-74" x="304.654297"/>
      <use xlink:href="#TimesNewRomanPSMT-61" x="332.4375"/>
     </g>
    </g>
    <g id="patch_323">
     <path d="M 66.6 85.750125 
L 86.6 85.750125 
L 86.6 78.750125 
L 66.6 78.750125 
z
" style="fill: #3e4ba8"/>
    </g>
    <g id="text_18">
     <!-- Error -->
     <g transform="translate(94.6 85.750125) scale(0.1 -0.1)">
      <defs>
       <path id="TimesNewRomanPSMT-45" d="M 1338 4006 
L 1338 2331 
L 2269 2331 
Q 2631 2331 2753 2441 
Q 2916 2584 2934 2947 
L 3050 2947 
L 3050 1472 
L 2934 1472 
Q 2891 1781 2847 1869 
Q 2791 1978 2662 2040 
Q 2534 2103 2269 2103 
L 1338 2103 
L 1338 706 
Q 1338 425 1363 364 
Q 1388 303 1450 267 
Q 1513 231 1688 231 
L 2406 231 
Q 2766 231 2928 281 
Q 3091 331 3241 478 
Q 3434 672 3638 1063 
L 3763 1063 
L 3397 0 
L 131 0 
L 131 116 
L 281 116 
Q 431 116 566 188 
Q 666 238 702 338 
Q 738 438 738 747 
L 738 3500 
Q 738 3903 656 3997 
Q 544 4122 281 4122 
L 131 4122 
L 131 4238 
L 3397 4238 
L 3444 3309 
L 3322 3309 
Q 3256 3644 3176 3769 
Q 3097 3894 2941 3959 
Q 2816 4006 2500 4006 
L 1338 4006 
z
" transform="scale(0.015625)"/>
      </defs>
      <use xlink:href="#TimesNewRomanPSMT-45"/>
      <use xlink:href="#TimesNewRomanPSMT-72" x="61.083984"/>
      <use xlink:href="#TimesNewRomanPSMT-72" x="94.384766"/>
      <use xlink:href="#TimesNewRomanPSMT-6f" x="127.685547"/>
      <use xlink:href="#TimesNewRomanPSMT-72" x="177.685547"/>
     </g>
    </g>
   </g>
  </g>
 </g>
 <defs>
  <clipPath id="p859f879ea3">
   <rect x="57.6" y="41.472" width="357.12" height="266.112"/>
  </clipPath>
 </defs>
</svg>
