<?xml version="1.0" encoding="utf-8" standalone="no"?>
<!DOCTYPE svg PUBLIC "-//W3C//DTD SVG 1.1//EN"
  "http://www.w3.org/Graphics/SVG/1.1/DTD/svg11.dtd">
<svg xmlns:xlink="http://www.w3.org/1999/xlink" width="460.8pt" height="345.6pt" viewBox="0 0 460.8 345.6" xmlns="http://www.w3.org/2000/svg" version="1.1">
 <metadata>
  <rdf:RDF xmlns:dc="http://purl.org/dc/elements/1.1/" xmlns:cc="http://creativecommons.org/ns#" xmlns:rdf="http://www.w3.org/1999/02/22-rdf-syntax-ns#">
   <cc:Work>
    <dc:type rdf:resource="http://purl.org/dc/dcmitype/StillImage"/>
    <dc:date>2023-09-09T21:08:43.378186</dc:date>
    <dc:format>image/svg+xml</dc:format>
    <dc:creator>
     <cc:Agent>
      <dc:title>Matplotlib v3.7.1, https://matplotlib.org/</dc:title>
     </cc:Agent>
    </dc:creator>
   </cc:Work>
  </rdf:RDF>
 </metadata>
 <defs>
  <style type="text/css">*{stroke-linejoin: round; stroke-linecap: butt}</style>
 </defs>
 <g id="figure_1">
  <g id="patch_1">
   <path d="M 0 345.6 
L 460.8 345.6 
L 460.8 0 
L 0 0 
z
" style="fill: #ffffff"/>
  </g>
  <g id="axes_1">
   <g id="patch_2">
    <path d="M 57.6 307.584 
L 414.72 307.584 
L 414.72 41.472 
L 57.6 41.472 
z
" style="fill: #ffffff"/>
   </g>
   <g id="matplotlib.axis_1">
    <g id="xtick_1">
     <g id="line2d_1">
      <defs>
       <path id="m5f9592fe21" d="M 0 0 
L 0 3.5 
" style="stroke: #000000; stroke-width: 0.8"/>
      </defs>
      <g>
       <use xlink:href="#m5f9592fe21" x="73.832727" y="307.584" style="stroke: #000000; stroke-width: 0.8"/>
      </g>
     </g>
     <g id="text_1">
      <!-- 0 -->
      <g transform="translate(71.332727 321.459) scale(0.1 -0.1)">
       <defs>
        <path id="SimHei-30" d="M 225 2537 
Q 250 3200 412 3587 
Q 575 3975 875 4225 
Q 1175 4475 1612 4475 
Q 2050 4475 2375 4112 
Q 2700 3750 2800 3200 
Q 2900 2650 2862 1937 
Q 2825 1225 2612 775 
Q 2400 325 1975 150 
Q 1550 -25 1125 187 
Q 700 400 525 750 
Q 350 1100 275 1487 
Q 200 1875 225 2537 
z
M 750 2687 
Q 675 2000 800 1462 
Q 925 925 1212 700 
Q 1500 475 1800 612 
Q 2100 750 2237 1162 
Q 2375 1575 2375 2062 
Q 2375 2550 2337 2950 
Q 2300 3350 2112 3675 
Q 1925 4000 1612 4012 
Q 1300 4025 1062 3700 
Q 825 3375 750 2687 
z
" transform="scale(0.015625)"/>
       </defs>
       <use xlink:href="#SimHei-30"/>
      </g>
     </g>
    </g>
    <g id="xtick_2">
     <g id="line2d_2">
      <g>
       <use xlink:href="#m5f9592fe21" x="125.529311" y="307.584" style="stroke: #000000; stroke-width: 0.8"/>
      </g>
     </g>
     <g id="text_2">
      <!-- 50 -->
      <g transform="translate(120.529311 321.459) scale(0.1 -0.1)">
       <defs>
        <path id="SimHei-35" d="M 550 1325 
Q 725 650 1150 575 
Q 1575 500 1837 662 
Q 2100 825 2212 1087 
Q 2325 1350 2312 1675 
Q 2300 2000 2137 2225 
Q 1975 2450 1725 2525 
Q 1475 2600 1162 2525 
Q 850 2450 650 2175 
L 225 2225 
Q 275 2375 700 4375 
L 2675 4375 
L 2675 3925 
L 1075 3925 
Q 950 3250 825 2850 
Q 1200 3025 1525 3012 
Q 1850 3000 2150 2862 
Q 2450 2725 2587 2487 
Q 2725 2250 2787 2012 
Q 2850 1775 2837 1500 
Q 2825 1225 2725 937 
Q 2625 650 2425 462 
Q 2225 275 1937 162 
Q 1650 50 1275 75 
Q 900 100 562 350 
Q 225 600 100 1200 
L 550 1325 
z
" transform="scale(0.015625)"/>
       </defs>
       <use xlink:href="#SimHei-35"/>
       <use xlink:href="#SimHei-30" x="50"/>
      </g>
     </g>
    </g>
    <g id="xtick_3">
     <g id="line2d_3">
      <g>
       <use xlink:href="#m5f9592fe21" x="177.225895" y="307.584" style="stroke: #000000; stroke-width: 0.8"/>
      </g>
     </g>
     <g id="text_3">
      <!-- 100 -->
      <g transform="translate(169.725895 321.459) scale(0.1 -0.1)">
       <defs>
        <path id="SimHei-31" d="M 1400 3600 
Q 1075 3275 575 2975 
L 575 3450 
Q 1200 3875 1600 4450 
L 1900 4450 
L 1900 150 
L 1400 150 
L 1400 3600 
z
" transform="scale(0.015625)"/>
       </defs>
       <use xlink:href="#SimHei-31"/>
       <use xlink:href="#SimHei-30" x="50"/>
       <use xlink:href="#SimHei-30" x="100"/>
      </g>
     </g>
    </g>
    <g id="xtick_4">
     <g id="line2d_4">
      <g>
       <use xlink:href="#m5f9592fe21" x="228.922478" y="307.584" style="stroke: #000000; stroke-width: 0.8"/>
      </g>
     </g>
     <g id="text_4">
      <!-- 150 -->
      <g transform="translate(221.422478 321.459) scale(0.1 -0.1)">
       <use xlink:href="#SimHei-31"/>
       <use xlink:href="#SimHei-35" x="50"/>
       <use xlink:href="#SimHei-30" x="100"/>
      </g>
     </g>
    </g>
    <g id="xtick_5">
     <g id="line2d_5">
      <g>
       <use xlink:href="#m5f9592fe21" x="280.619062" y="307.584" style="stroke: #000000; stroke-width: 0.8"/>
      </g>
     </g>
     <g id="text_5">
      <!-- 200 -->
      <g transform="translate(273.119062 321.459) scale(0.1 -0.1)">
       <defs>
        <path id="SimHei-32" d="M 300 250 
Q 325 625 650 925 
Q 975 1225 1475 1862 
Q 1975 2500 2125 2850 
Q 2275 3200 2237 3450 
Q 2200 3700 2000 3862 
Q 1800 4025 1537 4000 
Q 1275 3975 1037 3800 
Q 800 3625 675 3275 
L 200 3350 
Q 400 3925 712 4187 
Q 1025 4450 1450 4475 
Q 1700 4500 1900 4462 
Q 2100 4425 2312 4287 
Q 2525 4150 2662 3875 
Q 2800 3600 2762 3212 
Q 2725 2825 2375 2287 
Q 2025 1750 1025 600 
L 2825 600 
L 2825 150 
L 300 150 
L 300 250 
z
" transform="scale(0.015625)"/>
       </defs>
       <use xlink:href="#SimHei-32"/>
       <use xlink:href="#SimHei-30" x="50"/>
       <use xlink:href="#SimHei-30" x="100"/>
      </g>
     </g>
    </g>
    <g id="xtick_6">
     <g id="line2d_6">
      <g>
       <use xlink:href="#m5f9592fe21" x="332.315646" y="307.584" style="stroke: #000000; stroke-width: 0.8"/>
      </g>
     </g>
     <g id="text_6">
      <!-- 250 -->
      <g transform="translate(324.815646 321.459) scale(0.1 -0.1)">
       <use xlink:href="#SimHei-32"/>
       <use xlink:href="#SimHei-35" x="50"/>
       <use xlink:href="#SimHei-30" x="100"/>
      </g>
     </g>
    </g>
    <g id="xtick_7">
     <g id="line2d_7">
      <g>
       <use xlink:href="#m5f9592fe21" x="384.012229" y="307.584" style="stroke: #000000; stroke-width: 0.8"/>
      </g>
     </g>
     <g id="text_7">
      <!-- 300 -->
      <g transform="translate(376.512229 321.459) scale(0.1 -0.1)">
       <defs>
        <path id="SimHei-33" d="M 250 1225 
L 700 1300 
Q 800 975 1025 762 
Q 1250 550 1587 562 
Q 1925 575 2125 837 
Q 2325 1100 2300 1437 
Q 2275 1775 2037 1962 
Q 1800 2150 1275 2225 
L 1275 2550 
Q 1800 2600 2037 2825 
Q 2275 3050 2250 3412 
Q 2225 3775 1925 3937 
Q 1625 4100 1287 3975 
Q 950 3850 750 3275 
L 300 3350 
Q 450 3800 712 4100 
Q 975 4400 1425 4450 
Q 1875 4500 2212 4337 
Q 2550 4175 2687 3837 
Q 2825 3500 2725 3100 
Q 2625 2700 2150 2400 
Q 2500 2250 2687 1950 
Q 2875 1650 2812 1162 
Q 2750 675 2375 375 
Q 2000 75 1525 87 
Q 1050 100 700 387 
Q 350 675 250 1225 
z
" transform="scale(0.015625)"/>
       </defs>
       <use xlink:href="#SimHei-33"/>
       <use xlink:href="#SimHei-30" x="50"/>
       <use xlink:href="#SimHei-30" x="100"/>
      </g>
     </g>
    </g>
    <g id="text_8">
     <!-- number -->
     <g transform="translate(221.16 333.584) scale(0.1 -0.1)">
      <defs>
       <path id="SimHei-6e" d="M 2800 125 
L 2300 125 
L 2300 1925 
Q 2300 2225 2150 2400 
Q 2000 2575 1750 2575 
Q 1425 2575 1137 2237 
Q 850 1900 850 1400 
L 850 125 
L 350 125 
L 350 2925 
L 850 2925 
L 850 2400 
Q 1050 2675 1287 2825 
Q 1525 2975 1900 2975 
Q 2350 2975 2575 2725 
Q 2800 2475 2800 2100 
L 2800 125 
z
" transform="scale(0.015625)"/>
       <path id="SimHei-75" d="M 2800 125 
L 2300 125 
L 2300 650 
Q 2100 375 1862 225 
Q 1625 75 1250 75 
Q 800 75 575 325 
Q 350 575 350 950 
L 350 2925 
L 850 2925 
L 850 1125 
Q 850 825 1000 650 
Q 1150 475 1400 475 
Q 1725 475 2012 812 
Q 2300 1150 2300 1650 
L 2300 2925 
L 2800 2925 
L 2800 125 
z
" transform="scale(0.015625)"/>
       <path id="SimHei-6d" d="M 3050 125 
L 2550 125 
L 2550 2150 
Q 2550 2300 2500 2400 
Q 2450 2500 2300 2500 
Q 2125 2500 1975 2312 
Q 1825 2125 1825 1825 
L 1825 125 
L 1325 125 
L 1325 2150 
Q 1325 2300 1275 2400 
Q 1225 2500 1075 2500 
Q 900 2500 750 2312 
Q 600 2125 600 1825 
L 600 125 
L 100 125 
L 100 2925 
L 600 2925 
L 600 2550 
Q 725 2750 900 2862 
Q 1075 2975 1275 2975 
Q 1475 2975 1612 2862 
Q 1750 2750 1800 2550 
Q 1925 2750 2087 2862 
Q 2250 2975 2450 2975 
Q 2750 2975 2900 2812 
Q 3050 2650 3050 2350 
L 3050 125 
z
" transform="scale(0.015625)"/>
       <path id="SimHei-62" d="M 2825 1525 
Q 2825 800 2475 437 
Q 2125 75 1625 75 
Q 1350 75 1150 175 
Q 950 275 800 500 
L 800 125 
L 300 125 
L 300 4400 
L 800 4400 
L 800 2550 
Q 950 2775 1150 2887 
Q 1350 3000 1625 3000 
Q 2125 3000 2475 2625 
Q 2825 2250 2825 1525 
z
M 2275 1525 
Q 2275 2000 2087 2275 
Q 1900 2550 1525 2550 
Q 1225 2550 1012 2275 
Q 800 2000 800 1525 
Q 800 1050 1012 787 
Q 1225 525 1525 525 
Q 1900 525 2087 787 
Q 2275 1050 2275 1525 
z
" transform="scale(0.015625)"/>
       <path id="SimHei-65" d="M 2850 1075 
Q 2800 625 2450 350 
Q 2100 75 1625 75 
Q 1025 75 637 462 
Q 250 850 250 1525 
Q 250 2200 637 2587 
Q 1025 2975 1625 2975 
Q 2150 2975 2487 2637 
Q 2825 2300 2825 1525 
L 800 1525 
Q 800 975 1037 750 
Q 1275 525 1625 525 
Q 1900 525 2075 662 
Q 2250 800 2300 1075 
L 2850 1075 
z
M 2250 1925 
Q 2200 2275 2025 2412 
Q 1850 2550 1575 2550 
Q 1325 2550 1125 2412 
Q 925 2275 825 1925 
L 2250 1925 
z
" transform="scale(0.015625)"/>
       <path id="SimHei-72" d="M 2500 2425 
Q 2025 2500 1700 2287 
Q 1375 2075 1150 1550 
L 1150 125 
L 650 125 
L 650 2925 
L 1150 2925 
L 1150 2200 
Q 1375 2600 1712 2787 
Q 2050 2975 2500 2975 
L 2500 2425 
z
" transform="scale(0.015625)"/>
      </defs>
      <use xlink:href="#SimHei-6e"/>
      <use xlink:href="#SimHei-75" x="50"/>
      <use xlink:href="#SimHei-6d" x="100"/>
      <use xlink:href="#SimHei-62" x="150"/>
      <use xlink:href="#SimHei-65" x="200"/>
      <use xlink:href="#SimHei-72" x="250"/>
     </g>
    </g>
   </g>
   <g id="matplotlib.axis_2">
    <g id="ytick_1">
     <g id="line2d_8">
      <defs>
       <path id="m291ffccff0" d="M 0 0 
L -3.5 0 
" style="stroke: #000000; stroke-width: 0.8"/>
      </defs>
      <g>
       <use xlink:href="#m291ffccff0" x="57.6" y="304.909907" style="stroke: #000000; stroke-width: 0.8"/>
      </g>
     </g>
     <g id="text_9">
      <!-- 25 -->
      <g transform="translate(40.6 308.347407) scale(0.1 -0.1)">
       <use xlink:href="#SimHei-32"/>
       <use xlink:href="#SimHei-35" x="50"/>
      </g>
     </g>
    </g>
    <g id="ytick_2">
     <g id="line2d_9">
      <g>
       <use xlink:href="#m291ffccff0" x="57.6" y="268.199396" style="stroke: #000000; stroke-width: 0.8"/>
      </g>
     </g>
     <g id="text_10">
      <!-- 50 -->
      <g transform="translate(40.6 271.636896) scale(0.1 -0.1)">
       <use xlink:href="#SimHei-35"/>
       <use xlink:href="#SimHei-30" x="50"/>
      </g>
     </g>
    </g>
    <g id="ytick_3">
     <g id="line2d_10">
      <g>
       <use xlink:href="#m291ffccff0" x="57.6" y="231.488884" style="stroke: #000000; stroke-width: 0.8"/>
      </g>
     </g>
     <g id="text_11">
      <!-- 75 -->
      <g transform="translate(40.6 234.926384) scale(0.1 -0.1)">
       <defs>
        <path id="SimHei-37" d="M 850 150 
Q 1300 2050 2425 3925 
L 275 3925 
L 275 4375 
L 2950 4375 
L 2950 3950 
Q 1775 2050 1400 150 
L 850 150 
z
" transform="scale(0.015625)"/>
       </defs>
       <use xlink:href="#SimHei-37"/>
       <use xlink:href="#SimHei-35" x="50"/>
      </g>
     </g>
    </g>
    <g id="ytick_4">
     <g id="line2d_11">
      <g>
       <use xlink:href="#m291ffccff0" x="57.6" y="194.778373" style="stroke: #000000; stroke-width: 0.8"/>
      </g>
     </g>
     <g id="text_12">
      <!-- 100 -->
      <g transform="translate(35.6 198.215873) scale(0.1 -0.1)">
       <use xlink:href="#SimHei-31"/>
       <use xlink:href="#SimHei-30" x="50"/>
       <use xlink:href="#SimHei-30" x="100"/>
      </g>
     </g>
    </g>
    <g id="ytick_5">
     <g id="line2d_12">
      <g>
       <use xlink:href="#m291ffccff0" x="57.6" y="158.067861" style="stroke: #000000; stroke-width: 0.8"/>
      </g>
     </g>
     <g id="text_13">
      <!-- 125 -->
      <g transform="translate(35.6 161.505361) scale(0.1 -0.1)">
       <use xlink:href="#SimHei-31"/>
       <use xlink:href="#SimHei-32" x="50"/>
       <use xlink:href="#SimHei-35" x="100"/>
      </g>
     </g>
    </g>
    <g id="ytick_6">
     <g id="line2d_13">
      <g>
       <use xlink:href="#m291ffccff0" x="57.6" y="121.35735" style="stroke: #000000; stroke-width: 0.8"/>
      </g>
     </g>
     <g id="text_14">
      <!-- 150 -->
      <g transform="translate(35.6 124.79485) scale(0.1 -0.1)">
       <use xlink:href="#SimHei-31"/>
       <use xlink:href="#SimHei-35" x="50"/>
       <use xlink:href="#SimHei-30" x="100"/>
      </g>
     </g>
    </g>
    <g id="ytick_7">
     <g id="line2d_14">
      <g>
       <use xlink:href="#m291ffccff0" x="57.6" y="84.646838" style="stroke: #000000; stroke-width: 0.8"/>
      </g>
     </g>
     <g id="text_15">
      <!-- 175 -->
      <g transform="translate(35.6 88.084338) scale(0.1 -0.1)">
       <use xlink:href="#SimHei-31"/>
       <use xlink:href="#SimHei-37" x="50"/>
       <use xlink:href="#SimHei-35" x="100"/>
      </g>
     </g>
    </g>
    <g id="ytick_8">
     <g id="line2d_15">
      <g>
       <use xlink:href="#m291ffccff0" x="57.6" y="47.936327" style="stroke: #000000; stroke-width: 0.8"/>
      </g>
     </g>
     <g id="text_16">
      <!-- 200 -->
      <g transform="translate(35.6 51.373827) scale(0.1 -0.1)">
       <use xlink:href="#SimHei-32"/>
       <use xlink:href="#SimHei-30" x="50"/>
       <use xlink:href="#SimHei-30" x="100"/>
      </g>
     </g>
    </g>
    <g id="text_17">
     <!-- tool wear ($\mu m$) -->
     <g transform="translate(29.5 212.628) rotate(-90) scale(0.1 -0.1)">
      <defs>
       <path id="SimHei-74" d="M 2750 200 
Q 2625 150 2462 112 
Q 2300 75 2025 75 
Q 1575 75 1300 325 
Q 1025 575 1025 1025 
L 1025 2525 
L 175 2525 
L 175 2925 
L 1025 2925 
L 1025 3900 
L 1525 3900 
L 1525 2925 
L 2550 2925 
L 2550 2525 
L 1525 2525 
L 1525 1000 
Q 1525 800 1625 662 
Q 1725 525 2000 525 
Q 2275 525 2450 575 
Q 2625 625 2750 700 
L 2750 200 
z
" transform="scale(0.015625)"/>
       <path id="SimHei-6f" d="M 2925 1525 
Q 2925 875 2525 475 
Q 2125 75 1575 75 
Q 1025 75 625 475 
Q 225 875 225 1525 
Q 225 2175 625 2575 
Q 1025 2975 1575 2975 
Q 2125 2975 2525 2575 
Q 2925 2175 2925 1525 
z
M 2375 1525 
Q 2375 2025 2125 2275 
Q 1875 2525 1575 2525 
Q 1275 2525 1025 2275 
Q 775 2025 775 1525 
Q 775 1025 1025 775 
Q 1275 525 1575 525 
Q 1875 525 2125 775 
Q 2375 1025 2375 1525 
z
" transform="scale(0.015625)"/>
       <path id="SimHei-6c" d="M 1825 125 
L 1325 125 
L 1325 4400 
L 1825 4400 
L 1825 125 
z
" transform="scale(0.015625)"/>
       <path id="SimHei-20" transform="scale(0.015625)"/>
       <path id="SimHei-77" d="M 3075 2925 
L 2450 75 
L 1975 75 
L 1575 2250 
L 1525 2250 
L 1125 75 
L 650 75 
L 25 2925 
L 550 2925 
L 875 1050 
L 925 1050 
L 1275 2925 
L 1825 2925 
L 2175 1050 
L 2225 1050 
L 2550 2925 
L 3075 2925 
z
" transform="scale(0.015625)"/>
       <path id="SimHei-61" d="M 2875 125 
L 2275 125 
Q 2225 175 2200 262 
Q 2175 350 2175 475 
Q 2000 275 1750 175 
Q 1500 75 1225 75 
Q 825 75 550 275 
Q 275 475 275 850 
Q 275 1225 525 1450 
Q 775 1675 1300 1750 
Q 1650 1800 1912 1875 
Q 2175 1950 2175 2075 
Q 2175 2225 2062 2375 
Q 1950 2525 1575 2525 
Q 1275 2525 1137 2412 
Q 1000 2300 950 2100 
L 400 2100 
Q 450 2500 762 2737 
Q 1075 2975 1575 2975 
Q 2125 2975 2400 2725 
Q 2675 2475 2675 2025 
L 2675 650 
Q 2675 500 2725 375 
Q 2775 250 2875 125 
z
M 2175 1050 
L 2175 1550 
Q 2025 1500 1887 1462 
Q 1750 1425 1425 1375 
Q 1050 1325 937 1200 
Q 825 1075 825 900 
Q 825 750 937 637 
Q 1050 525 1275 525 
Q 1500 525 1762 650 
Q 2025 775 2175 1050 
z
" transform="scale(0.015625)"/>
       <path id="SimHei-28" d="M 2975 -200 
L 2700 -475 
Q 2075 125 1762 775 
Q 1450 1425 1450 2250 
Q 1450 3075 1762 3725 
Q 2075 4375 2700 5000 
L 2975 4725 
Q 2400 4175 2112 3587 
Q 1825 3000 1825 2250 
Q 1825 1500 2112 912 
Q 2400 325 2975 -200 
z
" transform="scale(0.015625)"/>
       <path id="DejaVuSans-Oblique-3bc" d="M -84 -1331 
L 856 3500 
L 1434 3500 
L 1009 1322 
Q 997 1256 987 1175 
Q 978 1094 978 1013 
Q 978 722 1161 565 
Q 1344 409 1684 409 
Q 2147 409 2431 671 
Q 2716 934 2816 1459 
L 3213 3500 
L 3788 3500 
L 3266 809 
Q 3253 750 3248 706 
Q 3244 663 3244 628 
Q 3244 531 3283 486 
Q 3322 441 3406 441 
Q 3438 441 3492 456 
Q 3547 472 3647 513 
L 3559 50 
Q 3422 -19 3297 -55 
Q 3172 -91 3053 -91 
Q 2847 -91 2730 40 
Q 2613 172 2613 403 
Q 2438 153 2195 31 
Q 1953 -91 1625 -91 
Q 1334 -91 1117 43 
Q 900 178 831 397 
L 494 -1331 
L -84 -1331 
z
" transform="scale(0.015625)"/>
       <path id="DejaVuSans-Oblique-6d" d="M 5747 2113 
L 5338 0 
L 4763 0 
L 5166 2094 
Q 5191 2228 5203 2325 
Q 5216 2422 5216 2491 
Q 5216 2772 5059 2928 
Q 4903 3084 4622 3084 
Q 4203 3084 3875 2770 
Q 3547 2456 3450 1953 
L 3066 0 
L 2491 0 
L 2900 2094 
Q 2925 2209 2937 2307 
Q 2950 2406 2950 2484 
Q 2950 2769 2794 2926 
Q 2638 3084 2363 3084 
Q 1938 3084 1609 2770 
Q 1281 2456 1184 1953 
L 800 0 
L 225 0 
L 909 3500 
L 1484 3500 
L 1375 2956 
Q 1609 3263 1923 3423 
Q 2238 3584 2597 3584 
Q 2978 3584 3223 3384 
Q 3469 3184 3519 2828 
Q 3781 3197 4126 3390 
Q 4472 3584 4856 3584 
Q 5306 3584 5551 3325 
Q 5797 3066 5797 2591 
Q 5797 2488 5784 2364 
Q 5772 2241 5747 2113 
z
" transform="scale(0.015625)"/>
       <path id="SimHei-29" d="M 1675 2250 
Q 1675 1425 1362 775 
Q 1050 125 425 -475 
L 150 -200 
Q 725 325 1012 912 
Q 1300 1500 1300 2250 
Q 1300 3000 1012 3587 
Q 725 4175 150 4725 
L 425 5000 
Q 1050 4375 1362 3725 
Q 1675 3075 1675 2250 
z
" transform="scale(0.015625)"/>
      </defs>
      <use xlink:href="#SimHei-74" transform="translate(0 0.875)"/>
      <use xlink:href="#SimHei-6f" transform="translate(50 0.875)"/>
      <use xlink:href="#SimHei-6f" transform="translate(100 0.875)"/>
      <use xlink:href="#SimHei-6c" transform="translate(150 0.875)"/>
      <use xlink:href="#SimHei-20" transform="translate(200 0.875)"/>
      <use xlink:href="#SimHei-77" transform="translate(250 0.875)"/>
      <use xlink:href="#SimHei-65" transform="translate(300 0.875)"/>
      <use xlink:href="#SimHei-61" transform="translate(350 0.875)"/>
      <use xlink:href="#SimHei-72" transform="translate(400 0.875)"/>
      <use xlink:href="#SimHei-20" transform="translate(450 0.875)"/>
      <use xlink:href="#SimHei-28" transform="translate(500 0.875)"/>
      <use xlink:href="#DejaVuSans-Oblique-3bc" transform="translate(550 0.875)"/>
      <use xlink:href="#DejaVuSans-Oblique-6d" transform="translate(613.623047 0.875)"/>
      <use xlink:href="#SimHei-29" transform="translate(711.035156 0.875)"/>
     </g>
    </g>
   </g>
   <g id="line2d_16">
    <path d="M 73.832727 295.488 
L 75.900591 285.669419 
L 77.968454 277.331222 
L 80.036317 270.313303 
L 82.104181 264.467734 
L 84.172044 259.658087 
L 86.239907 255.758796 
L 88.307771 252.654537 
L 90.375634 250.239633 
L 92.443497 248.417491 
L 94.511361 247.100058 
L 96.579224 246.207297 
L 98.647087 245.666693 
L 100.714951 245.412777 
L 103.816746 245.374681 
L 142.072218 245.31458 
L 145.174013 243.891254 
L 148.275808 242.250815 
L 152.411534 239.765152 
L 156.547261 236.993908 
L 161.71692 233.227214 
L 168.954441 227.62215 
L 180.32769 218.784367 
L 185.497348 215.022207 
L 190.667006 211.542508 
L 194.802733 209.006532 
L 198.93846 206.718221 
L 203.074186 204.69477 
L 207.209913 202.945876 
L 211.34564 201.474 
L 215.481367 200.274737 
L 219.617093 199.33728 
L 223.75282 198.644957 
L 227.888547 198.17582 
L 232.024273 197.903281 
L 237.193932 197.792185 
L 276.483335 197.792185 
L 280.619062 197.090564 
L 284.754789 196.118403 
L 288.890515 194.852019 
L 291.99231 193.694874 
L 295.094105 192.350357 
L 298.1959 190.811094 
L 301.297695 189.070943 
L 304.39949 187.125022 
L 307.501285 184.969726 
L 310.60308 182.602732 
L 314.738807 179.115823 
L 318.874534 175.251921 
L 323.010261 171.016042 
L 327.145987 166.417039 
L 331.281714 161.467457 
L 335.417441 156.183344 
L 339.553167 150.584034 
L 344.722826 143.175995 
L 349.892484 135.360299 
L 356.096074 125.521882 
L 363.333596 113.543661 
L 372.638981 97.629362 
L 392.283683 63.83681 
L 398.487273 53.568 
L 398.487273 53.568 
" clip-path="url(#p589d4b2d2e)" style="fill: none; stroke: #1f77b4; stroke-width: 1.5; stroke-linecap: square"/>
   </g>
   <g id="line2d_17">
    <path d="M 73.832727 288.291466 
L 74.866659 288.291466 
L 75.900591 288.536065 
L 76.934522 288.227104 
L 77.968454 288.847776 
L 79.002386 288.233955 
L 80.036317 280.946227 
L 81.070249 276.895803 
L 82.104181 274.979688 
L 83.138112 273.494451 
L 84.172044 270.003334 
L 85.205976 262.489549 
L 86.239907 262.190749 
L 87.273839 260.405918 
L 88.307771 254.398196 
L 89.341702 255.81306 
L 90.375634 254.978693 
L 91.409566 254.778101 
L 92.443497 252.539788 
L 93.477429 251.673112 
L 94.511361 250.156238 
L 95.545292 252.724903 
L 96.579224 253.21926 
L 97.613156 251.620793 
L 98.647087 250.807993 
L 99.681019 248.949568 
L 100.714951 251.719504 
L 101.748882 249.393521 
L 102.782814 248.858256 
L 103.816746 248.942857 
L 104.850677 247.607351 
L 105.884609 246.796993 
L 106.918541 248.200799 
L 107.952472 248.177312 
L 108.986404 248.031687 
L 110.020336 248.405643 
L 111.054268 247.676984 
L 112.088199 246.042281 
L 113.122131 246.345797 
L 114.156063 246.91895 
L 115.189994 247.794488 
L 116.223926 247.303846 
L 117.257858 247.509267 
L 118.291789 248.113616 
L 120.359653 247.336817 
L 121.393584 247.569036 
L 122.427516 248.12748 
L 123.461448 247.686154 
L 124.495379 246.497521 
L 125.529311 246.673075 
L 126.563243 247.72052 
L 127.597174 246.666252 
L 128.631106 247.135127 
L 129.665038 246.523535 
L 130.698969 246.093199 
L 131.732901 245.00088 
L 132.766833 245.577495 
L 133.800764 242.858489 
L 134.834696 246.180539 
L 135.868628 246.305264 
L 136.902559 246.304065 
L 137.936491 245.542945 
L 138.970423 244.555778 
L 140.004354 245.445119 
L 141.038286 244.607582 
L 142.072218 245.427877 
L 143.106149 242.0999 
L 144.140081 243.701078 
L 145.174013 244.040612 
L 146.207944 242.511516 
L 147.241876 242.175903 
L 148.275808 241.478282 
L 149.309739 242.833506 
L 150.343671 242.009558 
L 151.377603 241.617459 
L 152.411534 240.248578 
L 153.445466 238.596785 
L 154.479398 237.900116 
L 155.513329 239.195963 
L 156.547261 237.943976 
L 157.581193 235.447039 
L 158.615124 236.807954 
L 159.649056 236.93511 
L 160.682988 236.889748 
L 161.71692 232.56581 
L 162.750851 232.292576 
L 163.784783 233.248732 
L 164.818715 233.34676 
L 165.852646 230.258587 
L 166.886578 232.245546 
L 167.92051 229.411919 
L 168.954441 230.256974 
L 169.988373 230.059126 
L 171.022305 226.642812 
L 172.056236 226.992239 
L 173.090168 220.527445 
L 174.1241 217.647684 
L 175.158031 217.966178 
L 176.191963 218.817428 
L 177.225895 215.528629 
L 178.259826 215.231252 
L 179.293758 213.491077 
L 180.32769 212.525207 
L 181.361621 215.239946 
L 182.395553 211.001141 
L 183.429485 210.352455 
L 184.463416 207.397309 
L 185.497348 209.527746 
L 186.53128 210.221558 
L 187.565211 207.267486 
L 188.599143 207.159073 
L 190.667006 208.759971 
L 191.700938 204.114312 
L 192.73487 206.811428 
L 193.768801 207.592624 
L 194.802733 203.035964 
L 195.836665 203.301445 
L 196.870596 201.969961 
L 197.904528 203.34488 
L 199.972391 200.970314 
L 201.006323 200.087886 
L 202.040255 199.957616 
L 203.074186 191.773125 
L 204.108118 200.665375 
L 205.14205 200.682561 
L 206.175981 198.934577 
L 208.243845 200.211535 
L 209.277776 199.592068 
L 210.311708 199.542931 
L 211.34564 198.45479 
L 212.379572 199.467601 
L 213.413503 198.095774 
L 214.447435 198.829547 
L 215.481367 197.296821 
L 216.515298 197.725106 
L 217.54923 198.425617 
L 218.583162 199.702923 
L 219.617093 197.638819 
L 220.651025 198.043231 
L 221.684957 198.959829 
L 222.718888 196.77947 
L 223.75282 196.771426 
L 224.786752 196.965162 
L 225.820683 197.000194 
L 226.854615 199.770635 
L 227.888547 197.780786 
L 228.922478 182.171055 
L 229.95641 198.195628 
L 230.990342 198.987568 
L 232.024273 199.543636 
L 233.058205 197.881323 
L 234.092137 198.171104 
L 235.126068 198.090239 
L 236.16 198.33495 
L 237.193932 197.204148 
L 238.227863 197.799652 
L 239.261795 199.880818 
L 240.295727 199.47039 
L 241.329658 197.720423 
L 242.36359 197.253039 
L 243.397522 198.648426 
L 244.431453 198.927922 
L 245.465385 198.065391 
L 246.499317 198.040934 
L 247.533248 198.859336 
L 248.56718 198.86263 
L 249.601112 197.513478 
L 250.635043 197.902788 
L 251.668975 198.652952 
L 252.702907 198.66243 
L 253.736838 197.688046 
L 254.77077 197.431662 
L 255.804702 198.370621 
L 257.872565 198.367316 
L 258.906497 196.845053 
L 259.940428 198.652929 
L 260.97436 198.956513 
L 262.008292 198.185052 
L 263.042224 197.91742 
L 264.076155 198.423298 
L 265.110087 198.286228 
L 266.144019 198.555025 
L 267.17795 197.938504 
L 268.211882 197.986252 
L 269.245814 197.920355 
L 270.279745 197.9813 
L 271.313677 198.281679 
L 272.347609 197.660453 
L 274.415472 198.517506 
L 275.449404 197.596382 
L 276.483335 198.422861 
L 277.517267 197.937697 
L 278.551199 198.605585 
L 279.58513 198.02497 
L 280.619062 198.041864 
L 282.686925 198.527275 
L 283.720857 198.113184 
L 284.754789 198.134436 
L 285.78872 197.776775 
L 286.822652 197.041064 
L 287.856584 197.286581 
L 288.890515 197.08749 
L 289.924447 195.967689 
L 290.958379 196.566375 
L 291.99231 196.051645 
L 293.026242 195.69636 
L 294.060174 196.62229 
L 296.128037 194.940337 
L 297.161969 194.170713 
L 298.1959 190.431558 
L 299.229832 192.598115 
L 300.263764 189.598738 
L 301.297695 191.057356 
L 302.331627 191.72391 
L 303.365559 191.564355 
L 304.39949 189.386976 
L 305.433422 189.012477 
L 306.467354 187.168459 
L 307.501285 186.228637 
L 308.535217 186.747646 
L 309.569149 185.97241 
L 310.60308 182.57038 
L 311.637012 181.316948 
L 312.670944 182.638753 
L 313.704876 178.840255 
L 314.738807 178.61255 
L 315.772739 177.03891 
L 316.806671 176.874616 
L 317.840602 176.079841 
L 318.874534 173.325556 
L 319.908466 173.72804 
L 320.942397 173.238854 
L 321.976329 174.153581 
L 323.010261 170.886415 
L 324.044192 170.491571 
L 325.078124 171.422038 
L 327.145987 168.460012 
L 328.179919 167.587062 
L 329.213851 166.419895 
L 330.247782 164.376248 
L 331.281714 142.978349 
L 332.315646 164.567699 
L 333.349577 165.057053 
L 334.383509 163.875108 
L 336.451372 157.180672 
L 337.485304 160.208169 
L 338.519236 159.209654 
L 339.553167 155.832193 
L 340.587099 157.591593 
L 342.654962 150.245726 
L 343.688894 150.825243 
L 344.722826 146.116712 
L 345.756757 146.780791 
L 346.790689 144.564402 
L 347.824621 141.307555 
L 348.858552 140.409442 
L 349.892484 141.774233 
L 350.926416 133.381924 
L 351.960347 134.244545 
L 352.994279 136.210924 
L 354.028211 129.719096 
L 355.062142 130.405536 
L 356.096074 129.868502 
L 357.130006 130.425702 
L 358.163937 126.580263 
L 359.197869 125.906661 
L 360.231801 123.574903 
L 361.265732 120.767504 
L 362.299664 119.866725 
L 363.333596 118.679683 
L 364.367528 115.065544 
L 365.401459 114.891805 
L 366.435391 134.04309 
L 367.469323 112.409006 
L 368.503254 111.328573 
L 369.537186 110.952707 
L 370.571118 109.599747 
L 371.605049 102.328247 
L 372.638981 102.31552 
L 373.672913 98.345322 
L 374.706844 98.390695 
L 375.740776 97.947229 
L 376.774708 97.130653 
L 377.808639 93.312818 
L 378.842571 90.517204 
L 379.876503 104.570962 
L 380.910434 88.150201 
L 381.944366 85.116475 
L 382.978298 84.390107 
L 384.012229 80.424211 
L 385.046161 79.973844 
L 386.080093 79.113307 
L 387.114024 75.423681 
L 388.147956 76.295645 
L 389.181888 71.978194 
L 390.215819 72.508798 
L 391.249751 67.372531 
L 392.283683 71.195967 
L 393.317614 67.117793 
L 394.351546 67.441004 
L 395.385478 63.986667 
L 396.419409 63.090392 
L 397.453341 64.604947 
L 398.487273 59.822632 
L 398.487273 59.822632 
" clip-path="url(#p589d4b2d2e)" style="fill: none; stroke: #ff7f0e; stroke-width: 1.5; stroke-linecap: square"/>
   </g>
   <g id="patch_3">
    <path d="M 57.6 307.584 
L 57.6 41.472 
" style="fill: none; stroke: #000000; stroke-width: 0.8; stroke-linejoin: miter; stroke-linecap: square"/>
   </g>
   <g id="patch_4">
    <path d="M 414.72 307.584 
L 414.72 41.472 
" style="fill: none; stroke: #000000; stroke-width: 0.8; stroke-linejoin: miter; stroke-linecap: square"/>
   </g>
   <g id="patch_5">
    <path d="M 57.6 307.584 
L 414.72 307.584 
" style="fill: none; stroke: #000000; stroke-width: 0.8; stroke-linejoin: miter; stroke-linecap: square"/>
   </g>
   <g id="patch_6">
    <path d="M 57.6 41.472 
L 414.72 41.472 
" style="fill: none; stroke: #000000; stroke-width: 0.8; stroke-linejoin: miter; stroke-linecap: square"/>
   </g>
   <g id="text_18">
    <!-- No.1 tool wear -->
    <g transform="translate(194.16 35.472) scale(0.12 -0.12)">
     <defs>
      <path id="SimHei-4e" d="M 2850 125 
L 2225 125 
L 850 3225 
L 825 3225 
L 825 125 
L 250 125 
L 250 4400 
L 875 4400 
L 2250 1300 
L 2275 1300 
L 2275 4400 
L 2850 4400 
L 2850 125 
z
" transform="scale(0.015625)"/>
      <path id="SimHei-2e" d="M 1075 125 
L 500 125 
L 500 675 
L 1075 675 
L 1075 125 
z
" transform="scale(0.015625)"/>
     </defs>
     <use xlink:href="#SimHei-4e"/>
     <use xlink:href="#SimHei-6f" x="50"/>
     <use xlink:href="#SimHei-2e" x="100"/>
     <use xlink:href="#SimHei-31" x="150"/>
     <use xlink:href="#SimHei-20" x="200"/>
     <use xlink:href="#SimHei-74" x="250"/>
     <use xlink:href="#SimHei-6f" x="300"/>
     <use xlink:href="#SimHei-6f" x="350"/>
     <use xlink:href="#SimHei-6c" x="400"/>
     <use xlink:href="#SimHei-20" x="450"/>
     <use xlink:href="#SimHei-77" x="500"/>
     <use xlink:href="#SimHei-65" x="550"/>
     <use xlink:href="#SimHei-61" x="600"/>
     <use xlink:href="#SimHei-72" x="650"/>
    </g>
   </g>
   <g id="legend_1">
    <g id="patch_7">
     <path d="M 64.6 75.972 
L 131.6 75.972 
Q 133.6 75.972 133.6 73.972 
L 133.6 48.472 
Q 133.6 46.472 131.6 46.472 
L 64.6 46.472 
Q 62.6 46.472 62.6 48.472 
L 62.6 73.972 
Q 62.6 75.972 64.6 75.972 
z
" style="fill: #ffffff; opacity: 0.8; stroke: #cccccc; stroke-linejoin: miter"/>
    </g>
    <g id="line2d_18">
     <path d="M 66.6 53.972 
L 76.6 53.972 
L 86.6 53.972 
" style="fill: none; stroke: #1f77b4; stroke-width: 1.5; stroke-linecap: square"/>
    </g>
    <g id="text_19">
     <!-- actual -->
     <g transform="translate(94.6 57.472) scale(0.1 -0.1)">
      <defs>
       <path id="SimHei-63" d="M 2850 1250 
Q 2850 725 2487 400 
Q 2125 75 1575 75 
Q 1025 75 625 462 
Q 225 850 225 1525 
Q 225 2200 625 2587 
Q 1025 2975 1575 2975 
Q 2125 2975 2450 2687 
Q 2775 2400 2775 2000 
L 2225 2000 
Q 2200 2300 2012 2412 
Q 1825 2525 1575 2525 
Q 1275 2525 1025 2287 
Q 775 2050 775 1525 
Q 775 1000 1025 762 
Q 1275 525 1575 525 
Q 1900 525 2100 700 
Q 2300 875 2300 1250 
L 2850 1250 
z
" transform="scale(0.015625)"/>
      </defs>
      <use xlink:href="#SimHei-61"/>
      <use xlink:href="#SimHei-63" x="50"/>
      <use xlink:href="#SimHei-74" x="100"/>
      <use xlink:href="#SimHei-75" x="150"/>
      <use xlink:href="#SimHei-61" x="200"/>
      <use xlink:href="#SimHei-6c" x="250"/>
     </g>
    </g>
    <g id="line2d_19">
     <path d="M 66.6 67.222 
L 76.6 67.222 
L 86.6 67.222 
" style="fill: none; stroke: #ff7f0e; stroke-width: 1.5; stroke-linecap: square"/>
    </g>
    <g id="text_20">
     <!-- predict -->
     <g transform="translate(94.6 70.722) scale(0.1 -0.1)">
      <defs>
       <path id="SimHei-70" d="M 2825 1525 
Q 2825 800 2475 425 
Q 2125 50 1625 50 
Q 1350 50 1150 162 
Q 950 275 800 500 
L 800 -800 
L 300 -800 
L 300 2925 
L 800 2925 
L 800 2550 
Q 950 2775 1150 2875 
Q 1350 2975 1625 2975 
Q 2125 2975 2475 2612 
Q 2825 2250 2825 1525 
z
M 2275 1525 
Q 2275 2000 2087 2262 
Q 1900 2525 1525 2525 
Q 1225 2525 1012 2262 
Q 800 2000 800 1525 
Q 800 1050 1012 775 
Q 1225 500 1525 500 
Q 1900 500 2087 775 
Q 2275 1050 2275 1525 
z
" transform="scale(0.015625)"/>
       <path id="SimHei-64" d="M 2750 125 
L 2250 125 
L 2250 500 
Q 2100 275 1900 175 
Q 1700 75 1425 75 
Q 925 75 575 437 
Q 225 800 225 1525 
Q 225 2250 575 2625 
Q 925 3000 1425 3000 
Q 1700 3000 1900 2887 
Q 2100 2775 2250 2550 
L 2250 4400 
L 2750 4400 
L 2750 125 
z
M 2250 1525 
Q 2250 2000 2037 2275 
Q 1825 2550 1525 2550 
Q 1150 2550 962 2275 
Q 775 2000 775 1525 
Q 775 1050 962 787 
Q 1150 525 1525 525 
Q 1825 525 2037 787 
Q 2250 1050 2250 1525 
z
" transform="scale(0.015625)"/>
       <path id="SimHei-69" d="M 1800 3725 
L 1300 3725 
L 1300 4375 
L 1800 4375 
L 1800 3725 
z
M 1800 125 
L 1300 125 
L 1300 2925 
L 1800 2925 
L 1800 125 
z
" transform="scale(0.015625)"/>
      </defs>
      <use xlink:href="#SimHei-70"/>
      <use xlink:href="#SimHei-72" x="50"/>
      <use xlink:href="#SimHei-65" x="100"/>
      <use xlink:href="#SimHei-64" x="150"/>
      <use xlink:href="#SimHei-69" x="200"/>
      <use xlink:href="#SimHei-63" x="250"/>
      <use xlink:href="#SimHei-74" x="300"/>
     </g>
    </g>
   </g>
  </g>
 </g>
 <defs>
  <clipPath id="p589d4b2d2e">
   <rect x="57.6" y="41.472" width="357.12" height="266.112"/>
  </clipPath>
 </defs>
</svg>
