<?xml version="1.0" encoding="utf-8" standalone="no"?>
<!DOCTYPE svg PUBLIC "-//W3C//DTD SVG 1.1//EN"
  "http://www.w3.org/Graphics/SVG/1.1/DTD/svg11.dtd">
<svg xmlns:xlink="http://www.w3.org/1999/xlink" width="460.8pt" height="345.6pt" viewBox="0 0 460.8 345.6" xmlns="http://www.w3.org/2000/svg" version="1.1">
 <metadata>
  <rdf:RDF xmlns:dc="http://purl.org/dc/elements/1.1/" xmlns:cc="http://creativecommons.org/ns#" xmlns:rdf="http://www.w3.org/1999/02/22-rdf-syntax-ns#">
   <cc:Work>
    <dc:type rdf:resource="http://purl.org/dc/dcmitype/StillImage"/>
    <dc:date>2023-09-09T21:11:56.093445</dc:date>
    <dc:format>image/svg+xml</dc:format>
    <dc:creator>
     <cc:Agent>
      <dc:title>Matplotlib v3.7.1, https://matplotlib.org/</dc:title>
     </cc:Agent>
    </dc:creator>
   </cc:Work>
  </rdf:RDF>
 </metadata>
 <defs>
  <style type="text/css">*{stroke-linejoin: round; stroke-linecap: butt}</style>
 </defs>
 <g id="figure_1">
  <g id="patch_1">
   <path d="M 0 345.6 
L 460.8 345.6 
L 460.8 0 
L 0 0 
z
" style="fill: #ffffff"/>
  </g>
  <g id="axes_1">
   <g id="patch_2">
    <path d="M 57.6 307.584 
L 414.72 307.584 
L 414.72 41.472 
L 57.6 41.472 
z
" style="fill: #ffffff"/>
   </g>
   <g id="matplotlib.axis_1">
    <g id="xtick_1">
     <g id="line2d_1">
      <defs>
       <path id="m93ca1330b3" d="M 0 0 
L 0 3.5 
" style="stroke: #000000; stroke-width: 0.8"/>
      </defs>
      <g>
       <use xlink:href="#m93ca1330b3" x="73.832727" y="307.584" style="stroke: #000000; stroke-width: 0.8"/>
      </g>
     </g>
     <g id="text_1">
      <!-- 0 -->
      <g transform="translate(71.332727 321.459) scale(0.1 -0.1)">
       <defs>
        <path id="SimHei-30" d="M 225 2537 
Q 250 3200 412 3587 
Q 575 3975 875 4225 
Q 1175 4475 1612 4475 
Q 2050 4475 2375 4112 
Q 2700 3750 2800 3200 
Q 2900 2650 2862 1937 
Q 2825 1225 2612 775 
Q 2400 325 1975 150 
Q 1550 -25 1125 187 
Q 700 400 525 750 
Q 350 1100 275 1487 
Q 200 1875 225 2537 
z
M 750 2687 
Q 675 2000 800 1462 
Q 925 925 1212 700 
Q 1500 475 1800 612 
Q 2100 750 2237 1162 
Q 2375 1575 2375 2062 
Q 2375 2550 2337 2950 
Q 2300 3350 2112 3675 
Q 1925 4000 1612 4012 
Q 1300 4025 1062 3700 
Q 825 3375 750 2687 
z
" transform="scale(0.015625)"/>
       </defs>
       <use xlink:href="#SimHei-30"/>
      </g>
     </g>
    </g>
    <g id="xtick_2">
     <g id="line2d_2">
      <g>
       <use xlink:href="#m93ca1330b3" x="125.529311" y="307.584" style="stroke: #000000; stroke-width: 0.8"/>
      </g>
     </g>
     <g id="text_2">
      <!-- 50 -->
      <g transform="translate(120.529311 321.459) scale(0.1 -0.1)">
       <defs>
        <path id="SimHei-35" d="M 550 1325 
Q 725 650 1150 575 
Q 1575 500 1837 662 
Q 2100 825 2212 1087 
Q 2325 1350 2312 1675 
Q 2300 2000 2137 2225 
Q 1975 2450 1725 2525 
Q 1475 2600 1162 2525 
Q 850 2450 650 2175 
L 225 2225 
Q 275 2375 700 4375 
L 2675 4375 
L 2675 3925 
L 1075 3925 
Q 950 3250 825 2850 
Q 1200 3025 1525 3012 
Q 1850 3000 2150 2862 
Q 2450 2725 2587 2487 
Q 2725 2250 2787 2012 
Q 2850 1775 2837 1500 
Q 2825 1225 2725 937 
Q 2625 650 2425 462 
Q 2225 275 1937 162 
Q 1650 50 1275 75 
Q 900 100 562 350 
Q 225 600 100 1200 
L 550 1325 
z
" transform="scale(0.015625)"/>
       </defs>
       <use xlink:href="#SimHei-35"/>
       <use xlink:href="#SimHei-30" x="50"/>
      </g>
     </g>
    </g>
    <g id="xtick_3">
     <g id="line2d_3">
      <g>
       <use xlink:href="#m93ca1330b3" x="177.225895" y="307.584" style="stroke: #000000; stroke-width: 0.8"/>
      </g>
     </g>
     <g id="text_3">
      <!-- 100 -->
      <g transform="translate(169.725895 321.459) scale(0.1 -0.1)">
       <defs>
        <path id="SimHei-31" d="M 1400 3600 
Q 1075 3275 575 2975 
L 575 3450 
Q 1200 3875 1600 4450 
L 1900 4450 
L 1900 150 
L 1400 150 
L 1400 3600 
z
" transform="scale(0.015625)"/>
       </defs>
       <use xlink:href="#SimHei-31"/>
       <use xlink:href="#SimHei-30" x="50"/>
       <use xlink:href="#SimHei-30" x="100"/>
      </g>
     </g>
    </g>
    <g id="xtick_4">
     <g id="line2d_4">
      <g>
       <use xlink:href="#m93ca1330b3" x="228.922478" y="307.584" style="stroke: #000000; stroke-width: 0.8"/>
      </g>
     </g>
     <g id="text_4">
      <!-- 150 -->
      <g transform="translate(221.422478 321.459) scale(0.1 -0.1)">
       <use xlink:href="#SimHei-31"/>
       <use xlink:href="#SimHei-35" x="50"/>
       <use xlink:href="#SimHei-30" x="100"/>
      </g>
     </g>
    </g>
    <g id="xtick_5">
     <g id="line2d_5">
      <g>
       <use xlink:href="#m93ca1330b3" x="280.619062" y="307.584" style="stroke: #000000; stroke-width: 0.8"/>
      </g>
     </g>
     <g id="text_5">
      <!-- 200 -->
      <g transform="translate(273.119062 321.459) scale(0.1 -0.1)">
       <defs>
        <path id="SimHei-32" d="M 300 250 
Q 325 625 650 925 
Q 975 1225 1475 1862 
Q 1975 2500 2125 2850 
Q 2275 3200 2237 3450 
Q 2200 3700 2000 3862 
Q 1800 4025 1537 4000 
Q 1275 3975 1037 3800 
Q 800 3625 675 3275 
L 200 3350 
Q 400 3925 712 4187 
Q 1025 4450 1450 4475 
Q 1700 4500 1900 4462 
Q 2100 4425 2312 4287 
Q 2525 4150 2662 3875 
Q 2800 3600 2762 3212 
Q 2725 2825 2375 2287 
Q 2025 1750 1025 600 
L 2825 600 
L 2825 150 
L 300 150 
L 300 250 
z
" transform="scale(0.015625)"/>
       </defs>
       <use xlink:href="#SimHei-32"/>
       <use xlink:href="#SimHei-30" x="50"/>
       <use xlink:href="#SimHei-30" x="100"/>
      </g>
     </g>
    </g>
    <g id="xtick_6">
     <g id="line2d_6">
      <g>
       <use xlink:href="#m93ca1330b3" x="332.315646" y="307.584" style="stroke: #000000; stroke-width: 0.8"/>
      </g>
     </g>
     <g id="text_6">
      <!-- 250 -->
      <g transform="translate(324.815646 321.459) scale(0.1 -0.1)">
       <use xlink:href="#SimHei-32"/>
       <use xlink:href="#SimHei-35" x="50"/>
       <use xlink:href="#SimHei-30" x="100"/>
      </g>
     </g>
    </g>
    <g id="xtick_7">
     <g id="line2d_7">
      <g>
       <use xlink:href="#m93ca1330b3" x="384.012229" y="307.584" style="stroke: #000000; stroke-width: 0.8"/>
      </g>
     </g>
     <g id="text_7">
      <!-- 300 -->
      <g transform="translate(376.512229 321.459) scale(0.1 -0.1)">
       <defs>
        <path id="SimHei-33" d="M 250 1225 
L 700 1300 
Q 800 975 1025 762 
Q 1250 550 1587 562 
Q 1925 575 2125 837 
Q 2325 1100 2300 1437 
Q 2275 1775 2037 1962 
Q 1800 2150 1275 2225 
L 1275 2550 
Q 1800 2600 2037 2825 
Q 2275 3050 2250 3412 
Q 2225 3775 1925 3937 
Q 1625 4100 1287 3975 
Q 950 3850 750 3275 
L 300 3350 
Q 450 3800 712 4100 
Q 975 4400 1425 4450 
Q 1875 4500 2212 4337 
Q 2550 4175 2687 3837 
Q 2825 3500 2725 3100 
Q 2625 2700 2150 2400 
Q 2500 2250 2687 1950 
Q 2875 1650 2812 1162 
Q 2750 675 2375 375 
Q 2000 75 1525 87 
Q 1050 100 700 387 
Q 350 675 250 1225 
z
" transform="scale(0.015625)"/>
       </defs>
       <use xlink:href="#SimHei-33"/>
       <use xlink:href="#SimHei-30" x="50"/>
       <use xlink:href="#SimHei-30" x="100"/>
      </g>
     </g>
    </g>
    <g id="text_8">
     <!-- number -->
     <g transform="translate(221.16 333.584) scale(0.1 -0.1)">
      <defs>
       <path id="SimHei-6e" d="M 2800 125 
L 2300 125 
L 2300 1925 
Q 2300 2225 2150 2400 
Q 2000 2575 1750 2575 
Q 1425 2575 1137 2237 
Q 850 1900 850 1400 
L 850 125 
L 350 125 
L 350 2925 
L 850 2925 
L 850 2400 
Q 1050 2675 1287 2825 
Q 1525 2975 1900 2975 
Q 2350 2975 2575 2725 
Q 2800 2475 2800 2100 
L 2800 125 
z
" transform="scale(0.015625)"/>
       <path id="SimHei-75" d="M 2800 125 
L 2300 125 
L 2300 650 
Q 2100 375 1862 225 
Q 1625 75 1250 75 
Q 800 75 575 325 
Q 350 575 350 950 
L 350 2925 
L 850 2925 
L 850 1125 
Q 850 825 1000 650 
Q 1150 475 1400 475 
Q 1725 475 2012 812 
Q 2300 1150 2300 1650 
L 2300 2925 
L 2800 2925 
L 2800 125 
z
" transform="scale(0.015625)"/>
       <path id="SimHei-6d" d="M 3050 125 
L 2550 125 
L 2550 2150 
Q 2550 2300 2500 2400 
Q 2450 2500 2300 2500 
Q 2125 2500 1975 2312 
Q 1825 2125 1825 1825 
L 1825 125 
L 1325 125 
L 1325 2150 
Q 1325 2300 1275 2400 
Q 1225 2500 1075 2500 
Q 900 2500 750 2312 
Q 600 2125 600 1825 
L 600 125 
L 100 125 
L 100 2925 
L 600 2925 
L 600 2550 
Q 725 2750 900 2862 
Q 1075 2975 1275 2975 
Q 1475 2975 1612 2862 
Q 1750 2750 1800 2550 
Q 1925 2750 2087 2862 
Q 2250 2975 2450 2975 
Q 2750 2975 2900 2812 
Q 3050 2650 3050 2350 
L 3050 125 
z
" transform="scale(0.015625)"/>
       <path id="SimHei-62" d="M 2825 1525 
Q 2825 800 2475 437 
Q 2125 75 1625 75 
Q 1350 75 1150 175 
Q 950 275 800 500 
L 800 125 
L 300 125 
L 300 4400 
L 800 4400 
L 800 2550 
Q 950 2775 1150 2887 
Q 1350 3000 1625 3000 
Q 2125 3000 2475 2625 
Q 2825 2250 2825 1525 
z
M 2275 1525 
Q 2275 2000 2087 2275 
Q 1900 2550 1525 2550 
Q 1225 2550 1012 2275 
Q 800 2000 800 1525 
Q 800 1050 1012 787 
Q 1225 525 1525 525 
Q 1900 525 2087 787 
Q 2275 1050 2275 1525 
z
" transform="scale(0.015625)"/>
       <path id="SimHei-65" d="M 2850 1075 
Q 2800 625 2450 350 
Q 2100 75 1625 75 
Q 1025 75 637 462 
Q 250 850 250 1525 
Q 250 2200 637 2587 
Q 1025 2975 1625 2975 
Q 2150 2975 2487 2637 
Q 2825 2300 2825 1525 
L 800 1525 
Q 800 975 1037 750 
Q 1275 525 1625 525 
Q 1900 525 2075 662 
Q 2250 800 2300 1075 
L 2850 1075 
z
M 2250 1925 
Q 2200 2275 2025 2412 
Q 1850 2550 1575 2550 
Q 1325 2550 1125 2412 
Q 925 2275 825 1925 
L 2250 1925 
z
" transform="scale(0.015625)"/>
       <path id="SimHei-72" d="M 2500 2425 
Q 2025 2500 1700 2287 
Q 1375 2075 1150 1550 
L 1150 125 
L 650 125 
L 650 2925 
L 1150 2925 
L 1150 2200 
Q 1375 2600 1712 2787 
Q 2050 2975 2500 2975 
L 2500 2425 
z
" transform="scale(0.015625)"/>
      </defs>
      <use xlink:href="#SimHei-6e"/>
      <use xlink:href="#SimHei-75" x="50"/>
      <use xlink:href="#SimHei-6d" x="100"/>
      <use xlink:href="#SimHei-62" x="150"/>
      <use xlink:href="#SimHei-65" x="200"/>
      <use xlink:href="#SimHei-72" x="250"/>
     </g>
    </g>
   </g>
   <g id="matplotlib.axis_2">
    <g id="ytick_1">
     <g id="line2d_8">
      <defs>
       <path id="m109236f4a8" d="M 0 0 
L -3.5 0 
" style="stroke: #000000; stroke-width: 0.8"/>
      </defs>
      <g>
       <use xlink:href="#m109236f4a8" x="57.6" y="279.692349" style="stroke: #000000; stroke-width: 0.8"/>
      </g>
     </g>
     <g id="text_9">
      <!-- 40 -->
      <g transform="translate(40.6 283.129849) scale(0.1 -0.1)">
       <defs>
        <path id="SimHei-34" d="M 2000 1100 
L 75 1100 
L 75 1525 
L 2100 4450 
L 2475 4450 
L 2475 1525 
L 3075 1525 
L 3075 1100 
L 2475 1100 
L 2475 150 
L 2000 150 
L 2000 1100 
z
M 2000 1525 
L 2000 3500 
L 600 1525 
L 2000 1525 
z
" transform="scale(0.015625)"/>
       </defs>
       <use xlink:href="#SimHei-34"/>
       <use xlink:href="#SimHei-30" x="50"/>
      </g>
     </g>
    </g>
    <g id="ytick_2">
     <g id="line2d_9">
      <g>
       <use xlink:href="#m109236f4a8" x="57.6" y="243.407343" style="stroke: #000000; stroke-width: 0.8"/>
      </g>
     </g>
     <g id="text_10">
      <!-- 60 -->
      <g transform="translate(40.6 246.844843) scale(0.1 -0.1)">
       <defs>
        <path id="SimHei-36" d="M 250 1612 
Q 275 1975 387 2225 
Q 500 2475 725 2850 
L 1750 4450 
L 2325 4450 
L 1275 2800 
Q 1950 2975 2350 2750 
Q 2750 2525 2887 2237 
Q 3025 1950 3037 1612 
Q 3050 1275 2937 950 
Q 2825 625 2537 362 
Q 2250 100 1737 75 
Q 1225 50 862 262 
Q 500 475 362 862 
Q 225 1250 250 1612 
z
M 1025 787 
Q 1250 550 1625 525 
Q 2000 500 2250 775 
Q 2500 1050 2500 1575 
Q 2500 2100 2187 2300 
Q 1875 2500 1487 2450 
Q 1100 2400 925 2075 
Q 750 1750 775 1387 
Q 800 1025 1025 787 
z
" transform="scale(0.015625)"/>
       </defs>
       <use xlink:href="#SimHei-36"/>
       <use xlink:href="#SimHei-30" x="50"/>
      </g>
     </g>
    </g>
    <g id="ytick_3">
     <g id="line2d_10">
      <g>
       <use xlink:href="#m109236f4a8" x="57.6" y="207.122336" style="stroke: #000000; stroke-width: 0.8"/>
      </g>
     </g>
     <g id="text_11">
      <!-- 80 -->
      <g transform="translate(40.6 210.559836) scale(0.1 -0.1)">
       <defs>
        <path id="SimHei-38" d="M 175 1375 
Q 175 1675 325 1962 
Q 475 2250 825 2425 
Q 525 2600 425 2812 
Q 325 3025 312 3300 
Q 300 3575 387 3775 
Q 475 3975 650 4150 
Q 825 4325 1037 4387 
Q 1250 4450 1500 4450 
Q 1750 4450 1950 4400 
Q 2150 4350 2375 4187 
Q 2600 4025 2700 3725 
Q 2800 3425 2687 3025 
Q 2575 2625 2100 2400 
Q 2525 2275 2700 2012 
Q 2875 1750 2875 1375 
Q 2875 1000 2762 775 
Q 2650 550 2512 400 
Q 2375 250 2137 162 
Q 1900 75 1537 75 
Q 1175 75 912 162 
Q 650 250 475 425 
Q 300 600 237 837 
Q 175 1075 175 1375 
z
M 687 1400 
Q 675 1100 787 875 
Q 900 650 1200 587 
Q 1500 525 1825 600 
Q 2150 675 2275 950 
Q 2400 1225 2362 1500 
Q 2325 1775 2050 1962 
Q 1775 2150 1450 2125 
Q 1125 2100 912 1900 
Q 700 1700 687 1400 
z
M 775 3350 
Q 775 3100 950 2875 
Q 1125 2650 1500 2650 
Q 1875 2650 2062 2875 
Q 2250 3100 2237 3412 
Q 2225 3725 2012 3875 
Q 1800 4025 1437 4000 
Q 1075 3975 925 3787 
Q 775 3600 775 3350 
z
" transform="scale(0.015625)"/>
       </defs>
       <use xlink:href="#SimHei-38"/>
       <use xlink:href="#SimHei-30" x="50"/>
      </g>
     </g>
    </g>
    <g id="ytick_4">
     <g id="line2d_11">
      <g>
       <use xlink:href="#m109236f4a8" x="57.6" y="170.83733" style="stroke: #000000; stroke-width: 0.8"/>
      </g>
     </g>
     <g id="text_12">
      <!-- 100 -->
      <g transform="translate(35.6 174.27483) scale(0.1 -0.1)">
       <use xlink:href="#SimHei-31"/>
       <use xlink:href="#SimHei-30" x="50"/>
       <use xlink:href="#SimHei-30" x="100"/>
      </g>
     </g>
    </g>
    <g id="ytick_5">
     <g id="line2d_12">
      <g>
       <use xlink:href="#m109236f4a8" x="57.6" y="134.552324" style="stroke: #000000; stroke-width: 0.8"/>
      </g>
     </g>
     <g id="text_13">
      <!-- 120 -->
      <g transform="translate(35.6 137.989824) scale(0.1 -0.1)">
       <use xlink:href="#SimHei-31"/>
       <use xlink:href="#SimHei-32" x="50"/>
       <use xlink:href="#SimHei-30" x="100"/>
      </g>
     </g>
    </g>
    <g id="ytick_6">
     <g id="line2d_13">
      <g>
       <use xlink:href="#m109236f4a8" x="57.6" y="98.267318" style="stroke: #000000; stroke-width: 0.8"/>
      </g>
     </g>
     <g id="text_14">
      <!-- 140 -->
      <g transform="translate(35.6 101.704818) scale(0.1 -0.1)">
       <use xlink:href="#SimHei-31"/>
       <use xlink:href="#SimHei-34" x="50"/>
       <use xlink:href="#SimHei-30" x="100"/>
      </g>
     </g>
    </g>
    <g id="ytick_7">
     <g id="line2d_14">
      <g>
       <use xlink:href="#m109236f4a8" x="57.6" y="61.982311" style="stroke: #000000; stroke-width: 0.8"/>
      </g>
     </g>
     <g id="text_15">
      <!-- 160 -->
      <g transform="translate(35.6 65.419811) scale(0.1 -0.1)">
       <use xlink:href="#SimHei-31"/>
       <use xlink:href="#SimHei-36" x="50"/>
       <use xlink:href="#SimHei-30" x="100"/>
      </g>
     </g>
    </g>
    <g id="text_16">
     <!-- tool wear ($\mu m$) -->
     <g transform="translate(29.5 212.628) rotate(-90) scale(0.1 -0.1)">
      <defs>
       <path id="SimHei-74" d="M 2750 200 
Q 2625 150 2462 112 
Q 2300 75 2025 75 
Q 1575 75 1300 325 
Q 1025 575 1025 1025 
L 1025 2525 
L 175 2525 
L 175 2925 
L 1025 2925 
L 1025 3900 
L 1525 3900 
L 1525 2925 
L 2550 2925 
L 2550 2525 
L 1525 2525 
L 1525 1000 
Q 1525 800 1625 662 
Q 1725 525 2000 525 
Q 2275 525 2450 575 
Q 2625 625 2750 700 
L 2750 200 
z
" transform="scale(0.015625)"/>
       <path id="SimHei-6f" d="M 2925 1525 
Q 2925 875 2525 475 
Q 2125 75 1575 75 
Q 1025 75 625 475 
Q 225 875 225 1525 
Q 225 2175 625 2575 
Q 1025 2975 1575 2975 
Q 2125 2975 2525 2575 
Q 2925 2175 2925 1525 
z
M 2375 1525 
Q 2375 2025 2125 2275 
Q 1875 2525 1575 2525 
Q 1275 2525 1025 2275 
Q 775 2025 775 1525 
Q 775 1025 1025 775 
Q 1275 525 1575 525 
Q 1875 525 2125 775 
Q 2375 1025 2375 1525 
z
" transform="scale(0.015625)"/>
       <path id="SimHei-6c" d="M 1825 125 
L 1325 125 
L 1325 4400 
L 1825 4400 
L 1825 125 
z
" transform="scale(0.015625)"/>
       <path id="SimHei-20" transform="scale(0.015625)"/>
       <path id="SimHei-77" d="M 3075 2925 
L 2450 75 
L 1975 75 
L 1575 2250 
L 1525 2250 
L 1125 75 
L 650 75 
L 25 2925 
L 550 2925 
L 875 1050 
L 925 1050 
L 1275 2925 
L 1825 2925 
L 2175 1050 
L 2225 1050 
L 2550 2925 
L 3075 2925 
z
" transform="scale(0.015625)"/>
       <path id="SimHei-61" d="M 2875 125 
L 2275 125 
Q 2225 175 2200 262 
Q 2175 350 2175 475 
Q 2000 275 1750 175 
Q 1500 75 1225 75 
Q 825 75 550 275 
Q 275 475 275 850 
Q 275 1225 525 1450 
Q 775 1675 1300 1750 
Q 1650 1800 1912 1875 
Q 2175 1950 2175 2075 
Q 2175 2225 2062 2375 
Q 1950 2525 1575 2525 
Q 1275 2525 1137 2412 
Q 1000 2300 950 2100 
L 400 2100 
Q 450 2500 762 2737 
Q 1075 2975 1575 2975 
Q 2125 2975 2400 2725 
Q 2675 2475 2675 2025 
L 2675 650 
Q 2675 500 2725 375 
Q 2775 250 2875 125 
z
M 2175 1050 
L 2175 1550 
Q 2025 1500 1887 1462 
Q 1750 1425 1425 1375 
Q 1050 1325 937 1200 
Q 825 1075 825 900 
Q 825 750 937 637 
Q 1050 525 1275 525 
Q 1500 525 1762 650 
Q 2025 775 2175 1050 
z
" transform="scale(0.015625)"/>
       <path id="SimHei-28" d="M 2975 -200 
L 2700 -475 
Q 2075 125 1762 775 
Q 1450 1425 1450 2250 
Q 1450 3075 1762 3725 
Q 2075 4375 2700 5000 
L 2975 4725 
Q 2400 4175 2112 3587 
Q 1825 3000 1825 2250 
Q 1825 1500 2112 912 
Q 2400 325 2975 -200 
z
" transform="scale(0.015625)"/>
       <path id="DejaVuSans-Oblique-3bc" d="M -84 -1331 
L 856 3500 
L 1434 3500 
L 1009 1322 
Q 997 1256 987 1175 
Q 978 1094 978 1013 
Q 978 722 1161 565 
Q 1344 409 1684 409 
Q 2147 409 2431 671 
Q 2716 934 2816 1459 
L 3213 3500 
L 3788 3500 
L 3266 809 
Q 3253 750 3248 706 
Q 3244 663 3244 628 
Q 3244 531 3283 486 
Q 3322 441 3406 441 
Q 3438 441 3492 456 
Q 3547 472 3647 513 
L 3559 50 
Q 3422 -19 3297 -55 
Q 3172 -91 3053 -91 
Q 2847 -91 2730 40 
Q 2613 172 2613 403 
Q 2438 153 2195 31 
Q 1953 -91 1625 -91 
Q 1334 -91 1117 43 
Q 900 178 831 397 
L 494 -1331 
L -84 -1331 
z
" transform="scale(0.015625)"/>
       <path id="DejaVuSans-Oblique-6d" d="M 5747 2113 
L 5338 0 
L 4763 0 
L 5166 2094 
Q 5191 2228 5203 2325 
Q 5216 2422 5216 2491 
Q 5216 2772 5059 2928 
Q 4903 3084 4622 3084 
Q 4203 3084 3875 2770 
Q 3547 2456 3450 1953 
L 3066 0 
L 2491 0 
L 2900 2094 
Q 2925 2209 2937 2307 
Q 2950 2406 2950 2484 
Q 2950 2769 2794 2926 
Q 2638 3084 2363 3084 
Q 1938 3084 1609 2770 
Q 1281 2456 1184 1953 
L 800 0 
L 225 0 
L 909 3500 
L 1484 3500 
L 1375 2956 
Q 1609 3263 1923 3423 
Q 2238 3584 2597 3584 
Q 2978 3584 3223 3384 
Q 3469 3184 3519 2828 
Q 3781 3197 4126 3390 
Q 4472 3584 4856 3584 
Q 5306 3584 5551 3325 
Q 5797 3066 5797 2591 
Q 5797 2488 5784 2364 
Q 5772 2241 5747 2113 
z
" transform="scale(0.015625)"/>
       <path id="SimHei-29" d="M 1675 2250 
Q 1675 1425 1362 775 
Q 1050 125 425 -475 
L 150 -200 
Q 725 325 1012 912 
Q 1300 1500 1300 2250 
Q 1300 3000 1012 3587 
Q 725 4175 150 4725 
L 425 5000 
Q 1050 4375 1362 3725 
Q 1675 3075 1675 2250 
z
" transform="scale(0.015625)"/>
      </defs>
      <use xlink:href="#SimHei-74" transform="translate(0 0.875)"/>
      <use xlink:href="#SimHei-6f" transform="translate(50 0.875)"/>
      <use xlink:href="#SimHei-6f" transform="translate(100 0.875)"/>
      <use xlink:href="#SimHei-6c" transform="translate(150 0.875)"/>
      <use xlink:href="#SimHei-20" transform="translate(200 0.875)"/>
      <use xlink:href="#SimHei-77" transform="translate(250 0.875)"/>
      <use xlink:href="#SimHei-65" transform="translate(300 0.875)"/>
      <use xlink:href="#SimHei-61" transform="translate(350 0.875)"/>
      <use xlink:href="#SimHei-72" transform="translate(400 0.875)"/>
      <use xlink:href="#SimHei-20" transform="translate(450 0.875)"/>
      <use xlink:href="#SimHei-28" transform="translate(500 0.875)"/>
      <use xlink:href="#DejaVuSans-Oblique-3bc" transform="translate(550 0.875)"/>
      <use xlink:href="#DejaVuSans-Oblique-6d" transform="translate(613.623047 0.875)"/>
      <use xlink:href="#SimHei-29" transform="translate(711.035156 0.875)"/>
     </g>
    </g>
   </g>
   <g id="line2d_15">
    <path d="M 73.832727 263.558915 
L 75.900591 261.000369 
L 77.968454 258.087734 
L 81.070249 253.204405 
L 84.172044 247.884803 
L 89.341702 238.515535 
L 96.579224 225.376365 
L 100.714951 218.28323 
L 104.850677 211.691315 
L 107.952472 207.139387 
L 111.054268 202.955993 
L 114.156063 199.158514 
L 117.257858 195.754928 
L 120.359653 192.745164 
L 123.461448 190.122334 
L 126.563243 187.87385 
L 129.665038 185.982445 
L 132.766833 184.427088 
L 135.868628 183.183814 
L 138.970423 182.226463 
L 142.072218 181.527341 
L 145.174013 181.057804 
L 148.275808 180.788779 
L 152.411534 180.691207 
L 213.413503 180.600457 
L 217.54923 179.39687 
L 222.718888 177.626733 
L 227.888547 175.581274 
L 233.058205 173.286437 
L 238.227863 170.771687 
L 244.431453 167.508253 
L 251.668975 163.432768 
L 260.97436 157.900404 
L 276.483335 148.346521 
L 298.1959 135.025123 
L 326.112056 117.989858 
L 334.383509 112.651662 
L 341.621031 107.731292 
L 347.824621 103.270156 
L 354.028211 98.536077 
L 360.231801 93.486186 
L 365.401459 89.008641 
L 370.571118 84.265429 
L 375.740776 79.240473 
L 380.910434 73.921519 
L 386.080093 68.300561 
L 391.249751 62.374201 
L 396.419409 56.143918 
L 398.487273 53.568 
L 398.487273 53.568 
" clip-path="url(#p97e3ad0a22)" style="fill: none; stroke: #1f77b4; stroke-width: 1.5; stroke-linecap: square"/>
   </g>
   <g id="line2d_16">
    <path d="M 73.832727 293.027079 
L 74.866659 295.488 
L 75.900591 293.99063 
L 76.934522 281.376896 
L 77.968454 278.451544 
L 79.002386 269.457923 
L 80.036317 270.957276 
L 81.070249 267.088983 
L 82.104181 261.624874 
L 83.138112 261.798047 
L 84.172044 253.46533 
L 85.205976 249.531192 
L 86.239907 264.037346 
L 87.273839 248.984745 
L 88.307771 245.256003 
L 89.341702 244.376215 
L 90.375634 244.736492 
L 91.409566 241.743821 
L 92.443497 243.495791 
L 93.477429 239.750197 
L 94.511361 239.49895 
L 95.545292 236.876017 
L 96.579224 235.849964 
L 97.613156 234.274828 
L 98.647087 234.144038 
L 99.681019 231.552622 
L 100.714951 229.519632 
L 101.748882 230.684337 
L 102.782814 228.919958 
L 103.816746 224.214426 
L 104.850677 225.913832 
L 105.884609 227.274977 
L 106.918541 206.336533 
L 107.952472 211.151248 
L 108.986404 207.576411 
L 110.020336 207.551316 
L 111.054268 205.097735 
L 113.122131 197.271123 
L 114.156063 197.733682 
L 115.189994 191.776189 
L 116.223926 193.459996 
L 117.257858 194.150776 
L 118.291789 193.322216 
L 119.325721 192.319196 
L 120.359653 189.576131 
L 121.393584 190.606986 
L 122.427516 185.945097 
L 123.461448 189.444649 
L 124.495379 185.618199 
L 125.529311 184.881866 
L 126.563243 186.273739 
L 127.597174 185.810515 
L 128.631106 184.780352 
L 129.665038 185.440002 
L 130.698969 183.836131 
L 131.732901 183.487986 
L 132.766833 183.284736 
L 133.800764 182.716592 
L 134.834696 183.727723 
L 135.868628 182.146109 
L 136.902559 181.68629 
L 137.936491 181.95533 
L 138.970423 182.63177 
L 140.004354 193.253022 
L 141.038286 183.177892 
L 142.072218 184.572478 
L 143.106149 184.128078 
L 144.140081 183.955266 
L 145.174013 184.079134 
L 146.207944 183.038964 
L 147.241876 181.701281 
L 148.275808 183.672246 
L 149.309739 182.345941 
L 150.343671 181.478237 
L 151.377603 182.083614 
L 152.411534 181.56256 
L 153.445466 182.14885 
L 154.479398 181.598936 
L 155.513329 182.213227 
L 156.547261 181.864972 
L 157.581193 182.782423 
L 158.615124 182.004772 
L 159.649056 182.022669 
L 160.682988 181.250735 
L 161.71692 182.852171 
L 162.750851 181.791999 
L 164.818715 182.374178 
L 165.852646 181.720299 
L 166.886578 181.322131 
L 168.954441 182.137541 
L 169.988373 182.150483 
L 171.022305 181.523139 
L 172.056236 182.247319 
L 173.090168 189.991615 
L 174.1241 180.997489 
L 175.158031 179.776145 
L 176.191963 179.437246 
L 178.259826 181.123794 
L 179.293758 179.477941 
L 180.32769 180.344732 
L 181.361621 180.841079 
L 182.395553 179.533764 
L 183.429485 180.138823 
L 184.463416 179.88112 
L 185.497348 178.850458 
L 186.53128 178.83054 
L 187.565211 179.684873 
L 188.599143 178.281318 
L 189.633075 178.339204 
L 190.667006 178.915029 
L 191.700938 176.82886 
L 192.73487 178.069998 
L 193.768801 178.654945 
L 194.802733 178.538385 
L 195.836665 176.318533 
L 196.870596 176.363671 
L 197.904528 176.210665 
L 198.93846 177.272983 
L 199.972391 176.454001 
L 201.006323 176.881915 
L 202.040255 175.880432 
L 203.074186 175.879394 
L 204.108118 174.975743 
L 205.14205 176.13109 
L 206.175981 179.204361 
L 207.209913 176.310159 
L 208.243845 176.640102 
L 209.277776 176.315446 
L 210.311708 177.564931 
L 211.34564 176.799073 
L 213.413503 176.622869 
L 214.447435 176.885389 
L 215.481367 176.663882 
L 216.515298 177.390886 
L 217.54923 176.13909 
L 218.583162 175.617219 
L 219.617093 176.459053 
L 220.651025 174.069849 
L 221.684957 178.614541 
L 222.718888 177.539545 
L 223.75282 174.920279 
L 224.786752 171.019278 
L 225.820683 173.629104 
L 226.854615 173.380965 
L 227.888547 173.930007 
L 228.922478 172.968817 
L 229.95641 171.184243 
L 230.990342 173.224956 
L 232.024273 169.505295 
L 233.058205 170.326643 
L 234.092137 168.911835 
L 235.126068 168.602419 
L 236.16 169.099583 
L 237.193932 169.883559 
L 238.227863 167.872273 
L 239.261795 164.466802 
L 240.295727 162.239739 
L 241.329658 162.52968 
L 242.36359 163.411558 
L 243.397522 162.925786 
L 244.431453 163.820191 
L 245.465385 163.657039 
L 246.499317 162.114348 
L 247.533248 163.416167 
L 248.56718 160.304928 
L 249.601112 159.539597 
L 250.635043 159.838188 
L 251.668975 161.164674 
L 252.702907 158.657068 
L 253.736838 160.362053 
L 254.77077 158.197775 
L 255.804702 158.825161 
L 256.838633 157.924624 
L 257.872565 157.491354 
L 258.906497 157.890989 
L 259.940428 156.51837 
L 260.97436 157.17582 
L 262.008292 157.08477 
L 263.042224 155.872007 
L 264.076155 155.051019 
L 265.110087 153.951578 
L 266.144019 154.325759 
L 268.211882 151.741291 
L 269.245814 152.215588 
L 270.279745 154.136336 
L 271.313677 151.885355 
L 272.347609 148.473697 
L 273.38154 146.9334 
L 274.415472 147.555457 
L 275.449404 148.661182 
L 276.483335 145.096865 
L 277.517267 145.059589 
L 278.551199 145.442463 
L 279.58513 144.902611 
L 280.619062 143.752026 
L 281.652994 143.278324 
L 282.686925 141.860664 
L 283.720857 141.741252 
L 284.754789 140.814956 
L 285.78872 139.673506 
L 286.822652 139.783865 
L 287.856584 138.830592 
L 288.890515 137.65368 
L 289.924447 137.733975 
L 290.958379 137.134273 
L 291.99231 136.188086 
L 293.026242 135.716225 
L 294.060174 136.445568 
L 295.094105 134.03837 
L 296.128037 134.743477 
L 297.161969 133.144173 
L 298.1959 125.621759 
L 299.229832 131.283913 
L 300.263764 131.400183 
L 301.297695 130.574031 
L 302.331627 132.687302 
L 303.365559 130.205872 
L 304.39949 128.87994 
L 305.433422 131.97569 
L 306.467354 131.487053 
L 307.501285 128.844866 
L 308.535217 128.78716 
L 309.569149 128.95582 
L 310.60308 123.808782 
L 311.637012 124.612233 
L 312.670944 123.511768 
L 313.704876 121.039971 
L 314.738807 124.20349 
L 315.772739 121.046075 
L 316.806671 122.062106 
L 317.840602 121.77283 
L 318.874534 120.946485 
L 319.908466 121.557454 
L 320.942397 120.403768 
L 321.976329 119.488836 
L 323.010261 121.972426 
L 324.044192 119.969667 
L 325.078124 120.190012 
L 326.112056 120.681611 
L 327.145987 118.781944 
L 329.213851 118.928139 
L 331.281714 118.192208 
L 332.315646 120.512079 
L 333.349577 116.80666 
L 334.383509 118.348812 
L 335.417441 116.166872 
L 336.451372 114.719453 
L 337.485304 114.073381 
L 338.519236 106.281899 
L 339.553167 109.112125 
L 340.587099 107.175432 
L 341.621031 109.015261 
L 343.688894 107.008945 
L 344.722826 106.393186 
L 345.756757 108.798058 
L 346.790689 107.179307 
L 347.824621 107.559177 
L 348.858552 105.424022 
L 349.892484 107.420235 
L 350.926416 104.805606 
L 351.960347 105.351492 
L 352.994279 102.356606 
L 354.028211 102.542859 
L 355.062142 102.394532 
L 356.096074 100.439097 
L 357.130006 100.606083 
L 358.163937 100.106095 
L 359.197869 97.501543 
L 360.231801 96.382226 
L 361.265732 99.686694 
L 362.299664 96.319662 
L 363.333596 63.67351 
L 364.367528 93.472715 
L 365.401459 90.985983 
L 366.435391 92.174979 
L 367.469323 88.719277 
L 368.503254 91.249749 
L 369.537186 90.107205 
L 370.571118 85.914464 
L 371.605049 84.474436 
L 372.638981 82.528995 
L 373.672913 83.766243 
L 374.706844 77.324099 
L 375.740776 82.146329 
L 376.774708 80.28463 
L 377.808639 82.839408 
L 378.842571 80.764879 
L 379.876503 80.057018 
L 380.910434 78.291158 
L 381.944366 72.639288 
L 382.978298 76.935896 
L 384.012229 68.365435 
L 385.046161 71.203385 
L 387.114024 78.333514 
L 388.147956 71.943497 
L 389.181888 70.363032 
L 390.215819 65.586644 
L 391.249751 70.614617 
L 392.283683 68.915114 
L 393.317614 64.236144 
L 394.351546 54.451384 
L 395.385478 56.063824 
L 396.419409 54.713157 
L 397.453341 53.810766 
L 398.487273 73.354319 
L 398.487273 73.354319 
" clip-path="url(#p97e3ad0a22)" style="fill: none; stroke: #ff7f0e; stroke-width: 1.5; stroke-linecap: square"/>
   </g>
   <g id="patch_3">
    <path d="M 57.6 307.584 
L 57.6 41.472 
" style="fill: none; stroke: #000000; stroke-width: 0.8; stroke-linejoin: miter; stroke-linecap: square"/>
   </g>
   <g id="patch_4">
    <path d="M 414.72 307.584 
L 414.72 41.472 
" style="fill: none; stroke: #000000; stroke-width: 0.8; stroke-linejoin: miter; stroke-linecap: square"/>
   </g>
   <g id="patch_5">
    <path d="M 57.6 307.584 
L 414.72 307.584 
" style="fill: none; stroke: #000000; stroke-width: 0.8; stroke-linejoin: miter; stroke-linecap: square"/>
   </g>
   <g id="patch_6">
    <path d="M 57.6 41.472 
L 414.72 41.472 
" style="fill: none; stroke: #000000; stroke-width: 0.8; stroke-linejoin: miter; stroke-linecap: square"/>
   </g>
   <g id="text_17">
    <!-- No.2 tool wear -->
    <g transform="translate(194.16 35.472) scale(0.12 -0.12)">
     <defs>
      <path id="SimHei-4e" d="M 2850 125 
L 2225 125 
L 850 3225 
L 825 3225 
L 825 125 
L 250 125 
L 250 4400 
L 875 4400 
L 2250 1300 
L 2275 1300 
L 2275 4400 
L 2850 4400 
L 2850 125 
z
" transform="scale(0.015625)"/>
      <path id="SimHei-2e" d="M 1075 125 
L 500 125 
L 500 675 
L 1075 675 
L 1075 125 
z
" transform="scale(0.015625)"/>
     </defs>
     <use xlink:href="#SimHei-4e"/>
     <use xlink:href="#SimHei-6f" x="50"/>
     <use xlink:href="#SimHei-2e" x="100"/>
     <use xlink:href="#SimHei-32" x="150"/>
     <use xlink:href="#SimHei-20" x="200"/>
     <use xlink:href="#SimHei-74" x="250"/>
     <use xlink:href="#SimHei-6f" x="300"/>
     <use xlink:href="#SimHei-6f" x="350"/>
     <use xlink:href="#SimHei-6c" x="400"/>
     <use xlink:href="#SimHei-20" x="450"/>
     <use xlink:href="#SimHei-77" x="500"/>
     <use xlink:href="#SimHei-65" x="550"/>
     <use xlink:href="#SimHei-61" x="600"/>
     <use xlink:href="#SimHei-72" x="650"/>
    </g>
   </g>
   <g id="legend_1">
    <g id="patch_7">
     <path d="M 64.6 75.972 
L 131.6 75.972 
Q 133.6 75.972 133.6 73.972 
L 133.6 48.472 
Q 133.6 46.472 131.6 46.472 
L 64.6 46.472 
Q 62.6 46.472 62.6 48.472 
L 62.6 73.972 
Q 62.6 75.972 64.6 75.972 
z
" style="fill: #ffffff; opacity: 0.8; stroke: #cccccc; stroke-linejoin: miter"/>
    </g>
    <g id="line2d_17">
     <path d="M 66.6 53.972 
L 76.6 53.972 
L 86.6 53.972 
" style="fill: none; stroke: #1f77b4; stroke-width: 1.5; stroke-linecap: square"/>
    </g>
    <g id="text_18">
     <!-- actual -->
     <g transform="translate(94.6 57.472) scale(0.1 -0.1)">
      <defs>
       <path id="SimHei-63" d="M 2850 1250 
Q 2850 725 2487 400 
Q 2125 75 1575 75 
Q 1025 75 625 462 
Q 225 850 225 1525 
Q 225 2200 625 2587 
Q 1025 2975 1575 2975 
Q 2125 2975 2450 2687 
Q 2775 2400 2775 2000 
L 2225 2000 
Q 2200 2300 2012 2412 
Q 1825 2525 1575 2525 
Q 1275 2525 1025 2287 
Q 775 2050 775 1525 
Q 775 1000 1025 762 
Q 1275 525 1575 525 
Q 1900 525 2100 700 
Q 2300 875 2300 1250 
L 2850 1250 
z
" transform="scale(0.015625)"/>
      </defs>
      <use xlink:href="#SimHei-61"/>
      <use xlink:href="#SimHei-63" x="50"/>
      <use xlink:href="#SimHei-74" x="100"/>
      <use xlink:href="#SimHei-75" x="150"/>
      <use xlink:href="#SimHei-61" x="200"/>
      <use xlink:href="#SimHei-6c" x="250"/>
     </g>
    </g>
    <g id="line2d_18">
     <path d="M 66.6 67.222 
L 76.6 67.222 
L 86.6 67.222 
" style="fill: none; stroke: #ff7f0e; stroke-width: 1.5; stroke-linecap: square"/>
    </g>
    <g id="text_19">
     <!-- predict -->
     <g transform="translate(94.6 70.722) scale(0.1 -0.1)">
      <defs>
       <path id="SimHei-70" d="M 2825 1525 
Q 2825 800 2475 425 
Q 2125 50 1625 50 
Q 1350 50 1150 162 
Q 950 275 800 500 
L 800 -800 
L 300 -800 
L 300 2925 
L 800 2925 
L 800 2550 
Q 950 2775 1150 2875 
Q 1350 2975 1625 2975 
Q 2125 2975 2475 2612 
Q 2825 2250 2825 1525 
z
M 2275 1525 
Q 2275 2000 2087 2262 
Q 1900 2525 1525 2525 
Q 1225 2525 1012 2262 
Q 800 2000 800 1525 
Q 800 1050 1012 775 
Q 1225 500 1525 500 
Q 1900 500 2087 775 
Q 2275 1050 2275 1525 
z
" transform="scale(0.015625)"/>
       <path id="SimHei-64" d="M 2750 125 
L 2250 125 
L 2250 500 
Q 2100 275 1900 175 
Q 1700 75 1425 75 
Q 925 75 575 437 
Q 225 800 225 1525 
Q 225 2250 575 2625 
Q 925 3000 1425 3000 
Q 1700 3000 1900 2887 
Q 2100 2775 2250 2550 
L 2250 4400 
L 2750 4400 
L 2750 125 
z
M 2250 1525 
Q 2250 2000 2037 2275 
Q 1825 2550 1525 2550 
Q 1150 2550 962 2275 
Q 775 2000 775 1525 
Q 775 1050 962 787 
Q 1150 525 1525 525 
Q 1825 525 2037 787 
Q 2250 1050 2250 1525 
z
" transform="scale(0.015625)"/>
       <path id="SimHei-69" d="M 1800 3725 
L 1300 3725 
L 1300 4375 
L 1800 4375 
L 1800 3725 
z
M 1800 125 
L 1300 125 
L 1300 2925 
L 1800 2925 
L 1800 125 
z
" transform="scale(0.015625)"/>
      </defs>
      <use xlink:href="#SimHei-70"/>
      <use xlink:href="#SimHei-72" x="50"/>
      <use xlink:href="#SimHei-65" x="100"/>
      <use xlink:href="#SimHei-64" x="150"/>
      <use xlink:href="#SimHei-69" x="200"/>
      <use xlink:href="#SimHei-63" x="250"/>
      <use xlink:href="#SimHei-74" x="300"/>
     </g>
    </g>
   </g>
  </g>
 </g>
 <defs>
  <clipPath id="p97e3ad0a22">
   <rect x="57.6" y="41.472" width="357.12" height="266.112"/>
  </clipPath>
 </defs>
</svg>
