<?xml version="1.0" encoding="utf-8" standalone="no"?>
<!DOCTYPE svg PUBLIC "-//W3C//DTD SVG 1.1//EN"
  "http://www.w3.org/Graphics/SVG/1.1/DTD/svg11.dtd">
<svg xmlns:xlink="http://www.w3.org/1999/xlink" width="460.8pt" height="345.6pt" viewBox="0 0 460.8 345.6" xmlns="http://www.w3.org/2000/svg" version="1.1">
 <metadata>
  <rdf:RDF xmlns:dc="http://purl.org/dc/elements/1.1/" xmlns:cc="http://creativecommons.org/ns#" xmlns:rdf="http://www.w3.org/1999/02/22-rdf-syntax-ns#">
   <cc:Work>
    <dc:type rdf:resource="http://purl.org/dc/dcmitype/StillImage"/>
    <dc:date>2023-09-09T21:11:54.570083</dc:date>
    <dc:format>image/svg+xml</dc:format>
    <dc:creator>
     <cc:Agent>
      <dc:title>Matplotlib v3.7.1, https://matplotlib.org/</dc:title>
     </cc:Agent>
    </dc:creator>
   </cc:Work>
  </rdf:RDF>
 </metadata>
 <defs>
  <style type="text/css">*{stroke-linejoin: round; stroke-linecap: butt}</style>
 </defs>
 <g id="figure_1">
  <g id="patch_1">
   <path d="M 0 345.6 
L 460.8 345.6 
L 460.8 0 
L 0 0 
z
" style="fill: #ffffff"/>
  </g>
  <g id="axes_1">
   <g id="patch_2">
    <path d="M 57.6 307.584 
L 414.72 307.584 
L 414.72 41.472 
L 57.6 41.472 
z
" style="fill: #ffffff"/>
   </g>
   <g id="matplotlib.axis_1">
    <g id="xtick_1">
     <g id="line2d_1">
      <defs>
       <path id="ma1f241a0d4" d="M 0 0 
L 0 3.5 
" style="stroke: #000000; stroke-width: 0.8"/>
      </defs>
      <g>
       <use xlink:href="#ma1f241a0d4" x="73.832727" y="307.584" style="stroke: #000000; stroke-width: 0.8"/>
      </g>
     </g>
     <g id="text_1">
      <!-- 0 -->
      <g transform="translate(71.332727 321.459) scale(0.1 -0.1)">
       <defs>
        <path id="SimHei-30" d="M 225 2537 
Q 250 3200 412 3587 
Q 575 3975 875 4225 
Q 1175 4475 1612 4475 
Q 2050 4475 2375 4112 
Q 2700 3750 2800 3200 
Q 2900 2650 2862 1937 
Q 2825 1225 2612 775 
Q 2400 325 1975 150 
Q 1550 -25 1125 187 
Q 700 400 525 750 
Q 350 1100 275 1487 
Q 200 1875 225 2537 
z
M 750 2687 
Q 675 2000 800 1462 
Q 925 925 1212 700 
Q 1500 475 1800 612 
Q 2100 750 2237 1162 
Q 2375 1575 2375 2062 
Q 2375 2550 2337 2950 
Q 2300 3350 2112 3675 
Q 1925 4000 1612 4012 
Q 1300 4025 1062 3700 
Q 825 3375 750 2687 
z
" transform="scale(0.015625)"/>
       </defs>
       <use xlink:href="#SimHei-30"/>
      </g>
     </g>
    </g>
    <g id="xtick_2">
     <g id="line2d_2">
      <g>
       <use xlink:href="#ma1f241a0d4" x="125.529311" y="307.584" style="stroke: #000000; stroke-width: 0.8"/>
      </g>
     </g>
     <g id="text_2">
      <!-- 50 -->
      <g transform="translate(120.529311 321.459) scale(0.1 -0.1)">
       <defs>
        <path id="SimHei-35" d="M 550 1325 
Q 725 650 1150 575 
Q 1575 500 1837 662 
Q 2100 825 2212 1087 
Q 2325 1350 2312 1675 
Q 2300 2000 2137 2225 
Q 1975 2450 1725 2525 
Q 1475 2600 1162 2525 
Q 850 2450 650 2175 
L 225 2225 
Q 275 2375 700 4375 
L 2675 4375 
L 2675 3925 
L 1075 3925 
Q 950 3250 825 2850 
Q 1200 3025 1525 3012 
Q 1850 3000 2150 2862 
Q 2450 2725 2587 2487 
Q 2725 2250 2787 2012 
Q 2850 1775 2837 1500 
Q 2825 1225 2725 937 
Q 2625 650 2425 462 
Q 2225 275 1937 162 
Q 1650 50 1275 75 
Q 900 100 562 350 
Q 225 600 100 1200 
L 550 1325 
z
" transform="scale(0.015625)"/>
       </defs>
       <use xlink:href="#SimHei-35"/>
       <use xlink:href="#SimHei-30" x="50"/>
      </g>
     </g>
    </g>
    <g id="xtick_3">
     <g id="line2d_3">
      <g>
       <use xlink:href="#ma1f241a0d4" x="177.225895" y="307.584" style="stroke: #000000; stroke-width: 0.8"/>
      </g>
     </g>
     <g id="text_3">
      <!-- 100 -->
      <g transform="translate(169.725895 321.459) scale(0.1 -0.1)">
       <defs>
        <path id="SimHei-31" d="M 1400 3600 
Q 1075 3275 575 2975 
L 575 3450 
Q 1200 3875 1600 4450 
L 1900 4450 
L 1900 150 
L 1400 150 
L 1400 3600 
z
" transform="scale(0.015625)"/>
       </defs>
       <use xlink:href="#SimHei-31"/>
       <use xlink:href="#SimHei-30" x="50"/>
       <use xlink:href="#SimHei-30" x="100"/>
      </g>
     </g>
    </g>
    <g id="xtick_4">
     <g id="line2d_4">
      <g>
       <use xlink:href="#ma1f241a0d4" x="228.922478" y="307.584" style="stroke: #000000; stroke-width: 0.8"/>
      </g>
     </g>
     <g id="text_4">
      <!-- 150 -->
      <g transform="translate(221.422478 321.459) scale(0.1 -0.1)">
       <use xlink:href="#SimHei-31"/>
       <use xlink:href="#SimHei-35" x="50"/>
       <use xlink:href="#SimHei-30" x="100"/>
      </g>
     </g>
    </g>
    <g id="xtick_5">
     <g id="line2d_5">
      <g>
       <use xlink:href="#ma1f241a0d4" x="280.619062" y="307.584" style="stroke: #000000; stroke-width: 0.8"/>
      </g>
     </g>
     <g id="text_5">
      <!-- 200 -->
      <g transform="translate(273.119062 321.459) scale(0.1 -0.1)">
       <defs>
        <path id="SimHei-32" d="M 300 250 
Q 325 625 650 925 
Q 975 1225 1475 1862 
Q 1975 2500 2125 2850 
Q 2275 3200 2237 3450 
Q 2200 3700 2000 3862 
Q 1800 4025 1537 4000 
Q 1275 3975 1037 3800 
Q 800 3625 675 3275 
L 200 3350 
Q 400 3925 712 4187 
Q 1025 4450 1450 4475 
Q 1700 4500 1900 4462 
Q 2100 4425 2312 4287 
Q 2525 4150 2662 3875 
Q 2800 3600 2762 3212 
Q 2725 2825 2375 2287 
Q 2025 1750 1025 600 
L 2825 600 
L 2825 150 
L 300 150 
L 300 250 
z
" transform="scale(0.015625)"/>
       </defs>
       <use xlink:href="#SimHei-32"/>
       <use xlink:href="#SimHei-30" x="50"/>
       <use xlink:href="#SimHei-30" x="100"/>
      </g>
     </g>
    </g>
    <g id="xtick_6">
     <g id="line2d_6">
      <g>
       <use xlink:href="#ma1f241a0d4" x="332.315646" y="307.584" style="stroke: #000000; stroke-width: 0.8"/>
      </g>
     </g>
     <g id="text_6">
      <!-- 250 -->
      <g transform="translate(324.815646 321.459) scale(0.1 -0.1)">
       <use xlink:href="#SimHei-32"/>
       <use xlink:href="#SimHei-35" x="50"/>
       <use xlink:href="#SimHei-30" x="100"/>
      </g>
     </g>
    </g>
    <g id="xtick_7">
     <g id="line2d_7">
      <g>
       <use xlink:href="#ma1f241a0d4" x="384.012229" y="307.584" style="stroke: #000000; stroke-width: 0.8"/>
      </g>
     </g>
     <g id="text_7">
      <!-- 300 -->
      <g transform="translate(376.512229 321.459) scale(0.1 -0.1)">
       <defs>
        <path id="SimHei-33" d="M 250 1225 
L 700 1300 
Q 800 975 1025 762 
Q 1250 550 1587 562 
Q 1925 575 2125 837 
Q 2325 1100 2300 1437 
Q 2275 1775 2037 1962 
Q 1800 2150 1275 2225 
L 1275 2550 
Q 1800 2600 2037 2825 
Q 2275 3050 2250 3412 
Q 2225 3775 1925 3937 
Q 1625 4100 1287 3975 
Q 950 3850 750 3275 
L 300 3350 
Q 450 3800 712 4100 
Q 975 4400 1425 4450 
Q 1875 4500 2212 4337 
Q 2550 4175 2687 3837 
Q 2825 3500 2725 3100 
Q 2625 2700 2150 2400 
Q 2500 2250 2687 1950 
Q 2875 1650 2812 1162 
Q 2750 675 2375 375 
Q 2000 75 1525 87 
Q 1050 100 700 387 
Q 350 675 250 1225 
z
" transform="scale(0.015625)"/>
       </defs>
       <use xlink:href="#SimHei-33"/>
       <use xlink:href="#SimHei-30" x="50"/>
       <use xlink:href="#SimHei-30" x="100"/>
      </g>
     </g>
    </g>
    <g id="text_8">
     <!-- number -->
     <g transform="translate(221.16 333.584) scale(0.1 -0.1)">
      <defs>
       <path id="SimHei-6e" d="M 2800 125 
L 2300 125 
L 2300 1925 
Q 2300 2225 2150 2400 
Q 2000 2575 1750 2575 
Q 1425 2575 1137 2237 
Q 850 1900 850 1400 
L 850 125 
L 350 125 
L 350 2925 
L 850 2925 
L 850 2400 
Q 1050 2675 1287 2825 
Q 1525 2975 1900 2975 
Q 2350 2975 2575 2725 
Q 2800 2475 2800 2100 
L 2800 125 
z
" transform="scale(0.015625)"/>
       <path id="SimHei-75" d="M 2800 125 
L 2300 125 
L 2300 650 
Q 2100 375 1862 225 
Q 1625 75 1250 75 
Q 800 75 575 325 
Q 350 575 350 950 
L 350 2925 
L 850 2925 
L 850 1125 
Q 850 825 1000 650 
Q 1150 475 1400 475 
Q 1725 475 2012 812 
Q 2300 1150 2300 1650 
L 2300 2925 
L 2800 2925 
L 2800 125 
z
" transform="scale(0.015625)"/>
       <path id="SimHei-6d" d="M 3050 125 
L 2550 125 
L 2550 2150 
Q 2550 2300 2500 2400 
Q 2450 2500 2300 2500 
Q 2125 2500 1975 2312 
Q 1825 2125 1825 1825 
L 1825 125 
L 1325 125 
L 1325 2150 
Q 1325 2300 1275 2400 
Q 1225 2500 1075 2500 
Q 900 2500 750 2312 
Q 600 2125 600 1825 
L 600 125 
L 100 125 
L 100 2925 
L 600 2925 
L 600 2550 
Q 725 2750 900 2862 
Q 1075 2975 1275 2975 
Q 1475 2975 1612 2862 
Q 1750 2750 1800 2550 
Q 1925 2750 2087 2862 
Q 2250 2975 2450 2975 
Q 2750 2975 2900 2812 
Q 3050 2650 3050 2350 
L 3050 125 
z
" transform="scale(0.015625)"/>
       <path id="SimHei-62" d="M 2825 1525 
Q 2825 800 2475 437 
Q 2125 75 1625 75 
Q 1350 75 1150 175 
Q 950 275 800 500 
L 800 125 
L 300 125 
L 300 4400 
L 800 4400 
L 800 2550 
Q 950 2775 1150 2887 
Q 1350 3000 1625 3000 
Q 2125 3000 2475 2625 
Q 2825 2250 2825 1525 
z
M 2275 1525 
Q 2275 2000 2087 2275 
Q 1900 2550 1525 2550 
Q 1225 2550 1012 2275 
Q 800 2000 800 1525 
Q 800 1050 1012 787 
Q 1225 525 1525 525 
Q 1900 525 2087 787 
Q 2275 1050 2275 1525 
z
" transform="scale(0.015625)"/>
       <path id="SimHei-65" d="M 2850 1075 
Q 2800 625 2450 350 
Q 2100 75 1625 75 
Q 1025 75 637 462 
Q 250 850 250 1525 
Q 250 2200 637 2587 
Q 1025 2975 1625 2975 
Q 2150 2975 2487 2637 
Q 2825 2300 2825 1525 
L 800 1525 
Q 800 975 1037 750 
Q 1275 525 1625 525 
Q 1900 525 2075 662 
Q 2250 800 2300 1075 
L 2850 1075 
z
M 2250 1925 
Q 2200 2275 2025 2412 
Q 1850 2550 1575 2550 
Q 1325 2550 1125 2412 
Q 925 2275 825 1925 
L 2250 1925 
z
" transform="scale(0.015625)"/>
       <path id="SimHei-72" d="M 2500 2425 
Q 2025 2500 1700 2287 
Q 1375 2075 1150 1550 
L 1150 125 
L 650 125 
L 650 2925 
L 1150 2925 
L 1150 2200 
Q 1375 2600 1712 2787 
Q 2050 2975 2500 2975 
L 2500 2425 
z
" transform="scale(0.015625)"/>
      </defs>
      <use xlink:href="#SimHei-6e"/>
      <use xlink:href="#SimHei-75" x="50"/>
      <use xlink:href="#SimHei-6d" x="100"/>
      <use xlink:href="#SimHei-62" x="150"/>
      <use xlink:href="#SimHei-65" x="200"/>
      <use xlink:href="#SimHei-72" x="250"/>
     </g>
    </g>
   </g>
   <g id="matplotlib.axis_2">
    <g id="ytick_1">
     <g id="line2d_8">
      <defs>
       <path id="mc40b640700" d="M 0 0 
L -3.5 0 
" style="stroke: #000000; stroke-width: 0.8"/>
      </defs>
      <g>
       <use xlink:href="#mc40b640700" x="57.6" y="288.516963" style="stroke: #000000; stroke-width: 0.8"/>
      </g>
     </g>
     <g id="text_9">
      <!-- 25 -->
      <g transform="translate(40.6 291.954463) scale(0.1 -0.1)">
       <use xlink:href="#SimHei-32"/>
       <use xlink:href="#SimHei-35" x="50"/>
      </g>
     </g>
    </g>
    <g id="ytick_2">
     <g id="line2d_9">
      <g>
       <use xlink:href="#mc40b640700" x="57.6" y="256.924106" style="stroke: #000000; stroke-width: 0.8"/>
      </g>
     </g>
     <g id="text_10">
      <!-- 50 -->
      <g transform="translate(40.6 260.361606) scale(0.1 -0.1)">
       <use xlink:href="#SimHei-35"/>
       <use xlink:href="#SimHei-30" x="50"/>
      </g>
     </g>
    </g>
    <g id="ytick_3">
     <g id="line2d_10">
      <g>
       <use xlink:href="#mc40b640700" x="57.6" y="225.331249" style="stroke: #000000; stroke-width: 0.8"/>
      </g>
     </g>
     <g id="text_11">
      <!-- 75 -->
      <g transform="translate(40.6 228.768749) scale(0.1 -0.1)">
       <defs>
        <path id="SimHei-37" d="M 850 150 
Q 1300 2050 2425 3925 
L 275 3925 
L 275 4375 
L 2950 4375 
L 2950 3950 
Q 1775 2050 1400 150 
L 850 150 
z
" transform="scale(0.015625)"/>
       </defs>
       <use xlink:href="#SimHei-37"/>
       <use xlink:href="#SimHei-35" x="50"/>
      </g>
     </g>
    </g>
    <g id="ytick_4">
     <g id="line2d_11">
      <g>
       <use xlink:href="#mc40b640700" x="57.6" y="193.738392" style="stroke: #000000; stroke-width: 0.8"/>
      </g>
     </g>
     <g id="text_12">
      <!-- 100 -->
      <g transform="translate(35.6 197.175892) scale(0.1 -0.1)">
       <use xlink:href="#SimHei-31"/>
       <use xlink:href="#SimHei-30" x="50"/>
       <use xlink:href="#SimHei-30" x="100"/>
      </g>
     </g>
    </g>
    <g id="ytick_5">
     <g id="line2d_12">
      <g>
       <use xlink:href="#mc40b640700" x="57.6" y="162.145535" style="stroke: #000000; stroke-width: 0.8"/>
      </g>
     </g>
     <g id="text_13">
      <!-- 125 -->
      <g transform="translate(35.6 165.583035) scale(0.1 -0.1)">
       <use xlink:href="#SimHei-31"/>
       <use xlink:href="#SimHei-32" x="50"/>
       <use xlink:href="#SimHei-35" x="100"/>
      </g>
     </g>
    </g>
    <g id="ytick_6">
     <g id="line2d_13">
      <g>
       <use xlink:href="#mc40b640700" x="57.6" y="130.552678" style="stroke: #000000; stroke-width: 0.8"/>
      </g>
     </g>
     <g id="text_14">
      <!-- 150 -->
      <g transform="translate(35.6 133.990178) scale(0.1 -0.1)">
       <use xlink:href="#SimHei-31"/>
       <use xlink:href="#SimHei-35" x="50"/>
       <use xlink:href="#SimHei-30" x="100"/>
      </g>
     </g>
    </g>
    <g id="ytick_7">
     <g id="line2d_14">
      <g>
       <use xlink:href="#mc40b640700" x="57.6" y="98.959821" style="stroke: #000000; stroke-width: 0.8"/>
      </g>
     </g>
     <g id="text_15">
      <!-- 175 -->
      <g transform="translate(35.6 102.397321) scale(0.1 -0.1)">
       <use xlink:href="#SimHei-31"/>
       <use xlink:href="#SimHei-37" x="50"/>
       <use xlink:href="#SimHei-35" x="100"/>
      </g>
     </g>
    </g>
    <g id="ytick_8">
     <g id="line2d_15">
      <g>
       <use xlink:href="#mc40b640700" x="57.6" y="67.366964" style="stroke: #000000; stroke-width: 0.8"/>
      </g>
     </g>
     <g id="text_16">
      <!-- 200 -->
      <g transform="translate(35.6 70.804464) scale(0.1 -0.1)">
       <use xlink:href="#SimHei-32"/>
       <use xlink:href="#SimHei-30" x="50"/>
       <use xlink:href="#SimHei-30" x="100"/>
      </g>
     </g>
    </g>
    <g id="text_17">
     <!-- tool wear ($\mu m$) -->
     <g transform="translate(29.5 212.628) rotate(-90) scale(0.1 -0.1)">
      <defs>
       <path id="SimHei-74" d="M 2750 200 
Q 2625 150 2462 112 
Q 2300 75 2025 75 
Q 1575 75 1300 325 
Q 1025 575 1025 1025 
L 1025 2525 
L 175 2525 
L 175 2925 
L 1025 2925 
L 1025 3900 
L 1525 3900 
L 1525 2925 
L 2550 2925 
L 2550 2525 
L 1525 2525 
L 1525 1000 
Q 1525 800 1625 662 
Q 1725 525 2000 525 
Q 2275 525 2450 575 
Q 2625 625 2750 700 
L 2750 200 
z
" transform="scale(0.015625)"/>
       <path id="SimHei-6f" d="M 2925 1525 
Q 2925 875 2525 475 
Q 2125 75 1575 75 
Q 1025 75 625 475 
Q 225 875 225 1525 
Q 225 2175 625 2575 
Q 1025 2975 1575 2975 
Q 2125 2975 2525 2575 
Q 2925 2175 2925 1525 
z
M 2375 1525 
Q 2375 2025 2125 2275 
Q 1875 2525 1575 2525 
Q 1275 2525 1025 2275 
Q 775 2025 775 1525 
Q 775 1025 1025 775 
Q 1275 525 1575 525 
Q 1875 525 2125 775 
Q 2375 1025 2375 1525 
z
" transform="scale(0.015625)"/>
       <path id="SimHei-6c" d="M 1825 125 
L 1325 125 
L 1325 4400 
L 1825 4400 
L 1825 125 
z
" transform="scale(0.015625)"/>
       <path id="SimHei-20" transform="scale(0.015625)"/>
       <path id="SimHei-77" d="M 3075 2925 
L 2450 75 
L 1975 75 
L 1575 2250 
L 1525 2250 
L 1125 75 
L 650 75 
L 25 2925 
L 550 2925 
L 875 1050 
L 925 1050 
L 1275 2925 
L 1825 2925 
L 2175 1050 
L 2225 1050 
L 2550 2925 
L 3075 2925 
z
" transform="scale(0.015625)"/>
       <path id="SimHei-61" d="M 2875 125 
L 2275 125 
Q 2225 175 2200 262 
Q 2175 350 2175 475 
Q 2000 275 1750 175 
Q 1500 75 1225 75 
Q 825 75 550 275 
Q 275 475 275 850 
Q 275 1225 525 1450 
Q 775 1675 1300 1750 
Q 1650 1800 1912 1875 
Q 2175 1950 2175 2075 
Q 2175 2225 2062 2375 
Q 1950 2525 1575 2525 
Q 1275 2525 1137 2412 
Q 1000 2300 950 2100 
L 400 2100 
Q 450 2500 762 2737 
Q 1075 2975 1575 2975 
Q 2125 2975 2400 2725 
Q 2675 2475 2675 2025 
L 2675 650 
Q 2675 500 2725 375 
Q 2775 250 2875 125 
z
M 2175 1050 
L 2175 1550 
Q 2025 1500 1887 1462 
Q 1750 1425 1425 1375 
Q 1050 1325 937 1200 
Q 825 1075 825 900 
Q 825 750 937 637 
Q 1050 525 1275 525 
Q 1500 525 1762 650 
Q 2025 775 2175 1050 
z
" transform="scale(0.015625)"/>
       <path id="SimHei-28" d="M 2975 -200 
L 2700 -475 
Q 2075 125 1762 775 
Q 1450 1425 1450 2250 
Q 1450 3075 1762 3725 
Q 2075 4375 2700 5000 
L 2975 4725 
Q 2400 4175 2112 3587 
Q 1825 3000 1825 2250 
Q 1825 1500 2112 912 
Q 2400 325 2975 -200 
z
" transform="scale(0.015625)"/>
       <path id="DejaVuSans-Oblique-3bc" d="M -84 -1331 
L 856 3500 
L 1434 3500 
L 1009 1322 
Q 997 1256 987 1175 
Q 978 1094 978 1013 
Q 978 722 1161 565 
Q 1344 409 1684 409 
Q 2147 409 2431 671 
Q 2716 934 2816 1459 
L 3213 3500 
L 3788 3500 
L 3266 809 
Q 3253 750 3248 706 
Q 3244 663 3244 628 
Q 3244 531 3283 486 
Q 3322 441 3406 441 
Q 3438 441 3492 456 
Q 3547 472 3647 513 
L 3559 50 
Q 3422 -19 3297 -55 
Q 3172 -91 3053 -91 
Q 2847 -91 2730 40 
Q 2613 172 2613 403 
Q 2438 153 2195 31 
Q 1953 -91 1625 -91 
Q 1334 -91 1117 43 
Q 900 178 831 397 
L 494 -1331 
L -84 -1331 
z
" transform="scale(0.015625)"/>
       <path id="DejaVuSans-Oblique-6d" d="M 5747 2113 
L 5338 0 
L 4763 0 
L 5166 2094 
Q 5191 2228 5203 2325 
Q 5216 2422 5216 2491 
Q 5216 2772 5059 2928 
Q 4903 3084 4622 3084 
Q 4203 3084 3875 2770 
Q 3547 2456 3450 1953 
L 3066 0 
L 2491 0 
L 2900 2094 
Q 2925 2209 2937 2307 
Q 2950 2406 2950 2484 
Q 2950 2769 2794 2926 
Q 2638 3084 2363 3084 
Q 1938 3084 1609 2770 
Q 1281 2456 1184 1953 
L 800 0 
L 225 0 
L 909 3500 
L 1484 3500 
L 1375 2956 
Q 1609 3263 1923 3423 
Q 2238 3584 2597 3584 
Q 2978 3584 3223 3384 
Q 3469 3184 3519 2828 
Q 3781 3197 4126 3390 
Q 4472 3584 4856 3584 
Q 5306 3584 5551 3325 
Q 5797 3066 5797 2591 
Q 5797 2488 5784 2364 
Q 5772 2241 5747 2113 
z
" transform="scale(0.015625)"/>
       <path id="SimHei-29" d="M 1675 2250 
Q 1675 1425 1362 775 
Q 1050 125 425 -475 
L 150 -200 
Q 725 325 1012 912 
Q 1300 1500 1300 2250 
Q 1300 3000 1012 3587 
Q 725 4175 150 4725 
L 425 5000 
Q 1050 4375 1362 3725 
Q 1675 3075 1675 2250 
z
" transform="scale(0.015625)"/>
      </defs>
      <use xlink:href="#SimHei-74" transform="translate(0 0.875)"/>
      <use xlink:href="#SimHei-6f" transform="translate(50 0.875)"/>
      <use xlink:href="#SimHei-6f" transform="translate(100 0.875)"/>
      <use xlink:href="#SimHei-6c" transform="translate(150 0.875)"/>
      <use xlink:href="#SimHei-20" transform="translate(200 0.875)"/>
      <use xlink:href="#SimHei-77" transform="translate(250 0.875)"/>
      <use xlink:href="#SimHei-65" transform="translate(300 0.875)"/>
      <use xlink:href="#SimHei-61" transform="translate(350 0.875)"/>
      <use xlink:href="#SimHei-72" transform="translate(400 0.875)"/>
      <use xlink:href="#SimHei-20" transform="translate(450 0.875)"/>
      <use xlink:href="#SimHei-28" transform="translate(500 0.875)"/>
      <use xlink:href="#DejaVuSans-Oblique-3bc" transform="translate(550 0.875)"/>
      <use xlink:href="#DejaVuSans-Oblique-6d" transform="translate(613.623047 0.875)"/>
      <use xlink:href="#SimHei-29" transform="translate(711.035156 0.875)"/>
     </g>
    </g>
   </g>
   <g id="line2d_16">
    <path d="M 73.832727 295.488 
L 75.900591 285.771078 
L 77.968454 277.436881 
L 80.036317 270.331825 
L 82.104181 264.314706 
L 84.172044 259.255972 
L 86.239907 255.03702 
L 88.307771 251.549536 
L 90.375634 248.69485 
L 92.443497 246.383333 
L 94.511361 244.533812 
L 96.579224 243.073016 
L 98.647087 241.935047 
L 100.714951 241.060875 
L 102.782814 240.397862 
L 105.884609 239.698608 
L 108.986404 239.235789 
L 116.223926 238.497609 
L 121.393584 237.860108 
L 125.529311 237.119505 
L 129.665038 236.112145 
L 133.800764 234.81563 
L 137.936491 233.232981 
L 142.072218 231.386699 
L 146.207944 229.313591 
L 151.377603 226.47494 
L 159.649056 221.609111 
L 169.988373 215.557966 
L 175.158031 212.770739 
L 180.32769 210.249632 
L 184.463416 208.465323 
L 188.599143 206.912625 
L 192.73487 205.606499 
L 196.870596 204.554419 
L 201.006323 203.756584 
L 205.14205 203.206278 
L 209.277776 202.89033 
L 213.413503 202.789686 
L 279.58513 202.789686 
L 281.652994 202.016309 
L 284.754789 200.628639 
L 287.856584 199.035397 
L 290.958379 197.232573 
L 294.060174 195.217527 
L 297.161969 192.988989 
L 300.263764 190.547051 
L 304.39949 186.961856 
L 308.535217 183.007032 
L 312.670944 178.693636 
L 316.806671 174.036547 
L 320.942397 169.054234 
L 325.078124 163.768484 
L 330.247782 156.772645 
L 335.417441 149.39592 
L 341.621031 140.125551 
L 348.858552 128.874856 
L 360.231801 110.681881 
L 372.638981 90.886323 
L 379.876503 79.718827 
L 386.080093 70.52747 
L 391.249751 63.206952 
L 396.419409 56.244025 
L 398.487273 53.568 
L 398.487273 53.568 
" clip-path="url(#pd43e4da1d7)" style="fill: none; stroke: #1f77b4; stroke-width: 1.5; stroke-linecap: square"/>
   </g>
   <g id="line2d_17">
    <path d="M 73.832727 282.03142 
L 74.866659 282.03142 
L 75.900591 281.581823 
L 76.934522 281.477817 
L 77.968454 280.895109 
L 79.002386 279.909746 
L 80.036317 272.640641 
L 81.070249 269.609528 
L 82.104181 269.498411 
L 83.138112 268.406395 
L 84.172044 265.517343 
L 85.205976 261.216576 
L 86.239907 260.957175 
L 87.273839 259.618196 
L 88.307771 255.68786 
L 89.341702 257.178759 
L 90.375634 255.510705 
L 91.409566 256.283557 
L 92.443497 253.545706 
L 93.477429 253.750243 
L 94.511361 252.745742 
L 95.545292 253.064592 
L 96.579224 252.527606 
L 97.613156 251.744417 
L 98.647087 251.24282 
L 99.681019 248.505499 
L 100.714951 251.14912 
L 101.748882 248.105126 
L 102.782814 247.519712 
L 103.816746 247.380485 
L 104.850677 244.831687 
L 105.884609 243.999231 
L 106.918541 246.516903 
L 107.952472 247.388473 
L 108.986404 245.969861 
L 110.020336 241.900381 
L 111.054268 245.092279 
L 112.088199 242.936028 
L 113.122131 242.288147 
L 114.156063 242.803493 
L 115.189994 244.588984 
L 116.223926 241.910504 
L 117.257858 241.800472 
L 118.291789 242.293411 
L 119.325721 241.44337 
L 120.359653 240.077322 
L 122.427516 241.055835 
L 124.495379 238.679974 
L 125.529311 238.924932 
L 126.563243 240.12807 
L 127.597174 239.023072 
L 129.665038 237.503321 
L 130.698969 237.281126 
L 131.732901 235.727197 
L 132.766833 235.961935 
L 133.800764 234.118842 
L 134.834696 236.911948 
L 135.868628 237.186226 
L 136.902559 236.974386 
L 137.936491 235.56257 
L 138.970423 234.338945 
L 140.004354 237.625795 
L 141.038286 235.343113 
L 142.072218 236.385982 
L 143.106149 231.192877 
L 144.140081 233.109515 
L 145.174013 233.545816 
L 146.207944 231.158564 
L 147.241876 231.484259 
L 148.275808 229.382873 
L 149.309739 232.055925 
L 150.343671 230.501658 
L 151.377603 230.006014 
L 152.411534 227.812409 
L 154.479398 225.56836 
L 155.513329 227.54139 
L 156.547261 224.139334 
L 157.581193 222.586176 
L 158.615124 223.83646 
L 159.649056 224.111287 
L 160.682988 223.988852 
L 161.71692 219.979139 
L 162.750851 219.635 
L 163.784783 220.64072 
L 164.818715 221.051819 
L 165.852646 218.715955 
L 166.886578 219.627344 
L 167.92051 218.291927 
L 168.954441 217.780182 
L 169.988373 218.8446 
L 171.022305 216.21772 
L 172.056236 216.693435 
L 173.090168 210.611483 
L 174.1241 209.63002 
L 175.158031 209.572547 
L 176.191963 210.269455 
L 177.225895 209.299176 
L 178.259826 209.051277 
L 179.293758 207.81022 
L 180.32769 207.756141 
L 181.361621 208.048728 
L 182.395553 207.15853 
L 183.429485 206.534936 
L 184.463416 205.626236 
L 185.497348 206.711537 
L 186.53128 206.834725 
L 187.565211 205.049615 
L 188.599143 205.500224 
L 189.633075 206.574263 
L 191.700938 204.707683 
L 192.73487 205.043261 
L 193.768801 205.146829 
L 194.802733 203.912318 
L 195.836665 204.289701 
L 196.870596 204.266658 
L 197.904528 204.061412 
L 198.93846 204.187165 
L 199.972391 203.96873 
L 201.006323 204.153651 
L 202.040255 203.574128 
L 203.074186 194.491413 
L 204.108118 203.606282 
L 205.14205 203.557062 
L 206.175981 202.715409 
L 207.209913 202.967242 
L 208.243845 203.428639 
L 209.277776 203.178108 
L 210.311708 203.553784 
L 211.34564 203.33452 
L 212.379572 203.604797 
L 213.413503 202.827152 
L 214.447435 203.130644 
L 215.481367 202.430178 
L 216.515298 203.66277 
L 217.54923 203.928197 
L 219.617093 203.349136 
L 220.651025 203.455539 
L 221.684957 203.995378 
L 222.718888 203.370733 
L 223.75282 203.182649 
L 224.786752 203.239668 
L 225.820683 203.555153 
L 226.854615 205.081123 
L 227.888547 204.007893 
L 228.922478 183.956957 
L 229.95641 204.315221 
L 230.990342 204.489036 
L 232.024273 205.111233 
L 234.092137 203.829489 
L 237.193932 204.136278 
L 238.227863 203.64395 
L 239.261795 206.823454 
L 240.295727 206.598588 
L 241.329658 205.42988 
L 242.36359 204.633541 
L 243.397522 205.914716 
L 246.499317 205.522437 
L 247.533248 205.807205 
L 248.56718 205.273429 
L 249.601112 205.802558 
L 251.668975 204.985991 
L 252.702907 205.185654 
L 253.736838 204.611482 
L 254.77077 204.768231 
L 255.804702 204.67471 
L 256.838633 204.953673 
L 257.872565 203.905656 
L 258.906497 204.137222 
L 259.940428 204.79246 
L 260.97436 204.917422 
L 262.008292 204.055926 
L 263.042224 204.854213 
L 264.076155 203.730424 
L 267.17795 203.810071 
L 268.211882 204.282643 
L 270.279745 203.789516 
L 271.313677 203.98539 
L 272.347609 203.347459 
L 273.38154 203.158035 
L 274.415472 203.795783 
L 275.449404 202.997843 
L 276.483335 203.021388 
L 277.517267 200.476527 
L 278.551199 202.873614 
L 280.619062 203.134645 
L 281.652994 202.851506 
L 282.686925 202.957311 
L 283.720857 202.371115 
L 284.754789 202.894353 
L 285.78872 202.641016 
L 286.822652 201.134985 
L 287.856584 201.399111 
L 288.890515 200.390314 
L 289.924447 198.683357 
L 290.958379 200.953959 
L 291.99231 200.361814 
L 293.026242 198.61312 
L 294.060174 199.835925 
L 295.094105 199.38254 
L 297.161969 196.11475 
L 298.1959 192.112606 
L 299.229832 195.350787 
L 300.263764 192.290913 
L 301.297695 193.848053 
L 302.331627 194.945357 
L 303.365559 193.640754 
L 304.39949 191.269979 
L 305.433422 190.44809 
L 306.467354 188.265582 
L 307.501285 186.765683 
L 308.535217 187.861579 
L 309.569149 187.241812 
L 310.60308 183.127182 
L 311.637012 181.697096 
L 312.670944 183.004891 
L 313.704876 178.259175 
L 314.738807 178.580338 
L 315.772739 176.148022 
L 316.806671 176.501687 
L 317.840602 174.917301 
L 318.874534 171.184681 
L 319.908466 171.206972 
L 320.942397 171.820558 
L 321.976329 171.740323 
L 323.010261 168.225242 
L 324.044192 168.347003 
L 325.078124 166.695213 
L 326.112056 167.136403 
L 327.145987 164.74029 
L 328.179919 164.269655 
L 329.213851 160.520106 
L 330.247782 159.50886 
L 331.281714 149.784888 
L 332.315646 158.2047 
L 333.349577 157.678551 
L 334.383509 156.697676 
L 335.417441 152.543864 
L 336.451372 149.71896 
L 337.485304 152.398433 
L 338.519236 151.109574 
L 339.553167 148.322368 
L 340.587099 149.766049 
L 341.621031 145.035122 
L 342.654962 143.003473 
L 343.688894 142.574759 
L 344.722826 140.752308 
L 345.756757 138.144702 
L 346.790689 138.824573 
L 347.824621 132.313598 
L 348.858552 130.92632 
L 349.892484 132.090343 
L 350.926416 124.926647 
L 351.960347 124.509252 
L 352.994279 125.060122 
L 354.028211 121.400256 
L 355.062142 121.282574 
L 356.096074 118.646911 
L 357.130006 119.35399 
L 358.163937 116.684178 
L 360.231801 114.295354 
L 361.265732 112.078609 
L 362.299664 110.795091 
L 363.333596 108.65432 
L 365.401459 104.829895 
L 366.435391 109.51059 
L 367.469323 102.830506 
L 368.503254 100.578666 
L 369.537186 101.008209 
L 370.571118 99.664162 
L 371.605049 94.611831 
L 372.638981 93.067958 
L 373.672913 90.850037 
L 374.706844 91.435153 
L 375.740776 95.616308 
L 376.774708 88.391351 
L 377.808639 86.173025 
L 378.842571 84.732295 
L 379.876503 92.201893 
L 380.910434 82.623495 
L 381.944366 80.781376 
L 382.978298 79.389605 
L 384.012229 76.714663 
L 385.046161 74.658755 
L 386.080093 75.555519 
L 387.114024 71.493955 
L 388.147956 72.860523 
L 389.181888 68.856692 
L 390.215819 69.02584 
L 391.249751 65.041985 
L 392.283683 67.998995 
L 393.317614 64.633885 
L 394.351546 63.514599 
L 395.385478 61.639236 
L 396.419409 60.987132 
L 397.453341 61.292416 
L 398.487273 57.661243 
L 398.487273 57.661243 
" clip-path="url(#pd43e4da1d7)" style="fill: none; stroke: #ff7f0e; stroke-width: 1.5; stroke-linecap: square"/>
   </g>
   <g id="patch_3">
    <path d="M 57.6 307.584 
L 57.6 41.472 
" style="fill: none; stroke: #000000; stroke-width: 0.8; stroke-linejoin: miter; stroke-linecap: square"/>
   </g>
   <g id="patch_4">
    <path d="M 414.72 307.584 
L 414.72 41.472 
" style="fill: none; stroke: #000000; stroke-width: 0.8; stroke-linejoin: miter; stroke-linecap: square"/>
   </g>
   <g id="patch_5">
    <path d="M 57.6 307.584 
L 414.72 307.584 
" style="fill: none; stroke: #000000; stroke-width: 0.8; stroke-linejoin: miter; stroke-linecap: square"/>
   </g>
   <g id="patch_6">
    <path d="M 57.6 41.472 
L 414.72 41.472 
" style="fill: none; stroke: #000000; stroke-width: 0.8; stroke-linejoin: miter; stroke-linecap: square"/>
   </g>
   <g id="text_18">
    <!-- No.2 tool wear -->
    <g transform="translate(194.16 35.472) scale(0.12 -0.12)">
     <defs>
      <path id="SimHei-4e" d="M 2850 125 
L 2225 125 
L 850 3225 
L 825 3225 
L 825 125 
L 250 125 
L 250 4400 
L 875 4400 
L 2250 1300 
L 2275 1300 
L 2275 4400 
L 2850 4400 
L 2850 125 
z
" transform="scale(0.015625)"/>
      <path id="SimHei-2e" d="M 1075 125 
L 500 125 
L 500 675 
L 1075 675 
L 1075 125 
z
" transform="scale(0.015625)"/>
     </defs>
     <use xlink:href="#SimHei-4e"/>
     <use xlink:href="#SimHei-6f" x="50"/>
     <use xlink:href="#SimHei-2e" x="100"/>
     <use xlink:href="#SimHei-32" x="150"/>
     <use xlink:href="#SimHei-20" x="200"/>
     <use xlink:href="#SimHei-74" x="250"/>
     <use xlink:href="#SimHei-6f" x="300"/>
     <use xlink:href="#SimHei-6f" x="350"/>
     <use xlink:href="#SimHei-6c" x="400"/>
     <use xlink:href="#SimHei-20" x="450"/>
     <use xlink:href="#SimHei-77" x="500"/>
     <use xlink:href="#SimHei-65" x="550"/>
     <use xlink:href="#SimHei-61" x="600"/>
     <use xlink:href="#SimHei-72" x="650"/>
    </g>
   </g>
   <g id="legend_1">
    <g id="patch_7">
     <path d="M 64.6 75.972 
L 131.6 75.972 
Q 133.6 75.972 133.6 73.972 
L 133.6 48.472 
Q 133.6 46.472 131.6 46.472 
L 64.6 46.472 
Q 62.6 46.472 62.6 48.472 
L 62.6 73.972 
Q 62.6 75.972 64.6 75.972 
z
" style="fill: #ffffff; opacity: 0.8; stroke: #cccccc; stroke-linejoin: miter"/>
    </g>
    <g id="line2d_18">
     <path d="M 66.6 53.972 
L 76.6 53.972 
L 86.6 53.972 
" style="fill: none; stroke: #1f77b4; stroke-width: 1.5; stroke-linecap: square"/>
    </g>
    <g id="text_19">
     <!-- actual -->
     <g transform="translate(94.6 57.472) scale(0.1 -0.1)">
      <defs>
       <path id="SimHei-63" d="M 2850 1250 
Q 2850 725 2487 400 
Q 2125 75 1575 75 
Q 1025 75 625 462 
Q 225 850 225 1525 
Q 225 2200 625 2587 
Q 1025 2975 1575 2975 
Q 2125 2975 2450 2687 
Q 2775 2400 2775 2000 
L 2225 2000 
Q 2200 2300 2012 2412 
Q 1825 2525 1575 2525 
Q 1275 2525 1025 2287 
Q 775 2050 775 1525 
Q 775 1000 1025 762 
Q 1275 525 1575 525 
Q 1900 525 2100 700 
Q 2300 875 2300 1250 
L 2850 1250 
z
" transform="scale(0.015625)"/>
      </defs>
      <use xlink:href="#SimHei-61"/>
      <use xlink:href="#SimHei-63" x="50"/>
      <use xlink:href="#SimHei-74" x="100"/>
      <use xlink:href="#SimHei-75" x="150"/>
      <use xlink:href="#SimHei-61" x="200"/>
      <use xlink:href="#SimHei-6c" x="250"/>
     </g>
    </g>
    <g id="line2d_19">
     <path d="M 66.6 67.222 
L 76.6 67.222 
L 86.6 67.222 
" style="fill: none; stroke: #ff7f0e; stroke-width: 1.5; stroke-linecap: square"/>
    </g>
    <g id="text_20">
     <!-- predict -->
     <g transform="translate(94.6 70.722) scale(0.1 -0.1)">
      <defs>
       <path id="SimHei-70" d="M 2825 1525 
Q 2825 800 2475 425 
Q 2125 50 1625 50 
Q 1350 50 1150 162 
Q 950 275 800 500 
L 800 -800 
L 300 -800 
L 300 2925 
L 800 2925 
L 800 2550 
Q 950 2775 1150 2875 
Q 1350 2975 1625 2975 
Q 2125 2975 2475 2612 
Q 2825 2250 2825 1525 
z
M 2275 1525 
Q 2275 2000 2087 2262 
Q 1900 2525 1525 2525 
Q 1225 2525 1012 2262 
Q 800 2000 800 1525 
Q 800 1050 1012 775 
Q 1225 500 1525 500 
Q 1900 500 2087 775 
Q 2275 1050 2275 1525 
z
" transform="scale(0.015625)"/>
       <path id="SimHei-64" d="M 2750 125 
L 2250 125 
L 2250 500 
Q 2100 275 1900 175 
Q 1700 75 1425 75 
Q 925 75 575 437 
Q 225 800 225 1525 
Q 225 2250 575 2625 
Q 925 3000 1425 3000 
Q 1700 3000 1900 2887 
Q 2100 2775 2250 2550 
L 2250 4400 
L 2750 4400 
L 2750 125 
z
M 2250 1525 
Q 2250 2000 2037 2275 
Q 1825 2550 1525 2550 
Q 1150 2550 962 2275 
Q 775 2000 775 1525 
Q 775 1050 962 787 
Q 1150 525 1525 525 
Q 1825 525 2037 787 
Q 2250 1050 2250 1525 
z
" transform="scale(0.015625)"/>
       <path id="SimHei-69" d="M 1800 3725 
L 1300 3725 
L 1300 4375 
L 1800 4375 
L 1800 3725 
z
M 1800 125 
L 1300 125 
L 1300 2925 
L 1800 2925 
L 1800 125 
z
" transform="scale(0.015625)"/>
      </defs>
      <use xlink:href="#SimHei-70"/>
      <use xlink:href="#SimHei-72" x="50"/>
      <use xlink:href="#SimHei-65" x="100"/>
      <use xlink:href="#SimHei-64" x="150"/>
      <use xlink:href="#SimHei-69" x="200"/>
      <use xlink:href="#SimHei-63" x="250"/>
      <use xlink:href="#SimHei-74" x="300"/>
     </g>
    </g>
   </g>
  </g>
 </g>
 <defs>
  <clipPath id="pd43e4da1d7">
   <rect x="57.6" y="41.472" width="357.12" height="266.112"/>
  </clipPath>
 </defs>
</svg>
